<svg width="75" height="75" viewBox="0 0 75 75" fill="none" xmlns="http://www.w3.org/2000/svg">
<g id="user(4)">
<rect x="0.5" y="0.5" width="74" height="74" rx="3.5" stroke="#FEFEFE"/>
<g id="Group">
<g id="Group_2">
<path id="Vector" d="M38.2309 9C29.8843 9 23.0938 15.7905 23.0938 24.1371C23.0938 32.4837 29.8843 39.2742 38.2309 39.2742C46.5775 39.2742 53.368 32.4837 53.368 24.1371C53.368 15.7905 46.5775 9 38.2309 9Z" fill="#FEFEFE"/>
</g>
</g>
<g id="Group_3">
<g id="Group_4">
<path id="Vector_2" d="M57.062 49.158C52.9178 44.9501 47.4239 42.6328 41.5923 42.6328H34.8647C29.0332 42.6328 23.5392 44.9501 19.395 49.158C15.2711 53.3453 13 58.8725 13 64.7218C13 65.6506 13.753 66.4037 14.6819 66.4037H61.7751C62.704 66.4037 63.457 65.6506 63.457 64.7218C63.457 58.8725 61.1859 53.3453 57.062 49.158Z" fill="#FEFEFE"/>
</g>
</g>
</g>
</svg>
