<svg width="86" height="181" viewBox="0 0 86 181" fill="none" xmlns="http://www.w3.org/2000/svg">
<g filter="url(#filter0_dd_5507_19264)">
<mask id="path-1-inside-1_5507_19264" fill="white">
<path fill-rule="evenodd" clip-rule="evenodd" d="M5 31.9832C5 17.0808 17.0808 5 31.9832 5H81.4524V20.0496C68.6901 21.2285 58.9652 27.3411 58.9652 34.7046C58.9652 42.0681 68.6901 48.1807 81.4524 49.3596V57.2212C68.6901 58.4 58.9652 64.5127 58.9652 71.8762C58.9652 79.2397 68.6901 85.3523 81.4524 86.5311V96.846C68.6901 98.0249 58.9652 104.137 58.9652 111.501C58.9652 118.865 68.6901 124.977 81.4524 126.156V136.475C68.6901 137.654 58.9652 143.767 58.9652 151.13C58.9652 158.494 68.6901 164.607 81.4524 165.785V175.894H31.9832C17.0808 175.894 5 163.813 5 148.91V31.9832Z"/>
</mask>
<path fill-rule="evenodd" clip-rule="evenodd" d="M5 31.9832C5 17.0808 17.0808 5 31.9832 5H81.4524V20.0496C68.6901 21.2285 58.9652 27.3411 58.9652 34.7046C58.9652 42.0681 68.6901 48.1807 81.4524 49.3596V57.2212C68.6901 58.4 58.9652 64.5127 58.9652 71.8762C58.9652 79.2397 68.6901 85.3523 81.4524 86.5311V96.846C68.6901 98.0249 58.9652 104.137 58.9652 111.501C58.9652 118.865 68.6901 124.977 81.4524 126.156V136.475C68.6901 137.654 58.9652 143.767 58.9652 151.13C58.9652 158.494 68.6901 164.607 81.4524 165.785V175.894H31.9832C17.0808 175.894 5 163.813 5 148.91V31.9832Z" fill="#D9D9D9"/>
<path d="M81.4524 5H82.2395V4.21299H81.4524V5ZM81.4524 20.0496L81.5248 20.8333L82.2395 20.7673V20.0496H81.4524ZM81.4524 49.3596H82.2395V48.6419L81.5248 48.5759L81.4524 49.3596ZM81.4524 57.2212L81.5248 58.0049L82.2395 57.9389V57.2212H81.4524ZM81.4524 86.5311H82.2395V85.8135L81.5248 85.7475L81.4524 86.5311ZM81.4524 96.846L81.5248 97.6297L82.2395 97.5637V96.846H81.4524ZM81.4524 126.156H82.2395V125.438L81.5248 125.372L81.4524 126.156ZM81.4524 136.475L81.5248 137.259L82.2395 137.193V136.475H81.4524ZM81.4524 165.785H82.2395V165.068L81.5248 165.002L81.4524 165.785ZM81.4524 175.894V176.681H82.2395V175.894H81.4524ZM31.9832 4.21299C16.6461 4.21299 4.21299 16.6462 4.21299 31.9832H5.78701C5.78701 17.5155 17.5155 5.78701 31.9832 5.78701V4.21299ZM81.4524 4.21299H31.9832V5.78701H81.4524V4.21299ZM82.2395 20.0496V5H80.6654V20.0496H82.2395ZM59.7522 34.7046C59.7522 31.3987 61.938 28.241 65.8494 25.7193C69.7465 23.2068 75.2394 21.4139 81.5248 20.8333L81.3801 19.266C74.9031 19.8642 69.1524 21.717 64.9965 24.3964C60.8548 27.0666 58.1782 30.647 58.1782 34.7046H59.7522ZM81.5248 48.5759C75.2394 47.9953 69.7465 46.2024 65.8494 43.6899C61.938 41.1682 59.7522 38.0105 59.7522 34.7046H58.1782C58.1782 38.7623 60.8548 42.3426 64.9965 45.0128C69.1524 47.6922 74.9031 49.545 81.3801 50.1432L81.5248 48.5759ZM82.2395 57.2212V49.3596H80.6654V57.2212H82.2395ZM59.7522 71.8762C59.7522 68.5703 61.938 65.4126 65.8494 62.8909C69.7465 60.3784 75.2394 58.5855 81.5248 58.0049L81.3801 56.4375C74.9031 57.0358 69.1524 58.8886 64.9965 61.568C60.8548 64.2382 58.1782 67.8185 58.1782 71.8762H59.7522ZM81.5248 85.7475C75.2394 85.1669 69.7465 83.374 65.8494 80.8615C61.938 78.3397 59.7522 75.182 59.7522 71.8762H58.1782C58.1782 75.9338 60.8548 79.5142 64.9965 82.1844C69.1524 84.8638 74.9031 86.7166 81.3801 87.3148L81.5248 85.7475ZM82.2395 96.846V86.5311H80.6654V96.846H82.2395ZM59.7522 111.501C59.7522 108.195 61.938 105.037 65.8494 102.516C69.7465 100.003 75.2394 98.2103 81.5248 97.6297L81.3801 96.0624C74.9031 96.6606 69.1524 98.5134 64.9965 101.193C60.8548 103.863 58.1782 107.443 58.1782 111.501H59.7522ZM81.5248 125.372C75.2394 124.792 69.7465 122.999 65.8494 120.486C61.938 117.965 59.7522 114.807 59.7522 111.501H58.1782C58.1782 115.559 60.8548 119.139 64.9965 121.809C69.1524 124.489 74.9031 126.341 81.3801 126.94L81.5248 125.372ZM82.2395 136.475V126.156H80.6654V136.475H82.2395ZM59.7522 151.13C59.7522 147.825 61.938 144.667 65.8494 142.145C69.7465 139.633 75.2394 137.84 81.5248 137.259L81.3801 135.692C74.9031 136.29 69.1524 138.143 64.9965 140.822C60.8548 143.492 58.1782 147.073 58.1782 151.13H59.7522ZM81.5248 165.002C75.2394 164.421 69.7465 162.628 65.8494 160.116C61.938 157.594 59.7522 154.436 59.7522 151.13H58.1782C58.1782 155.188 60.8548 158.768 64.9965 161.439C69.1524 164.118 74.9031 165.971 81.3801 166.569L81.5248 165.002ZM82.2395 175.894V165.785H80.6654V175.894H82.2395ZM31.9832 176.681H81.4524V175.107H31.9832V176.681ZM4.21299 148.91C4.21299 164.248 16.6462 176.681 31.9832 176.681V175.107C17.5155 175.107 5.78701 163.378 5.78701 148.91H4.21299ZM4.21299 31.9832V148.91H5.78701V31.9832H4.21299Z" fill="#D9D9D9" mask="url(#path-1-inside-1_5507_19264)"/>
</g>
<path d="M27.049 135.243L27.049 138.696C26.4827 138.794 25.9811 138.976 25.544 139.24C25.1009 139.505 24.7254 139.834 24.4176 140.228C24.1098 140.622 23.879 141.072 23.7251 141.576C23.5651 142.075 23.4851 142.614 23.4851 143.192C23.4851 144.22 23.7436 145.131 24.2607 145.925C24.7715 146.719 25.5225 147.341 26.5135 147.79C27.4983 148.239 28.7017 148.464 30.1236 148.464C31.5701 148.464 32.7888 148.239 33.7798 147.79C34.7647 147.335 35.5095 146.713 36.0142 145.925C36.5128 145.131 36.7621 144.223 36.7621 143.201C36.7621 142.635 36.6882 142.106 36.5405 141.613C36.3866 141.115 36.1619 140.668 35.8665 140.275C35.571 139.874 35.2079 139.539 34.777 139.268C34.3461 138.991 33.8537 138.8 33.2997 138.696L33.3182 135.243C34.2169 135.372 35.0601 135.652 35.848 136.083C36.6359 136.507 37.3314 137.065 37.9347 137.754C38.5317 138.443 38.9995 139.25 39.3381 140.173C39.6705 141.096 39.8366 142.121 39.8366 143.248C39.8366 144.909 39.4519 146.393 38.6825 147.698C37.9131 149.003 36.8021 150.031 35.3494 150.782C33.8968 151.533 32.1548 151.908 30.1236 151.908C28.0862 151.908 26.3442 151.529 24.8977 150.772C23.4451 150.015 22.334 148.984 21.5646 147.679C20.7952 146.374 20.4105 144.897 20.4105 143.248C20.4105 142.195 20.5582 141.216 20.8537 140.311C21.1491 139.407 21.5831 138.6 22.1555 137.892C22.7218 137.185 23.4174 136.603 24.2422 136.147C25.0608 135.686 25.9964 135.384 27.049 135.243ZM39.8643 128.172C39.8643 129.071 39.7043 129.881 39.3842 130.601C39.058 131.315 38.5779 131.881 37.9439 132.3C37.3099 132.712 36.5282 132.918 35.5987 132.918C34.7985 132.918 34.1368 132.77 33.6136 132.475C33.0904 132.18 32.6719 131.776 32.358 131.265C32.044 130.755 31.8071 130.179 31.647 129.539C31.4808 128.893 31.3608 128.225 31.2869 127.535C31.2008 126.704 31.1238 126.03 31.0561 125.513C30.9822 124.996 30.8714 124.621 30.7237 124.387C30.5698 124.147 30.3329 124.027 30.0128 124.027L29.9574 124.027C29.2618 124.027 28.7232 124.233 28.3416 124.645C27.96 125.058 27.7692 125.652 27.7692 126.427C27.7692 127.246 27.9477 127.895 28.3047 128.376C28.6617 128.849 29.0833 129.17 29.5696 129.336L29.1264 132.456C28.2647 132.21 27.5445 131.804 26.9659 131.238C26.3812 130.671 25.9441 129.979 25.6548 129.16C25.3594 128.342 25.2116 127.437 25.2116 126.446C25.2116 125.763 25.2917 125.082 25.4517 124.405C25.6117 123.728 25.8764 123.11 26.2457 122.55C26.6089 121.989 27.1044 121.54 27.7322 121.202C28.3601 120.857 29.1449 120.684 30.0866 120.684L39.5781 120.684L39.5781 123.898L37.63 123.898L37.63 124.008C38.0239 124.211 38.3932 124.498 38.7379 124.867C39.0765 125.23 39.3504 125.689 39.5597 126.243C39.7628 126.791 39.8643 127.434 39.8643 128.172ZM37.4084 127.305C37.4084 126.634 37.276 126.052 37.0114 125.559C36.7405 125.067 36.3835 124.689 35.9403 124.424C35.4972 124.153 35.014 124.018 34.4908 124.018L32.8196 124.018C32.9058 124.122 32.9858 124.301 33.0597 124.553C33.1335 124.799 33.1982 125.076 33.2535 125.384C33.3089 125.692 33.3582 125.997 33.4013 126.298C33.4444 126.6 33.4813 126.861 33.5121 127.083C33.5798 127.581 33.6906 128.028 33.8445 128.422C33.9983 128.816 34.2138 129.126 34.4908 129.354C34.7616 129.582 35.1125 129.696 35.5433 129.696C36.1589 129.696 36.6236 129.471 36.9375 129.022C37.2514 128.573 37.4084 128 37.4084 127.305ZM29.1449 106.115L29.4773 109.162C29.1695 109.248 28.8802 109.399 28.6094 109.614C28.3385 109.823 28.12 110.107 27.9538 110.464C27.7876 110.821 27.7045 111.258 27.7045 111.775C27.7045 112.47 27.8553 113.055 28.157 113.529C28.4586 113.997 28.8494 114.228 29.3295 114.221C29.7419 114.228 30.0774 114.077 30.3359 113.769C30.5945 113.455 30.8068 112.938 30.973 112.218L31.4901 109.799C31.7794 108.457 32.2379 107.46 32.8658 106.807C33.4936 106.149 34.3153 105.816 35.331 105.81C36.2235 105.816 37.0114 106.078 37.6946 106.595C38.3717 107.106 38.901 107.817 39.2827 108.728C39.6643 109.639 39.8551 110.685 39.8551 111.867C39.8551 113.603 39.4919 115 38.7656 116.059C38.0331 117.117 37.0144 117.748 35.7095 117.952L35.3956 114.692C36.0357 114.545 36.5189 114.231 36.8452 113.751C37.1714 113.27 37.3345 112.646 37.3345 111.876C37.3345 111.082 37.1714 110.445 36.8452 109.965C36.5189 109.479 36.1158 109.236 35.6357 109.236C35.2294 109.236 34.8939 109.393 34.6293 109.706C34.3646 110.014 34.1615 110.494 34.0199 111.147L33.5121 113.566C33.2289 114.926 32.7519 115.933 32.081 116.585C31.4039 117.238 30.5483 117.561 29.5142 117.555C28.6401 117.561 27.883 117.324 27.2429 116.844C26.5966 116.357 26.098 115.683 25.7472 114.822C25.3901 113.954 25.2116 112.953 25.2116 111.821C25.2116 110.159 25.5656 108.851 26.2734 107.897C26.9813 106.937 27.9384 106.343 29.1449 106.115ZM31.2685 99.7118L39.5781 99.7118L39.5781 103.054L20.669 103.054L20.669 99.7857L27.8061 99.7857L27.8061 99.6195C27.0059 99.2871 26.375 98.7731 25.9133 98.0776C25.4455 97.3759 25.2116 96.4834 25.2116 95.4C25.2116 94.4152 25.4178 93.5565 25.8303 92.824C26.2427 92.0916 26.8459 91.5253 27.6399 91.1252C28.4339 90.7189 29.4034 90.5158 30.5483 90.5158L39.5781 90.5158L39.5781 93.8581L31.0653 93.8581C30.1113 93.8581 29.3696 94.1043 28.8402 94.5968C28.3047 95.083 28.0369 95.7663 28.0369 96.6465C28.0369 97.2374 28.1662 97.7667 28.4247 98.2346C28.6771 98.6962 29.0433 99.0594 29.5234 99.324C30.0035 99.5826 30.5852 99.7118 31.2685 99.7118ZM39.5781 86.9611L20.669 86.9611L20.669 83.6188L27.7415 83.6188L27.7415 83.4803C27.3968 83.3079 27.0305 83.0648 26.6428 82.7509C26.2488 82.437 25.9133 82.0123 25.6364 81.4767C25.3532 80.9412 25.2116 80.258 25.2116 79.427C25.2116 78.3314 25.4917 77.3435 26.0518 76.4632C26.6058 75.5769 27.4276 74.8752 28.517 74.3581C29.6004 73.8349 30.9299 73.5733 32.5057 73.5733C34.063 73.5733 35.3864 73.8288 36.4758 74.3397C37.5653 74.8506 38.3963 75.5461 38.9687 76.4263C39.5412 77.3065 39.8274 78.3037 39.8274 79.4178C39.8274 80.2303 39.692 80.9043 39.4212 81.4398C39.1503 81.9753 38.8241 82.4062 38.4425 82.7324C38.0547 83.0525 37.6884 83.3018 37.3437 83.4803L37.3437 83.6742L39.5781 83.6742L39.5781 86.9611ZM32.4872 83.6834C33.4044 83.6834 34.2076 83.5542 34.897 83.2956C35.5864 83.031 36.125 82.6524 36.5128 82.16C36.8944 81.6614 37.0852 81.0582 37.0852 80.3503C37.0852 79.6117 36.8883 78.9931 36.4943 78.4945C36.0942 77.9959 35.5495 77.6204 34.8601 77.3681C34.1645 77.1096 33.3736 76.9803 32.4872 76.9803C31.607 76.9803 30.8253 77.1065 30.142 77.3588C29.4588 77.6112 28.9233 77.9867 28.5355 78.4853C28.1477 78.9838 27.9538 79.6055 27.9538 80.3503C27.9538 81.0643 28.1416 81.6706 28.517 82.1692C28.8925 82.6678 29.4188 83.0463 30.0959 83.3049C30.773 83.5572 31.5701 83.6834 32.4872 83.6834ZM39.8643 66.6509C39.8643 67.5496 39.7043 68.359 39.3842 69.0792C39.058 69.7932 38.5779 70.3595 37.9439 70.7781C37.3099 71.1905 36.5282 71.3967 35.5987 71.3967C34.7985 71.3967 34.1368 71.2489 33.6136 70.9535C33.0904 70.658 32.6719 70.2549 32.358 69.744C32.044 69.2331 31.8071 68.6576 31.647 68.0174C31.4808 67.3711 31.3608 66.7032 31.2869 66.0138C31.2008 65.1829 31.1238 64.5089 31.0561 63.9918C30.9822 63.4748 30.8714 63.0993 30.7237 62.8654C30.5698 62.6254 30.3329 62.5053 30.0128 62.5053L29.9574 62.5053C29.2618 62.5053 28.7232 62.7115 28.3416 63.1239C27.96 63.5363 27.7692 64.1303 27.7692 64.9059C27.7692 65.7245 27.9477 66.3739 28.3047 66.854C28.6617 67.328 29.0833 67.6481 29.5696 67.8143L29.1264 70.935C28.2647 70.6888 27.5445 70.2826 26.9659 69.7163C26.3812 69.15 25.9441 68.4575 25.6548 67.6388C25.3594 66.8202 25.2116 65.9154 25.2116 64.9244C25.2116 64.2411 25.2917 63.561 25.4517 62.8839C25.6117 62.2068 25.8764 61.5882 26.2457 61.0281C26.6089 60.4679 27.1044 60.0186 27.7322 59.68C28.3601 59.3353 29.1449 59.163 30.0866 59.163L39.5781 59.163L39.5781 62.3761L37.63 62.3761L37.63 62.4869C38.0239 62.69 38.3932 62.9762 38.7379 63.3455C39.0765 63.7087 39.3504 64.1673 39.5597 64.7212C39.7628 65.2691 39.8643 65.9123 39.8643 66.6509ZM37.4084 65.783C37.4084 65.1121 37.276 64.5304 37.0114 64.038C36.7405 63.5456 36.3835 63.167 35.9403 62.9023C35.4972 62.6315 35.014 62.4961 34.4908 62.4961L32.8196 62.4961C32.9058 62.6007 32.9858 62.7792 33.0597 63.0316C33.1335 63.2778 33.1981 63.5548 33.2535 63.8626C33.3089 64.1703 33.3582 64.475 33.4013 64.7766C33.4444 65.0782 33.4813 65.3398 33.5121 65.5614C33.5798 66.06 33.6906 66.5063 33.8445 66.9002C33.9983 67.2942 34.2138 67.605 34.4908 67.8327C34.7616 68.0605 35.1124 68.1744 35.5433 68.1744C36.1589 68.1744 36.6236 67.9497 36.9375 67.5004C37.2514 67.051 37.4084 66.4786 37.4084 65.783ZM39.8551 49.6161C39.8551 51.0318 39.5443 52.2475 38.9226 53.2631C38.3009 54.2726 37.4422 55.0513 36.3466 55.5991C35.2448 56.1407 33.9768 56.4116 32.5426 56.4116C31.1023 56.4116 29.8312 56.1346 28.7294 55.5806C27.6214 55.0266 26.7597 54.2449 26.1442 53.2354C25.5225 52.2198 25.2116 51.0195 25.2116 49.6346C25.2116 48.4835 25.424 47.4648 25.8487 46.5785C26.2673 45.686 26.8613 44.975 27.6307 44.4457C28.3939 43.9163 29.2865 43.6147 30.3082 43.5408L30.3082 46.7354C29.625 46.8647 29.0556 47.1725 28.6001 47.6587C28.1385 48.1388 27.9077 48.7821 27.9077 49.5884C27.9077 50.2717 28.0923 50.8718 28.4616 51.3888C28.8248 51.9059 29.348 52.3091 30.0312 52.5984C30.7145 52.8815 31.5331 53.0231 32.4872 53.0231C33.4536 53.0231 34.2846 52.8815 34.9801 52.5984C35.6695 52.3152 36.2019 51.9182 36.5774 51.4073C36.9467 50.8903 37.1314 50.284 37.1314 49.5884C37.1314 49.096 37.0391 48.6559 36.8544 48.2681C36.6636 47.8742 36.3897 47.5449 36.0327 47.2802C35.6757 47.0155 35.2417 46.8339 34.7308 46.7354L34.7308 43.5408C35.7341 43.6209 36.6236 43.9163 37.3991 44.4272C38.1686 44.9381 38.7718 45.6336 39.2088 46.5138C39.6397 47.3941 39.8551 48.4281 39.8551 49.6161ZM35.1278 37.7495L31.093 37.7587L31.093 37.2232L25.3963 32.1266L25.3963 28.2211L32.3764 34.4902L32.3764 35.1827L35.1278 37.7495ZM39.5781 40.7963L20.669 40.7963L20.669 37.454L39.5781 37.454L39.5781 40.7963ZM39.5781 31.8958L33.1243 36.5123L30.7699 34.2594L39.5781 27.8979L39.5781 31.8958Z" fill="#FEFEFE"/>
<defs>
<filter id="filter0_dd_5507_19264" x="0.502798" y="0.502798" width="85.4469" height="179.888" filterUnits="userSpaceOnUse" color-interpolation-filters="sRGB">
<feFlood flood-opacity="0" result="BackgroundImageFix"/>
<feColorMatrix in="SourceAlpha" type="matrix" values="0 0 0 0 0 0 0 0 0 0 0 0 0 0 0 0 0 0 127 0" result="hardAlpha"/>
<feOffset dy="2.2486"/>
<feGaussianBlur stdDeviation="1.1243"/>
<feComposite in2="hardAlpha" operator="out"/>
<feColorMatrix type="matrix" values="0 0 0 0 0 0 0 0 0 0 0 0 0 0 0 0 0 0 0.1 0"/>
<feBlend mode="normal" in2="BackgroundImageFix" result="effect1_dropShadow_5507_19264"/>
<feColorMatrix in="SourceAlpha" type="matrix" values="0 0 0 0 0 0 0 0 0 0 0 0 0 0 0 0 0 0 127 0" result="hardAlpha"/>
<feOffset/>
<feGaussianBlur stdDeviation="2.2486"/>
<feComposite in2="hardAlpha" operator="out"/>
<feColorMatrix type="matrix" values="0 0 0 0 0 0 0 0 0 0 0 0 0 0 0 0 0 0 0.14 0"/>
<feBlend mode="normal" in2="effect1_dropShadow_5507_19264" result="effect2_dropShadow_5507_19264"/>
<feBlend mode="normal" in="SourceGraphic" in2="effect2_dropShadow_5507_19264" result="shape"/>
</filter>
</defs>
</svg>
