<svg width="115" height="236" fill="none" xmlns="http://www.w3.org/2000/svg"><path fill="#fff" d="M0 0h115v236H0z"/><g filter="url(#a)"><mask id="b" fill="#fff"><path fill-rule="evenodd" clip-rule="evenodd" d="M18 67.871c0-14.902 12.08-26.983 26.983-26.983h49.47v15.05c-12.763 1.179-22.488 7.291-22.488 14.655 0 7.363 9.725 13.476 22.487 14.655v7.861c-12.762 1.18-22.487 7.292-22.487 14.655 0 7.364 9.725 13.476 22.487 14.655v10.315c-12.762 1.179-22.487 7.292-22.487 14.655 0 7.364 9.725 13.476 22.487 14.655v10.32c-12.762 1.178-22.487 7.291-22.487 14.655 0 7.363 9.725 13.476 22.487 14.655v10.108H44.983C30.081 211.782 18 199.701 18 184.799V67.871Z"/></mask><path fill-rule="evenodd" clip-rule="evenodd" d="M18 67.871c0-14.902 12.08-26.983 26.983-26.983h49.47v15.05c-12.763 1.179-22.488 7.291-22.488 14.655 0 7.363 9.725 13.476 22.487 14.655v7.861c-12.762 1.18-22.487 7.292-22.487 14.655 0 7.364 9.725 13.476 22.487 14.655v10.315c-12.762 1.179-22.487 7.292-22.487 14.655 0 7.364 9.725 13.476 22.487 14.655v10.32c-12.762 1.178-22.487 7.291-22.487 14.655 0 7.363 9.725 13.476 22.487 14.655v10.108H44.983C30.081 211.782 18 199.701 18 184.799V67.871Z" fill="#D9D9D9"/><path d="M94.452 40.888h.788v-.787h-.788v.787Zm0 15.05.073.783.715-.065v-.718h-.788Zm0 29.31h.788v-.718l-.715-.066-.073.784Zm0 7.861.073.784.715-.066v-.718h-.788Zm0 29.31h.788v-.717l-.715-.066-.073.783Zm0 10.315.073.784.715-.066v-.718h-.788Zm0 29.31h.788v-.718l-.715-.066-.073.784Zm0 10.32.073.783.715-.066v-.717h-.788Zm0 29.31h.788v-.718l-.715-.066-.073.784Zm0 10.108v.787h.788v-.787h-.788ZM44.983 40.102c-15.337 0-27.77 12.432-27.77 27.77h1.574c0-14.468 11.729-26.197 26.196-26.197v-1.574Zm49.47 0h-49.47v1.573h49.47v-1.574Zm.787 15.836v-15.05h-1.575v15.05h1.575ZM72.752 70.593c0-3.306 2.186-6.464 6.097-8.986 3.897-2.512 9.39-4.305 15.676-4.886l-.145-1.567c-6.477.598-12.228 2.451-16.383 5.13-4.142 2.67-6.819 6.251-6.819 10.309h1.574Zm21.773 13.871c-6.286-.58-11.779-2.373-15.676-4.886-3.911-2.522-6.097-5.68-6.097-8.985h-1.574c0 4.057 2.677 7.638 6.819 10.308 4.155 2.68 9.906 4.532 16.383 5.13l.145-1.567Zm.715 8.645v-7.861h-1.575v7.861h1.575Zm-22.488 14.655c0-3.306 2.186-6.463 6.097-8.985 3.897-2.512 9.39-4.305 15.676-4.886l-.145-1.567c-6.477.598-12.228 2.45-16.383 5.13-4.142 2.67-6.819 6.251-6.819 10.308h1.574Zm21.773 13.872c-6.286-.581-11.779-2.374-15.676-4.886-3.911-2.522-6.097-5.68-6.097-8.986h-1.574c0 4.058 2.677 7.638 6.819 10.309 4.155 2.679 9.906 4.532 16.383 5.13l.145-1.567Zm.715 11.098v-10.315h-1.575v10.315h1.575Zm-22.488 14.655c0-3.306 2.186-6.463 6.097-8.985 3.897-2.513 9.39-4.306 15.676-4.886l-.145-1.567c-6.477.598-12.228 2.451-16.383 5.13-4.142 2.67-6.819 6.251-6.819 10.308h1.574Zm21.773 13.871c-6.286-.58-11.779-2.373-15.676-4.886-3.911-2.521-6.097-5.679-6.097-8.985h-1.574c0 4.058 2.677 7.638 6.819 10.308 4.155 2.68 9.906 4.533 16.383 5.131l.145-1.568Zm.715 11.104v-10.32h-1.575v10.32h1.575Zm-22.488 14.655c0-3.306 2.186-6.464 6.097-8.986 3.897-2.512 9.39-4.305 15.676-4.886l-.145-1.567c-6.477.598-12.228 2.451-16.383 5.13-4.142 2.671-6.819 6.251-6.819 10.309h1.574Zm21.773 13.871c-6.286-.581-11.779-2.374-15.676-4.886-3.911-2.522-6.097-5.68-6.097-8.985h-1.574c0 4.057 2.677 7.638 6.819 10.308 4.155 2.679 9.906 4.532 16.383 5.13l.145-1.567Zm.715 10.892v-10.108h-1.575v10.108h1.575Zm-50.257.787h49.47v-1.574h-49.47v1.574Zm-27.77-27.77c0 15.337 12.433 27.77 27.77 27.77v-1.574c-14.467 0-26.196-11.729-26.196-26.196h-1.574Zm0-116.928V184.8h1.574V67.871h-1.574Z" fill="#D9D9D9" mask="url(#b)"/></g><path d="M40.049 171.131v3.453a4.282 4.282 0 0 0-1.505.545 4.038 4.038 0 0 0-1.126.988 4.105 4.105 0 0 0-.693 1.348 5.255 5.255 0 0 0-.24 1.615c0 1.028.259 1.939.776 2.733.51.794 1.261 1.416 2.252 1.865.985.45 2.189.674 3.61.674 1.447 0 2.666-.224 3.657-.674.985-.455 1.73-1.077 2.234-1.865.499-.794.748-1.702.748-2.723 0-.567-.074-1.096-.221-1.589a4.352 4.352 0 0 0-.674-1.338 4.101 4.101 0 0 0-2.567-1.579l.018-3.453a7.427 7.427 0 0 1 2.53.84 7.47 7.47 0 0 1 2.087 1.671 7.708 7.708 0 0 1 1.403 2.419c.332.923.499 1.948.499 3.075 0 1.662-.385 3.145-1.155 4.45-.769 1.305-1.88 2.333-3.333 3.084-1.452.751-3.194 1.126-5.225 1.126-2.038 0-3.78-.378-5.226-1.135-1.453-.758-2.564-1.789-3.333-3.093-.77-1.305-1.154-2.783-1.154-4.432a9.4 9.4 0 0 1 .443-2.936 7.51 7.51 0 0 1 1.302-2.419 6.92 6.92 0 0 1 2.086-1.745c.819-.462 1.754-.764 2.807-.905Zm12.815-7.07c0 .898-.16 1.708-.48 2.428a3.966 3.966 0 0 1-1.44 1.699c-.634.412-1.416.618-2.345.618-.8 0-1.462-.147-1.985-.443a3.424 3.424 0 0 1-1.256-1.209 6.106 6.106 0 0 1-.711-1.727 14.04 14.04 0 0 1-.36-2.003 79.29 79.29 0 0 0-.23-2.023c-.075-.517-.186-.892-.333-1.126-.154-.24-.391-.36-.711-.36h-.056c-.695 0-1.234.206-1.615.619-.382.412-.573 1.006-.573 1.782 0 .818.179 1.468.536 1.948.357.474.778.794 1.265.96l-.444 3.121c-.861-.247-1.581-.653-2.16-1.219a5.303 5.303 0 0 1-1.311-2.077c-.296-.819-.443-1.724-.443-2.715 0-.683.08-1.363.24-2.04.16-.678.424-1.296.794-1.856.363-.56.858-1.01 1.486-1.348.628-.345 1.413-.517 2.355-.517h9.491v3.213H50.63v.111c.394.203.763.489 1.108.858.339.363.612.822.822 1.376.203.548.304 1.191.304 1.93Zm-2.456-.868c0-.671-.132-1.253-.397-1.745a2.935 2.935 0 0 0-1.07-1.136 2.726 2.726 0 0 0-1.45-.406H45.82c.086.104.166.283.24.535.073.246.138.523.194.831.055.308.104.613.147.914l.111.785c.068.499.179.945.332 1.339.154.394.37.705.647.932.27.228.621.342 1.052.342.616 0 1.08-.225 1.395-.674.313-.449.47-1.022.47-1.717Zm-8.263-21.19.332 3.047a2.45 2.45 0 0 0-.868.452c-.27.21-.489.493-.655.85-.166.357-.25.794-.25 1.311 0 .695.151 1.28.453 1.754.302.468.692.699 1.173.693.412.006.747-.145 1.006-.453.258-.314.47-.831.637-1.551l.517-2.419c.29-1.342.748-2.339 1.376-2.991.628-.659 1.45-.991 2.465-.998.892.007 1.68.268 2.364.785.677.511 1.206 1.222 1.588 2.133.381.911.572 1.957.572 3.139 0 1.736-.363 3.133-1.09 4.192-.732 1.059-1.75 1.69-3.056 1.893l-.313-3.26c.64-.147 1.123-.461 1.45-.941.325-.48.489-1.105.489-1.875 0-.794-.164-1.431-.49-1.911-.326-.486-.73-.729-1.21-.729a1.26 1.26 0 0 0-1.006.471c-.264.307-.468.788-.61 1.44l-.507 2.419c-.283 1.36-.76 2.367-1.431 3.019-.677.653-1.533.976-2.567.97-.874.006-1.631-.231-2.271-.711-.646-.487-1.145-1.161-1.496-2.022-.357-.868-.535-1.868-.535-3.001 0-1.662.354-2.97 1.061-3.924.708-.96 1.665-1.554 2.872-1.782Zm2.123-6.403h8.31v3.342H33.67v-3.268h7.137v-.166a4.11 4.11 0 0 1-1.893-1.542c-.467-.702-.701-1.594-.701-2.678 0-.985.206-1.843.618-2.576.413-.732 1.016-1.299 1.81-1.699.794-.406 1.763-.609 2.908-.609h9.03v3.342h-8.513c-.954 0-1.695.247-2.225.739-.535.486-.803 1.169-.803 2.05 0 .591.13 1.12.388 1.588.252.461.618.825 1.098 1.089.48.259 1.062.388 1.745.388Zm8.31-12.751H33.67v-3.342h7.073v-.139a6.121 6.121 0 0 1-1.1-.729c-.393-.314-.729-.739-1.006-1.274-.283-.536-.424-1.219-.424-2.05 0-1.095.28-2.083.84-2.964.554-.886 1.376-1.588 2.465-2.105 1.083-.523 2.413-.784 3.989-.784 1.557 0 2.88.255 3.97.766 1.09.511 1.92 1.206 2.493 2.086.572.881.858 1.878.858 2.992 0 .812-.135 1.486-.406 2.022-.27.536-.597.966-.978 1.293-.388.32-.755.569-1.1.747v.194h2.235v3.287Zm-7.09-3.277c.916 0 1.72-.13 2.409-.388.69-.265 1.228-.643 1.616-1.136.381-.498.572-1.102.572-1.809 0-.739-.197-1.358-.59-1.856-.4-.499-.945-.874-1.635-1.127-.696-.258-1.486-.388-2.373-.388-.88 0-1.662.127-2.345.379-.683.252-1.219.628-1.607 1.126-.387.499-.581 1.121-.581 1.866 0 .714.188 1.32.563 1.818.375.499.902.878 1.579 1.136.677.252 1.474.379 2.391.379Zm7.376-17.033c0 .899-.16 1.708-.48 2.428a3.96 3.96 0 0 1-1.44 1.699c-.634.413-1.416.619-2.345.619-.8 0-1.462-.148-1.985-.443a3.434 3.434 0 0 1-1.256-1.21 6.1 6.1 0 0 1-.711-1.726 14.079 14.079 0 0 1-.36-2.004 78.606 78.606 0 0 0-.23-2.022c-.075-.517-.186-.892-.333-1.126-.154-.24-.391-.36-.711-.36h-.056c-.695 0-1.234.206-1.615.618-.382.412-.573 1.007-.573 1.782 0 .819.179 1.468.536 1.948.357.474.778.794 1.265.96l-.444 3.121c-.861-.246-1.581-.652-2.16-1.219a5.296 5.296 0 0 1-1.311-2.077c-.296-.819-.443-1.723-.443-2.714 0-.684.08-1.364.24-2.04.16-.678.424-1.297.794-1.857a3.99 3.99 0 0 1 1.486-1.348c.628-.344 1.413-.517 2.355-.517h9.491v3.213H50.63v.111c.394.203.763.49 1.108.859.339.363.612.821.822 1.375.203.548.304 1.191.304 1.93Zm-2.456-.868c0-.671-.132-1.252-.397-1.745a2.936 2.936 0 0 0-1.07-1.136 2.728 2.728 0 0 0-1.45-.406H45.82c.086.105.166.283.24.536.073.246.138.523.194.83.055.309.104.613.147.915l.111.785c.068.498.179.944.332 1.338.154.394.37.705.647.933.27.228.621.342 1.052.342.616 0 1.08-.225 1.395-.674.313-.45.47-1.022.47-1.718Zm2.447-16.167c0 1.416-.31 2.632-.932 3.647-.622 1.01-1.48 1.788-2.576 2.336-1.102.542-2.37.813-3.804.813-1.44 0-2.712-.277-3.814-.831-1.108-.554-1.97-1.336-2.585-2.345-.621-1.016-.932-2.216-.932-3.601 0-1.151.212-2.17.637-3.056.418-.893 1.012-1.604 1.782-2.133.763-.53 1.655-.831 2.677-.905v3.195a3.054 3.054 0 0 0-1.708.923c-.462.48-.692 1.123-.692 1.93 0 .683.184 1.283.554 1.8.363.517.886.92 1.57 1.21.683.283 1.501.424 2.455.424.967 0 1.798-.141 2.493-.424.69-.284 1.222-.68 1.597-1.191.37-.518.554-1.124.554-1.82 0-.492-.092-.932-.277-1.32a2.655 2.655 0 0 0-.821-.988c-.357-.264-.791-.446-1.302-.544v-3.195c1.003.08 1.893.376 2.668.886.77.511 1.373 1.207 1.81 2.087.43.88.646 1.914.646 3.102Zm-4.727-11.866-4.035.009v-.536l-5.697-5.096v-3.906l6.98 6.27v.692l2.752 2.567Zm4.45 3.046H33.67v-3.342h18.91v3.343Zm0-8.9L46.124 72.4l-2.354-2.252 8.808-6.362v3.998Z" fill="#FEFEFE"/><defs><filter id="a" x="13.503" y="36.391" width="85.447" height="179.888" filterUnits="userSpaceOnUse" color-interpolation-filters="sRGB"><feFlood flood-opacity="0" result="BackgroundImageFix"/><feColorMatrix in="SourceAlpha" values="0 0 0 0 0 0 0 0 0 0 0 0 0 0 0 0 0 0 127 0" result="hardAlpha"/><feOffset dy="2.249"/><feGaussianBlur stdDeviation="1.124"/><feComposite in2="hardAlpha" operator="out"/><feColorMatrix values="0 0 0 0 0 0 0 0 0 0 0 0 0 0 0 0 0 0 0.1 0"/><feBlend in2="BackgroundImageFix" result="effect1_dropShadow_5507_19286"/><feColorMatrix in="SourceAlpha" values="0 0 0 0 0 0 0 0 0 0 0 0 0 0 0 0 0 0 127 0" result="hardAlpha"/><feOffset/><feGaussianBlur stdDeviation="2.249"/><feComposite in2="hardAlpha" operator="out"/><feColorMatrix values="0 0 0 0 0 0 0 0 0 0 0 0 0 0 0 0 0 0 0.14 0"/><feBlend in2="effect1_dropShadow_5507_19286" result="effect2_dropShadow_5507_19286"/><feBlend in="SourceGraphic" in2="effect2_dropShadow_5507_19286" result="shape"/></filter></defs></svg>