<svg width="86" height="181" fill="none" xmlns="http://www.w3.org/2000/svg"><g filter="url(#a)"><mask id="b" fill="#fff"><path fill-rule="evenodd" clip-rule="evenodd" d="M5 31.983C5 17.081 17.08 5 31.983 5h49.47v15.05C68.69 21.228 58.964 27.34 58.964 34.705c0 7.363 9.725 13.476 22.487 14.655v7.861C68.69 58.4 58.965 64.513 58.965 71.876c0 7.364 9.725 13.476 22.487 14.655v10.315c-12.762 1.179-22.487 7.291-22.487 14.655 0 7.364 9.725 13.476 22.487 14.655v10.319c-12.762 1.179-22.487 7.292-22.487 14.655 0 7.364 9.725 13.477 22.487 14.655v10.109H31.983C17.081 175.894 5 163.813 5 148.91V31.983Z"/></mask><path fill-rule="evenodd" clip-rule="evenodd" d="M5 31.983C5 17.081 17.08 5 31.983 5h49.47v15.05C68.69 21.228 58.964 27.34 58.964 34.705c0 7.363 9.725 13.476 22.487 14.655v7.861C68.69 58.4 58.965 64.513 58.965 71.876c0 7.364 9.725 13.476 22.487 14.655v10.315c-12.762 1.179-22.487 7.291-22.487 14.655 0 7.364 9.725 13.476 22.487 14.655v10.319c-12.762 1.179-22.487 7.292-22.487 14.655 0 7.364 9.725 13.477 22.487 14.655v10.109H31.983C17.081 175.894 5 163.813 5 148.91V31.983Z" fill="#D9D9D9"/><path d="M81.452 5h.788v-.787h-.788V5Zm0 15.05.073.783.715-.066v-.717h-.788Zm0 29.31h.788v-.718l-.715-.066-.073.784Zm0 7.861.073.784.715-.066v-.718h-.788Zm0 29.31h.788v-.718l-.715-.066-.073.784Zm0 10.315.073.784.715-.066v-.718h-.788Zm0 29.31h.788v-.718l-.715-.066-.073.784Zm0 10.319.073.784.715-.066v-.718h-.788Zm0 29.31h.788v-.717l-.715-.066-.073.783Zm0 10.109v.787h.788v-.787h-.788ZM31.983 4.213c-15.337 0-27.77 12.433-27.77 27.77h1.574c0-14.468 11.729-26.196 26.196-26.196V4.213Zm49.47 0h-49.47v1.574h49.47V4.213Zm.787 15.837V5h-1.575v15.05h1.575ZM59.752 34.705c0-3.306 2.186-6.464 6.097-8.986 3.897-2.512 9.39-4.305 15.676-4.886l-.145-1.567c-6.477.598-12.228 2.451-16.383 5.13-4.142 2.67-6.819 6.251-6.819 10.309h1.574Zm21.773 13.87c-6.286-.58-11.779-2.373-15.676-4.885-3.911-2.522-6.097-5.68-6.097-8.985h-1.574c0 4.057 2.677 7.638 6.819 10.308 4.155 2.68 9.906 4.532 16.383 5.13l.145-1.567Zm.715 8.646V49.36h-1.575v7.861h1.575ZM59.752 71.876c0-3.306 2.186-6.463 6.097-8.985 3.897-2.513 9.39-4.305 15.676-4.886l-.145-1.568c-6.477.599-12.228 2.452-16.383 5.131-4.142 2.67-6.819 6.25-6.819 10.308h1.574Zm21.773 13.871c-6.286-.58-11.779-2.373-15.676-4.885-3.911-2.522-6.097-5.68-6.097-8.986h-1.574c0 4.058 2.677 7.638 6.819 10.308 4.155 2.68 9.906 4.533 16.383 5.13l.145-1.566Zm.715 11.099V86.531h-1.575v10.315h1.575Zm-22.488 14.655c0-3.306 2.186-6.464 6.097-8.985 3.897-2.513 9.39-4.306 15.676-4.886l-.145-1.568c-6.477.599-12.228 2.451-16.383 5.131-4.142 2.67-6.819 6.25-6.819 10.308h1.574Zm21.773 13.871c-6.286-.58-11.779-2.373-15.676-4.886-3.911-2.521-6.097-5.679-6.097-8.985h-1.574c0 4.058 2.677 7.638 6.819 10.308 4.155 2.68 9.906 4.532 16.383 5.131l.145-1.568Zm.715 11.103v-10.319h-1.575v10.319h1.575ZM59.752 151.13c0-3.305 2.186-6.463 6.097-8.985 3.897-2.512 9.39-4.305 15.676-4.886l-.145-1.567c-6.477.598-12.228 2.451-16.383 5.13-4.142 2.67-6.819 6.251-6.819 10.308h1.574Zm21.773 13.872c-6.286-.581-11.779-2.374-15.676-4.886-3.911-2.522-6.097-5.68-6.097-8.986h-1.574c0 4.058 2.677 7.638 6.819 10.309 4.155 2.679 9.906 4.532 16.383 5.13l.145-1.567Zm.715 10.892v-10.109h-1.575v10.109h1.575Zm-50.257.787h49.47v-1.574h-49.47v1.574ZM4.213 148.91c0 15.338 12.433 27.771 27.77 27.771v-1.574c-14.468 0-26.196-11.729-26.196-26.197H4.213Zm0-116.927V148.91h1.574V31.983H4.213Z" fill="#D9D9D9" mask="url(#b)"/></g><path d="M27.049 135.243v3.453a4.301 4.301 0 0 0-1.505.544 4.054 4.054 0 0 0-1.126.988 4.125 4.125 0 0 0-.693 1.348 5.266 5.266 0 0 0-.24 1.616c0 1.028.259 1.939.776 2.733.51.794 1.262 1.416 2.253 1.865.984.449 2.188.674 3.61.674 1.446 0 2.665-.225 3.656-.674.985-.455 1.73-1.077 2.234-1.865.499-.794.748-1.702.748-2.724 0-.566-.074-1.095-.221-1.588a4.341 4.341 0 0 0-.674-1.338 4.101 4.101 0 0 0-2.567-1.579l.018-3.453a7.427 7.427 0 0 1 2.53.84 7.453 7.453 0 0 1 2.087 1.671 7.708 7.708 0 0 1 1.403 2.419c.332.923.499 1.948.499 3.075 0 1.661-.385 3.145-1.155 4.45-.769 1.305-1.88 2.333-3.333 3.084-1.452.751-3.194 1.126-5.225 1.126-2.038 0-3.78-.379-5.226-1.136-1.453-.757-2.564-1.788-3.333-3.093-.77-1.305-1.155-2.782-1.155-4.431a9.41 9.41 0 0 1 .444-2.937 7.53 7.53 0 0 1 1.302-2.419 6.949 6.949 0 0 1 2.086-1.745c.819-.461 1.754-.763 2.807-.904Zm12.815-7.071c0 .899-.16 1.709-.48 2.429a3.966 3.966 0 0 1-1.44 1.699c-.634.412-1.416.618-2.345.618-.8 0-1.462-.148-1.985-.443a3.426 3.426 0 0 1-1.256-1.21 6.088 6.088 0 0 1-.711-1.726 14.028 14.028 0 0 1-.36-2.004 78.606 78.606 0 0 0-.23-2.022c-.075-.517-.186-.892-.333-1.126-.154-.24-.391-.36-.711-.36h-.056c-.695 0-1.234.206-1.615.618-.382.413-.573 1.007-.573 1.782 0 .819.179 1.468.536 1.949.357.473.778.794 1.265.96l-.444 3.12c-.861-.246-1.582-.652-2.16-1.218a5.307 5.307 0 0 1-1.311-2.078c-.296-.818-.443-1.723-.443-2.714 0-.683.08-1.364.24-2.041.16-.677.424-1.295.794-1.855a3.977 3.977 0 0 1 1.486-1.348c.628-.345 1.413-.518 2.355-.518h9.491v3.214H37.63v.11c.394.203.763.49 1.108.859.339.363.612.822.822 1.376.203.548.304 1.191.304 1.929Zm-2.456-.867c0-.671-.132-1.253-.397-1.746a2.94 2.94 0 0 0-1.07-1.135 2.726 2.726 0 0 0-1.45-.406H32.82c.086.104.166.283.24.535.073.246.138.523.194.831.055.308.104.613.147.914l.111.785c.068.498.179.945.332 1.339.154.394.37.704.647.932.27.228.621.342 1.052.342.616 0 1.08-.225 1.395-.674.313-.449.47-1.022.47-1.717Zm-8.263-21.19.332 3.047a2.45 2.45 0 0 0-.868.452c-.27.209-.489.493-.655.85-.166.357-.25.794-.25 1.311 0 .695.151 1.28.453 1.754.302.468.692.699 1.172.692.413.007.748-.144 1.007-.452.259-.314.47-.831.637-1.551l.517-2.419c.29-1.342.748-2.339 1.376-2.992.628-.658 1.45-.991 2.465-.997.892.006 1.68.268 2.364.785.677.511 1.206 1.222 1.588 2.133.381.911.572 1.957.572 3.139 0 1.736-.363 3.133-1.09 4.192-.732 1.058-1.75 1.689-3.056 1.893l-.313-3.26c.64-.147 1.123-.461 1.45-.941.325-.481.489-1.105.489-1.875 0-.794-.164-1.431-.49-1.911-.326-.486-.73-.729-1.21-.729-.406 0-.741.157-1.006.47-.264.308-.468.788-.61 1.441l-.507 2.419c-.283 1.36-.76 2.367-1.431 3.019-.677.653-1.533.976-2.567.97-.874.006-1.631-.231-2.271-.711-.646-.487-1.145-1.161-1.496-2.022-.357-.868-.535-1.869-.535-3.001 0-1.662.354-2.97 1.061-3.924.708-.96 1.665-1.554 2.872-1.782Zm2.123-6.403h8.31v3.342H20.67v-3.268h7.137v-.166a4.104 4.104 0 0 1-1.893-1.542c-.468-.702-.701-1.595-.701-2.678 0-.985.206-1.844.618-2.576.413-.732 1.016-1.299 1.81-1.699.794-.406 1.763-.61 2.908-.61h9.03v3.343h-8.513c-.954 0-1.695.246-2.225.739-.535.486-.803 1.17-.803 2.05 0 .59.13 1.12.388 1.588.252.461.618.824 1.098 1.089.48.259 1.062.388 1.745.388Zm8.31-12.75H20.67v-3.343h7.072v-.139a6.152 6.152 0 0 1-1.098-.73c-.394-.313-.73-.738-1.007-1.273-.283-.536-.424-1.219-.424-2.05 0-1.096.28-2.084.84-2.964.554-.886 1.376-1.588 2.465-2.105 1.083-.523 2.413-.785 3.989-.785 1.557 0 2.88.256 3.97.767 1.09.51 1.92 1.206 2.493 2.086.572.88.858 1.878.858 2.992 0 .812-.135 1.486-.406 2.022-.27.535-.597.966-.978 1.292-.388.32-.755.57-1.1.748v.194h2.235v3.287Zm-7.09-3.279c.916 0 1.72-.129 2.409-.387.69-.265 1.228-.644 1.616-1.136.381-.499.572-1.102.572-1.81 0-.738-.197-1.357-.59-1.855-.4-.5-.945-.875-1.635-1.127-.696-.258-1.486-.388-2.373-.388-.88 0-1.662.126-2.345.379-.683.252-1.219.628-1.607 1.126-.387.499-.581 1.12-.581 1.865 0 .714.188 1.32.563 1.82.375.498.902.876 1.579 1.135.677.252 1.474.378 2.391.378Zm7.376-17.032c0 .899-.16 1.708-.48 2.428a3.963 3.963 0 0 1-1.44 1.7c-.634.412-1.416.618-2.345.618-.8 0-1.462-.148-1.985-.444a3.43 3.43 0 0 1-1.256-1.209 6.1 6.1 0 0 1-.711-1.727 14.046 14.046 0 0 1-.36-2.003 78.71 78.71 0 0 0-.23-2.022c-.075-.517-.186-.893-.333-1.127-.154-.24-.391-.36-.711-.36h-.056c-.695 0-1.234.206-1.615.619-.382.412-.573 1.006-.573 1.782 0 .819.179 1.468.536 1.948.357.474.778.794 1.265.96l-.444 3.121c-.861-.246-1.582-.652-2.16-1.219a5.302 5.302 0 0 1-1.311-2.077c-.296-.819-.443-1.724-.443-2.715 0-.683.08-1.363.24-2.04a5.74 5.74 0 0 1 .794-1.856c.363-.56.858-1.01 1.486-1.348.628-.345 1.413-.517 2.355-.517h9.491v3.213H37.63v.11c.394.204.763.49 1.108.86.339.363.612.821.822 1.375.203.548.304 1.191.304 1.93Zm-2.456-.868c0-.67-.132-1.253-.397-1.745a2.936 2.936 0 0 0-1.07-1.136 2.728 2.728 0 0 0-1.45-.406H32.82c.086.105.166.283.24.536.073.246.138.523.194.83.055.308.104.613.147.915l.111.784c.068.499.179.945.332 1.34.154.393.37.704.647.932.27.228.621.341 1.052.341.616 0 1.08-.224 1.395-.674.313-.449.47-1.021.47-1.717Zm2.447-16.167c0 1.416-.31 2.632-.932 3.647-.622 1.01-1.48 1.788-2.576 2.336-1.102.542-2.37.813-3.804.813-1.44 0-2.712-.277-3.814-.831-1.108-.554-1.97-1.336-2.585-2.346-.621-1.015-.932-2.215-.932-3.6 0-1.151.212-2.17.637-3.056.418-.893 1.012-1.604 1.782-2.133.763-.53 1.655-.831 2.677-.905v3.194a3.055 3.055 0 0 0-1.708.924c-.462.48-.692 1.123-.692 1.93 0 .683.184 1.283.554 1.8.363.517.886.92 1.57 1.21.683.283 1.501.424 2.455.424.967 0 1.798-.142 2.493-.425.69-.283 1.222-.68 1.597-1.19.37-.518.554-1.124.554-1.82 0-.492-.092-.932-.277-1.32a2.655 2.655 0 0 0-.821-.988c-.357-.264-.791-.446-1.302-.545v-3.194c1.003.08 1.893.375 2.668.886.77.511 1.373 1.207 1.81 2.087.43.88.646 1.914.646 3.102ZM35.128 37.75l-4.035.01v-.536l-5.697-5.096V28.22l6.98 6.27v.692l2.752 2.566Zm4.45 3.047H20.67v-3.342h18.91v3.342Zm0-8.9-6.454 4.616-2.354-2.253 8.808-6.361v3.998Z" fill="#FEFEFE"/><defs><filter id="a" x=".503" y=".503" width="85.447" height="179.888" filterUnits="userSpaceOnUse" color-interpolation-filters="sRGB"><feFlood flood-opacity="0" result="BackgroundImageFix"/><feColorMatrix in="SourceAlpha" values="0 0 0 0 0 0 0 0 0 0 0 0 0 0 0 0 0 0 127 0" result="hardAlpha"/><feOffset dy="2.249"/><feGaussianBlur stdDeviation="1.124"/><feComposite in2="hardAlpha" operator="out"/><feColorMatrix values="0 0 0 0 0 0 0 0 0 0 0 0 0 0 0 0 0 0 0.1 0"/><feBlend in2="BackgroundImageFix" result="effect1_dropShadow_5507_19264"/><feColorMatrix in="SourceAlpha" values="0 0 0 0 0 0 0 0 0 0 0 0 0 0 0 0 0 0 127 0" result="hardAlpha"/><feOffset/><feGaussianBlur stdDeviation="2.249"/><feComposite in2="hardAlpha" operator="out"/><feColorMatrix values="0 0 0 0 0 0 0 0 0 0 0 0 0 0 0 0 0 0 0.14 0"/><feBlend in2="effect1_dropShadow_5507_19264" result="effect2_dropShadow_5507_19264"/><feBlend in="SourceGraphic" in2="effect2_dropShadow_5507_19264" result="shape"/></filter></defs></svg>