<svg width="20" height="20" fill="none" xmlns="http://www.w3.org/2000/svg"><path fill="#FEFEFE" d="M0 0h20v20H0z"/><path d="M17.917 5H5a.417.417 0 0 0-.417.417v9.166A.417.417 0 0 0 5 15h12.917a.833.833 0 0 0 .833-.833V5.833A.833.833 0 0 0 17.917 5Z" fill="#26C884"/><path d="M16.875 7.708a.833.833 0 0 1-.834-.833.417.417 0 0 0-.416-.417H7.708a.417.417 0 0 0-.417.417.833.833 0 0 1-.833.833.417.417 0 0 0-.417.417v3.75a.417.417 0 0 0 .417.417.833.833 0 0 1 .833.833.417.417 0 0 0 .417.417h7.917a.417.417 0 0 0 .416-.417.833.833 0 0 1 .834-.833.417.417 0 0 0 .416-.417v-3.75a.417.417 0 0 0-.416-.417ZM5 9.167H1.667a.417.417 0 1 1 0-.834H5a.417.417 0 1 1 0 .834ZM5 7.083H2.917a.417.417 0 1 1 0-.833H5a.417.417 0 1 1 0 .833ZM3.333 11.25H1.667a.416.416 0 1 1 0-.833h1.666a.416.416 0 1 1 0 .833ZM5 13.333H3.333a.417.417 0 0 1 0-.833H5a.417.417 0 0 1 0 .833ZM7.5 4.167h-5a.417.417 0 0 1 0-.834h5a.417.417 0 1 1 0 .834ZM13.75 16.667H7.917a.417.417 0 0 1 0-.834h5.833a.416.416 0 1 1 0 .834Z" fill="#26C884"/><path d="M11.667 11.667a1.667 1.667 0 1 0 0-3.334 1.667 1.667 0 0 0 0 3.334ZM8.334 10.625a.625.625 0 1 0 0-1.25.625.625 0 0 0 0 1.25ZM15 10.625a.625.625 0 1 0 0-1.25.625.625 0 0 0 0 1.25Z" fill="#FEFEFE"/></svg>