<svg width="86" height="181" viewBox="0 0 86 181" fill="none" xmlns="http://www.w3.org/2000/svg">
<g filter="url(#filter0_dd_4901_8515)">
<mask id="path-1-inside-1_4901_8515" fill="white">
<path fill-rule="evenodd" clip-rule="evenodd" d="M4.49721 31.7735C4.49721 16.8711 16.578 4.79028 31.4804 4.79028H80.9497V19.8399C68.1873 21.0187 58.4624 27.1314 58.4624 34.4949C58.4624 41.8584 68.1873 47.971 80.9497 49.1499V57.0115C68.1873 58.1903 58.4624 64.3029 58.4624 71.6665C58.4624 79.03 68.1873 85.1426 80.9497 86.3214V96.6363C68.1873 97.8151 58.4624 103.928 58.4624 111.291C58.4624 118.655 68.1873 124.767 80.9497 125.946V136.266C68.1873 137.445 58.4624 143.557 58.4624 150.921C58.4624 158.284 68.1873 164.397 80.9497 165.576V175.684H31.4804C16.578 175.684 4.49721 163.603 4.49721 148.701V31.7735Z"/>
</mask>
<path fill-rule="evenodd" clip-rule="evenodd" d="M4.49721 31.7735C4.49721 16.8711 16.578 4.79028 31.4804 4.79028H80.9497V19.8399C68.1873 21.0187 58.4624 27.1314 58.4624 34.4949C58.4624 41.8584 68.1873 47.971 80.9497 49.1499V57.0115C68.1873 58.1903 58.4624 64.3029 58.4624 71.6665C58.4624 79.03 68.1873 85.1426 80.9497 86.3214V96.6363C68.1873 97.8151 58.4624 103.928 58.4624 111.291C58.4624 118.655 68.1873 124.767 80.9497 125.946V136.266C68.1873 137.445 58.4624 143.557 58.4624 150.921C58.4624 158.284 68.1873 164.397 80.9497 165.576V175.684H31.4804C16.578 175.684 4.49721 163.603 4.49721 148.701V31.7735Z" fill="#965EFB" fill-opacity="0.7" shape-rendering="crispEdges"/>
<path d="M80.9497 4.79028H81.7367V4.00327H80.9497V4.79028ZM80.9497 19.8399L81.022 20.6236L81.7367 20.5576V19.8399H80.9497ZM80.9497 49.1499H81.7367V48.4322L81.022 48.3662L80.9497 49.1499ZM80.9497 57.0115L81.022 57.7952L81.7367 57.7292V57.0115H80.9497ZM80.9497 86.3214H81.7367V85.6038L81.022 85.5378L80.9497 86.3214ZM80.9497 96.6363L81.022 97.42L81.7367 97.354V96.6363H80.9497ZM80.9497 125.946H81.7367V125.229L81.022 125.163L80.9497 125.946ZM80.9497 136.266L81.022 137.049L81.7367 136.983V136.266H80.9497ZM80.9497 165.576H81.7367V164.858L81.022 164.792L80.9497 165.576ZM80.9497 175.684V176.471H81.7367V175.684H80.9497ZM31.4804 4.00327C16.1433 4.00327 3.7102 16.4364 3.7102 31.7735H5.28422C5.28422 17.3058 17.0127 5.57729 31.4804 5.57729V4.00327ZM80.9497 4.00327H31.4804V5.57729H80.9497V4.00327ZM81.7367 19.8399V4.79028H80.1626V19.8399H81.7367ZM59.2494 34.4949C59.2494 31.189 61.4352 28.0313 65.3466 25.5096C69.2437 22.9971 74.7366 21.2042 81.022 20.6236L80.8773 19.0562C74.4003 19.6545 68.6496 21.5073 64.4937 24.1867C60.352 26.8569 57.6754 30.4372 57.6754 34.4949H59.2494ZM81.022 48.3662C74.7366 47.7856 69.2437 45.9927 65.3466 43.4802C61.4352 40.9585 59.2494 37.8008 59.2494 34.4949H57.6754C57.6754 38.5525 60.352 42.1329 64.4937 44.8031C68.6496 47.4825 74.4003 49.3353 80.8773 49.9335L81.022 48.3662ZM81.7367 57.0115V49.1499H80.1626V57.0115H81.7367ZM59.2494 71.6665C59.2494 68.3606 61.4352 65.2029 65.3466 62.6812C69.2437 60.1687 74.7366 58.3757 81.022 57.7952L80.8773 56.2278C74.4003 56.8261 68.6496 58.6789 64.4937 61.3583C60.352 64.0285 57.6754 67.6088 57.6754 71.6665H59.2494ZM81.022 85.5378C74.7366 84.9572 69.2437 83.1642 65.3466 80.6517C61.4352 78.13 59.2494 74.9723 59.2494 71.6665H57.6754C57.6754 75.7241 60.352 79.3045 64.4937 81.9747C68.6496 84.6541 74.4003 86.5068 80.8773 87.1051L81.022 85.5378ZM81.7367 96.6363V86.3214H80.1626V96.6363H81.7367ZM59.2494 111.291C59.2494 107.985 61.4352 104.828 65.3466 102.306C69.2437 99.7935 74.7366 98.0006 81.022 97.42L80.8773 95.8526C74.4003 96.4509 68.6496 98.3037 64.4937 100.983C60.352 103.653 57.6754 107.234 57.6754 111.291H59.2494ZM81.022 125.163C74.7366 124.582 69.2437 122.789 65.3466 120.277C61.4352 117.755 59.2494 114.597 59.2494 111.291H57.6754C57.6754 115.349 60.352 118.929 64.4937 121.599C68.6496 124.279 74.4003 126.132 80.8773 126.73L81.022 125.163ZM81.7367 136.266V125.946H80.1626V136.266H81.7367ZM59.2494 150.921C59.2494 147.615 61.4352 144.457 65.3466 141.935C69.2437 139.423 74.7366 137.63 81.022 137.049L80.8773 135.482C74.4003 136.08 68.6496 137.933 64.4937 140.613C60.352 143.283 57.6754 146.863 57.6754 150.921H59.2494ZM81.022 164.792C74.7366 164.211 69.2437 162.419 65.3466 159.906C61.4352 157.384 59.2494 154.227 59.2494 150.921H57.6754C57.6754 154.978 60.352 158.559 64.4937 161.229C68.6496 163.908 74.4003 165.761 80.8773 166.359L81.022 164.792ZM81.7367 175.684V165.576H80.1626V175.684H81.7367ZM31.4804 176.471H80.9497V174.897H31.4804V176.471ZM3.7102 148.701C3.7102 164.038 16.1434 176.471 31.4804 176.471V174.897C17.0127 174.897 5.28422 163.169 5.28422 148.701H3.7102ZM3.7102 31.7735V148.701H5.28422V31.7735H3.7102Z" fill="#D9D9D9" mask="url(#path-1-inside-1_4901_8515)"/>
</g>
<path d="M26.5462 135.029L26.5462 138.482C25.9799 138.581 25.4783 138.762 25.0412 139.027C24.5981 139.291 24.2226 139.621 23.9148 140.015C23.6071 140.409 23.3762 140.858 23.2223 141.363C23.0623 141.861 22.9823 142.4 22.9823 142.978C22.9823 144.006 23.2408 144.917 23.7579 145.711C24.2688 146.505 25.0197 147.127 26.0107 147.577C26.9955 148.026 28.1989 148.251 29.6208 148.251C31.0673 148.251 32.286 148.026 33.277 147.577C34.2619 147.121 35.0067 146.499 35.5114 145.711C36.01 144.917 36.2593 144.01 36.2593 142.988C36.2593 142.421 36.1854 141.892 36.0377 141.4C35.8838 140.901 35.6591 140.455 35.3637 140.061C35.0682 139.661 34.7051 139.325 34.2742 139.054C33.8433 138.777 33.3509 138.587 32.7969 138.482L32.8154 135.029C33.7141 135.158 34.5573 135.438 35.3452 135.869C36.1331 136.294 36.8286 136.851 37.4319 137.54C38.0289 138.23 38.4967 139.036 38.8353 139.959C39.1677 140.883 39.3339 141.907 39.3339 143.034C39.3339 144.696 38.9491 146.179 38.1797 147.484C37.4103 148.789 36.2993 149.817 34.8466 150.568C33.394 151.319 31.652 151.694 29.6208 151.694C27.5834 151.694 25.8414 151.316 24.3949 150.559C22.9423 149.802 21.8313 148.771 21.0618 147.466C20.2924 146.161 19.9077 144.684 19.9077 143.034C19.9077 141.981 20.0554 141.003 20.3509 140.098C20.6464 139.193 21.0803 138.387 21.6527 137.679C22.219 136.971 22.9146 136.389 23.7394 135.934C24.558 135.472 25.4937 135.17 26.5462 135.029ZM39.3616 127.959C39.3616 128.857 39.2015 129.667 38.8814 130.387C38.5552 131.101 38.0751 131.667 37.4411 132.086C36.8071 132.498 36.0254 132.705 35.0959 132.705C34.2957 132.705 33.634 132.557 33.1108 132.261C32.5876 131.966 32.1691 131.563 31.8552 131.052C31.5412 130.541 31.3043 129.965 31.1442 129.325C30.978 128.679 30.858 128.011 30.7841 127.322C30.698 126.491 30.621 125.817 30.5533 125.3C30.4795 124.783 30.3687 124.407 30.2209 124.173C30.067 123.933 29.8301 123.813 29.51 123.813L29.4546 123.813C28.759 123.813 28.2205 124.019 27.8388 124.432C27.4572 124.844 27.2664 125.438 27.2664 126.214C27.2664 127.032 27.4449 127.682 27.8019 128.162C28.1589 128.636 28.5805 128.956 29.0668 129.122L28.6236 132.243C27.7619 131.997 27.0417 131.59 26.4631 131.024C25.8784 130.458 25.4413 129.765 25.152 128.947C24.8566 128.128 24.7089 127.223 24.7089 126.232C24.7089 125.549 24.7889 124.869 24.9489 124.192C25.1089 123.515 25.3736 122.896 25.7429 122.336C26.1061 121.776 26.6016 121.326 27.2295 120.988C27.8573 120.643 28.6421 120.471 29.5839 120.471L39.0753 120.471L39.0753 123.684L37.1272 123.684L37.1272 123.795C37.5211 123.998 37.8904 124.284 38.2351 124.653C38.5737 125.017 38.8476 125.475 39.0569 126.029C39.26 126.577 39.3616 127.22 39.3616 127.959ZM36.9056 127.091C36.9056 126.42 36.7732 125.838 36.5086 125.346C36.2377 124.853 35.8807 124.475 35.4375 124.21C34.9944 123.939 34.5112 123.804 33.988 123.804L32.3168 123.804C32.403 123.909 32.483 124.087 32.5569 124.339C32.6307 124.586 32.6954 124.863 32.7508 125.17C32.8062 125.478 32.8554 125.783 32.8985 126.084C32.9416 126.386 32.9785 126.648 33.0093 126.869C33.077 127.368 33.1878 127.814 33.3417 128.208C33.4955 128.602 33.711 128.913 33.988 129.141C34.2588 129.368 34.6097 129.482 35.0405 129.482C35.6561 129.482 36.1208 129.258 36.4347 128.808C36.7486 128.359 36.9056 127.786 36.9056 127.091ZM28.6421 105.901L28.9745 108.948C28.6667 109.034 28.3774 109.185 28.1066 109.401C27.8357 109.61 27.6172 109.893 27.451 110.25C27.2848 110.607 27.2018 111.044 27.2018 111.561C27.2018 112.257 27.3526 112.841 27.6542 113.315C27.9558 113.783 28.3466 114.014 28.8268 114.008C29.2392 114.014 29.5746 113.863 29.8331 113.555C30.0917 113.241 30.304 112.724 30.4702 112.004L30.9873 109.585C31.2766 108.243 31.7351 107.246 32.363 106.594C32.9908 105.935 33.8125 105.603 34.8282 105.597C35.7207 105.603 36.5086 105.864 37.1918 106.381C37.8689 106.892 38.3982 107.603 38.7799 108.514C39.1615 109.425 39.3523 110.472 39.3523 111.653C39.3523 113.389 38.9892 114.786 38.2628 115.845C37.5303 116.904 36.5116 117.535 35.2067 117.738L34.8928 114.479C35.533 114.331 36.0161 114.017 36.3424 113.537C36.6686 113.057 36.8317 112.432 36.8317 111.663C36.8317 110.869 36.6686 110.232 36.3424 109.751C36.0161 109.265 35.613 109.022 35.1329 109.022C34.7266 109.022 34.3911 109.179 34.1265 109.493C33.8618 109.801 33.6587 110.281 33.5171 110.933L33.0093 113.352C32.7261 114.713 32.2491 115.719 31.5782 116.371C30.9011 117.024 30.0455 117.347 29.0114 117.341C28.1374 117.347 27.3803 117.11 26.7401 116.63C26.0938 116.144 25.5952 115.47 25.2444 114.608C24.8874 113.74 24.7089 112.74 24.7089 111.607C24.7089 109.945 25.0628 108.637 25.7706 107.683C26.4785 106.723 27.4357 106.129 28.6421 105.901ZM30.7657 99.4982L39.0753 99.4982L39.0753 102.841L20.1662 102.841L20.1662 99.5721L27.3033 99.5721L27.3033 99.4059C26.5031 99.0735 25.8722 98.5595 25.4106 97.864C24.9428 97.1623 24.7089 96.2697 24.7089 95.1864C24.7089 94.2016 24.9151 93.3429 25.3275 92.6104C25.7399 91.8779 26.3431 91.3116 27.1371 90.9116C27.9312 90.5053 28.9006 90.3022 30.0455 90.3022L39.0753 90.3022L39.0753 93.6445L30.5625 93.6445C29.6085 93.6445 28.8668 93.8907 28.3374 94.3831C27.8019 94.8694 27.5341 95.5527 27.5341 96.4329C27.5341 97.0238 27.6634 97.5531 27.9219 98.0209C28.1743 98.4826 28.5405 98.8457 29.0206 99.1104C29.5008 99.3689 30.0824 99.4982 30.7657 99.4982ZM39.0753 86.7475L20.1662 86.7475L20.1662 83.4052L27.2387 83.4052L27.2387 83.2667C26.894 83.0943 26.5277 82.8512 26.14 82.5373C25.746 82.2233 25.4106 81.7986 25.1336 81.2631C24.8504 80.7276 24.7089 80.0444 24.7089 79.2134C24.7089 78.1178 24.9889 77.1298 25.5491 76.2496C26.103 75.3633 26.9248 74.6616 28.0142 74.1445C29.0976 73.6213 30.4271 73.3597 32.0029 73.3597C33.5602 73.3597 34.8836 73.6152 35.9731 74.126C37.0625 74.6369 37.8935 75.3325 38.466 76.2127C39.0384 77.0929 39.3246 78.0901 39.3246 79.2042C39.3246 80.0167 39.1892 80.6907 38.9184 81.2262C38.6475 81.7617 38.3213 82.1926 37.9397 82.5188C37.5519 82.8389 37.1857 83.0882 36.841 83.2667L36.841 83.4606L39.0753 83.4606L39.0753 86.7475ZM31.9844 83.4698C32.9016 83.4698 33.7048 83.3405 34.3942 83.082C35.0836 82.8173 35.6222 82.4388 36.01 81.9464C36.3916 81.4478 36.5824 80.8446 36.5824 80.1367C36.5824 79.3981 36.3855 78.7795 35.9915 78.2809C35.5914 77.7823 35.0467 77.4068 34.3573 77.1545C33.6617 76.8959 32.8708 76.7667 31.9844 76.7667C31.1042 76.7667 30.3225 76.8929 29.6392 77.1452C28.956 77.3976 28.4205 77.7731 28.0327 78.2716C27.6449 78.7702 27.451 79.3919 27.451 80.1367C27.451 80.8507 27.6388 81.457 28.0142 81.9556C28.3897 82.4542 28.916 82.8327 29.5931 83.0912C30.2702 83.3436 31.0673 83.4698 31.9844 83.4698ZM39.3616 66.4373C39.3616 67.336 39.2015 68.1454 38.8814 68.8656C38.5552 69.5796 38.0751 70.1459 37.4411 70.5644C36.8071 70.9768 36.0254 71.183 35.0959 71.183C34.2957 71.183 33.634 71.0353 33.1108 70.7399C32.5876 70.4444 32.1691 70.0412 31.8552 69.5303C31.5412 69.0194 31.3043 68.4439 31.1442 67.8038C30.978 67.1575 30.858 66.4896 30.7841 65.8002C30.698 64.9693 30.621 64.2953 30.5533 63.7782C30.4794 63.2612 30.3687 62.8857 30.2209 62.6518C30.067 62.4117 29.8301 62.2917 29.51 62.2917L29.4546 62.2917C28.759 62.2917 28.2205 62.4979 27.8388 62.9103C27.4572 63.3227 27.2664 63.9167 27.2664 64.6923C27.2664 65.5109 27.4449 66.1603 27.8019 66.6404C28.1589 67.1144 28.5805 67.4345 29.0668 67.6007L28.6236 70.7214C27.7619 70.4752 27.0417 70.0689 26.4631 69.5026C25.8784 68.9364 25.4413 68.2439 25.152 67.4252C24.8566 66.6066 24.7089 65.7017 24.7089 64.7107C24.7089 64.0275 24.7889 63.3473 24.9489 62.6703C25.1089 61.9932 25.3736 61.3746 25.7429 60.8144C26.1061 60.2543 26.6016 59.805 27.2294 59.4664C27.8573 59.1217 28.6421 58.9494 29.5839 58.9494L39.0753 58.9494L39.0753 62.1624L37.1272 62.1624L37.1272 62.2732C37.5211 62.4764 37.8904 62.7626 38.2351 63.1319C38.5737 63.4951 38.8476 63.9536 39.0569 64.5076C39.26 65.0554 39.3616 65.6987 39.3616 66.4373ZM36.9056 65.5694C36.9056 64.8985 36.7732 64.3168 36.5086 63.8244C36.2377 63.3319 35.8807 62.9534 35.4375 62.6887C34.9944 62.4179 34.5112 62.2825 33.988 62.2825L32.3168 62.2825C32.403 62.3871 32.483 62.5656 32.5569 62.818C32.6307 63.0642 32.6954 63.3412 32.7508 63.6489C32.8062 63.9567 32.8554 64.2614 32.8985 64.563C32.9416 64.8646 32.9785 65.1262 33.0093 65.3478C33.077 65.8464 33.1878 66.2926 33.3417 66.6866C33.4955 67.0805 33.711 67.3914 33.988 67.6191C34.2588 67.8469 34.6097 67.9607 35.0405 67.9607C35.6561 67.9607 36.1208 67.7361 36.4347 67.2867C36.7486 66.8374 36.9056 66.265 36.9056 65.5694ZM39.3523 49.4025C39.3523 50.8182 39.0415 52.0339 38.4198 53.0495C37.7981 54.059 36.9394 54.8376 35.8438 55.3855C34.742 55.9271 33.474 56.198 32.0398 56.198C30.5995 56.198 29.3284 55.921 28.2266 55.367C27.1187 54.813 26.2569 54.0313 25.6414 53.0218C25.0197 52.0062 24.7089 50.8059 24.7089 49.421C24.7089 48.2699 24.9212 47.2512 25.3459 46.3649C25.7645 45.4723 26.3585 44.7614 27.1279 44.232C27.8911 43.7027 28.7837 43.4011 29.8054 43.3272L29.8054 46.5218C29.1222 46.6511 28.5528 46.9588 28.0973 47.4451C27.6357 47.9252 27.4049 48.5685 27.4049 49.3748C27.4049 50.058 27.5895 50.6582 27.9589 51.1752C28.322 51.6923 28.8452 52.0954 29.5285 52.3847C30.2117 52.6679 31.0303 52.8095 31.9844 52.8095C32.9508 52.8095 33.7818 52.6679 34.4773 52.3847C35.1667 52.1016 35.6991 51.7046 36.0746 51.1937C36.4439 50.6766 36.6286 50.0703 36.6286 49.3748C36.6286 48.8824 36.5363 48.4423 36.3516 48.0545C36.1608 47.6605 35.8869 47.3312 35.5299 47.0666C35.1729 46.8019 34.7389 46.6203 34.228 46.5218L34.228 43.3272C35.2313 43.4072 36.1208 43.7027 36.8964 44.2136C37.6658 44.7245 38.269 45.42 38.706 46.3002C39.1369 47.1804 39.3523 48.2145 39.3523 49.4025ZM34.625 37.5358L30.5902 37.5451L30.5902 37.0096L24.8935 31.913L24.8935 28.0074L31.8736 34.2766L31.8736 34.9691L34.625 37.5358ZM39.0753 40.5827L20.1662 40.5827L20.1662 37.2404L39.0753 37.2404L39.0753 40.5827ZM39.0753 31.6821L32.6215 36.2986L30.2671 34.0458L39.0753 27.6843L39.0753 31.6821Z" fill="#FEFEFE"/>
<defs>
<filter id="filter0_dd_4901_8515" x="5.24521e-06" y="0.293081" width="85.4468" height="179.888" filterUnits="userSpaceOnUse" color-interpolation-filters="sRGB">
<feFlood flood-opacity="0" result="BackgroundImageFix"/>
<feColorMatrix in="SourceAlpha" type="matrix" values="0 0 0 0 0 0 0 0 0 0 0 0 0 0 0 0 0 0 127 0" result="hardAlpha"/>
<feOffset dy="2.2486"/>
<feGaussianBlur stdDeviation="1.1243"/>
<feComposite in2="hardAlpha" operator="out"/>
<feColorMatrix type="matrix" values="0 0 0 0 0 0 0 0 0 0 0 0 0 0 0 0 0 0 0.1 0"/>
<feBlend mode="normal" in2="BackgroundImageFix" result="effect1_dropShadow_4901_8515"/>
<feColorMatrix in="SourceAlpha" type="matrix" values="0 0 0 0 0 0 0 0 0 0 0 0 0 0 0 0 0 0 127 0" result="hardAlpha"/>
<feOffset/>
<feGaussianBlur stdDeviation="2.2486"/>
<feComposite in2="hardAlpha" operator="out"/>
<feColorMatrix type="matrix" values="0 0 0 0 0 0 0 0 0 0 0 0 0 0 0 0 0 0 0.14 0"/>
<feBlend mode="normal" in2="effect1_dropShadow_4901_8515" result="effect2_dropShadow_4901_8515"/>
<feBlend mode="normal" in="SourceGraphic" in2="effect2_dropShadow_4901_8515" result="shape"/>
</filter>
</defs>
</svg>
