<svg width="115" height="236" viewBox="0 0 115 236" fill="none" xmlns="http://www.w3.org/2000/svg">
<rect width="115" height="236" fill="white"/>
<g filter="url(#filter0_dd_5507_19286)">
<mask id="path-1-inside-1_5507_19286" fill="white">
<path fill-rule="evenodd" clip-rule="evenodd" d="M18 67.8714C18 52.969 30.0808 40.8882 44.9832 40.8882H94.4524V55.9378C81.6901 57.1166 71.9652 63.2293 71.9652 70.5928C71.9652 77.9563 81.6901 84.0689 94.4524 85.2478V93.1094C81.6901 94.2882 71.9652 100.401 71.9652 107.764C71.9652 115.128 81.6901 121.24 94.4524 122.419V132.734C81.6901 133.913 71.9652 140.026 71.9652 147.389C71.9652 154.753 81.6901 160.865 94.4524 162.044V172.364C81.6901 173.542 71.9652 179.655 71.9652 187.019C71.9652 194.382 81.6901 200.495 94.4524 201.674V211.782H44.9832C30.0808 211.782 18 199.701 18 184.799V67.8714Z"/>
</mask>
<path fill-rule="evenodd" clip-rule="evenodd" d="M18 67.8714C18 52.969 30.0808 40.8882 44.9832 40.8882H94.4524V55.9378C81.6901 57.1166 71.9652 63.2293 71.9652 70.5928C71.9652 77.9563 81.6901 84.0689 94.4524 85.2478V93.1094C81.6901 94.2882 71.9652 100.401 71.9652 107.764C71.9652 115.128 81.6901 121.24 94.4524 122.419V132.734C81.6901 133.913 71.9652 140.026 71.9652 147.389C71.9652 154.753 81.6901 160.865 94.4524 162.044V172.364C81.6901 173.542 71.9652 179.655 71.9652 187.019C71.9652 194.382 81.6901 200.495 94.4524 201.674V211.782H44.9832C30.0808 211.782 18 199.701 18 184.799V67.8714Z" fill="#D9D9D9"/>
<path d="M94.4524 40.8882H95.2395V40.1012H94.4524V40.8882ZM94.4524 55.9378L94.5248 56.7215L95.2395 56.6555V55.9378H94.4524ZM94.4524 85.2478H95.2395V84.5301L94.5248 84.4641L94.4524 85.2478ZM94.4524 93.1094L94.5248 93.8931L95.2395 93.8271V93.1094H94.4524ZM94.4524 122.419H95.2395V121.702L94.5248 121.636L94.4524 122.419ZM94.4524 132.734L94.5248 133.518L95.2395 133.452V132.734H94.4524ZM94.4524 162.044H95.2395V161.326L94.5248 161.26L94.4524 162.044ZM94.4524 172.364L94.5248 173.147L95.2395 173.081V172.364H94.4524ZM94.4524 201.674H95.2395V200.956L94.5248 200.89L94.4524 201.674ZM94.4524 211.782V212.569H95.2395V211.782H94.4524ZM44.9832 40.1012C29.6461 40.1012 17.213 52.5343 17.213 67.8714H18.787C18.787 53.4037 30.5155 41.6752 44.9832 41.6752V40.1012ZM94.4524 40.1012H44.9832V41.6752H94.4524V40.1012ZM95.2395 55.9378V40.8882H93.6654V55.9378H95.2395ZM72.7522 70.5928C72.7522 67.2869 74.938 64.1292 78.8494 61.6075C82.7465 59.095 88.2394 57.3021 94.5248 56.7215L94.3801 55.1541C87.9031 55.7524 82.1524 57.6052 77.9965 60.2846C73.8548 62.9548 71.1782 66.5351 71.1782 70.5928H72.7522ZM94.5248 84.4641C88.2394 83.8835 82.7465 82.0906 78.8494 79.5781C74.938 77.0564 72.7522 73.8987 72.7522 70.5928H71.1782C71.1782 74.6504 73.8548 78.2308 77.9965 80.901C82.1524 83.5804 87.9031 85.4332 94.3801 86.0314L94.5248 84.4641ZM95.2395 93.1094V85.2478H93.6654V93.1094H95.2395ZM72.7522 107.764C72.7522 104.458 74.938 101.301 78.8494 98.7791C82.7465 96.2666 88.2394 94.4736 94.5248 93.8931L94.3801 92.3257C87.9031 92.924 82.1524 94.7768 77.9965 97.4562C73.8548 100.126 71.1782 103.707 71.1782 107.764H72.7522ZM94.5248 121.636C88.2394 121.055 82.7465 119.262 78.8494 116.75C74.938 114.228 72.7522 111.07 72.7522 107.764H71.1782C71.1782 111.822 73.8548 115.402 77.9965 118.073C82.1524 120.752 87.9031 122.605 94.3801 123.203L94.5248 121.636ZM95.2395 132.734V122.419H93.6654V132.734H95.2395ZM72.7522 147.389C72.7522 144.083 74.938 140.926 78.8494 138.404C82.7465 135.891 88.2394 134.098 94.5248 133.518L94.3801 131.951C87.9031 132.549 82.1524 134.402 77.9965 137.081C73.8548 139.751 71.1782 143.332 71.1782 147.389H72.7522ZM94.5248 161.26C88.2394 160.68 82.7465 158.887 78.8494 156.374C74.938 153.853 72.7522 150.695 72.7522 147.389H71.1782C71.1782 151.447 73.8548 155.027 77.9965 157.697C82.1524 160.377 87.9031 162.23 94.3801 162.828L94.5248 161.26ZM95.2395 172.364V162.044H93.6654V172.364H95.2395ZM72.7522 187.019C72.7522 183.713 74.938 180.555 78.8494 178.033C82.7465 175.521 88.2394 173.728 94.5248 173.147L94.3801 171.58C87.9031 172.178 82.1524 174.031 77.9965 176.71C73.8548 179.381 71.1782 182.961 71.1782 187.019H72.7522ZM94.5248 200.89C88.2394 200.309 82.7465 198.516 78.8494 196.004C74.938 193.482 72.7522 190.324 72.7522 187.019H71.1782C71.1782 191.076 73.8548 194.657 77.9965 197.327C82.1524 200.006 87.9031 201.859 94.3801 202.457L94.5248 200.89ZM95.2395 211.782V201.674H93.6654V211.782H95.2395ZM44.9832 212.569H94.4524V210.995H44.9832V212.569ZM17.213 184.799C17.213 200.136 29.6462 212.569 44.9832 212.569V210.995C30.5155 210.995 18.787 199.266 18.787 184.799H17.213ZM17.213 67.8714V184.799H18.787V67.8714H17.213Z" fill="#D9D9D9" mask="url(#path-1-inside-1_5507_19286)"/>
</g>
<path d="M40.049 171.131L40.049 174.584C39.4827 174.682 38.9811 174.864 38.544 175.129C38.1009 175.393 37.7254 175.723 37.4176 176.117C37.1098 176.51 36.879 176.96 36.7251 177.465C36.5651 177.963 36.4851 178.502 36.4851 179.08C36.4851 180.108 36.7436 181.019 37.2607 181.813C37.7715 182.607 38.5225 183.229 39.5135 183.678C40.4983 184.128 41.7017 184.352 43.1236 184.352C44.5701 184.352 45.7888 184.128 46.7798 183.678C47.7647 183.223 48.5095 182.601 49.0142 181.813C49.5128 181.019 49.7621 180.111 49.7621 179.09C49.7621 178.523 49.6882 177.994 49.5405 177.501C49.3866 177.003 49.1619 176.557 48.8665 176.163C48.571 175.763 48.2079 175.427 47.777 175.156C47.3461 174.879 46.8537 174.688 46.2997 174.584L46.3182 171.131C47.2169 171.26 48.0601 171.54 48.848 171.971C49.6359 172.396 50.3314 172.953 50.9347 173.642C51.5317 174.331 51.9995 175.138 52.3381 176.061C52.6705 176.984 52.8366 178.009 52.8366 179.136C52.8366 180.798 52.4519 182.281 51.6825 183.586C50.9131 184.891 49.8021 185.919 48.3494 186.67C46.8968 187.421 45.1548 187.796 43.1236 187.796C41.0862 187.796 39.3442 187.418 37.8977 186.661C36.4451 185.903 35.334 184.872 34.5646 183.568C33.7952 182.263 33.4105 180.785 33.4105 179.136C33.4105 178.083 33.5582 177.104 33.8537 176.2C34.1491 175.295 34.5831 174.488 35.1555 173.781C35.7218 173.073 36.4174 172.491 37.2422 172.036C38.0608 171.574 38.9964 171.272 40.049 171.131ZM52.8643 164.061C52.8643 164.959 52.7043 165.769 52.3842 166.489C52.058 167.203 51.5779 167.769 50.9439 168.188C50.3099 168.6 49.5282 168.806 48.5987 168.806C47.7985 168.806 47.1368 168.659 46.6136 168.363C46.0904 168.068 45.6719 167.665 45.358 167.154C45.044 166.643 44.8071 166.067 44.647 165.427C44.4808 164.781 44.3608 164.113 44.2869 163.424C44.2008 162.593 44.1238 161.919 44.0561 161.401C43.9822 160.884 43.8714 160.509 43.7237 160.275C43.5698 160.035 43.3329 159.915 43.0128 159.915L42.9574 159.915C42.2618 159.915 41.7232 160.121 41.3416 160.534C40.96 160.946 40.7692 161.54 40.7692 162.316C40.7692 163.134 40.9477 163.784 41.3047 164.264C41.6617 164.738 42.0833 165.058 42.5696 165.224L42.1264 168.345C41.2647 168.098 40.5445 167.692 39.9659 167.126C39.3812 166.56 38.9441 165.867 38.6548 165.049C38.3594 164.23 38.2116 163.325 38.2116 162.334C38.2116 161.651 38.2917 160.971 38.4517 160.294C38.6117 159.616 38.8764 158.998 39.2457 158.438C39.6089 157.878 40.1044 157.428 40.7322 157.09C41.3601 156.745 42.1449 156.573 43.0866 156.573L52.5781 156.573L52.5781 159.786L50.63 159.786L50.63 159.897C51.0239 160.1 51.3932 160.386 51.7379 160.755C52.0765 161.118 52.3504 161.577 52.5597 162.131C52.7628 162.679 52.8643 163.322 52.8643 164.061ZM50.4084 163.193C50.4084 162.522 50.276 161.94 50.0114 161.448C49.7405 160.955 49.3835 160.577 48.9403 160.312C48.4972 160.041 48.014 159.906 47.4908 159.906L45.8196 159.906C45.9058 160.01 45.9858 160.189 46.0597 160.441C46.1335 160.687 46.1982 160.964 46.2535 161.272C46.3089 161.58 46.3582 161.885 46.4013 162.186C46.4444 162.488 46.4813 162.75 46.5121 162.971C46.5798 163.47 46.6906 163.916 46.8445 164.31C46.9983 164.704 47.2138 165.015 47.4908 165.242C47.7616 165.47 48.1125 165.584 48.5433 165.584C49.1589 165.584 49.6236 165.359 49.9375 164.91C50.2514 164.461 50.4084 163.888 50.4084 163.193ZM42.1449 142.003L42.4773 145.05C42.1695 145.136 41.8802 145.287 41.6094 145.502C41.3385 145.712 41.12 145.995 40.9538 146.352C40.7876 146.709 40.7045 147.146 40.7045 147.663C40.7045 148.358 40.8553 148.943 41.157 149.417C41.4586 149.885 41.8494 150.116 42.3295 150.11C42.7419 150.116 43.0774 149.965 43.3359 149.657C43.5945 149.343 43.8068 148.826 43.973 148.106L44.4901 145.687C44.7794 144.345 45.2379 143.348 45.8658 142.696C46.4936 142.037 47.3153 141.705 48.331 141.698C49.2235 141.705 50.0114 141.966 50.6946 142.483C51.3717 142.994 51.901 143.705 52.2827 144.616C52.6643 145.527 52.8551 146.573 52.8551 147.755C52.8551 149.491 52.4919 150.888 51.7656 151.947C51.0331 153.006 50.0144 153.637 48.7095 153.84L48.3956 150.58C49.0357 150.433 49.5189 150.119 49.8452 149.639C50.1714 149.159 50.3345 148.534 50.3345 147.764C50.3345 146.97 50.1714 146.333 49.8452 145.853C49.5189 145.367 49.1158 145.124 48.6357 145.124C48.2294 145.124 47.8939 145.281 47.6293 145.595C47.3646 145.902 47.1615 146.383 47.0199 147.035L46.5121 149.454C46.2289 150.814 45.7519 151.821 45.081 152.473C44.4039 153.126 43.5483 153.449 42.5142 153.443C41.6401 153.449 40.883 153.212 40.2429 152.732C39.5966 152.245 39.098 151.571 38.7472 150.71C38.3901 149.842 38.2116 148.842 38.2116 147.709C38.2116 146.047 38.5656 144.739 39.2734 143.785C39.9813 142.825 40.9384 142.231 42.1449 142.003ZM44.2685 135.6L52.5781 135.6L52.5781 138.942L33.669 138.942L33.669 135.674L40.8061 135.674L40.8061 135.508C40.0059 135.175 39.375 134.661 38.9133 133.966C38.4455 133.264 38.2116 132.372 38.2116 131.288C38.2116 130.303 38.4178 129.445 38.8303 128.712C39.2427 127.98 39.8459 127.413 40.6399 127.013C41.4339 126.607 42.4034 126.404 43.5483 126.404L52.5781 126.404L52.5781 129.746L44.0653 129.746C43.1113 129.746 42.3696 129.993 41.8402 130.485C41.3047 130.971 41.0369 131.654 41.0369 132.535C41.0369 133.126 41.1662 133.655 41.4247 134.123C41.6771 134.584 42.0433 134.948 42.5234 135.212C43.0035 135.471 43.5852 135.6 44.2685 135.6ZM52.5781 122.849L33.669 122.849L33.669 119.507L40.7415 119.507L40.7415 119.368C40.3968 119.196 40.0305 118.953 39.6428 118.639C39.2488 118.325 38.9133 117.9 38.6364 117.365C38.3532 116.829 38.2116 116.146 38.2116 115.315C38.2116 114.22 38.4917 113.232 39.0518 112.351C39.6058 111.465 40.4276 110.763 41.517 110.246C42.6004 109.723 43.9299 109.462 45.5057 109.462C47.063 109.462 48.3864 109.717 49.4758 110.228C50.5653 110.739 51.3963 111.434 51.9687 112.314C52.5412 113.195 52.8274 114.192 52.8274 115.306C52.8274 116.118 52.692 116.792 52.4212 117.328C52.1503 117.864 51.8241 118.294 51.4425 118.621C51.0547 118.941 50.6884 119.19 50.3437 119.368L50.3437 119.562L52.5781 119.562L52.5781 122.849ZM45.4872 119.572C46.4044 119.572 47.2076 119.442 47.897 119.184C48.5864 118.919 49.125 118.541 49.5128 118.048C49.8944 117.55 50.0852 116.946 50.0852 116.239C50.0852 115.5 49.8883 114.881 49.4943 114.383C49.0942 113.884 48.5495 113.509 47.8601 113.256C47.1645 112.998 46.3736 112.868 45.4872 112.868C44.607 112.868 43.8253 112.995 43.142 113.247C42.4588 113.499 41.9233 113.875 41.5355 114.373C41.1477 114.872 40.9538 115.494 40.9538 116.239C40.9538 116.953 41.1416 117.559 41.517 118.057C41.8925 118.556 42.4188 118.935 43.0959 119.193C43.773 119.445 44.5701 119.572 45.4872 119.572ZM52.8643 102.539C52.8643 103.438 52.7043 104.247 52.3842 104.967C52.058 105.681 51.5779 106.248 50.9439 106.666C50.3099 107.079 49.5282 107.285 48.5987 107.285C47.7985 107.285 47.1368 107.137 46.6136 106.842C46.0904 106.546 45.6719 106.143 45.358 105.632C45.044 105.121 44.8071 104.546 44.647 103.906C44.4808 103.259 44.3608 102.591 44.2869 101.902C44.2008 101.071 44.1238 100.397 44.0561 99.88C43.9822 99.363 43.8714 98.9875 43.7237 98.7536C43.5698 98.5135 43.3329 98.3935 43.0128 98.3935L42.9574 98.3935C42.2618 98.3935 41.7232 98.5997 41.3416 99.0121C40.96 99.4245 40.7692 100.019 40.7692 100.794C40.7692 101.613 40.9477 102.262 41.3047 102.742C41.6617 103.216 42.0833 103.536 42.5696 103.702L42.1264 106.823C41.2647 106.577 40.5445 106.171 39.9659 105.604C39.3812 105.038 38.9441 104.346 38.6548 103.527C38.3594 102.708 38.2116 101.804 38.2116 100.813C38.2116 100.129 38.2917 99.4491 38.4517 98.7721C38.6117 98.095 38.8764 97.4764 39.2457 96.9162C39.6089 96.3561 40.1044 95.9068 40.7322 95.5682C41.3601 95.2235 42.1449 95.0512 43.0866 95.0512L52.5781 95.0512L52.5781 98.2642L50.63 98.2642L50.63 98.375C51.0239 98.5782 51.3932 98.8644 51.7379 99.2337C52.0765 99.5969 52.3504 100.055 52.5597 100.609C52.7628 101.157 52.8643 101.8 52.8643 102.539ZM50.4084 101.671C50.4084 101 50.276 100.419 50.0114 99.9262C49.7405 99.4338 49.3835 99.0552 48.9403 98.7905C48.4972 98.5197 48.014 98.3843 47.4908 98.3843L45.8196 98.3843C45.9058 98.4889 45.9858 98.6674 46.0597 98.9198C46.1335 99.166 46.1981 99.443 46.2535 99.7508C46.3089 100.059 46.3582 100.363 46.4013 100.665C46.4444 100.966 46.4813 101.228 46.5121 101.45C46.5798 101.948 46.6906 102.394 46.8445 102.788C46.9983 103.182 47.2138 103.493 47.4908 103.721C47.7616 103.949 48.1124 104.063 48.5433 104.063C49.1589 104.063 49.6236 103.838 49.9375 103.389C50.2514 102.939 50.4084 102.367 50.4084 101.671ZM52.8551 85.5043C52.8551 86.92 52.5443 88.1357 51.9226 89.1513C51.3009 90.1608 50.4422 90.9394 49.3466 91.4873C48.2448 92.0289 46.9768 92.2998 45.5426 92.2998C44.1023 92.2998 42.8312 92.0228 41.7294 91.4688C40.6214 90.9148 39.7597 90.1331 39.1442 89.1236C38.5225 88.108 38.2116 86.9077 38.2116 85.5228C38.2116 84.3717 38.424 83.353 38.8487 82.4667C39.2673 81.5741 39.8613 80.8632 40.6307 80.3338C41.3939 79.8045 42.2865 79.5029 43.3082 79.429L43.3082 82.6236C42.625 82.7529 42.0556 83.0606 41.6001 83.5469C41.1385 84.027 40.9077 84.6703 40.9077 85.4766C40.9077 86.1598 41.0923 86.76 41.4616 87.277C41.8248 87.7941 42.348 88.1972 43.0312 88.4865C43.7145 88.7697 44.5331 88.9113 45.4872 88.9113C46.4536 88.9113 47.2846 88.7697 47.9801 88.4865C48.6695 88.2034 49.2019 87.8064 49.5774 87.2955C49.9467 86.7785 50.1314 86.1722 50.1314 85.4766C50.1314 84.9842 50.0391 84.5441 49.8544 84.1563C49.6636 83.7624 49.3897 83.433 49.0327 83.1684C48.6757 82.9037 48.2417 82.7221 47.7308 82.6236L47.7308 79.429C48.7341 79.509 49.6236 79.8045 50.3991 80.3154C51.1686 80.8263 51.7718 81.5218 52.2088 82.402C52.6397 83.2822 52.8551 84.3163 52.8551 85.5043ZM48.1278 73.6376L44.093 73.6469L44.093 73.1114L38.3963 68.0148L38.3963 64.1092L45.3764 70.3784L45.3764 71.0709L48.1278 73.6376ZM52.5781 76.6845L33.669 76.6845L33.669 73.3422L52.5781 73.3422L52.5781 76.6845ZM52.5781 67.784L46.1243 72.4004L43.7699 70.1476L52.5781 63.7861L52.5781 67.784Z" fill="#FEFEFE"/>
<defs>
<filter id="filter0_dd_5507_19286" x="13.5028" y="36.391" width="85.4469" height="179.888" filterUnits="userSpaceOnUse" color-interpolation-filters="sRGB">
<feFlood flood-opacity="0" result="BackgroundImageFix"/>
<feColorMatrix in="SourceAlpha" type="matrix" values="0 0 0 0 0 0 0 0 0 0 0 0 0 0 0 0 0 0 127 0" result="hardAlpha"/>
<feOffset dy="2.2486"/>
<feGaussianBlur stdDeviation="1.1243"/>
<feComposite in2="hardAlpha" operator="out"/>
<feColorMatrix type="matrix" values="0 0 0 0 0 0 0 0 0 0 0 0 0 0 0 0 0 0 0.1 0"/>
<feBlend mode="normal" in2="BackgroundImageFix" result="effect1_dropShadow_5507_19286"/>
<feColorMatrix in="SourceAlpha" type="matrix" values="0 0 0 0 0 0 0 0 0 0 0 0 0 0 0 0 0 0 127 0" result="hardAlpha"/>
<feOffset/>
<feGaussianBlur stdDeviation="2.2486"/>
<feComposite in2="hardAlpha" operator="out"/>
<feColorMatrix type="matrix" values="0 0 0 0 0 0 0 0 0 0 0 0 0 0 0 0 0 0 0.14 0"/>
<feBlend mode="normal" in2="effect1_dropShadow_5507_19286" result="effect2_dropShadow_5507_19286"/>
<feBlend mode="normal" in="SourceGraphic" in2="effect2_dropShadow_5507_19286" result="shape"/>
</filter>
</defs>
</svg>
