<svg width="20" height="20" viewBox="0 0 20 20" fill="none" xmlns="http://www.w3.org/2000/svg">
<rect width="20" height="20" fill="#FEFEFE"/>
<path d="M17.9168 5H5.00016C4.88966 5 4.78368 5.0439 4.70554 5.12204C4.62739 5.20018 4.5835 5.30616 4.5835 5.41667V14.5833C4.5835 14.6938 4.62739 14.7998 4.70554 14.878C4.78368 14.9561 4.88966 15 5.00016 15H17.9168C18.1378 15 18.3498 14.9122 18.5061 14.7559C18.6624 14.5996 18.7502 14.3877 18.7502 14.1667V5.83333C18.7502 5.61232 18.6624 5.40036 18.5061 5.24408C18.3498 5.0878 18.1378 5 17.9168 5Z" fill="#26C884"/>
<path d="M16.8748 7.70831C16.6538 7.70831 16.4419 7.62052 16.2856 7.46424C16.1293 7.30795 16.0415 7.09599 16.0415 6.87498C16.0415 6.76447 15.9976 6.65849 15.9195 6.58035C15.8413 6.50221 15.7353 6.45831 15.6248 6.45831H7.70817C7.59766 6.45831 7.49168 6.50221 7.41354 6.58035C7.3354 6.65849 7.2915 6.76447 7.2915 6.87498C7.2915 7.09599 7.20371 7.30795 7.04743 7.46424C6.89115 7.62052 6.67918 7.70831 6.45817 7.70831C6.34766 7.70831 6.24168 7.75221 6.16354 7.83035C6.0854 7.90849 6.0415 8.01447 6.0415 8.12498V11.875C6.0415 11.9855 6.0854 12.0915 6.16354 12.1696C6.24168 12.2477 6.34766 12.2916 6.45817 12.2916C6.67918 12.2916 6.89115 12.3794 7.04743 12.5357C7.20371 12.692 7.2915 12.904 7.2915 13.125C7.2915 13.2355 7.3354 13.3415 7.41354 13.4196C7.49168 13.4977 7.59766 13.5416 7.70817 13.5416H15.6248C15.7353 13.5416 15.8413 13.4977 15.9195 13.4196C15.9976 13.3415 16.0415 13.2355 16.0415 13.125C16.0415 12.904 16.1293 12.692 16.2856 12.5357C16.4419 12.3794 16.6538 12.2916 16.8748 12.2916C16.9853 12.2916 17.0913 12.2477 17.1695 12.1696C17.2476 12.0915 17.2915 11.9855 17.2915 11.875V8.12498C17.2915 8.01447 17.2476 7.90849 17.1695 7.83035C17.0913 7.75221 16.9853 7.70831 16.8748 7.70831Z" fill="#26C884"/>
<path d="M5 9.16665H1.66667C1.55616 9.16665 1.45018 9.12275 1.37204 9.04461C1.2939 8.96647 1.25 8.86049 1.25 8.74998C1.25 8.63947 1.2939 8.53349 1.37204 8.45535C1.45018 8.37721 1.55616 8.33331 1.66667 8.33331H5C5.11051 8.33331 5.21649 8.37721 5.29463 8.45535C5.37277 8.53349 5.41667 8.63947 5.41667 8.74998C5.41667 8.86049 5.37277 8.96647 5.29463 9.04461C5.21649 9.12275 5.11051 9.16665 5 9.16665Z" fill="#26C884"/>
<path d="M5 7.08333H2.91667C2.80616 7.08333 2.70018 7.03943 2.62204 6.96129C2.5439 6.88315 2.5 6.77717 2.5 6.66667C2.5 6.55616 2.5439 6.45018 2.62204 6.37204C2.70018 6.2939 2.80616 6.25 2.91667 6.25H5C5.11051 6.25 5.21649 6.2939 5.29463 6.37204C5.37277 6.45018 5.41667 6.55616 5.41667 6.66667C5.41667 6.77717 5.37277 6.88315 5.29463 6.96129C5.21649 7.03943 5.11051 7.08333 5 7.08333Z" fill="#26C884"/>
<path d="M3.33333 11.25H1.66667C1.55616 11.25 1.45018 11.2061 1.37204 11.1279C1.2939 11.0498 1.25 10.9438 1.25 10.8333C1.25 10.7228 1.2939 10.6168 1.37204 10.5387C1.45018 10.4605 1.55616 10.4166 1.66667 10.4166H3.33333C3.44384 10.4166 3.54982 10.4605 3.62796 10.5387C3.7061 10.6168 3.75 10.7228 3.75 10.8333C3.75 10.9438 3.7061 11.0498 3.62796 11.1279C3.54982 11.2061 3.44384 11.25 3.33333 11.25Z" fill="#26C884"/>
<path d="M4.99984 13.3333H3.33317C3.22266 13.3333 3.11668 13.2894 3.03854 13.2113C2.9604 13.1332 2.9165 13.0272 2.9165 12.9167C2.9165 12.8062 2.9604 12.7002 3.03854 12.622C3.11668 12.5439 3.22266 12.5 3.33317 12.5H4.99984C5.11034 12.5 5.21632 12.5439 5.29446 12.622C5.37261 12.7002 5.4165 12.8062 5.4165 12.9167C5.4165 13.0272 5.37261 13.1332 5.29446 13.2113C5.21632 13.2894 5.11034 13.3333 4.99984 13.3333Z" fill="#26C884"/>
<path d="M7.50016 4.16665H2.50016C2.38966 4.16665 2.28368 4.12275 2.20554 4.04461C2.12739 3.96647 2.0835 3.86049 2.0835 3.74998C2.0835 3.63947 2.12739 3.53349 2.20554 3.45535C2.28368 3.37721 2.38966 3.33331 2.50016 3.33331H7.50016C7.61067 3.33331 7.71665 3.37721 7.79479 3.45535C7.87293 3.53349 7.91683 3.63947 7.91683 3.74998C7.91683 3.86049 7.87293 3.96647 7.79479 4.04461C7.71665 4.12275 7.61067 4.16665 7.50016 4.16665Z" fill="#26C884"/>
<path d="M13.75 16.6666H7.91667C7.80616 16.6666 7.70018 16.6227 7.62204 16.5446C7.5439 16.4665 7.5 16.3605 7.5 16.25C7.5 16.1395 7.5439 16.0335 7.62204 15.9554C7.70018 15.8772 7.80616 15.8333 7.91667 15.8333H13.75C13.8605 15.8333 13.9665 15.8772 14.0446 15.9554C14.1228 16.0335 14.1667 16.1395 14.1667 16.25C14.1667 16.3605 14.1228 16.4665 14.0446 16.5446C13.9665 16.6227 13.8605 16.6666 13.75 16.6666Z" fill="#26C884"/>
<path d="M11.6667 11.6666C12.5871 11.6666 13.3333 10.9205 13.3333 9.99998C13.3333 9.07951 12.5871 8.33331 11.6667 8.33331C10.7462 8.33331 10 9.07951 10 9.99998C10 10.9205 10.7462 11.6666 11.6667 11.6666Z" fill="#FEFEFE"/>
<path d="M8.3335 10.625C8.67867 10.625 8.9585 10.3452 8.9585 10C8.9585 9.65482 8.67867 9.375 8.3335 9.375C7.98832 9.375 7.7085 9.65482 7.7085 10C7.7085 10.3452 7.98832 10.625 8.3335 10.625Z" fill="#FEFEFE"/>
<path d="M15 10.625C15.3452 10.625 15.625 10.3452 15.625 10C15.625 9.65482 15.3452 9.375 15 9.375C14.6548 9.375 14.375 9.65482 14.375 10C14.375 10.3452 14.6548 10.625 15 10.625Z" fill="#FEFEFE"/>
</svg>
