<svg width="86" height="181" fill="none" xmlns="http://www.w3.org/2000/svg"><g filter="url(#a)"><mask id="b" fill="#fff"><path fill-rule="evenodd" clip-rule="evenodd" d="M4.497 31.773C4.497 16.871 16.578 4.79 31.48 4.79h49.47v15.05c-12.763 1.179-22.488 7.291-22.488 14.655 0 7.363 9.725 13.476 22.488 14.655v7.861c-12.763 1.18-22.488 7.292-22.488 14.655 0 7.364 9.725 13.477 22.488 14.655v10.315c-12.763 1.18-22.488 7.292-22.488 14.655 0 7.364 9.725 13.476 22.488 14.655v10.32c-12.763 1.179-22.488 7.291-22.488 14.655 0 7.363 9.725 13.476 22.488 14.655v10.108H31.48c-14.902 0-26.983-12.081-26.983-26.983V31.774Z"/></mask><path fill-rule="evenodd" clip-rule="evenodd" d="M4.497 31.773C4.497 16.871 16.578 4.79 31.48 4.79h49.47v15.05c-12.763 1.179-22.488 7.291-22.488 14.655 0 7.363 9.725 13.476 22.488 14.655v7.861c-12.763 1.18-22.488 7.292-22.488 14.655 0 7.364 9.725 13.477 22.488 14.655v10.315c-12.763 1.18-22.488 7.292-22.488 14.655 0 7.364 9.725 13.476 22.488 14.655v10.32c-12.763 1.179-22.488 7.291-22.488 14.655 0 7.363 9.725 13.476 22.488 14.655v10.108H31.48c-14.902 0-26.983-12.081-26.983-26.983V31.774Z" fill="#965EFB" fill-opacity=".7" shape-rendering="crispEdges"/><path d="M80.95 4.79h.787v-.787h-.787v.787Zm0 15.05.072.784.715-.066v-.718h-.787Zm0 29.31h.787v-.718l-.715-.066-.072.784Zm0 7.861.072.784.715-.066v-.718h-.787Zm0 29.31h.787v-.717l-.715-.066-.072.783Zm0 10.315.072.784.715-.066v-.718h-.787Zm0 29.31h.787v-.717l-.715-.066-.072.783Zm0 10.32.072.783.715-.066v-.717h-.787Zm0 29.31h.787v-.718l-.715-.066-.072.784Zm0 10.108v.787h.787v-.787h-.787ZM31.48 4.004c-15.337 0-27.77 12.432-27.77 27.77h1.574c0-14.468 11.729-26.197 26.196-26.197V4.003Zm49.47 0H31.48v1.573h49.47V4.003Zm.787 15.836V4.79h-1.574v15.05h1.574ZM59.249 34.495c0-3.306 2.186-6.464 6.098-8.985 3.897-2.513 9.39-4.306 15.675-4.886l-.145-1.568c-6.477.598-12.227 2.451-16.383 5.13-4.142 2.67-6.819 6.251-6.819 10.309h1.574Zm21.773 13.871c-6.285-.58-11.778-2.373-15.675-4.886-3.912-2.521-6.098-5.68-6.098-8.985h-1.574c0 4.058 2.677 7.638 6.819 10.308 4.156 2.68 9.906 4.532 16.383 5.13l.145-1.567Zm.715 8.645V49.15h-1.574v7.861h1.574ZM59.249 71.666c0-3.305 2.186-6.463 6.098-8.985 3.897-2.512 9.39-4.305 15.675-4.886l-.145-1.567c-6.477.598-12.227 2.45-16.383 5.13-4.142 2.67-6.819 6.25-6.819 10.309h1.574Zm21.773 13.872c-6.285-.58-11.778-2.374-15.675-4.886-3.912-2.522-6.098-5.68-6.098-8.986h-1.574c0 4.058 2.677 7.639 6.819 10.309 4.156 2.68 9.906 4.532 16.383 5.13l.145-1.567Zm.715 11.098V86.321h-1.574v10.315h1.574Zm-22.488 14.655c0-3.306 2.186-6.463 6.098-8.985 3.897-2.513 9.39-4.305 15.675-4.886l-.145-1.567c-6.477.598-12.227 2.45-16.383 5.13-4.142 2.67-6.819 6.251-6.819 10.308h1.574Zm21.773 13.872c-6.285-.581-11.778-2.374-15.675-4.886-3.912-2.522-6.098-5.68-6.098-8.986h-1.574c0 4.058 2.677 7.638 6.819 10.308 4.156 2.68 9.906 4.533 16.383 5.131l.145-1.567Zm.715 11.103v-10.32h-1.574v10.32h1.574Zm-22.488 14.655c0-3.306 2.186-6.464 6.098-8.986 3.897-2.512 9.39-4.305 15.675-4.886l-.145-1.567c-6.477.598-12.227 2.451-16.383 5.131-4.142 2.67-6.819 6.25-6.819 10.308h1.574Zm21.773 13.871c-6.285-.581-11.778-2.373-15.675-4.886-3.912-2.522-6.098-5.679-6.098-8.985h-1.574c0 4.057 2.677 7.638 6.819 10.308 4.156 2.679 9.906 4.532 16.383 5.13l.145-1.567Zm.715 10.892v-10.108h-1.574v10.108h1.574Zm-50.257.787h49.47v-1.574H31.48v1.574Zm-27.77-27.77c0 15.337 12.433 27.77 27.77 27.77v-1.574c-14.467 0-26.196-11.728-26.196-26.196H3.71Zm0-116.927V148.7h1.574V31.774H3.71Z" fill="#D9D9D9" mask="url(#b)"/></g><path d="M26.546 135.029v3.453a4.302 4.302 0 0 0-1.505.545 4.038 4.038 0 0 0-1.126.988 4.117 4.117 0 0 0-.693 1.348 5.255 5.255 0 0 0-.24 1.615c0 1.028.259 1.939.776 2.733.51.794 1.262 1.416 2.253 1.866.985.449 2.188.674 3.61.674 1.446 0 2.665-.225 3.656-.674.985-.456 1.73-1.078 2.234-1.866.499-.794.748-1.701.748-2.723 0-.567-.074-1.096-.221-1.588a4.346 4.346 0 0 0-.674-1.339 3.966 3.966 0 0 0-1.09-1.007 4.12 4.12 0 0 0-1.477-.572l.018-3.453a7.427 7.427 0 0 1 2.53.84 7.47 7.47 0 0 1 2.087 1.671 7.719 7.719 0 0 1 1.403 2.419c.333.924.499 1.948.499 3.075 0 1.662-.385 3.145-1.154 4.45-.77 1.305-1.88 2.333-3.333 3.084-1.453.751-3.195 1.126-5.226 1.126-2.038 0-3.78-.378-5.226-1.135-1.453-.757-2.564-1.788-3.333-3.093-.77-1.305-1.154-2.782-1.154-4.432 0-1.053.147-2.031.443-2.936a7.522 7.522 0 0 1 1.302-2.419 6.92 6.92 0 0 1 2.086-1.745c.819-.462 1.755-.764 2.807-.905Zm12.816-7.07c0 .898-.16 1.708-.48 2.428a3.966 3.966 0 0 1-1.44 1.699c-.635.412-1.417.619-2.346.619-.8 0-1.462-.148-1.985-.444a3.424 3.424 0 0 1-1.256-1.209 6.106 6.106 0 0 1-.71-1.727 14.04 14.04 0 0 1-.36-2.003 78.606 78.606 0 0 0-.232-2.022c-.073-.517-.184-.893-.332-1.127-.154-.24-.39-.36-.711-.36h-.055c-.696 0-1.234.206-1.616.619-.382.412-.573 1.006-.573 1.782 0 .818.179 1.468.536 1.948.357.474.779.794 1.265.96l-.443 3.121c-.862-.246-1.582-.653-2.16-1.219a5.303 5.303 0 0 1-1.312-2.077c-.295-.819-.443-1.724-.443-2.715 0-.683.08-1.363.24-2.04.16-.677.425-1.296.794-1.856.363-.56.859-1.01 1.487-1.348.627-.345 1.412-.517 2.354-.517h9.491v3.213h-1.948v.111c.394.203.763.489 1.108.858.339.364.613.822.822 1.376.203.548.305 1.191.305 1.93Zm-2.456-.868c0-.671-.133-1.253-.397-1.745a2.935 2.935 0 0 0-1.072-1.136 2.726 2.726 0 0 0-1.449-.406h-1.671c.086.105.166.283.24.535.074.247.138.524.194.831.055.308.104.613.148.914l.11.785c.068.499.179.945.333 1.339.154.394.369.705.646.933.27.227.622.341 1.053.341.615 0 1.08-.224 1.394-.674.314-.449.47-1.022.47-1.717Zm-8.264-21.19.332 3.047a2.437 2.437 0 0 0-.867.453c-.271.209-.49.492-.656.849-.166.357-.25.794-.25 1.311 0 .696.152 1.28.453 1.754.302.468.693.699 1.173.693.412.006.748-.145 1.006-.453.259-.314.471-.831.637-1.551l.517-2.419c.29-1.342.748-2.339 1.376-2.991.628-.659 1.45-.991 2.465-.997.893.006 1.68.267 2.364.784.677.511 1.206 1.222 1.588 2.133.381.911.572 1.958.572 3.139 0 1.736-.363 3.133-1.09 4.192-.732 1.059-1.75 1.69-3.055 1.893l-.314-3.259c.64-.148 1.123-.462 1.45-.942.326-.48.489-1.105.489-1.874 0-.794-.163-1.431-.49-1.912-.326-.486-.729-.729-1.21-.729a1.26 1.26 0 0 0-1.005.471c-.265.308-.468.788-.61 1.44l-.508 2.419c-.283 1.361-.76 2.367-1.43 3.019-.678.653-1.534.976-2.568.97-.874.006-1.63-.231-2.27-.711-.647-.486-1.146-1.16-1.497-2.022-.357-.868-.535-1.868-.535-3.001 0-1.662.354-2.97 1.062-3.924.707-.96 1.665-1.554 2.871-1.782Zm2.124-6.403h8.31v3.343h-18.91v-3.269h7.137v-.166a4.103 4.103 0 0 1-1.892-1.542c-.468-.702-.702-1.594-.702-2.678 0-.984.206-1.843.619-2.576.412-.732 1.015-1.298 1.81-1.698.793-.407 1.763-.61 2.907-.61h9.03v3.342h-8.513c-.954 0-1.695.247-2.225.74-.535.485-.803 1.169-.803 2.049 0 .59.13 1.12.388 1.588.252.462.619.825 1.099 1.09.48.258 1.061.387 1.745.387Zm8.31-12.75h-18.91v-3.343h7.073v-.138a6.152 6.152 0 0 1-1.099-.73c-.394-.314-.73-.738-1.006-1.274-.284-.535-.425-1.219-.425-2.05 0-1.095.28-2.083.84-2.963.554-.887 1.376-1.588 2.465-2.106 1.084-.523 2.413-.784 3.989-.784 1.557 0 2.88.255 3.97.766 1.09.51 1.92 1.206 2.493 2.087.572.88.859 1.877.859 2.991 0 .813-.136 1.487-.407 2.022-.27.536-.597.967-.978 1.293-.388.32-.754.57-1.099.748v.194h2.234v3.287Zm-7.092-3.278c.918 0 1.72-.13 2.41-.388.69-.265 1.228-.643 1.616-1.136.382-.498.572-1.101.572-1.81 0-.738-.197-1.356-.59-1.855-.4-.499-.945-.874-1.635-1.127-.695-.258-1.486-.387-2.373-.387-.88 0-1.662.126-2.345.378-.683.253-1.218.628-1.606 1.127-.388.498-.582 1.12-.582 1.865 0 .714.188 1.32.563 1.819.376.498.902.877 1.58 1.135.676.253 1.473.379 2.39.379Zm7.378-17.033c0 .899-.16 1.708-.48 2.429a3.962 3.962 0 0 1-1.44 1.698c-.635.413-1.417.619-2.346.619-.8 0-1.462-.148-1.985-.443a3.43 3.43 0 0 1-1.256-1.21 6.1 6.1 0 0 1-.71-1.726 14.046 14.046 0 0 1-.36-2.004 78.71 78.71 0 0 0-.232-2.022c-.074-.517-.184-.892-.332-1.126-.154-.24-.39-.36-.711-.36h-.055c-.696 0-1.234.206-1.616.618-.382.413-.573 1.007-.573 1.782 0 .819.179 1.468.536 1.948.357.474.779.794 1.265.96l-.443 3.121c-.862-.246-1.582-.652-2.16-1.218a5.301 5.301 0 0 1-1.312-2.078c-.295-.818-.443-1.723-.443-2.714 0-.683.08-1.364.24-2.04.16-.678.425-1.296.794-1.857a3.99 3.99 0 0 1 1.486-1.348c.628-.344 1.413-.517 2.355-.517h9.491v3.213h-1.948v.111c.394.203.763.49 1.108.859.339.363.613.822.822 1.376.203.547.305 1.19.305 1.93Zm-2.456-.868c0-.67-.133-1.252-.397-1.745a2.936 2.936 0 0 0-1.072-1.135 2.728 2.728 0 0 0-1.449-.407h-1.671c.086.105.166.284.24.536.074.246.138.523.194.83.055.309.104.613.148.915.043.302.08.563.11.785.068.498.179.945.333 1.339.154.394.369.704.646.932.27.228.622.342 1.053.342.615 0 1.08-.225 1.394-.674.314-.45.47-1.022.47-1.718Zm2.446-16.166c0 1.415-.31 2.63-.932 3.647-.622 1.009-1.48 1.788-2.576 2.336-1.102.541-2.37.812-3.804.812-1.44 0-2.712-.277-3.813-.831-1.108-.554-1.97-1.336-2.586-2.345-.621-1.016-.932-2.216-.932-3.601 0-1.151.212-2.17.637-3.056.419-.893 1.012-1.604 1.782-2.133.763-.53 1.656-.83 2.677-.905v3.195a3.054 3.054 0 0 0-1.708.923c-.461.48-.692 1.123-.692 1.93 0 .683.184 1.283.554 1.8.363.517.886.92 1.57 1.21.683.283 1.501.425 2.455.425.967 0 1.798-.142 2.493-.425.69-.283 1.222-.68 1.598-1.191.369-.517.554-1.124.554-1.82 0-.492-.093-.932-.277-1.32a2.654 2.654 0 0 0-.822-.987c-.357-.265-.791-.447-1.302-.545v-3.195c1.003.08 1.893.376 2.668.887.77.51 1.373 1.206 1.81 2.086.43.88.646 1.915.646 3.103Zm-4.727-11.867-4.035.01v-.536l-5.697-5.097v-3.906l6.98 6.27v.692l2.752 2.567Zm4.45 3.047H20.166V37.24h18.91v3.343Zm0-8.9-6.454 4.616-2.354-2.253 8.808-6.362v3.998Z" fill="#FEFEFE"/><defs><filter id="a" x="0" y=".293" width="85.447" height="179.888" filterUnits="userSpaceOnUse" color-interpolation-filters="sRGB"><feFlood flood-opacity="0" result="BackgroundImageFix"/><feColorMatrix in="SourceAlpha" values="0 0 0 0 0 0 0 0 0 0 0 0 0 0 0 0 0 0 127 0" result="hardAlpha"/><feOffset dy="2.249"/><feGaussianBlur stdDeviation="1.124"/><feComposite in2="hardAlpha" operator="out"/><feColorMatrix values="0 0 0 0 0 0 0 0 0 0 0 0 0 0 0 0 0 0 0.1 0"/><feBlend in2="BackgroundImageFix" result="effect1_dropShadow_4901_8515"/><feColorMatrix in="SourceAlpha" values="0 0 0 0 0 0 0 0 0 0 0 0 0 0 0 0 0 0 127 0" result="hardAlpha"/><feOffset/><feGaussianBlur stdDeviation="2.249"/><feComposite in2="hardAlpha" operator="out"/><feColorMatrix values="0 0 0 0 0 0 0 0 0 0 0 0 0 0 0 0 0 0 0.14 0"/><feBlend in2="effect1_dropShadow_4901_8515" result="effect2_dropShadow_4901_8515"/><feBlend in="SourceGraphic" in2="effect2_dropShadow_4901_8515" result="shape"/></filter></defs></svg>