<svg width="16" height="17" fill="none" xmlns="http://www.w3.org/2000/svg"><g clip-path="url(#a)" fill="#707070"><path d="m8.716 8.5 2.16-2.16a.445.445 0 0 0-.627-.627l-2.16 2.138-2.173-2.173a.444.444 0 0 0-.627.626L7.458 8.5l-2.125 2.098a.444.444 0 1 0 .627.627l2.12-2.12 2.107 2.106a.445.445 0 0 0 .626-.627L8.716 8.5Z"/><path d="M8 15.611A7.11 7.11 0 1 1 8 1.39a7.11 7.11 0 0 1 0 14.222ZM8 2.278a6.222 6.222 0 1 0 0 12.444A6.222 6.222 0 0 0 8 2.278Z"/></g><defs><clipPath id="a"><path fill="#fff" transform="translate(0 .5)" d="M0 0h16v16H0z"/></clipPath></defs></svg>