<svg width="16" height="17" viewBox="0 0 16 17" fill="none" xmlns="http://www.w3.org/2000/svg">
<g id="clarity:remove-line" clip-path="url(#clip0_4762_25934)">
<path id="Vector" d="M8.71555 8.50001L10.8756 6.34001C10.9484 6.25499 10.9864 6.14562 10.9821 6.03377C10.9778 5.92191 10.9314 5.81581 10.8522 5.73665C10.7731 5.6575 10.667 5.61113 10.5551 5.60681C10.4433 5.60249 10.3339 5.64054 10.2489 5.71335L8.08889 7.85113L5.91555 5.67779C5.83053 5.60498 5.72116 5.56693 5.60931 5.57125C5.49745 5.57557 5.39135 5.62194 5.31219 5.7011C5.23304 5.78025 5.18667 5.88636 5.18235 5.99821C5.17803 6.11007 5.21608 6.21944 5.28889 6.30446L7.45778 8.50001L5.33333 10.5978C5.28681 10.6376 5.24902 10.6867 5.22234 10.7418C5.19567 10.7969 5.18067 10.857 5.17831 10.9182C5.17595 10.9794 5.18626 11.0405 5.2086 11.0975C5.23095 11.1545 5.26484 11.2063 5.30815 11.2496C5.35147 11.293 5.40327 11.3268 5.4603 11.3492C5.51733 11.3715 5.57837 11.3818 5.63958 11.3795C5.70079 11.3771 5.76084 11.3621 5.81598 11.3354C5.87112 11.3088 5.92015 11.271 5.96 11.2245L8.08 9.10446L10.1867 11.2111C10.2717 11.2839 10.3811 11.322 10.4929 11.3177C10.6048 11.3133 10.7109 11.267 10.79 11.1878C10.8692 11.1087 10.9155 11.0026 10.9199 10.8907C10.9242 10.7788 10.8861 10.6695 10.8133 10.5845L8.71555 8.50001Z" fill="#707070"/>
<path id="Vector_2" d="M8.00003 15.6111C6.59359 15.6111 5.21872 15.1941 4.04931 14.4127C2.87989 13.6313 1.96844 12.5207 1.43022 11.2213C0.891997 9.92195 0.751173 8.49214 1.02556 7.11272C1.29994 5.7333 1.97721 4.46622 2.97172 3.47172C3.96622 2.47721 5.2333 1.79994 6.61272 1.52556C7.99214 1.25117 9.42195 1.392 10.7213 1.93022C12.0207 2.46844 13.1313 3.37989 13.9127 4.54931C14.6941 5.71872 15.1111 7.09359 15.1111 8.50003C15.1111 10.386 14.3619 12.1948 13.0283 13.5283C11.6948 14.8619 9.88601 15.6111 8.00003 15.6111ZM8.00003 2.27781C6.76939 2.27781 5.56639 2.64274 4.54315 3.32644C3.51991 4.01015 2.72239 4.98193 2.25145 6.11889C1.7805 7.25585 1.65728 8.50693 1.89737 9.71393C2.13745 10.9209 2.73006 12.0296 3.60025 12.8998C4.47045 13.77 5.57914 14.3626 6.78614 14.6027C7.99313 14.8428 9.24421 14.7196 10.3812 14.2486C11.5181 13.7777 12.4899 12.9802 13.1736 11.9569C13.8573 10.9337 14.2223 9.73067 14.2223 8.50003C14.2223 6.84979 13.5667 5.26715 12.3998 4.10025C11.2329 2.93336 9.65027 2.27781 8.00003 2.27781Z" fill="#707070"/>
</g>
<defs>
<clipPath id="clip0_4762_25934">
<rect width="16" height="16" fill="white" transform="translate(0 0.5)"/>
</clipPath>
</defs>
</svg>
