<svg width="536" height="181" viewBox="0 0 536 181" fill="none" xmlns="http://www.w3.org/2000/svg">
<g filter="url(#filter0_dd_5507_19278)">
<mask id="path-1-inside-1_5507_19278" fill="white">
<path fill-rule="evenodd" clip-rule="evenodd" d="M20.7998 31.8914C20.7998 25.0975 15.8257 19.3827 9.0754 17.7171C13.841 10.0808 22.3188 5 31.9832 5H504.321C519.224 5 531.305 17.0808 531.305 31.9832V146.662C531.305 161.564 519.224 173.645 504.321 173.645H31.9832C23.2076 173.645 15.4104 169.456 10.4824 162.968C16.5056 160.901 20.7998 155.52 20.7998 149.208C20.7998 141.109 13.7307 134.543 5.01062 134.543C5.00708 134.543 5.00354 134.543 5 134.543V124.765H5.01062C13.7307 124.765 20.7998 118.199 20.7998 110.1C20.7998 102.001 13.7307 95.4355 5.01062 95.4355H5V85.6597H5.01062C13.7307 85.6597 20.7998 79.094 20.7998 70.9949C20.7998 62.8957 13.7307 56.3301 5.01062 56.3301L5 56.3301V46.5561L5.01062 46.5561C13.7307 46.5561 20.7998 39.9905 20.7998 31.8914Z"/>
</mask>
<path fill-rule="evenodd" clip-rule="evenodd" d="M20.7998 31.8914C20.7998 25.0975 15.8257 19.3827 9.0754 17.7171C13.841 10.0808 22.3188 5 31.9832 5H504.321C519.224 5 531.305 17.0808 531.305 31.9832V146.662C531.305 161.564 519.224 173.645 504.321 173.645H31.9832C23.2076 173.645 15.4104 169.456 10.4824 162.968C16.5056 160.901 20.7998 155.52 20.7998 149.208C20.7998 141.109 13.7307 134.543 5.01062 134.543C5.00708 134.543 5.00354 134.543 5 134.543V124.765H5.01062C13.7307 124.765 20.7998 118.199 20.7998 110.1C20.7998 102.001 13.7307 95.4355 5.01062 95.4355H5V85.6597H5.01062C13.7307 85.6597 20.7998 79.094 20.7998 70.9949C20.7998 62.8957 13.7307 56.3301 5.01062 56.3301L5 56.3301V46.5561L5.01062 46.5561C13.7307 46.5561 20.7998 39.9905 20.7998 31.8914Z" fill="#D9D9D9"/>
<path d="M9.0754 17.7171L8.74454 17.5106L8.45979 17.9669L8.98197 18.0957L9.0754 17.7171ZM10.4824 162.968L10.3558 162.599L9.84551 162.774L10.1719 163.204L10.4824 162.968ZM5 134.543H4.61V134.933H5V134.543ZM5 124.765V124.375H4.61V124.765H5ZM5 95.4355H4.61V95.8255H5V95.4355ZM5 85.6597V85.2697H4.61V85.6597H5ZM5.01062 56.3301L5.01062 55.9401L5.01048 55.9401L5.01062 56.3301ZM5 56.3301H4.61V56.7202L5.00014 56.7201L5 56.3301ZM5 46.5561L5.00014 46.1661L4.61 46.166V46.5561H5ZM5.01062 46.5561L5.01048 46.9461H5.01062V46.5561ZM8.98197 18.0957C15.5803 19.7238 20.4098 25.2989 20.4098 31.8914H21.1898C21.1898 24.8962 16.071 19.0415 9.16882 17.3385L8.98197 18.0957ZM31.9832 4.61C22.1787 4.61 13.5784 9.765 8.74454 17.5106L9.40625 17.9236C14.1036 10.3967 22.4589 5.39 31.9832 5.39V4.61ZM504.321 4.61H31.9832V5.39H504.321V4.61ZM531.695 31.9832C531.695 16.8654 519.439 4.61 504.321 4.61V5.39C519.008 5.39 530.915 17.2962 530.915 31.9832H531.695ZM531.695 146.662V31.9832H530.915V146.662H531.695ZM504.321 174.035C519.439 174.035 531.695 161.78 531.695 146.662H530.915C530.915 161.349 519.008 173.255 504.321 173.255V174.035ZM31.9832 174.035H504.321V173.255H31.9832V174.035ZM10.1719 163.204C15.1704 169.785 23.0805 174.035 31.9832 174.035V173.255C23.3346 173.255 15.6504 169.127 10.793 162.732L10.1719 163.204ZM20.4098 149.208C20.4098 155.334 16.2411 160.58 10.3558 162.599L10.609 163.337C16.7701 161.223 21.1898 155.707 21.1898 149.208H20.4098ZM5.01062 134.933C13.543 134.933 20.4098 141.351 20.4098 149.208H21.1898C21.1898 140.867 13.9185 134.153 5.01062 134.153V134.933ZM5 134.933C5.00001 134.933 5.00001 134.933 5.00002 134.933C5.00003 134.933 5.00003 134.933 5.00004 134.933C5.00005 134.933 5.00006 134.933 5.00006 134.933C5.00007 134.933 5.00008 134.933 5.00008 134.933C5.00009 134.933 5.0001 134.933 5.0001 134.933C5.00011 134.933 5.00012 134.933 5.00012 134.933C5.00013 134.933 5.00014 134.933 5.00015 134.933C5.00015 134.933 5.00016 134.933 5.00017 134.933C5.00017 134.933 5.00018 134.933 5.00019 134.933C5.00019 134.933 5.0002 134.933 5.00021 134.933C5.00021 134.933 5.00022 134.933 5.00023 134.933C5.00024 134.933 5.00024 134.933 5.00025 134.933C5.00026 134.933 5.00026 134.933 5.00027 134.933C5.00028 134.933 5.00028 134.933 5.00029 134.933C5.0003 134.933 5.0003 134.933 5.00031 134.933C5.00032 134.933 5.00032 134.933 5.00033 134.933C5.00034 134.933 5.00035 134.933 5.00035 134.933C5.00036 134.933 5.00037 134.933 5.00037 134.933C5.00038 134.933 5.00039 134.933 5.00039 134.933C5.0004 134.933 5.00041 134.933 5.00041 134.933C5.00042 134.933 5.00043 134.933 5.00044 134.933C5.00044 134.933 5.00045 134.933 5.00046 134.933C5.00046 134.933 5.00047 134.933 5.00048 134.933C5.00048 134.933 5.00049 134.933 5.0005 134.933C5.0005 134.933 5.00051 134.933 5.00052 134.933C5.00053 134.933 5.00053 134.933 5.00054 134.933C5.00055 134.933 5.00055 134.933 5.00056 134.933C5.00057 134.933 5.00057 134.933 5.00058 134.933C5.00059 134.933 5.00059 134.933 5.0006 134.933C5.00061 134.933 5.00062 134.933 5.00062 134.933C5.00063 134.933 5.00064 134.933 5.00064 134.933C5.00065 134.933 5.00066 134.933 5.00066 134.933C5.00067 134.933 5.00068 134.933 5.00068 134.933C5.00069 134.933 5.0007 134.933 5.00071 134.933C5.00071 134.933 5.00072 134.933 5.00073 134.933C5.00073 134.933 5.00074 134.933 5.00075 134.933C5.00075 134.933 5.00076 134.933 5.00077 134.933C5.00077 134.933 5.00078 134.933 5.00079 134.933C5.0008 134.933 5.0008 134.933 5.00081 134.933C5.00082 134.933 5.00082 134.933 5.00083 134.933C5.00084 134.933 5.00084 134.933 5.00085 134.933C5.00086 134.933 5.00086 134.933 5.00087 134.933C5.00088 134.933 5.00089 134.933 5.00089 134.933C5.0009 134.933 5.00091 134.933 5.00091 134.933C5.00092 134.933 5.00093 134.933 5.00093 134.933C5.00094 134.933 5.00095 134.933 5.00095 134.933C5.00096 134.933 5.00097 134.933 5.00097 134.933C5.00098 134.933 5.00099 134.933 5.001 134.933C5.001 134.933 5.00101 134.933 5.00102 134.933C5.00102 134.933 5.00103 134.933 5.00104 134.933C5.00104 134.933 5.00105 134.933 5.00106 134.933C5.00106 134.933 5.00107 134.933 5.00108 134.933C5.00109 134.933 5.00109 134.933 5.0011 134.933C5.00111 134.933 5.00111 134.933 5.00112 134.933C5.00113 134.933 5.00113 134.933 5.00114 134.933C5.00115 134.933 5.00115 134.933 5.00116 134.933C5.00117 134.933 5.00118 134.933 5.00118 134.933C5.00119 134.933 5.0012 134.933 5.0012 134.933C5.00121 134.933 5.00122 134.933 5.00122 134.933C5.00123 134.933 5.00124 134.933 5.00124 134.933C5.00125 134.933 5.00126 134.933 5.00127 134.933C5.00127 134.933 5.00128 134.933 5.00129 134.933C5.00129 134.933 5.0013 134.933 5.00131 134.933C5.00131 134.933 5.00132 134.933 5.00133 134.933C5.00133 134.933 5.00134 134.933 5.00135 134.933C5.00136 134.933 5.00136 134.933 5.00137 134.933C5.00138 134.933 5.00138 134.933 5.00139 134.933C5.0014 134.933 5.0014 134.933 5.00141 134.933C5.00142 134.933 5.00142 134.933 5.00143 134.933C5.00144 134.933 5.00145 134.933 5.00145 134.933C5.00146 134.933 5.00147 134.933 5.00147 134.933C5.00148 134.933 5.00149 134.933 5.00149 134.933C5.0015 134.933 5.00151 134.933 5.00151 134.933C5.00152 134.933 5.00153 134.933 5.00153 134.933C5.00154 134.933 5.00155 134.933 5.00156 134.933C5.00156 134.933 5.00157 134.933 5.00158 134.933C5.00158 134.933 5.00159 134.933 5.0016 134.933C5.0016 134.933 5.00161 134.933 5.00162 134.933C5.00162 134.933 5.00163 134.933 5.00164 134.933C5.00165 134.933 5.00165 134.933 5.00166 134.933C5.00167 134.933 5.00167 134.933 5.00168 134.933C5.00169 134.933 5.00169 134.933 5.0017 134.933C5.00171 134.933 5.00171 134.933 5.00172 134.933C5.00173 134.933 5.00174 134.933 5.00174 134.933C5.00175 134.933 5.00176 134.933 5.00176 134.933C5.00177 134.933 5.00178 134.933 5.00178 134.933C5.00179 134.933 5.0018 134.933 5.0018 134.933C5.00181 134.933 5.00182 134.933 5.00183 134.933C5.00183 134.933 5.00184 134.933 5.00185 134.933C5.00185 134.933 5.00186 134.933 5.00187 134.933C5.00187 134.933 5.00188 134.933 5.00189 134.933C5.00189 134.933 5.0019 134.933 5.00191 134.933C5.00192 134.933 5.00192 134.933 5.00193 134.933C5.00194 134.933 5.00194 134.933 5.00195 134.933C5.00196 134.933 5.00196 134.933 5.00197 134.933C5.00198 134.933 5.00198 134.933 5.00199 134.933C5.002 134.933 5.00201 134.933 5.00201 134.933C5.00202 134.933 5.00203 134.933 5.00203 134.933C5.00204 134.933 5.00205 134.933 5.00205 134.933C5.00206 134.933 5.00207 134.933 5.00207 134.933C5.00208 134.933 5.00209 134.933 5.0021 134.933C5.0021 134.933 5.00211 134.933 5.00212 134.933C5.00212 134.933 5.00213 134.933 5.00214 134.933C5.00214 134.933 5.00215 134.933 5.00216 134.933C5.00216 134.933 5.00217 134.933 5.00218 134.933C5.00218 134.933 5.00219 134.933 5.0022 134.933C5.00221 134.933 5.00221 134.933 5.00222 134.933C5.00223 134.933 5.00223 134.933 5.00224 134.933C5.00225 134.933 5.00225 134.933 5.00226 134.933C5.00227 134.933 5.00227 134.933 5.00228 134.933C5.00229 134.933 5.0023 134.933 5.0023 134.933C5.00231 134.933 5.00232 134.933 5.00232 134.933C5.00233 134.933 5.00234 134.933 5.00234 134.933C5.00235 134.933 5.00236 134.933 5.00236 134.933C5.00237 134.933 5.00238 134.933 5.00239 134.933C5.00239 134.933 5.0024 134.933 5.00241 134.933C5.00241 134.933 5.00242 134.933 5.00243 134.933C5.00243 134.933 5.00244 134.933 5.00245 134.933C5.00245 134.933 5.00246 134.933 5.00247 134.933C5.00248 134.933 5.00248 134.933 5.00249 134.933C5.0025 134.933 5.0025 134.933 5.00251 134.933C5.00252 134.933 5.00252 134.933 5.00253 134.933C5.00254 134.933 5.00254 134.933 5.00255 134.933C5.00256 134.933 5.00257 134.933 5.00257 134.933C5.00258 134.933 5.00259 134.933 5.00259 134.933C5.0026 134.933 5.00261 134.933 5.00261 134.933C5.00262 134.933 5.00263 134.933 5.00263 134.933C5.00264 134.933 5.00265 134.933 5.00266 134.933C5.00266 134.933 5.00267 134.933 5.00268 134.933C5.00268 134.933 5.00269 134.933 5.0027 134.933C5.0027 134.933 5.00271 134.933 5.00272 134.933C5.00272 134.933 5.00273 134.933 5.00274 134.933C5.00275 134.933 5.00275 134.933 5.00276 134.933C5.00277 134.933 5.00277 134.933 5.00278 134.933C5.00279 134.933 5.00279 134.933 5.0028 134.933C5.00281 134.933 5.00281 134.933 5.00282 134.933C5.00283 134.933 5.00283 134.933 5.00284 134.933C5.00285 134.933 5.00286 134.933 5.00286 134.933C5.00287 134.933 5.00288 134.933 5.00288 134.933C5.00289 134.933 5.0029 134.933 5.0029 134.933C5.00291 134.933 5.00292 134.933 5.00292 134.933C5.00293 134.933 5.00294 134.933 5.00295 134.933C5.00295 134.933 5.00296 134.933 5.00297 134.933C5.00297 134.933 5.00298 134.933 5.00299 134.933C5.00299 134.933 5.003 134.933 5.00301 134.933C5.00301 134.933 5.00302 134.933 5.00303 134.933C5.00304 134.933 5.00304 134.933 5.00305 134.933C5.00306 134.933 5.00306 134.933 5.00307 134.933C5.00308 134.933 5.00308 134.933 5.00309 134.933C5.0031 134.933 5.0031 134.933 5.00311 134.933C5.00312 134.933 5.00313 134.933 5.00313 134.933C5.00314 134.933 5.00315 134.933 5.00315 134.933C5.00316 134.933 5.00317 134.933 5.00317 134.933C5.00318 134.933 5.00319 134.933 5.00319 134.933C5.0032 134.933 5.00321 134.933 5.00322 134.933C5.00322 134.933 5.00323 134.933 5.00324 134.933C5.00324 134.933 5.00325 134.933 5.00326 134.933C5.00326 134.933 5.00327 134.933 5.00328 134.933C5.00328 134.933 5.00329 134.933 5.0033 134.933C5.00331 134.933 5.00331 134.933 5.00332 134.933C5.00333 134.933 5.00333 134.933 5.00334 134.933C5.00335 134.933 5.00335 134.933 5.00336 134.933C5.00337 134.933 5.00337 134.933 5.00338 134.933C5.00339 134.933 5.00339 134.933 5.0034 134.933C5.00341 134.933 5.00342 134.933 5.00342 134.933C5.00343 134.933 5.00344 134.933 5.00344 134.933C5.00345 134.933 5.00346 134.933 5.00346 134.933C5.00347 134.933 5.00348 134.933 5.00348 134.933C5.00349 134.933 5.0035 134.933 5.00351 134.933C5.00351 134.933 5.00352 134.933 5.00353 134.933C5.00353 134.933 5.00354 134.933 5.00355 134.933C5.00355 134.933 5.00356 134.933 5.00357 134.933C5.00357 134.933 5.00358 134.933 5.00359 134.933C5.0036 134.933 5.0036 134.933 5.00361 134.933C5.00362 134.933 5.00362 134.933 5.00363 134.933C5.00364 134.933 5.00364 134.933 5.00365 134.933C5.00366 134.933 5.00366 134.933 5.00367 134.933C5.00368 134.933 5.00369 134.933 5.00369 134.933C5.0037 134.933 5.00371 134.933 5.00371 134.933C5.00372 134.933 5.00373 134.933 5.00373 134.933C5.00374 134.933 5.00375 134.933 5.00375 134.933C5.00376 134.933 5.00377 134.933 5.00378 134.933C5.00378 134.933 5.00379 134.933 5.0038 134.933C5.0038 134.933 5.00381 134.933 5.00382 134.933C5.00382 134.933 5.00383 134.933 5.00384 134.933C5.00384 134.933 5.00385 134.933 5.00386 134.933C5.00387 134.933 5.00387 134.933 5.00388 134.933C5.00389 134.933 5.00389 134.933 5.0039 134.933C5.00391 134.933 5.00391 134.933 5.00392 134.933C5.00393 134.933 5.00393 134.933 5.00394 134.933C5.00395 134.933 5.00396 134.933 5.00396 134.933C5.00397 134.933 5.00398 134.933 5.00398 134.933C5.00399 134.933 5.004 134.933 5.004 134.933C5.00401 134.933 5.00402 134.933 5.00402 134.933C5.00403 134.933 5.00404 134.933 5.00404 134.933C5.00405 134.933 5.00406 134.933 5.00407 134.933C5.00407 134.933 5.00408 134.933 5.00409 134.933C5.00409 134.933 5.0041 134.933 5.00411 134.933C5.00411 134.933 5.00412 134.933 5.00413 134.933C5.00413 134.933 5.00414 134.933 5.00415 134.933C5.00416 134.933 5.00416 134.933 5.00417 134.933C5.00418 134.933 5.00418 134.933 5.00419 134.933C5.0042 134.933 5.0042 134.933 5.00421 134.933C5.00422 134.933 5.00422 134.933 5.00423 134.933C5.00424 134.933 5.00425 134.933 5.00425 134.933C5.00426 134.933 5.00427 134.933 5.00427 134.933C5.00428 134.933 5.00429 134.933 5.00429 134.933C5.0043 134.933 5.00431 134.933 5.00431 134.933C5.00432 134.933 5.00433 134.933 5.00434 134.933C5.00434 134.933 5.00435 134.933 5.00436 134.933C5.00436 134.933 5.00437 134.933 5.00438 134.933C5.00438 134.933 5.00439 134.933 5.0044 134.933C5.0044 134.933 5.00441 134.933 5.00442 134.933C5.00443 134.933 5.00443 134.933 5.00444 134.933C5.00445 134.933 5.00445 134.933 5.00446 134.933C5.00447 134.933 5.00447 134.933 5.00448 134.933C5.00449 134.933 5.00449 134.933 5.0045 134.933C5.00451 134.933 5.00452 134.933 5.00452 134.933C5.00453 134.933 5.00454 134.933 5.00454 134.933C5.00455 134.933 5.00456 134.933 5.00456 134.933C5.00457 134.933 5.00458 134.933 5.00458 134.933C5.00459 134.933 5.0046 134.933 5.00461 134.933C5.00461 134.933 5.00462 134.933 5.00463 134.933C5.00463 134.933 5.00464 134.933 5.00465 134.933C5.00465 134.933 5.00466 134.933 5.00467 134.933C5.00467 134.933 5.00468 134.933 5.00469 134.933C5.00469 134.933 5.0047 134.933 5.00471 134.933C5.00472 134.933 5.00472 134.933 5.00473 134.933C5.00474 134.933 5.00474 134.933 5.00475 134.933C5.00476 134.933 5.00476 134.933 5.00477 134.933C5.00478 134.933 5.00478 134.933 5.00479 134.933C5.0048 134.933 5.00481 134.933 5.00481 134.933C5.00482 134.933 5.00483 134.933 5.00483 134.933C5.00484 134.933 5.00485 134.933 5.00485 134.933C5.00486 134.933 5.00487 134.933 5.00487 134.933C5.00488 134.933 5.00489 134.933 5.0049 134.933C5.0049 134.933 5.00491 134.933 5.00492 134.933C5.00492 134.933 5.00493 134.933 5.00494 134.933C5.00494 134.933 5.00495 134.933 5.00496 134.933C5.00496 134.933 5.00497 134.933 5.00498 134.933C5.00499 134.933 5.00499 134.933 5.005 134.933C5.00501 134.933 5.00501 134.933 5.00502 134.933C5.00503 134.933 5.00503 134.933 5.00504 134.933C5.00505 134.933 5.00505 134.933 5.00506 134.933C5.00507 134.933 5.00508 134.933 5.00508 134.933C5.00509 134.933 5.0051 134.933 5.0051 134.933C5.00511 134.933 5.00512 134.933 5.00512 134.933C5.00513 134.933 5.00514 134.933 5.00514 134.933C5.00515 134.933 5.00516 134.933 5.00517 134.933C5.00517 134.933 5.00518 134.933 5.00519 134.933C5.00519 134.933 5.0052 134.933 5.00521 134.933C5.00521 134.933 5.00522 134.933 5.00523 134.933C5.00523 134.933 5.00524 134.933 5.00525 134.933C5.00526 134.933 5.00526 134.933 5.00527 134.933C5.00528 134.933 5.00528 134.933 5.00529 134.933C5.0053 134.933 5.0053 134.933 5.00531 134.933C5.00532 134.933 5.00532 134.933 5.00533 134.933C5.00534 134.933 5.00534 134.933 5.00535 134.933C5.00536 134.933 5.00537 134.933 5.00537 134.933C5.00538 134.933 5.00539 134.933 5.00539 134.933C5.0054 134.933 5.00541 134.933 5.00541 134.933C5.00542 134.933 5.00543 134.933 5.00543 134.933C5.00544 134.933 5.00545 134.933 5.00546 134.933C5.00546 134.933 5.00547 134.933 5.00548 134.933C5.00548 134.933 5.00549 134.933 5.0055 134.933C5.0055 134.933 5.00551 134.933 5.00552 134.933C5.00552 134.933 5.00553 134.933 5.00554 134.933C5.00555 134.933 5.00555 134.933 5.00556 134.933C5.00557 134.933 5.00557 134.933 5.00558 134.933C5.00559 134.933 5.00559 134.933 5.0056 134.933C5.00561 134.933 5.00561 134.933 5.00562 134.933C5.00563 134.933 5.00564 134.933 5.00564 134.933C5.00565 134.933 5.00566 134.933 5.00566 134.933C5.00567 134.933 5.00568 134.933 5.00568 134.933C5.00569 134.933 5.0057 134.933 5.0057 134.933C5.00571 134.933 5.00572 134.933 5.00573 134.933C5.00573 134.933 5.00574 134.933 5.00575 134.933C5.00575 134.933 5.00576 134.933 5.00577 134.933C5.00577 134.933 5.00578 134.933 5.00579 134.933C5.00579 134.933 5.0058 134.933 5.00581 134.933C5.00582 134.933 5.00582 134.933 5.00583 134.933C5.00584 134.933 5.00584 134.933 5.00585 134.933C5.00586 134.933 5.00586 134.933 5.00587 134.933C5.00588 134.933 5.00588 134.933 5.00589 134.933C5.0059 134.933 5.00591 134.933 5.00591 134.933C5.00592 134.933 5.00593 134.933 5.00593 134.933C5.00594 134.933 5.00595 134.933 5.00595 134.933C5.00596 134.933 5.00597 134.933 5.00597 134.933C5.00598 134.933 5.00599 134.933 5.00599 134.933C5.006 134.933 5.00601 134.933 5.00602 134.933C5.00602 134.933 5.00603 134.933 5.00604 134.933C5.00604 134.933 5.00605 134.933 5.00606 134.933C5.00606 134.933 5.00607 134.933 5.00608 134.933C5.00608 134.933 5.00609 134.933 5.0061 134.933C5.00611 134.933 5.00611 134.933 5.00612 134.933C5.00613 134.933 5.00613 134.933 5.00614 134.933C5.00615 134.933 5.00615 134.933 5.00616 134.933C5.00617 134.933 5.00617 134.933 5.00618 134.933C5.00619 134.933 5.0062 134.933 5.0062 134.933C5.00621 134.933 5.00622 134.933 5.00622 134.933C5.00623 134.933 5.00624 134.933 5.00624 134.933C5.00625 134.933 5.00626 134.933 5.00626 134.933C5.00627 134.933 5.00628 134.933 5.00629 134.933C5.00629 134.933 5.0063 134.933 5.00631 134.933C5.00631 134.933 5.00632 134.933 5.00633 134.933C5.00633 134.933 5.00634 134.933 5.00635 134.933C5.00635 134.933 5.00636 134.933 5.00637 134.933C5.00638 134.933 5.00638 134.933 5.00639 134.933C5.0064 134.933 5.0064 134.933 5.00641 134.933C5.00642 134.933 5.00642 134.933 5.00643 134.933C5.00644 134.933 5.00644 134.933 5.00645 134.933C5.00646 134.933 5.00647 134.933 5.00647 134.933C5.00648 134.933 5.00649 134.933 5.00649 134.933C5.0065 134.933 5.00651 134.933 5.00651 134.933C5.00652 134.933 5.00653 134.933 5.00653 134.933C5.00654 134.933 5.00655 134.933 5.00655 134.933C5.00656 134.933 5.00657 134.933 5.00658 134.933C5.00658 134.933 5.00659 134.933 5.0066 134.933C5.0066 134.933 5.00661 134.933 5.00662 134.933C5.00662 134.933 5.00663 134.933 5.00664 134.933C5.00664 134.933 5.00665 134.933 5.00666 134.933C5.00667 134.933 5.00667 134.933 5.00668 134.933C5.00669 134.933 5.00669 134.933 5.0067 134.933C5.00671 134.933 5.00671 134.933 5.00672 134.933C5.00673 134.933 5.00673 134.933 5.00674 134.933C5.00675 134.933 5.00676 134.933 5.00676 134.933C5.00677 134.933 5.00678 134.933 5.00678 134.933C5.00679 134.933 5.0068 134.933 5.0068 134.933C5.00681 134.933 5.00682 134.933 5.00682 134.933C5.00683 134.933 5.00684 134.933 5.00685 134.933C5.00685 134.933 5.00686 134.933 5.00687 134.933C5.00687 134.933 5.00688 134.933 5.00689 134.933C5.00689 134.933 5.0069 134.933 5.00691 134.933C5.00691 134.933 5.00692 134.933 5.00693 134.933C5.00694 134.933 5.00694 134.933 5.00695 134.933C5.00696 134.933 5.00696 134.933 5.00697 134.933C5.00698 134.933 5.00698 134.933 5.00699 134.933C5.007 134.933 5.007 134.933 5.00701 134.933C5.00702 134.933 5.00703 134.933 5.00703 134.933C5.00704 134.933 5.00705 134.933 5.00705 134.933C5.00706 134.933 5.00707 134.933 5.00707 134.933C5.00708 134.933 5.00709 134.933 5.00709 134.933C5.0071 134.933 5.00711 134.933 5.00712 134.933C5.00712 134.933 5.00713 134.933 5.00714 134.933C5.00714 134.933 5.00715 134.933 5.00716 134.933C5.00716 134.933 5.00717 134.933 5.00718 134.933C5.00718 134.933 5.00719 134.933 5.0072 134.933C5.00721 134.933 5.00721 134.933 5.00722 134.933C5.00723 134.933 5.00723 134.933 5.00724 134.933C5.00725 134.933 5.00725 134.933 5.00726 134.933C5.00727 134.933 5.00727 134.933 5.00728 134.933C5.00729 134.933 5.00729 134.933 5.0073 134.933C5.00731 134.933 5.00732 134.933 5.00732 134.933C5.00733 134.933 5.00734 134.933 5.00734 134.933C5.00735 134.933 5.00736 134.933 5.00736 134.933C5.00737 134.933 5.00738 134.933 5.00738 134.933C5.00739 134.933 5.0074 134.933 5.00741 134.933C5.00741 134.933 5.00742 134.933 5.00743 134.933C5.00743 134.933 5.00744 134.933 5.00745 134.933C5.00745 134.933 5.00746 134.933 5.00747 134.933C5.00747 134.933 5.00748 134.933 5.00749 134.933C5.0075 134.933 5.0075 134.933 5.00751 134.933C5.00752 134.933 5.00752 134.933 5.00753 134.933C5.00754 134.933 5.00754 134.933 5.00755 134.933C5.00756 134.933 5.00756 134.933 5.00757 134.933C5.00758 134.933 5.00759 134.933 5.00759 134.933C5.0076 134.933 5.00761 134.933 5.00761 134.933C5.00762 134.933 5.00763 134.933 5.00763 134.933C5.00764 134.933 5.00765 134.933 5.00765 134.933C5.00766 134.933 5.00767 134.933 5.00768 134.933C5.00768 134.933 5.00769 134.933 5.0077 134.933C5.0077 134.933 5.00771 134.933 5.00772 134.933C5.00772 134.933 5.00773 134.933 5.00774 134.933C5.00774 134.933 5.00775 134.933 5.00776 134.933C5.00777 134.933 5.00777 134.933 5.00778 134.933C5.00779 134.933 5.00779 134.933 5.0078 134.933C5.00781 134.933 5.00781 134.933 5.00782 134.933C5.00783 134.933 5.00783 134.933 5.00784 134.933C5.00785 134.933 5.00786 134.933 5.00786 134.933C5.00787 134.933 5.00788 134.933 5.00788 134.933C5.00789 134.933 5.0079 134.933 5.0079 134.933C5.00791 134.933 5.00792 134.933 5.00792 134.933C5.00793 134.933 5.00794 134.933 5.00794 134.933C5.00795 134.933 5.00796 134.933 5.00797 134.933C5.00797 134.933 5.00798 134.933 5.00799 134.933C5.00799 134.933 5.008 134.933 5.00801 134.933C5.00801 134.933 5.00802 134.933 5.00803 134.933C5.00803 134.933 5.00804 134.933 5.00805 134.933C5.00806 134.933 5.00806 134.933 5.00807 134.933C5.00808 134.933 5.00808 134.933 5.00809 134.933C5.0081 134.933 5.0081 134.933 5.00811 134.933C5.00812 134.933 5.00812 134.933 5.00813 134.933C5.00814 134.933 5.00815 134.933 5.00815 134.933C5.00816 134.933 5.00817 134.933 5.00817 134.933C5.00818 134.933 5.00819 134.933 5.00819 134.933C5.0082 134.933 5.00821 134.933 5.00821 134.933C5.00822 134.933 5.00823 134.933 5.00824 134.933C5.00824 134.933 5.00825 134.933 5.00826 134.933C5.00826 134.933 5.00827 134.933 5.00828 134.933C5.00828 134.933 5.00829 134.933 5.0083 134.933C5.0083 134.933 5.00831 134.933 5.00832 134.933C5.00833 134.933 5.00833 134.933 5.00834 134.933C5.00835 134.933 5.00835 134.933 5.00836 134.933C5.00837 134.933 5.00837 134.933 5.00838 134.933C5.00839 134.933 5.00839 134.933 5.0084 134.933C5.00841 134.933 5.00842 134.933 5.00842 134.933C5.00843 134.933 5.00844 134.933 5.00844 134.933C5.00845 134.933 5.00846 134.933 5.00846 134.933C5.00847 134.933 5.00848 134.933 5.00848 134.933C5.00849 134.933 5.0085 134.933 5.00851 134.933C5.00851 134.933 5.00852 134.933 5.00853 134.933C5.00853 134.933 5.00854 134.933 5.00855 134.933C5.00855 134.933 5.00856 134.933 5.00857 134.933C5.00857 134.933 5.00858 134.933 5.00859 134.933C5.00859 134.933 5.0086 134.933 5.00861 134.933C5.00862 134.933 5.00862 134.933 5.00863 134.933C5.00864 134.933 5.00864 134.933 5.00865 134.933C5.00866 134.933 5.00866 134.933 5.00867 134.933C5.00868 134.933 5.00868 134.933 5.00869 134.933C5.0087 134.933 5.00871 134.933 5.00871 134.933C5.00872 134.933 5.00873 134.933 5.00873 134.933C5.00874 134.933 5.00875 134.933 5.00875 134.933C5.00876 134.933 5.00877 134.933 5.00877 134.933C5.00878 134.933 5.00879 134.933 5.0088 134.933C5.0088 134.933 5.00881 134.933 5.00882 134.933C5.00882 134.933 5.00883 134.933 5.00884 134.933C5.00884 134.933 5.00885 134.933 5.00886 134.933C5.00886 134.933 5.00887 134.933 5.00888 134.933C5.00889 134.933 5.00889 134.933 5.0089 134.933C5.00891 134.933 5.00891 134.933 5.00892 134.933C5.00893 134.933 5.00893 134.933 5.00894 134.933C5.00895 134.933 5.00895 134.933 5.00896 134.933C5.00897 134.933 5.00898 134.933 5.00898 134.933C5.00899 134.933 5.009 134.933 5.009 134.933C5.00901 134.933 5.00902 134.933 5.00902 134.933C5.00903 134.933 5.00904 134.933 5.00904 134.933C5.00905 134.933 5.00906 134.933 5.00907 134.933C5.00907 134.933 5.00908 134.933 5.00909 134.933C5.00909 134.933 5.0091 134.933 5.00911 134.933C5.00911 134.933 5.00912 134.933 5.00913 134.933C5.00913 134.933 5.00914 134.933 5.00915 134.933C5.00916 134.933 5.00916 134.933 5.00917 134.933C5.00918 134.933 5.00918 134.933 5.00919 134.933C5.0092 134.933 5.0092 134.933 5.00921 134.933C5.00922 134.933 5.00922 134.933 5.00923 134.933C5.00924 134.933 5.00924 134.933 5.00925 134.933C5.00926 134.933 5.00927 134.933 5.00927 134.933C5.00928 134.933 5.00929 134.933 5.00929 134.933C5.0093 134.933 5.00931 134.933 5.00931 134.933C5.00932 134.933 5.00933 134.933 5.00933 134.933C5.00934 134.933 5.00935 134.933 5.00936 134.933C5.00936 134.933 5.00937 134.933 5.00938 134.933C5.00938 134.933 5.00939 134.933 5.0094 134.933C5.0094 134.933 5.00941 134.933 5.00942 134.933C5.00942 134.933 5.00943 134.933 5.00944 134.933C5.00945 134.933 5.00945 134.933 5.00946 134.933C5.00947 134.933 5.00947 134.933 5.00948 134.933C5.00949 134.933 5.00949 134.933 5.0095 134.933C5.00951 134.933 5.00951 134.933 5.00952 134.933C5.00953 134.933 5.00954 134.933 5.00954 134.933C5.00955 134.933 5.00956 134.933 5.00956 134.933C5.00957 134.933 5.00958 134.933 5.00958 134.933C5.00959 134.933 5.0096 134.933 5.0096 134.933C5.00961 134.933 5.00962 134.933 5.00963 134.933C5.00963 134.933 5.00964 134.933 5.00965 134.933C5.00965 134.933 5.00966 134.933 5.00967 134.933C5.00967 134.933 5.00968 134.933 5.00969 134.933C5.00969 134.933 5.0097 134.933 5.00971 134.933C5.00972 134.933 5.00972 134.933 5.00973 134.933C5.00974 134.933 5.00974 134.933 5.00975 134.933C5.00976 134.933 5.00976 134.933 5.00977 134.933C5.00978 134.933 5.00978 134.933 5.00979 134.933C5.0098 134.933 5.00981 134.933 5.00981 134.933C5.00982 134.933 5.00983 134.933 5.00983 134.933C5.00984 134.933 5.00985 134.933 5.00985 134.933C5.00986 134.933 5.00987 134.933 5.00987 134.933C5.00988 134.933 5.00989 134.933 5.00989 134.933C5.0099 134.933 5.00991 134.933 5.00992 134.933C5.00992 134.933 5.00993 134.933 5.00994 134.933C5.00994 134.933 5.00995 134.933 5.00996 134.933C5.00996 134.933 5.00997 134.933 5.00998 134.933C5.00998 134.933 5.00999 134.933 5.01 134.933C5.01001 134.933 5.01001 134.933 5.01002 134.933C5.01003 134.933 5.01003 134.933 5.01004 134.933C5.01005 134.933 5.01005 134.933 5.01006 134.933C5.01007 134.933 5.01007 134.933 5.01008 134.933C5.01009 134.933 5.0101 134.933 5.0101 134.933C5.01011 134.933 5.01012 134.933 5.01012 134.933C5.01013 134.933 5.01014 134.933 5.01014 134.933C5.01015 134.933 5.01016 134.933 5.01016 134.933C5.01017 134.933 5.01018 134.933 5.01019 134.933C5.01019 134.933 5.0102 134.933 5.01021 134.933C5.01021 134.933 5.01022 134.933 5.01023 134.933C5.01023 134.933 5.01024 134.933 5.01025 134.933C5.01025 134.933 5.01026 134.933 5.01027 134.933C5.01028 134.933 5.01028 134.933 5.01029 134.933C5.0103 134.933 5.0103 134.933 5.01031 134.933C5.01032 134.933 5.01032 134.933 5.01033 134.933C5.01034 134.933 5.01034 134.933 5.01035 134.933C5.01036 134.933 5.01037 134.933 5.01037 134.933C5.01038 134.933 5.01039 134.933 5.01039 134.933C5.0104 134.933 5.01041 134.933 5.01041 134.933C5.01042 134.933 5.01043 134.933 5.01043 134.933C5.01044 134.933 5.01045 134.933 5.01046 134.933C5.01046 134.933 5.01047 134.933 5.01048 134.933C5.01048 134.933 5.01049 134.933 5.0105 134.933C5.0105 134.933 5.01051 134.933 5.01052 134.933C5.01052 134.933 5.01053 134.933 5.01054 134.933C5.01055 134.933 5.01055 134.933 5.01056 134.933C5.01057 134.933 5.01057 134.933 5.01058 134.933C5.01059 134.933 5.01059 134.933 5.0106 134.933C5.01061 134.933 5.01061 134.933 5.01062 134.933V134.153C5.01061 134.153 5.01061 134.153 5.0106 134.153C5.01059 134.153 5.01059 134.153 5.01058 134.153C5.01057 134.153 5.01057 134.153 5.01056 134.153C5.01055 134.153 5.01055 134.153 5.01054 134.153C5.01053 134.153 5.01052 134.153 5.01052 134.153C5.01051 134.153 5.0105 134.153 5.0105 134.153C5.01049 134.153 5.01048 134.153 5.01048 134.153C5.01047 134.153 5.01046 134.153 5.01046 134.153C5.01045 134.153 5.01044 134.153 5.01043 134.153C5.01043 134.153 5.01042 134.153 5.01041 134.153C5.01041 134.153 5.0104 134.153 5.01039 134.153C5.01039 134.153 5.01038 134.153 5.01037 134.153C5.01037 134.153 5.01036 134.153 5.01035 134.153C5.01034 134.153 5.01034 134.153 5.01033 134.153C5.01032 134.153 5.01032 134.153 5.01031 134.153C5.0103 134.153 5.0103 134.153 5.01029 134.153C5.01028 134.153 5.01028 134.153 5.01027 134.153C5.01026 134.153 5.01025 134.153 5.01025 134.153C5.01024 134.153 5.01023 134.153 5.01023 134.153C5.01022 134.153 5.01021 134.153 5.01021 134.153C5.0102 134.153 5.01019 134.153 5.01019 134.153C5.01018 134.153 5.01017 134.153 5.01016 134.153C5.01016 134.153 5.01015 134.153 5.01014 134.153C5.01014 134.153 5.01013 134.153 5.01012 134.153C5.01012 134.153 5.01011 134.153 5.0101 134.153C5.0101 134.153 5.01009 134.153 5.01008 134.153C5.01007 134.153 5.01007 134.153 5.01006 134.153C5.01005 134.153 5.01005 134.153 5.01004 134.153C5.01003 134.153 5.01003 134.153 5.01002 134.153C5.01001 134.153 5.01001 134.153 5.01 134.153C5.00999 134.153 5.00998 134.153 5.00998 134.153C5.00997 134.153 5.00996 134.153 5.00996 134.153C5.00995 134.153 5.00994 134.153 5.00994 134.153C5.00993 134.153 5.00992 134.153 5.00992 134.153C5.00991 134.153 5.0099 134.153 5.00989 134.153C5.00989 134.153 5.00988 134.153 5.00987 134.153C5.00987 134.153 5.00986 134.153 5.00985 134.153C5.00985 134.153 5.00984 134.153 5.00983 134.153C5.00983 134.153 5.00982 134.153 5.00981 134.153C5.00981 134.153 5.0098 134.153 5.00979 134.153C5.00978 134.153 5.00978 134.153 5.00977 134.153C5.00976 134.153 5.00976 134.153 5.00975 134.153C5.00974 134.153 5.00974 134.153 5.00973 134.153C5.00972 134.153 5.00972 134.153 5.00971 134.153C5.0097 134.153 5.00969 134.153 5.00969 134.153C5.00968 134.153 5.00967 134.153 5.00967 134.153C5.00966 134.153 5.00965 134.153 5.00965 134.153C5.00964 134.153 5.00963 134.153 5.00963 134.153C5.00962 134.153 5.00961 134.153 5.0096 134.153C5.0096 134.153 5.00959 134.153 5.00958 134.153C5.00958 134.153 5.00957 134.153 5.00956 134.153C5.00956 134.153 5.00955 134.153 5.00954 134.153C5.00954 134.153 5.00953 134.153 5.00952 134.153C5.00951 134.153 5.00951 134.153 5.0095 134.153C5.00949 134.153 5.00949 134.153 5.00948 134.153C5.00947 134.153 5.00947 134.153 5.00946 134.153C5.00945 134.153 5.00945 134.153 5.00944 134.153C5.00943 134.153 5.00942 134.153 5.00942 134.153C5.00941 134.153 5.0094 134.153 5.0094 134.153C5.00939 134.153 5.00938 134.153 5.00938 134.153C5.00937 134.153 5.00936 134.153 5.00936 134.153C5.00935 134.153 5.00934 134.153 5.00933 134.153C5.00933 134.153 5.00932 134.153 5.00931 134.153C5.00931 134.153 5.0093 134.153 5.00929 134.153C5.00929 134.153 5.00928 134.153 5.00927 134.153C5.00927 134.153 5.00926 134.153 5.00925 134.153C5.00924 134.153 5.00924 134.153 5.00923 134.153C5.00922 134.153 5.00922 134.153 5.00921 134.153C5.0092 134.153 5.0092 134.153 5.00919 134.153C5.00918 134.153 5.00918 134.153 5.00917 134.153C5.00916 134.153 5.00916 134.153 5.00915 134.153C5.00914 134.153 5.00913 134.153 5.00913 134.153C5.00912 134.153 5.00911 134.153 5.00911 134.153C5.0091 134.153 5.00909 134.153 5.00909 134.153C5.00908 134.153 5.00907 134.153 5.00907 134.153C5.00906 134.153 5.00905 134.153 5.00904 134.153C5.00904 134.153 5.00903 134.153 5.00902 134.153C5.00902 134.153 5.00901 134.153 5.009 134.153C5.009 134.153 5.00899 134.153 5.00898 134.153C5.00898 134.153 5.00897 134.153 5.00896 134.153C5.00895 134.153 5.00895 134.153 5.00894 134.153C5.00893 134.153 5.00893 134.153 5.00892 134.153C5.00891 134.153 5.00891 134.153 5.0089 134.153C5.00889 134.153 5.00889 134.153 5.00888 134.153C5.00887 134.153 5.00886 134.153 5.00886 134.153C5.00885 134.153 5.00884 134.153 5.00884 134.153C5.00883 134.153 5.00882 134.153 5.00882 134.153C5.00881 134.153 5.0088 134.153 5.0088 134.153C5.00879 134.153 5.00878 134.153 5.00877 134.153C5.00877 134.153 5.00876 134.153 5.00875 134.153C5.00875 134.153 5.00874 134.153 5.00873 134.153C5.00873 134.153 5.00872 134.153 5.00871 134.153C5.00871 134.153 5.0087 134.153 5.00869 134.153C5.00868 134.153 5.00868 134.153 5.00867 134.153C5.00866 134.153 5.00866 134.153 5.00865 134.153C5.00864 134.153 5.00864 134.153 5.00863 134.153C5.00862 134.153 5.00862 134.153 5.00861 134.153C5.0086 134.153 5.00859 134.153 5.00859 134.153C5.00858 134.153 5.00857 134.153 5.00857 134.153C5.00856 134.153 5.00855 134.153 5.00855 134.153C5.00854 134.153 5.00853 134.153 5.00853 134.153C5.00852 134.153 5.00851 134.153 5.00851 134.153C5.0085 134.153 5.00849 134.153 5.00848 134.153C5.00848 134.153 5.00847 134.153 5.00846 134.153C5.00846 134.153 5.00845 134.153 5.00844 134.153C5.00844 134.153 5.00843 134.153 5.00842 134.153C5.00842 134.153 5.00841 134.153 5.0084 134.153C5.00839 134.153 5.00839 134.153 5.00838 134.153C5.00837 134.153 5.00837 134.153 5.00836 134.153C5.00835 134.153 5.00835 134.153 5.00834 134.153C5.00833 134.153 5.00833 134.153 5.00832 134.153C5.00831 134.153 5.0083 134.153 5.0083 134.153C5.00829 134.153 5.00828 134.153 5.00828 134.153C5.00827 134.153 5.00826 134.153 5.00826 134.153C5.00825 134.153 5.00824 134.153 5.00824 134.153C5.00823 134.153 5.00822 134.153 5.00821 134.153C5.00821 134.153 5.0082 134.153 5.00819 134.153C5.00819 134.153 5.00818 134.153 5.00817 134.153C5.00817 134.153 5.00816 134.153 5.00815 134.153C5.00815 134.153 5.00814 134.153 5.00813 134.153C5.00812 134.153 5.00812 134.153 5.00811 134.153C5.0081 134.153 5.0081 134.153 5.00809 134.153C5.00808 134.153 5.00808 134.153 5.00807 134.153C5.00806 134.153 5.00806 134.153 5.00805 134.153C5.00804 134.153 5.00803 134.153 5.00803 134.153C5.00802 134.153 5.00801 134.153 5.00801 134.153C5.008 134.153 5.00799 134.153 5.00799 134.153C5.00798 134.153 5.00797 134.153 5.00797 134.153C5.00796 134.153 5.00795 134.153 5.00794 134.153C5.00794 134.153 5.00793 134.153 5.00792 134.153C5.00792 134.153 5.00791 134.153 5.0079 134.153C5.0079 134.153 5.00789 134.153 5.00788 134.153C5.00788 134.153 5.00787 134.153 5.00786 134.153C5.00786 134.153 5.00785 134.153 5.00784 134.153C5.00783 134.153 5.00783 134.153 5.00782 134.153C5.00781 134.153 5.00781 134.153 5.0078 134.153C5.00779 134.153 5.00779 134.153 5.00778 134.153C5.00777 134.153 5.00777 134.153 5.00776 134.153C5.00775 134.153 5.00774 134.153 5.00774 134.153C5.00773 134.153 5.00772 134.153 5.00772 134.153C5.00771 134.153 5.0077 134.153 5.0077 134.153C5.00769 134.153 5.00768 134.153 5.00768 134.153C5.00767 134.153 5.00766 134.153 5.00765 134.153C5.00765 134.153 5.00764 134.153 5.00763 134.153C5.00763 134.153 5.00762 134.153 5.00761 134.153C5.00761 134.153 5.0076 134.153 5.00759 134.153C5.00759 134.153 5.00758 134.153 5.00757 134.153C5.00756 134.153 5.00756 134.153 5.00755 134.153C5.00754 134.153 5.00754 134.153 5.00753 134.153C5.00752 134.153 5.00752 134.153 5.00751 134.153C5.0075 134.153 5.0075 134.153 5.00749 134.153C5.00748 134.153 5.00747 134.153 5.00747 134.153C5.00746 134.153 5.00745 134.153 5.00745 134.153C5.00744 134.153 5.00743 134.153 5.00743 134.153C5.00742 134.153 5.00741 134.153 5.00741 134.153C5.0074 134.153 5.00739 134.153 5.00738 134.153C5.00738 134.153 5.00737 134.153 5.00736 134.153C5.00736 134.153 5.00735 134.153 5.00734 134.153C5.00734 134.153 5.00733 134.153 5.00732 134.153C5.00732 134.153 5.00731 134.153 5.0073 134.153C5.00729 134.153 5.00729 134.153 5.00728 134.153C5.00727 134.153 5.00727 134.153 5.00726 134.153C5.00725 134.153 5.00725 134.153 5.00724 134.153C5.00723 134.153 5.00723 134.153 5.00722 134.153C5.00721 134.153 5.00721 134.153 5.0072 134.153C5.00719 134.153 5.00718 134.153 5.00718 134.153C5.00717 134.153 5.00716 134.153 5.00716 134.153C5.00715 134.153 5.00714 134.153 5.00714 134.153C5.00713 134.153 5.00712 134.153 5.00712 134.153C5.00711 134.153 5.0071 134.153 5.00709 134.153C5.00709 134.153 5.00708 134.153 5.00707 134.153C5.00707 134.153 5.00706 134.153 5.00705 134.153C5.00705 134.153 5.00704 134.153 5.00703 134.153C5.00703 134.153 5.00702 134.153 5.00701 134.153C5.007 134.153 5.007 134.153 5.00699 134.153C5.00698 134.153 5.00698 134.153 5.00697 134.153C5.00696 134.153 5.00696 134.153 5.00695 134.153C5.00694 134.153 5.00694 134.153 5.00693 134.153C5.00692 134.153 5.00691 134.153 5.00691 134.153C5.0069 134.153 5.00689 134.153 5.00689 134.153C5.00688 134.153 5.00687 134.153 5.00687 134.153C5.00686 134.153 5.00685 134.153 5.00685 134.153C5.00684 134.153 5.00683 134.153 5.00682 134.153C5.00682 134.153 5.00681 134.153 5.0068 134.153C5.0068 134.153 5.00679 134.153 5.00678 134.153C5.00678 134.153 5.00677 134.153 5.00676 134.153C5.00676 134.153 5.00675 134.153 5.00674 134.153C5.00673 134.153 5.00673 134.153 5.00672 134.153C5.00671 134.153 5.00671 134.153 5.0067 134.153C5.00669 134.153 5.00669 134.153 5.00668 134.153C5.00667 134.153 5.00667 134.153 5.00666 134.153C5.00665 134.153 5.00664 134.153 5.00664 134.153C5.00663 134.153 5.00662 134.153 5.00662 134.153C5.00661 134.153 5.0066 134.153 5.0066 134.153C5.00659 134.153 5.00658 134.153 5.00658 134.153C5.00657 134.153 5.00656 134.153 5.00655 134.153C5.00655 134.153 5.00654 134.153 5.00653 134.153C5.00653 134.153 5.00652 134.153 5.00651 134.153C5.00651 134.153 5.0065 134.153 5.00649 134.153C5.00649 134.153 5.00648 134.153 5.00647 134.153C5.00647 134.153 5.00646 134.153 5.00645 134.153C5.00644 134.153 5.00644 134.153 5.00643 134.153C5.00642 134.153 5.00642 134.153 5.00641 134.153C5.0064 134.153 5.0064 134.153 5.00639 134.153C5.00638 134.153 5.00638 134.153 5.00637 134.153C5.00636 134.153 5.00635 134.153 5.00635 134.153C5.00634 134.153 5.00633 134.153 5.00633 134.153C5.00632 134.153 5.00631 134.153 5.00631 134.153C5.0063 134.153 5.00629 134.153 5.00629 134.153C5.00628 134.153 5.00627 134.153 5.00626 134.153C5.00626 134.153 5.00625 134.153 5.00624 134.153C5.00624 134.153 5.00623 134.153 5.00622 134.153C5.00622 134.153 5.00621 134.153 5.0062 134.153C5.0062 134.153 5.00619 134.153 5.00618 134.153C5.00617 134.153 5.00617 134.153 5.00616 134.153C5.00615 134.153 5.00615 134.153 5.00614 134.153C5.00613 134.153 5.00613 134.153 5.00612 134.153C5.00611 134.153 5.00611 134.153 5.0061 134.153C5.00609 134.153 5.00608 134.153 5.00608 134.153C5.00607 134.153 5.00606 134.153 5.00606 134.153C5.00605 134.153 5.00604 134.153 5.00604 134.153C5.00603 134.153 5.00602 134.153 5.00602 134.153C5.00601 134.153 5.006 134.153 5.00599 134.153C5.00599 134.153 5.00598 134.153 5.00597 134.153C5.00597 134.153 5.00596 134.153 5.00595 134.153C5.00595 134.153 5.00594 134.153 5.00593 134.153C5.00593 134.153 5.00592 134.153 5.00591 134.153C5.00591 134.153 5.0059 134.153 5.00589 134.153C5.00588 134.153 5.00588 134.153 5.00587 134.153C5.00586 134.153 5.00586 134.153 5.00585 134.153C5.00584 134.153 5.00584 134.153 5.00583 134.153C5.00582 134.153 5.00582 134.153 5.00581 134.153C5.0058 134.153 5.00579 134.153 5.00579 134.153C5.00578 134.153 5.00577 134.153 5.00577 134.153C5.00576 134.153 5.00575 134.153 5.00575 134.153C5.00574 134.153 5.00573 134.153 5.00573 134.153C5.00572 134.153 5.00571 134.153 5.0057 134.153C5.0057 134.153 5.00569 134.153 5.00568 134.153C5.00568 134.153 5.00567 134.153 5.00566 134.153C5.00566 134.153 5.00565 134.153 5.00564 134.153C5.00564 134.153 5.00563 134.153 5.00562 134.153C5.00561 134.153 5.00561 134.153 5.0056 134.153C5.00559 134.153 5.00559 134.153 5.00558 134.153C5.00557 134.153 5.00557 134.153 5.00556 134.153C5.00555 134.153 5.00555 134.153 5.00554 134.153C5.00553 134.153 5.00552 134.153 5.00552 134.153C5.00551 134.153 5.0055 134.153 5.0055 134.153C5.00549 134.153 5.00548 134.153 5.00548 134.153C5.00547 134.153 5.00546 134.153 5.00546 134.153C5.00545 134.153 5.00544 134.153 5.00543 134.153C5.00543 134.153 5.00542 134.153 5.00541 134.153C5.00541 134.153 5.0054 134.153 5.00539 134.153C5.00539 134.153 5.00538 134.153 5.00537 134.153C5.00537 134.153 5.00536 134.153 5.00535 134.153C5.00534 134.153 5.00534 134.153 5.00533 134.153C5.00532 134.153 5.00532 134.153 5.00531 134.153C5.0053 134.153 5.0053 134.153 5.00529 134.153C5.00528 134.153 5.00528 134.153 5.00527 134.153C5.00526 134.153 5.00526 134.153 5.00525 134.153C5.00524 134.153 5.00523 134.153 5.00523 134.153C5.00522 134.153 5.00521 134.153 5.00521 134.153C5.0052 134.153 5.00519 134.153 5.00519 134.153C5.00518 134.153 5.00517 134.153 5.00517 134.153C5.00516 134.153 5.00515 134.153 5.00514 134.153C5.00514 134.153 5.00513 134.153 5.00512 134.153C5.00512 134.153 5.00511 134.153 5.0051 134.153C5.0051 134.153 5.00509 134.153 5.00508 134.153C5.00508 134.153 5.00507 134.153 5.00506 134.153C5.00505 134.153 5.00505 134.153 5.00504 134.153C5.00503 134.153 5.00503 134.153 5.00502 134.153C5.00501 134.153 5.00501 134.153 5.005 134.153C5.00499 134.153 5.00499 134.153 5.00498 134.153C5.00497 134.153 5.00496 134.153 5.00496 134.153C5.00495 134.153 5.00494 134.153 5.00494 134.153C5.00493 134.153 5.00492 134.153 5.00492 134.153C5.00491 134.153 5.0049 134.153 5.0049 134.153C5.00489 134.153 5.00488 134.153 5.00487 134.153C5.00487 134.153 5.00486 134.153 5.00485 134.153C5.00485 134.153 5.00484 134.153 5.00483 134.153C5.00483 134.153 5.00482 134.153 5.00481 134.153C5.00481 134.153 5.0048 134.153 5.00479 134.153C5.00478 134.153 5.00478 134.153 5.00477 134.153C5.00476 134.153 5.00476 134.153 5.00475 134.153C5.00474 134.153 5.00474 134.153 5.00473 134.153C5.00472 134.153 5.00472 134.153 5.00471 134.153C5.0047 134.153 5.00469 134.153 5.00469 134.153C5.00468 134.153 5.00467 134.153 5.00467 134.153C5.00466 134.153 5.00465 134.153 5.00465 134.153C5.00464 134.153 5.00463 134.153 5.00463 134.153C5.00462 134.153 5.00461 134.153 5.00461 134.153C5.0046 134.153 5.00459 134.153 5.00458 134.153C5.00458 134.153 5.00457 134.153 5.00456 134.153C5.00456 134.153 5.00455 134.153 5.00454 134.153C5.00454 134.153 5.00453 134.153 5.00452 134.153C5.00452 134.153 5.00451 134.153 5.0045 134.153C5.00449 134.153 5.00449 134.153 5.00448 134.153C5.00447 134.153 5.00447 134.153 5.00446 134.153C5.00445 134.153 5.00445 134.153 5.00444 134.153C5.00443 134.153 5.00443 134.153 5.00442 134.153C5.00441 134.153 5.0044 134.153 5.0044 134.153C5.00439 134.153 5.00438 134.153 5.00438 134.153C5.00437 134.153 5.00436 134.153 5.00436 134.153C5.00435 134.153 5.00434 134.153 5.00434 134.153C5.00433 134.153 5.00432 134.153 5.00431 134.153C5.00431 134.153 5.0043 134.153 5.00429 134.153C5.00429 134.153 5.00428 134.153 5.00427 134.153C5.00427 134.153 5.00426 134.153 5.00425 134.153C5.00425 134.153 5.00424 134.153 5.00423 134.153C5.00422 134.153 5.00422 134.153 5.00421 134.153C5.0042 134.153 5.0042 134.153 5.00419 134.153C5.00418 134.153 5.00418 134.153 5.00417 134.153C5.00416 134.153 5.00416 134.153 5.00415 134.153C5.00414 134.153 5.00413 134.153 5.00413 134.153C5.00412 134.153 5.00411 134.153 5.00411 134.153C5.0041 134.153 5.00409 134.153 5.00409 134.153C5.00408 134.153 5.00407 134.153 5.00407 134.153C5.00406 134.153 5.00405 134.153 5.00404 134.153C5.00404 134.153 5.00403 134.153 5.00402 134.153C5.00402 134.153 5.00401 134.153 5.004 134.153C5.004 134.153 5.00399 134.153 5.00398 134.153C5.00398 134.153 5.00397 134.153 5.00396 134.153C5.00396 134.153 5.00395 134.153 5.00394 134.153C5.00393 134.153 5.00393 134.153 5.00392 134.153C5.00391 134.153 5.00391 134.153 5.0039 134.153C5.00389 134.153 5.00389 134.153 5.00388 134.153C5.00387 134.153 5.00387 134.153 5.00386 134.153C5.00385 134.153 5.00384 134.153 5.00384 134.153C5.00383 134.153 5.00382 134.153 5.00382 134.153C5.00381 134.153 5.0038 134.153 5.0038 134.153C5.00379 134.153 5.00378 134.153 5.00378 134.153C5.00377 134.153 5.00376 134.153 5.00375 134.153C5.00375 134.153 5.00374 134.153 5.00373 134.153C5.00373 134.153 5.00372 134.153 5.00371 134.153C5.00371 134.153 5.0037 134.153 5.00369 134.153C5.00369 134.153 5.00368 134.153 5.00367 134.153C5.00366 134.153 5.00366 134.153 5.00365 134.153C5.00364 134.153 5.00364 134.153 5.00363 134.153C5.00362 134.153 5.00362 134.153 5.00361 134.153C5.0036 134.153 5.0036 134.153 5.00359 134.153C5.00358 134.153 5.00357 134.153 5.00357 134.153C5.00356 134.153 5.00355 134.153 5.00355 134.153C5.00354 134.153 5.00353 134.153 5.00353 134.153C5.00352 134.153 5.00351 134.153 5.00351 134.153C5.0035 134.153 5.00349 134.153 5.00348 134.153C5.00348 134.153 5.00347 134.153 5.00346 134.153C5.00346 134.153 5.00345 134.153 5.00344 134.153C5.00344 134.153 5.00343 134.153 5.00342 134.153C5.00342 134.153 5.00341 134.153 5.0034 134.153C5.00339 134.153 5.00339 134.153 5.00338 134.153C5.00337 134.153 5.00337 134.153 5.00336 134.153C5.00335 134.153 5.00335 134.153 5.00334 134.153C5.00333 134.153 5.00333 134.153 5.00332 134.153C5.00331 134.153 5.00331 134.153 5.0033 134.153C5.00329 134.153 5.00328 134.153 5.00328 134.153C5.00327 134.153 5.00326 134.153 5.00326 134.153C5.00325 134.153 5.00324 134.153 5.00324 134.153C5.00323 134.153 5.00322 134.153 5.00322 134.153C5.00321 134.153 5.0032 134.153 5.00319 134.153C5.00319 134.153 5.00318 134.153 5.00317 134.153C5.00317 134.153 5.00316 134.153 5.00315 134.153C5.00315 134.153 5.00314 134.153 5.00313 134.153C5.00313 134.153 5.00312 134.153 5.00311 134.153C5.0031 134.153 5.0031 134.153 5.00309 134.153C5.00308 134.153 5.00308 134.153 5.00307 134.153C5.00306 134.153 5.00306 134.153 5.00305 134.153C5.00304 134.153 5.00304 134.153 5.00303 134.153C5.00302 134.153 5.00301 134.153 5.00301 134.153C5.003 134.153 5.00299 134.153 5.00299 134.153C5.00298 134.153 5.00297 134.153 5.00297 134.153C5.00296 134.153 5.00295 134.153 5.00295 134.153C5.00294 134.153 5.00293 134.153 5.00292 134.153C5.00292 134.153 5.00291 134.153 5.0029 134.153C5.0029 134.153 5.00289 134.153 5.00288 134.153C5.00288 134.153 5.00287 134.153 5.00286 134.153C5.00286 134.153 5.00285 134.153 5.00284 134.153C5.00283 134.153 5.00283 134.153 5.00282 134.153C5.00281 134.153 5.00281 134.153 5.0028 134.153C5.00279 134.153 5.00279 134.153 5.00278 134.153C5.00277 134.153 5.00277 134.153 5.00276 134.153C5.00275 134.153 5.00275 134.153 5.00274 134.153C5.00273 134.153 5.00272 134.153 5.00272 134.153C5.00271 134.153 5.0027 134.153 5.0027 134.153C5.00269 134.153 5.00268 134.153 5.00268 134.153C5.00267 134.153 5.00266 134.153 5.00266 134.153C5.00265 134.153 5.00264 134.153 5.00263 134.153C5.00263 134.153 5.00262 134.153 5.00261 134.153C5.00261 134.153 5.0026 134.153 5.00259 134.153C5.00259 134.153 5.00258 134.153 5.00257 134.153C5.00257 134.153 5.00256 134.153 5.00255 134.153C5.00254 134.153 5.00254 134.153 5.00253 134.153C5.00252 134.153 5.00252 134.153 5.00251 134.153C5.0025 134.153 5.0025 134.153 5.00249 134.153C5.00248 134.153 5.00248 134.153 5.00247 134.153C5.00246 134.153 5.00245 134.153 5.00245 134.153C5.00244 134.153 5.00243 134.153 5.00243 134.153C5.00242 134.153 5.00241 134.153 5.00241 134.153C5.0024 134.153 5.00239 134.153 5.00239 134.153C5.00238 134.153 5.00237 134.153 5.00236 134.153C5.00236 134.153 5.00235 134.153 5.00234 134.153C5.00234 134.153 5.00233 134.153 5.00232 134.153C5.00232 134.153 5.00231 134.153 5.0023 134.153C5.0023 134.153 5.00229 134.153 5.00228 134.153C5.00227 134.153 5.00227 134.153 5.00226 134.153C5.00225 134.153 5.00225 134.153 5.00224 134.153C5.00223 134.153 5.00223 134.153 5.00222 134.153C5.00221 134.153 5.00221 134.153 5.0022 134.153C5.00219 134.153 5.00218 134.153 5.00218 134.153C5.00217 134.153 5.00216 134.153 5.00216 134.153C5.00215 134.153 5.00214 134.153 5.00214 134.153C5.00213 134.153 5.00212 134.153 5.00212 134.153C5.00211 134.153 5.0021 134.153 5.0021 134.153C5.00209 134.153 5.00208 134.153 5.00207 134.153C5.00207 134.153 5.00206 134.153 5.00205 134.153C5.00205 134.153 5.00204 134.153 5.00203 134.153C5.00203 134.153 5.00202 134.153 5.00201 134.153C5.00201 134.153 5.002 134.153 5.00199 134.153C5.00198 134.153 5.00198 134.153 5.00197 134.153C5.00196 134.153 5.00196 134.153 5.00195 134.153C5.00194 134.153 5.00194 134.153 5.00193 134.153C5.00192 134.153 5.00192 134.153 5.00191 134.153C5.0019 134.153 5.00189 134.153 5.00189 134.153C5.00188 134.153 5.00187 134.153 5.00187 134.153C5.00186 134.153 5.00185 134.153 5.00185 134.153C5.00184 134.153 5.00183 134.153 5.00183 134.153C5.00182 134.153 5.00181 134.153 5.0018 134.153C5.0018 134.153 5.00179 134.153 5.00178 134.153C5.00178 134.153 5.00177 134.153 5.00176 134.153C5.00176 134.153 5.00175 134.153 5.00174 134.153C5.00174 134.153 5.00173 134.153 5.00172 134.153C5.00171 134.153 5.00171 134.153 5.0017 134.153C5.00169 134.153 5.00169 134.153 5.00168 134.153C5.00167 134.153 5.00167 134.153 5.00166 134.153C5.00165 134.153 5.00165 134.153 5.00164 134.153C5.00163 134.153 5.00162 134.153 5.00162 134.153C5.00161 134.153 5.0016 134.153 5.0016 134.153C5.00159 134.153 5.00158 134.153 5.00158 134.153C5.00157 134.153 5.00156 134.153 5.00156 134.153C5.00155 134.153 5.00154 134.153 5.00153 134.153C5.00153 134.153 5.00152 134.153 5.00151 134.153C5.00151 134.153 5.0015 134.153 5.00149 134.153C5.00149 134.153 5.00148 134.153 5.00147 134.153C5.00147 134.153 5.00146 134.153 5.00145 134.153C5.00145 134.153 5.00144 134.153 5.00143 134.153C5.00142 134.153 5.00142 134.153 5.00141 134.153C5.0014 134.153 5.0014 134.153 5.00139 134.153C5.00138 134.153 5.00138 134.153 5.00137 134.153C5.00136 134.153 5.00136 134.153 5.00135 134.153C5.00134 134.153 5.00133 134.153 5.00133 134.153C5.00132 134.153 5.00131 134.153 5.00131 134.153C5.0013 134.153 5.00129 134.153 5.00129 134.153C5.00128 134.153 5.00127 134.153 5.00127 134.153C5.00126 134.153 5.00125 134.153 5.00124 134.153C5.00124 134.153 5.00123 134.153 5.00122 134.153C5.00122 134.153 5.00121 134.153 5.0012 134.153C5.0012 134.153 5.00119 134.153 5.00118 134.153C5.00118 134.153 5.00117 134.153 5.00116 134.153C5.00115 134.153 5.00115 134.153 5.00114 134.153C5.00113 134.153 5.00113 134.153 5.00112 134.153C5.00111 134.153 5.00111 134.153 5.0011 134.153C5.00109 134.153 5.00109 134.153 5.00108 134.153C5.00107 134.153 5.00106 134.153 5.00106 134.153C5.00105 134.153 5.00104 134.153 5.00104 134.153C5.00103 134.153 5.00102 134.153 5.00102 134.153C5.00101 134.153 5.001 134.153 5.001 134.153C5.00099 134.153 5.00098 134.153 5.00097 134.153C5.00097 134.153 5.00096 134.153 5.00095 134.153C5.00095 134.153 5.00094 134.153 5.00093 134.153C5.00093 134.153 5.00092 134.153 5.00091 134.153C5.00091 134.153 5.0009 134.153 5.00089 134.153C5.00089 134.153 5.00088 134.153 5.00087 134.153C5.00086 134.153 5.00086 134.153 5.00085 134.153C5.00084 134.153 5.00084 134.153 5.00083 134.153C5.00082 134.153 5.00082 134.153 5.00081 134.153C5.0008 134.153 5.0008 134.153 5.00079 134.153C5.00078 134.153 5.00077 134.153 5.00077 134.153C5.00076 134.153 5.00075 134.153 5.00075 134.153C5.00074 134.153 5.00073 134.153 5.00073 134.153C5.00072 134.153 5.00071 134.153 5.00071 134.153C5.0007 134.153 5.00069 134.153 5.00068 134.153C5.00068 134.153 5.00067 134.153 5.00066 134.153C5.00066 134.153 5.00065 134.153 5.00064 134.153C5.00064 134.153 5.00063 134.153 5.00062 134.153C5.00062 134.153 5.00061 134.153 5.0006 134.153C5.00059 134.153 5.00059 134.153 5.00058 134.153C5.00057 134.153 5.00057 134.153 5.00056 134.153C5.00055 134.153 5.00055 134.153 5.00054 134.153C5.00053 134.153 5.00053 134.153 5.00052 134.153C5.00051 134.153 5.0005 134.153 5.0005 134.153C5.00049 134.153 5.00048 134.153 5.00048 134.153C5.00047 134.153 5.00046 134.153 5.00046 134.153C5.00045 134.153 5.00044 134.153 5.00044 134.153C5.00043 134.153 5.00042 134.153 5.00041 134.153C5.00041 134.153 5.0004 134.153 5.00039 134.153C5.00039 134.153 5.00038 134.153 5.00037 134.153C5.00037 134.153 5.00036 134.153 5.00035 134.153C5.00035 134.153 5.00034 134.153 5.00033 134.153C5.00032 134.153 5.00032 134.153 5.00031 134.153C5.0003 134.153 5.0003 134.153 5.00029 134.153C5.00028 134.153 5.00028 134.153 5.00027 134.153C5.00026 134.153 5.00026 134.153 5.00025 134.153C5.00024 134.153 5.00024 134.153 5.00023 134.153C5.00022 134.153 5.00021 134.153 5.00021 134.153C5.0002 134.153 5.00019 134.153 5.00019 134.153C5.00018 134.153 5.00017 134.153 5.00017 134.153C5.00016 134.153 5.00015 134.153 5.00015 134.153C5.00014 134.153 5.00013 134.153 5.00012 134.153C5.00012 134.153 5.00011 134.153 5.0001 134.153C5.0001 134.153 5.00009 134.153 5.00008 134.153C5.00008 134.153 5.00007 134.153 5.00006 134.153C5.00006 134.153 5.00005 134.153 5.00004 134.153C5.00003 134.153 5.00003 134.153 5.00002 134.153C5.00001 134.153 5.00001 134.153 5 134.153V134.933ZM4.61 124.765V134.543H5.39V124.765H4.61ZM5.01062 124.375H5V125.155H5.01062V124.375ZM20.4098 110.1C20.4098 117.957 13.543 124.375 5.01062 124.375V125.155C13.9185 125.155 21.1898 118.442 21.1898 110.1H20.4098ZM5.01062 95.8255C13.543 95.8255 20.4098 102.243 20.4098 110.1H21.1898C21.1898 101.759 13.9185 95.0455 5.01062 95.0455V95.8255ZM5 95.8255H5.01062V95.0455H5V95.8255ZM4.61 85.6597V95.4355H5.39V85.6597H4.61ZM5.01062 85.2697H5V86.0497H5.01062V85.2697ZM20.4098 70.9949C20.4098 78.852 13.543 85.2697 5.01062 85.2697V86.0497C13.9185 86.0497 21.1898 79.336 21.1898 70.9949H20.4098ZM5.01062 56.7201C13.543 56.7201 20.4098 63.1378 20.4098 70.9949H21.1898C21.1898 62.6537 13.9185 55.9401 5.01062 55.9401V56.7201ZM5.00014 56.7201L5.01076 56.7201L5.01048 55.9401L4.99986 55.9401L5.00014 56.7201ZM4.61 46.5561V56.3301H5.39V46.5561H4.61ZM5.01076 46.1661L5.00014 46.1661L4.99986 46.9461L5.01048 46.9461L5.01076 46.1661ZM20.4098 31.8914C20.4098 39.7485 13.543 46.1661 5.01062 46.1661V46.9461C13.9185 46.9461 21.1898 40.2325 21.1898 31.8914H20.4098Z" fill="#D9D9D9" mask="url(#path-1-inside-1_5507_19278)"/>
</g>
<defs>
<filter id="filter0_dd_5507_19278" x="0.502798" y="0.502798" width="535.299" height="179.888" filterUnits="userSpaceOnUse" color-interpolation-filters="sRGB">
<feFlood flood-opacity="0" result="BackgroundImageFix"/>
<feColorMatrix in="SourceAlpha" type="matrix" values="0 0 0 0 0 0 0 0 0 0 0 0 0 0 0 0 0 0 127 0" result="hardAlpha"/>
<feOffset dy="2.2486"/>
<feGaussianBlur stdDeviation="2.2486"/>
<feComposite in2="hardAlpha" operator="out"/>
<feColorMatrix type="matrix" values="0 0 0 0 0 0 0 0 0 0 0 0 0 0 0 0 0 0 0.1 0"/>
<feBlend mode="normal" in2="BackgroundImageFix" result="effect1_dropShadow_5507_19278"/>
<feColorMatrix in="SourceAlpha" type="matrix" values="0 0 0 0 0 0 0 0 0 0 0 0 0 0 0 0 0 0 127 0" result="hardAlpha"/>
<feOffset/>
<feGaussianBlur stdDeviation="2.2486"/>
<feComposite in2="hardAlpha" operator="out"/>
<feColorMatrix type="matrix" values="0 0 0 0 0 0 0 0 0 0 0 0 0 0 0 0 0 0 0.14 0"/>
<feBlend mode="normal" in2="effect1_dropShadow_5507_19278" result="effect2_dropShadow_5507_19278"/>
<feBlend mode="normal" in="SourceGraphic" in2="effect2_dropShadow_5507_19278" result="shape"/>
</filter>
</defs>
</svg>
