<svg width="536" height="181" fill="none" xmlns="http://www.w3.org/2000/svg"><g filter="url(#a)"><mask id="b" fill="#fff"><path fill-rule="evenodd" clip-rule="evenodd" d="M20.8 31.891c0-6.793-4.974-12.508-11.725-14.174C13.841 10.081 22.32 5 31.983 5h472.338c14.903 0 26.984 12.08 26.984 26.983v114.679c0 14.902-12.081 26.983-26.984 26.983H31.983c-8.775 0-16.573-4.189-21.5-10.677 6.023-2.067 10.317-7.448 10.317-13.76 0-8.099-7.07-14.665-15.79-14.665H5v-9.778h.01c8.72 0 15.79-6.566 15.79-14.665S13.73 95.436 5.01 95.436H5V85.66h.01c8.72 0 15.79-6.566 15.79-14.665 0-8.1-7.07-14.665-15.79-14.665H5v-9.774h.01c8.72 0 15.79-6.566 15.79-14.665Z"/></mask><path fill-rule="evenodd" clip-rule="evenodd" d="M20.8 31.891c0-6.793-4.974-12.508-11.725-14.174C13.841 10.081 22.32 5 31.983 5h472.338c14.903 0 26.984 12.08 26.984 26.983v114.679c0 14.902-12.081 26.983-26.984 26.983H31.983c-8.775 0-16.573-4.189-21.5-10.677 6.023-2.067 10.317-7.448 10.317-13.76 0-8.099-7.07-14.665-15.79-14.665H5v-9.778h.01c8.72 0 15.79-6.566 15.79-14.665S13.73 95.436 5.01 95.436H5V85.66h.01c8.72 0 15.79-6.566 15.79-14.665 0-8.1-7.07-14.665-15.79-14.665H5v-9.774h.01c8.72 0 15.79-6.566 15.79-14.665Z" fill="#D9D9D9"/><path d="m9.075 17.717-.33-.206-.285.456.522.129.093-.379Zm1.407 145.251-.126-.369-.51.175.326.43.31-.236ZM5 134.543h-.39v.39H5v-.39Zm0-9.778v-.39h-.39v.39H5Zm0-29.33h-.39v.39H5v-.39Zm0-9.775v-.39h-.39v.39H5Zm.01-29.33v-.39.39Zm-.01 0h-.39v.39H5v-.39Zm0-9.774v-.39h-.39v.39H5Zm.01 0v.39-.39Zm3.972-28.46C15.58 19.724 20.41 25.299 20.41 31.89h.78c0-6.995-5.119-12.85-12.021-14.552l-.187.757ZM31.983 4.61c-9.804 0-18.405 5.155-23.238 12.9l.661.414C14.104 10.397 22.46 5.39 31.983 5.39v-.78Zm472.338 0H31.983v.78h472.338v-.78Zm27.374 27.373c0-15.118-12.256-27.373-27.374-27.373v.78c14.687 0 26.594 11.906 26.594 26.593h.78Zm0 114.679V31.983h-.78v114.679h.78Zm-27.374 27.373c15.118 0 27.374-12.255 27.374-27.373h-.78c0 14.687-11.907 26.593-26.594 26.593v.78Zm-472.338 0h472.338v-.78H31.983v.78Zm-21.811-10.831c4.998 6.581 12.909 10.831 21.811 10.831v-.78c-8.648 0-16.333-4.128-21.19-10.523l-.621.472Zm10.238-13.996c0 6.126-4.169 11.372-10.054 13.391l.253.738c6.161-2.114 10.58-7.63 10.58-14.129h-.78Zm-15.4-14.275c8.533 0 15.4 6.418 15.4 14.275h.78c0-8.341-7.272-15.055-16.18-15.055v.78Zm-.01 0H5.01v-.78H5v.78Zm-.39-10.168v9.778h.78v-9.778h-.78Zm.4-.39H5v.78h.01v-.78Zm15.4-14.275c0 7.857-6.867 14.275-15.4 14.275v.78c8.909 0 16.18-6.713 16.18-15.055h-.78ZM5.01 95.826c8.533 0 15.4 6.417 15.4 14.274h.78c0-8.341-7.272-15.054-16.18-15.054v.78Zm-.01 0h.01v-.78H5v.78ZM4.61 85.66v9.776h.78V85.66h-.78Zm.4-.39H5v.78h.01v-.78Zm15.4-14.275c0 7.857-6.867 14.275-15.4 14.275v.78c8.909 0 16.18-6.714 16.18-15.055h-.78ZM5.01 56.72c8.533 0 15.4 6.418 15.4 14.275h.78c0-8.341-7.272-15.055-16.18-15.055v.78Zm-.01 0h.01v-.78H5v.78Zm-.39-10.164v9.774h.78v-9.774h-.78Zm.4-.39H5v.78h.01v-.78Zm15.4-14.275c0 7.858-6.867 14.275-15.4 14.275v.78c8.909 0 16.18-6.713 16.18-15.055h-.78Z" fill="#D9D9D9" mask="url(#b)"/></g><defs><filter id="a" x=".503" y=".503" width="535.299" height="179.888" filterUnits="userSpaceOnUse" color-interpolation-filters="sRGB"><feFlood flood-opacity="0" result="BackgroundImageFix"/><feColorMatrix in="SourceAlpha" values="0 0 0 0 0 0 0 0 0 0 0 0 0 0 0 0 0 0 127 0" result="hardAlpha"/><feOffset dy="2.249"/><feGaussianBlur stdDeviation="2.249"/><feComposite in2="hardAlpha" operator="out"/><feColorMatrix values="0 0 0 0 0 0 0 0 0 0 0 0 0 0 0 0 0 0 0.1 0"/><feBlend in2="BackgroundImageFix" result="effect1_dropShadow_5507_19278"/><feColorMatrix in="SourceAlpha" values="0 0 0 0 0 0 0 0 0 0 0 0 0 0 0 0 0 0 127 0" result="hardAlpha"/><feOffset/><feGaussianBlur stdDeviation="2.249"/><feComposite in2="hardAlpha" operator="out"/><feColorMatrix values="0 0 0 0 0 0 0 0 0 0 0 0 0 0 0 0 0 0 0.14 0"/><feBlend in2="effect1_dropShadow_5507_19278" result="effect2_dropShadow_5507_19278"/><feBlend in="SourceGraphic" in2="effect2_dropShadow_5507_19278" result="shape"/></filter></defs></svg>