<svg width="23" height="23" fill="none" xmlns="http://www.w3.org/2000/svg"><path fill-rule="evenodd" clip-rule="evenodd" d="M9.374 2.735c.453-.42 1.13-1.008 1.996-1.008.867 0 1.543.589 1.996 1.008l.28.264c.14.133.266.254.405.375.213.184.381.302.524.365.165.064.383.104.668.127.198.015.39.02.6.027.109.003.223.006.346.011.611.025 1.506.082 2.11.685.603.604.66 1.499.684 2.11l.012.346c.006.21.011.402.027.6.023.285.063.503.127.668.063.143.18.311.365.523.121.14.242.266.375.406.082.086.17.177.264.28.42.453 1.008 1.129 1.008 1.995 0 .867-.589 1.543-1.008 1.997l-.264.28c-.133.138-.254.265-.375.405-.184.212-.302.38-.365.523-.064.165-.104.383-.127.668-.015.198-.021.39-.027.6l-.012.346c-.024.611-.08 1.506-.685 2.11-.603.603-1.498.66-2.11.685a29.2 29.2 0 0 1-.345.011c-.21.006-.402.012-.6.027-.285.023-.503.063-.668.127-.143.063-.311.18-.523.365-.14.121-.267.242-.406.375-.086.082-.178.17-.28.264-.453.42-1.13 1.008-1.996 1.008-.866 0-1.543-.589-1.996-1.008l-.28-.264c-.139-.133-.266-.254-.405-.375-.212-.184-.38-.302-.524-.365-.165-.064-.382-.104-.668-.127-.197-.015-.39-.02-.599-.027a29.22 29.22 0 0 1-.346-.011c-.612-.025-1.506-.082-2.11-.686-.604-.603-.66-1.498-.685-2.109-.005-.122-.008-.237-.011-.346-.006-.21-.012-.402-.028-.6-.022-.285-.062-.503-.127-.668-.063-.143-.18-.311-.364-.523-.121-.14-.242-.266-.375-.406-.082-.086-.17-.177-.264-.28-.42-.453-1.008-1.129-1.008-1.995 0-.867.588-1.543 1.008-1.997.094-.102.181-.193.264-.28.133-.139.254-.265.375-.405.184-.212.302-.38.364-.523.065-.165.105-.383.127-.669.016-.197.022-.389.028-.599.003-.11.006-.224.011-.346.025-.611.081-1.506.685-2.11.604-.603 1.498-.66 2.11-.685.122-.005.237-.008.346-.011.21-.006.402-.012.6-.027.285-.023.502-.063.667-.127.143-.063.312-.18.524-.365.14-.121.266-.242.405-.375.087-.082.178-.17.28-.264Zm4.654 6.405a.7.7 0 1 0-1.12-.84l-4.195 5.595a.7.7 0 0 0 1.119.84l4.196-5.595Zm-1.958 4.475a1.399 1.399 0 1 1 2.797 0 1.399 1.399 0 0 1-2.797 0ZM9.272 8.021a1.399 1.399 0 1 0 0 2.797 1.399 1.399 0 0 0 0-2.797Z" fill="#707070"/></svg>