<svg xmlns="http://www.w3.org/2000/svg" width="86" height="181" fill="none"><g filter="url(#a)"><mask id="b" fill="#fff"><path fill-rule="evenodd" d="M5 31.983C5 17.081 17.08 5 31.983 5h49.47v15.05C68.69 21.228 58.964 27.34 58.964 34.705c0 7.363 9.725 13.476 22.487 14.655v7.861C68.69 58.4 58.965 64.513 58.965 71.876c0 7.364 9.725 13.476 22.487 14.655v10.315c-12.762 1.179-22.487 7.291-22.487 14.655 0 7.364 9.725 13.476 22.487 14.655v10.319c-12.762 1.179-22.487 7.292-22.487 14.655 0 7.364 9.725 13.477 22.487 14.655v10.109H31.983C17.081 175.894 5 163.813 5 148.91V31.983Z" clip-rule="evenodd"/></mask><path fill="#D9D9D9" fill-rule="evenodd" d="M5 31.983C5 17.081 17.08 5 31.983 5h49.47v15.05C68.69 21.228 58.964 27.34 58.964 34.705c0 7.363 9.725 13.476 22.487 14.655v7.861C68.69 58.4 58.965 64.513 58.965 71.876c0 7.364 9.725 13.476 22.487 14.655v10.315c-12.762 1.179-22.487 7.291-22.487 14.655 0 7.364 9.725 13.476 22.487 14.655v10.319c-12.762 1.179-22.487 7.292-22.487 14.655 0 7.364 9.725 13.477 22.487 14.655v10.109H31.983C17.081 175.894 5 163.813 5 148.91V31.983Z" clip-rule="evenodd"/><path fill="#D9D9D9" d="M81.452 5h.788v-.787h-.788V5Zm0 15.05.073.783.715-.066v-.717h-.788Zm0 29.31h.788v-.718l-.715-.066-.073.784Zm0 7.861.073.784.715-.066v-.718h-.788Zm0 29.31h.788v-.718l-.715-.066-.073.784Zm0 10.315.073.784.715-.066v-.718h-.788Zm0 29.31h.788v-.718l-.715-.066-.073.784Zm0 10.319.073.784.715-.066v-.718h-.788Zm0 29.31h.788v-.717l-.715-.066-.073.783Zm0 10.109v.787h.788v-.787h-.788ZM31.983 4.213c-15.337 0-27.77 12.433-27.77 27.77h1.574c0-14.468 11.729-26.196 26.196-26.196V4.213Zm49.47 0h-49.47v1.574h49.47V4.213Zm.787 15.837V5h-1.575v15.05h1.575ZM59.752 34.705c0-3.306 2.186-6.464 6.097-8.986 3.897-2.512 9.39-4.305 15.676-4.886l-.145-1.567c-6.477.598-12.228 2.451-16.383 5.13-4.142 2.67-6.819 6.251-6.819 10.309h1.574Zm21.773 13.87c-6.286-.58-11.779-2.373-15.676-4.885-3.911-2.522-6.097-5.68-6.097-8.985h-1.574c0 4.057 2.677 7.638 6.819 10.308 4.155 2.68 9.906 4.532 16.383 5.13l.145-1.567Zm.715 8.646V49.36h-1.575v7.861h1.575ZM59.752 71.876c0-3.306 2.186-6.463 6.097-8.985 3.897-2.513 9.39-4.305 15.676-4.886l-.145-1.568c-6.477.599-12.228 2.452-16.383 5.131-4.142 2.67-6.819 6.25-6.819 10.308h1.574Zm21.773 13.871c-6.286-.58-11.779-2.373-15.676-4.885-3.911-2.522-6.097-5.68-6.097-8.986h-1.574c0 4.058 2.677 7.638 6.819 10.308 4.155 2.68 9.906 4.533 16.383 5.13l.145-1.566Zm.715 11.099V86.531h-1.575v10.315h1.575Zm-22.488 14.655c0-3.306 2.186-6.464 6.097-8.985 3.897-2.513 9.39-4.306 15.676-4.886l-.145-1.568c-6.477.599-12.228 2.451-16.383 5.131-4.142 2.67-6.819 6.25-6.819 10.308h1.574Zm21.773 13.871c-6.286-.58-11.779-2.373-15.676-4.886-3.911-2.521-6.097-5.679-6.097-8.985h-1.574c0 4.058 2.677 7.638 6.819 10.308 4.155 2.68 9.906 4.532 16.383 5.131l.145-1.568Zm.715 11.103v-10.319h-1.575v10.319h1.575ZM59.752 151.13c0-3.305 2.186-6.463 6.097-8.985 3.897-2.512 9.39-4.305 15.676-4.886l-.145-1.567c-6.477.598-12.228 2.451-16.383 5.13-4.142 2.67-6.819 6.251-6.819 10.308h1.574Zm21.773 13.872c-6.286-.581-11.779-2.374-15.676-4.886-3.911-2.522-6.097-5.68-6.097-8.986h-1.574c0 4.058 2.677 7.638 6.819 10.309 4.155 2.679 9.906 4.532 16.383 5.13l.145-1.567Zm.715 10.892v-10.109h-1.575v10.109h1.575Zm-50.257.787h49.47v-1.574h-49.47v1.574ZM4.213 148.91c0 15.338 12.433 27.771 27.77 27.771v-1.574c-14.468 0-26.196-11.729-26.196-26.197H4.213Zm0-116.927V148.91h1.574V31.983H4.213Z" mask="url(#b)"/></g><path fill="#FEFEFE" d="M39.578 137.855v6.408H20.67v-6.537c0-1.877.379-3.49 1.136-4.838.75-1.354 1.83-2.395 3.24-3.121 1.41-.726 3.097-1.089 5.06-1.089 1.97 0 3.662.366 5.078 1.098 1.416.727 2.502 1.776 3.26 3.149.757 1.366 1.135 3.01 1.135 4.93Zm-2.964 2.982v-2.816c0-1.317-.24-2.416-.72-3.296-.486-.88-1.21-1.542-2.17-1.985-.966-.443-2.172-.665-3.619-.665-1.446 0-2.647.222-3.6.665-.961.443-1.678 1.099-2.152 1.967-.48.862-.72 1.933-.72 3.213v2.917h12.981Zm2.964-15.266H25.396v-3.343h14.182v3.343Zm-16.195-1.681c0 .53-.175.985-.526 1.367-.357.381-.785.572-1.283.572a1.68 1.68 0 0 1-1.284-.572 1.932 1.932 0 0 1-.535-1.367c0-.535.178-.991.536-1.366.35-.382.778-.573 1.283-.573.498 0 .926.191 1.283.573.351.375.527.831.527 1.366Zm5.762-16.307.332 3.047a2.45 2.45 0 0 0-.868.452c-.27.209-.489.492-.655.849-.166.357-.25.794-.25 1.311 0 .696.151 1.281.453 1.755.302.468.692.698 1.172.692.413.006.748-.144 1.007-.452.259-.314.47-.831.637-1.551l.517-2.419c.29-1.342.748-2.339 1.376-2.992.628-.658 1.45-.991 2.465-.997.892.006 1.68.268 2.364.785.677.511 1.206 1.222 1.588 2.133.381.911.572 1.957.572 3.139 0 1.736-.363 3.133-1.09 4.192-.732 1.058-1.75 1.689-3.056 1.892l-.313-3.259c.64-.148 1.123-.462 1.45-.942.325-.48.489-1.105.489-1.874 0-.794-.164-1.431-.49-1.911-.326-.486-.73-.73-1.21-.73a1.26 1.26 0 0 0-1.006.471c-.264.308-.468.788-.61 1.441l-.507 2.419c-.283 1.36-.76 2.366-1.431 3.019-.677.652-1.533.975-2.567.969-.874.006-1.631-.231-2.271-.711-.646-.486-1.145-1.16-1.496-2.022-.357-.868-.535-1.868-.535-3 0-1.662.354-2.97 1.061-3.924.708-.961 1.665-1.555 2.872-1.782Zm10.71-9.247c0 1.416-.31 2.631-.932 3.647-.622 1.009-1.48 1.788-2.576 2.336-1.102.541-2.37.812-3.804.812-1.44 0-2.712-.277-3.814-.831-1.108-.554-1.97-1.335-2.585-2.345-.621-1.015-.932-2.216-.932-3.6 0-1.152.212-2.17.637-3.057.418-.892 1.012-1.603 1.782-2.133.763-.529 1.655-.83 2.677-.904v3.194a3.054 3.054 0 0 0-1.708.924c-.462.48-.692 1.123-.692 1.93 0 .682.184 1.282.554 1.8.363.517.886.92 1.57 1.209.683.283 1.501.425 2.455.425.967 0 1.798-.142 2.493-.425.69-.283 1.222-.68 1.597-1.191.37-.517.554-1.123.554-1.819 0-.492-.092-.932-.277-1.32a2.655 2.655 0 0 0-.821-.988c-.357-.265-.791-.446-1.302-.545v-3.194c1.003.08 1.893.375 2.668.886.77.51 1.373 1.206 1.81 2.087.43.88.646 1.914.646 3.102Zm0-15.006c0 1.385-.305 2.585-.914 3.6-.61 1.016-1.462 1.804-2.558 2.364-1.095.555-2.375.831-3.84.831-1.465 0-2.749-.276-3.85-.83-1.102-.56-1.958-1.349-2.567-2.364-.61-1.016-.914-2.216-.914-3.601 0-1.385.304-2.585.914-3.6.61-1.017 1.465-1.801 2.566-2.355 1.102-.56 2.386-.84 3.85-.84 1.466 0 2.746.28 3.841.84 1.096.554 1.949 1.338 2.558 2.354.61 1.016.914 2.216.914 3.601Zm-2.677-.019c0-.75-.207-1.378-.62-1.883-.418-.505-.978-.88-1.68-1.126-.701-.253-1.483-.379-2.345-.379-.867 0-1.652.126-2.354.379-.708.246-1.271.621-1.69 1.126-.418.505-.628 1.133-.628 1.883 0 .77.21 1.41.628 1.921.419.505.982.883 1.69 1.136.702.246 1.487.369 2.354.369.862 0 1.644-.123 2.346-.37.701-.252 1.261-.63 1.68-1.135.412-.51.619-1.151.619-1.92ZM33.614 64.66h-8.218v-3.343h14.182v3.241h-2.52v.148c.794.32 1.443.846 1.948 1.579.504.726.757 1.622.757 2.686 0 .93-.206 1.752-.619 2.466-.418.707-1.025 1.261-1.819 1.662-.8.4-1.766.6-2.899.6h-9.03v-3.343h8.513c.899 0 1.613-.246 2.142-.738.53-.493.794-1.139.794-1.94 0-.492-.12-.969-.36-1.43a2.911 2.911 0 0 0-1.07-1.136c-.481-.302-1.081-.452-1.801-.452Zm-2.345-10.122h8.31v3.342H25.395v-3.194h2.41v-.166a4.055 4.055 0 0 1-1.893-1.56c-.468-.721-.701-1.61-.701-2.67 0-.978.209-1.83.628-2.557.418-.732 1.024-1.298 1.818-1.699.794-.406 1.758-.606 2.89-.6h9.03v3.343h-8.513c-.948 0-1.69.246-2.225.738-.535.487-.803 1.16-.803 2.022 0 .585.13 1.105.388 1.56.252.45.618.804 1.098 1.063.48.252 1.062.378 1.745.378Zm-5.873-19.583h2.585v8.153h-2.585v-8.153ZM22 41.094V37.75h13.314c.449 0 .793-.067 1.034-.203.233-.141.393-.326.48-.554.086-.227.129-.48.129-.757 0-.209-.015-.4-.046-.572a4.999 4.999 0 0 0-.083-.406l2.613-.564c.061.179.129.434.203.767.074.326.117.726.129 1.2.025.837-.102 1.591-.378 2.262a3.52 3.52 0 0 1-1.312 1.597c-.59.388-1.33.579-2.215.573H21.998Z"/><defs><filter id="a" width="85.447" height="179.888" x=".503" y=".503" color-interpolation-filters="sRGB" filterUnits="userSpaceOnUse"><feFlood flood-opacity="0" result="BackgroundImageFix"/><feColorMatrix in="SourceAlpha" result="hardAlpha" values="0 0 0 0 0 0 0 0 0 0 0 0 0 0 0 0 0 0 127 0"/><feOffset dy="2.249"/><feGaussianBlur stdDeviation="1.124"/><feComposite in2="hardAlpha" operator="out"/><feColorMatrix values="0 0 0 0 0 0 0 0 0 0 0 0 0 0 0 0 0 0 0.1 0"/><feBlend in2="BackgroundImageFix" result="effect1_dropShadow_5507_19256"/><feColorMatrix in="SourceAlpha" result="hardAlpha" values="0 0 0 0 0 0 0 0 0 0 0 0 0 0 0 0 0 0 127 0"/><feOffset/><feGaussianBlur stdDeviation="2.249"/><feComposite in2="hardAlpha" operator="out"/><feColorMatrix values="0 0 0 0 0 0 0 0 0 0 0 0 0 0 0 0 0 0 0.14 0"/><feBlend in2="effect1_dropShadow_5507_19256" result="effect2_dropShadow_5507_19256"/><feBlend in="SourceGraphic" in2="effect2_dropShadow_5507_19256" result="shape"/></filter></defs></svg>