<svg xmlns="http://www.w3.org/2000/svg" width="30" height="30" fill="none"><path fill="#965EFB" fill-rule="evenodd" d="M12.324 3.226c.607-.562 1.514-1.351 2.676-1.351 1.162 0 2.069.789 2.676 1.351.137.127.26.243.375.354.187.178.357.34.544.502.284.248.51.405.702.49.22.086.512.14.895.17.265.02.522.028.804.036l.464.016c.82.033 2.018.109 2.828.918.81.81.885 2.009.918 2.828.007.164.011.317.016.464.008.281.015.539.036.804.03.383.084.674.17.896.085.191.242.417.49.701.162.187.324.357.502.544.11.116.227.238.354.375.562.607 1.351 1.514 1.351 2.676 0 1.162-.789 2.069-1.351 2.676-.127.137-.243.259-.354.375-.178.186-.34.357-.503.544-.247.284-.404.51-.488.702-.087.22-.14.512-.17.895-.022.265-.03.522-.037.804l-.016.464c-.033.82-.109 2.018-.918 2.828-.81.81-2.009.885-2.828.918-.164.007-.318.011-.464.016-.281.008-.539.015-.804.036-.383.03-.674.084-.895.17-.192.085-.418.242-.703.49-.186.162-.356.324-.543.502-.116.11-.238.227-.375.354-.607.562-1.514 1.351-2.676 1.351-1.162 0-2.069-.789-2.676-1.351-.137-.127-.26-.244-.375-.354-.187-.178-.357-.34-.543-.503-.285-.247-.51-.404-.703-.488-.22-.087-.512-.14-.895-.17-.265-.022-.522-.03-.804-.037l-.464-.016c-.82-.033-2.018-.109-2.828-.918-.81-.81-.885-2.009-.918-2.828a39.51 39.51 0 0 1-.016-.464c-.008-.282-.015-.539-.036-.804-.03-.383-.084-.674-.17-.895-.085-.192-.242-.418-.49-.703-.162-.186-.324-.356-.502-.543-.11-.116-.227-.238-.354-.375-.562-.607-1.351-1.514-1.351-2.676 0-1.162.789-2.069 1.351-2.676.127-.137.244-.26.354-.375.178-.187.34-.357.502-.543.248-.285.405-.51.49-.703.086-.22.14-.512.17-.895.02-.265.028-.522.036-.804l.016-.464c.033-.82.109-2.018.918-2.828.81-.81 2.009-.885 2.828-.918.164-.007.318-.011.464-.016.282-.008.539-.015.804-.036.383-.03.674-.084.896-.17.191-.085.417-.242.701-.49.187-.162.357-.324.544-.502.116-.11.238-.227.375-.354Zm6.239 8.587a.938.938 0 0 0-1.5-1.126l-5.625 7.5a.937.937 0 1 0 1.5 1.125l5.624-7.5Zm-2.625 6a1.875 1.875 0 1 1 3.75 0 1.875 1.875 0 0 1-3.75 0Zm-3.75-7.5a1.875 1.875 0 1 0 0 3.75 1.875 1.875 0 0 0 0-3.75Z" clip-rule="evenodd"/></svg>