<svg width="582" height="227" viewBox="0 0 582 227" fill="none" xmlns="http://www.w3.org/2000/svg">
<rect width="582" height="227" fill="white"/>
<g filter="url(#filter0_dd_5507_19287)">
<mask id="path-1-inside-1_5507_19287" fill="white">
<path fill-rule="evenodd" clip-rule="evenodd" d="M33.7998 43.8914C33.7998 37.0975 28.8257 31.3827 22.0754 29.7171C26.841 22.0808 35.3188 17 44.9832 17H517.321C532.224 17 544.305 29.0808 544.305 43.9832V158.662C544.305 173.564 532.224 185.645 517.321 185.645H44.9832C36.2076 185.645 28.4104 181.456 23.4824 174.968C29.5056 172.901 33.7998 167.52 33.7998 161.208C33.7998 153.109 26.7307 146.543 18.0106 146.543C18.0071 146.543 18.0035 146.543 18 146.543V136.765H18.0106C26.7307 136.765 33.7998 130.199 33.7998 122.1C33.7998 114.001 26.7307 107.436 18.0106 107.436H18V97.6597H18.0106C26.7307 97.6597 33.7998 91.094 33.7998 82.9949C33.7998 74.8957 26.7307 68.3301 18.0106 68.3301L18 68.3301V58.5561L18.0106 58.5561C26.7307 58.5561 33.7998 51.9905 33.7998 43.8914Z"/>
</mask>
<path fill-rule="evenodd" clip-rule="evenodd" d="M33.7998 43.8914C33.7998 37.0975 28.8257 31.3827 22.0754 29.7171C26.841 22.0808 35.3188 17 44.9832 17H517.321C532.224 17 544.305 29.0808 544.305 43.9832V158.662C544.305 173.564 532.224 185.645 517.321 185.645H44.9832C36.2076 185.645 28.4104 181.456 23.4824 174.968C29.5056 172.901 33.7998 167.52 33.7998 161.208C33.7998 153.109 26.7307 146.543 18.0106 146.543C18.0071 146.543 18.0035 146.543 18 146.543V136.765H18.0106C26.7307 136.765 33.7998 130.199 33.7998 122.1C33.7998 114.001 26.7307 107.436 18.0106 107.436H18V97.6597H18.0106C26.7307 97.6597 33.7998 91.094 33.7998 82.9949C33.7998 74.8957 26.7307 68.3301 18.0106 68.3301L18 68.3301V58.5561L18.0106 58.5561C26.7307 58.5561 33.7998 51.9905 33.7998 43.8914Z" fill="#D9D9D9"/>
<path d="M22.0754 29.7171L21.7445 29.5106L21.4598 29.9669L21.982 30.0957L22.0754 29.7171ZM23.4824 174.968L23.3558 174.599L22.8455 174.774L23.1719 175.204L23.4824 174.968ZM18 146.543H17.61V146.933H18V146.543ZM18 136.765V136.375H17.61V136.765H18ZM18 107.436H17.61V107.826H18V107.436ZM18 97.6597V97.2697H17.61V97.6597H18ZM18.0106 68.3301L18.0106 67.9401L18.0105 67.9401L18.0106 68.3301ZM18 68.3301H17.61V68.7202L18.0001 68.7201L18 68.3301ZM18 58.5561L18.0001 58.1661L17.61 58.166V58.5561H18ZM18.0106 58.5561L18.0105 58.9461H18.0106V58.5561ZM21.982 30.0957C28.5803 31.7238 33.4098 37.2989 33.4098 43.8914H34.1898C34.1898 36.8962 29.071 31.0415 22.1688 29.3385L21.982 30.0957ZM44.9832 16.61C35.1787 16.61 26.5784 21.765 21.7445 29.5106L22.4063 29.9236C27.1036 22.3967 35.4589 17.39 44.9832 17.39V16.61ZM517.321 16.61H44.9832V17.39H517.321V16.61ZM544.695 43.9832C544.695 28.8654 532.439 16.61 517.321 16.61V17.39C532.008 17.39 543.915 29.2962 543.915 43.9832H544.695ZM544.695 158.662V43.9832H543.915V158.662H544.695ZM517.321 186.035C532.439 186.035 544.695 173.78 544.695 158.662H543.915C543.915 173.349 532.008 185.255 517.321 185.255V186.035ZM44.9832 186.035H517.321V185.255H44.9832V186.035ZM23.1719 175.204C28.1704 181.785 36.0805 186.035 44.9832 186.035V185.255C36.3346 185.255 28.6504 181.127 23.793 174.732L23.1719 175.204ZM33.4098 161.208C33.4098 167.334 29.2411 172.58 23.3558 174.599L23.609 175.337C29.7701 173.223 34.1898 167.707 34.1898 161.208H33.4098ZM18.0106 146.933C26.543 146.933 33.4098 153.351 33.4098 161.208H34.1898C34.1898 152.867 26.9185 146.153 18.0106 146.153V146.933ZM18 146.933C18 146.933 18 146.933 18 146.933C18 146.933 18 146.933 18 146.933C18 146.933 18.0001 146.933 18.0001 146.933C18.0001 146.933 18.0001 146.933 18.0001 146.933C18.0001 146.933 18.0001 146.933 18.0001 146.933C18.0001 146.933 18.0001 146.933 18.0001 146.933C18.0001 146.933 18.0001 146.933 18.0001 146.933C18.0002 146.933 18.0002 146.933 18.0002 146.933C18.0002 146.933 18.0002 146.933 18.0002 146.933C18.0002 146.933 18.0002 146.933 18.0002 146.933C18.0002 146.933 18.0002 146.933 18.0002 146.933C18.0002 146.933 18.0002 146.933 18.0002 146.933C18.0003 146.933 18.0003 146.933 18.0003 146.933C18.0003 146.933 18.0003 146.933 18.0003 146.933C18.0003 146.933 18.0003 146.933 18.0003 146.933C18.0003 146.933 18.0003 146.933 18.0003 146.933C18.0003 146.933 18.0003 146.933 18.0004 146.933C18.0004 146.933 18.0004 146.933 18.0004 146.933C18.0004 146.933 18.0004 146.933 18.0004 146.933C18.0004 146.933 18.0004 146.933 18.0004 146.933C18.0004 146.933 18.0004 146.933 18.0004 146.933C18.0004 146.933 18.0004 146.933 18.0005 146.933C18.0005 146.933 18.0005 146.933 18.0005 146.933C18.0005 146.933 18.0005 146.933 18.0005 146.933C18.0005 146.933 18.0005 146.933 18.0005 146.933C18.0005 146.933 18.0005 146.933 18.0005 146.933C18.0005 146.933 18.0006 146.933 18.0006 146.933C18.0006 146.933 18.0006 146.933 18.0006 146.933C18.0006 146.933 18.0006 146.933 18.0006 146.933C18.0006 146.933 18.0006 146.933 18.0006 146.933C18.0006 146.933 18.0006 146.933 18.0006 146.933C18.0006 146.933 18.0007 146.933 18.0007 146.933C18.0007 146.933 18.0007 146.933 18.0007 146.933C18.0007 146.933 18.0007 146.933 18.0007 146.933C18.0007 146.933 18.0007 146.933 18.0007 146.933C18.0007 146.933 18.0007 146.933 18.0007 146.933C18.0008 146.933 18.0008 146.933 18.0008 146.933C18.0008 146.933 18.0008 146.933 18.0008 146.933C18.0008 146.933 18.0008 146.933 18.0008 146.933C18.0008 146.933 18.0008 146.933 18.0008 146.933C18.0008 146.933 18.0008 146.933 18.0009 146.933C18.0009 146.933 18.0009 146.933 18.0009 146.933C18.0009 146.933 18.0009 146.933 18.0009 146.933C18.0009 146.933 18.0009 146.933 18.0009 146.933C18.0009 146.933 18.0009 146.933 18.0009 146.933C18.0009 146.933 18.0009 146.933 18.001 146.933C18.001 146.933 18.001 146.933 18.001 146.933C18.001 146.933 18.001 146.933 18.001 146.933C18.001 146.933 18.001 146.933 18.001 146.933C18.001 146.933 18.001 146.933 18.001 146.933C18.001 146.933 18.0011 146.933 18.0011 146.933C18.0011 146.933 18.0011 146.933 18.0011 146.933C18.0011 146.933 18.0011 146.933 18.0011 146.933C18.0011 146.933 18.0011 146.933 18.0011 146.933C18.0011 146.933 18.0011 146.933 18.0011 146.933C18.0011 146.933 18.0012 146.933 18.0012 146.933C18.0012 146.933 18.0012 146.933 18.0012 146.933C18.0012 146.933 18.0012 146.933 18.0012 146.933C18.0012 146.933 18.0012 146.933 18.0012 146.933C18.0012 146.933 18.0012 146.933 18.0012 146.933C18.0013 146.933 18.0013 146.933 18.0013 146.933C18.0013 146.933 18.0013 146.933 18.0013 146.933C18.0013 146.933 18.0013 146.933 18.0013 146.933C18.0013 146.933 18.0013 146.933 18.0013 146.933C18.0013 146.933 18.0013 146.933 18.0013 146.933C18.0014 146.933 18.0014 146.933 18.0014 146.933C18.0014 146.933 18.0014 146.933 18.0014 146.933C18.0014 146.933 18.0014 146.933 18.0014 146.933C18.0014 146.933 18.0014 146.933 18.0014 146.933C18.0014 146.933 18.0014 146.933 18.0015 146.933C18.0015 146.933 18.0015 146.933 18.0015 146.933C18.0015 146.933 18.0015 146.933 18.0015 146.933C18.0015 146.933 18.0015 146.933 18.0015 146.933C18.0015 146.933 18.0015 146.933 18.0015 146.933C18.0015 146.933 18.0015 146.933 18.0016 146.933C18.0016 146.933 18.0016 146.933 18.0016 146.933C18.0016 146.933 18.0016 146.933 18.0016 146.933C18.0016 146.933 18.0016 146.933 18.0016 146.933C18.0016 146.933 18.0016 146.933 18.0016 146.933C18.0016 146.933 18.0017 146.933 18.0017 146.933C18.0017 146.933 18.0017 146.933 18.0017 146.933C18.0017 146.933 18.0017 146.933 18.0017 146.933C18.0017 146.933 18.0017 146.933 18.0017 146.933C18.0017 146.933 18.0017 146.933 18.0017 146.933C18.0017 146.933 18.0018 146.933 18.0018 146.933C18.0018 146.933 18.0018 146.933 18.0018 146.933C18.0018 146.933 18.0018 146.933 18.0018 146.933C18.0018 146.933 18.0018 146.933 18.0018 146.933C18.0018 146.933 18.0018 146.933 18.0018 146.933C18.0019 146.933 18.0019 146.933 18.0019 146.933C18.0019 146.933 18.0019 146.933 18.0019 146.933C18.0019 146.933 18.0019 146.933 18.0019 146.933C18.0019 146.933 18.0019 146.933 18.0019 146.933C18.0019 146.933 18.0019 146.933 18.0019 146.933C18.002 146.933 18.002 146.933 18.002 146.933C18.002 146.933 18.002 146.933 18.002 146.933C18.002 146.933 18.002 146.933 18.002 146.933C18.002 146.933 18.002 146.933 18.002 146.933C18.002 146.933 18.002 146.933 18.0021 146.933C18.0021 146.933 18.0021 146.933 18.0021 146.933C18.0021 146.933 18.0021 146.933 18.0021 146.933C18.0021 146.933 18.0021 146.933 18.0021 146.933C18.0021 146.933 18.0021 146.933 18.0021 146.933C18.0021 146.933 18.0022 146.933 18.0022 146.933C18.0022 146.933 18.0022 146.933 18.0022 146.933C18.0022 146.933 18.0022 146.933 18.0022 146.933C18.0022 146.933 18.0022 146.933 18.0022 146.933C18.0022 146.933 18.0022 146.933 18.0022 146.933C18.0022 146.933 18.0023 146.933 18.0023 146.933C18.0023 146.933 18.0023 146.933 18.0023 146.933C18.0023 146.933 18.0023 146.933 18.0023 146.933C18.0023 146.933 18.0023 146.933 18.0023 146.933C18.0023 146.933 18.0023 146.933 18.0023 146.933C18.0024 146.933 18.0024 146.933 18.0024 146.933C18.0024 146.933 18.0024 146.933 18.0024 146.933C18.0024 146.933 18.0024 146.933 18.0024 146.933C18.0024 146.933 18.0024 146.933 18.0024 146.933C18.0024 146.933 18.0024 146.933 18.0024 146.933C18.0025 146.933 18.0025 146.933 18.0025 146.933C18.0025 146.933 18.0025 146.933 18.0025 146.933C18.0025 146.933 18.0025 146.933 18.0025 146.933C18.0025 146.933 18.0025 146.933 18.0025 146.933C18.0025 146.933 18.0025 146.933 18.0026 146.933C18.0026 146.933 18.0026 146.933 18.0026 146.933C18.0026 146.933 18.0026 146.933 18.0026 146.933C18.0026 146.933 18.0026 146.933 18.0026 146.933C18.0026 146.933 18.0026 146.933 18.0026 146.933C18.0026 146.933 18.0026 146.933 18.0027 146.933C18.0027 146.933 18.0027 146.933 18.0027 146.933C18.0027 146.933 18.0027 146.933 18.0027 146.933C18.0027 146.933 18.0027 146.933 18.0027 146.933C18.0027 146.933 18.0027 146.933 18.0027 146.933C18.0027 146.933 18.0028 146.933 18.0028 146.933C18.0028 146.933 18.0028 146.933 18.0028 146.933C18.0028 146.933 18.0028 146.933 18.0028 146.933C18.0028 146.933 18.0028 146.933 18.0028 146.933C18.0028 146.933 18.0028 146.933 18.0028 146.933C18.0028 146.933 18.0029 146.933 18.0029 146.933C18.0029 146.933 18.0029 146.933 18.0029 146.933C18.0029 146.933 18.0029 146.933 18.0029 146.933C18.0029 146.933 18.0029 146.933 18.0029 146.933C18.0029 146.933 18.0029 146.933 18.0029 146.933C18.003 146.933 18.003 146.933 18.003 146.933C18.003 146.933 18.003 146.933 18.003 146.933C18.003 146.933 18.003 146.933 18.003 146.933C18.003 146.933 18.003 146.933 18.003 146.933C18.003 146.933 18.003 146.933 18.003 146.933C18.0031 146.933 18.0031 146.933 18.0031 146.933C18.0031 146.933 18.0031 146.933 18.0031 146.933C18.0031 146.933 18.0031 146.933 18.0031 146.933C18.0031 146.933 18.0031 146.933 18.0031 146.933C18.0031 146.933 18.0031 146.933 18.0032 146.933C18.0032 146.933 18.0032 146.933 18.0032 146.933C18.0032 146.933 18.0032 146.933 18.0032 146.933C18.0032 146.933 18.0032 146.933 18.0032 146.933C18.0032 146.933 18.0032 146.933 18.0032 146.933C18.0032 146.933 18.0032 146.933 18.0033 146.933C18.0033 146.933 18.0033 146.933 18.0033 146.933C18.0033 146.933 18.0033 146.933 18.0033 146.933C18.0033 146.933 18.0033 146.933 18.0033 146.933C18.0033 146.933 18.0033 146.933 18.0033 146.933C18.0033 146.933 18.0034 146.933 18.0034 146.933C18.0034 146.933 18.0034 146.933 18.0034 146.933C18.0034 146.933 18.0034 146.933 18.0034 146.933C18.0034 146.933 18.0034 146.933 18.0034 146.933C18.0034 146.933 18.0034 146.933 18.0034 146.933C18.0035 146.933 18.0035 146.933 18.0035 146.933C18.0035 146.933 18.0035 146.933 18.0035 146.933C18.0035 146.933 18.0035 146.933 18.0035 146.933C18.0035 146.933 18.0035 146.933 18.0035 146.933C18.0035 146.933 18.0035 146.933 18.0035 146.933C18.0036 146.933 18.0036 146.933 18.0036 146.933C18.0036 146.933 18.0036 146.933 18.0036 146.933C18.0036 146.933 18.0036 146.933 18.0036 146.933C18.0036 146.933 18.0036 146.933 18.0036 146.933C18.0036 146.933 18.0036 146.933 18.0037 146.933C18.0037 146.933 18.0037 146.933 18.0037 146.933C18.0037 146.933 18.0037 146.933 18.0037 146.933C18.0037 146.933 18.0037 146.933 18.0037 146.933C18.0037 146.933 18.0037 146.933 18.0037 146.933C18.0037 146.933 18.0037 146.933 18.0038 146.933C18.0038 146.933 18.0038 146.933 18.0038 146.933C18.0038 146.933 18.0038 146.933 18.0038 146.933C18.0038 146.933 18.0038 146.933 18.0038 146.933C18.0038 146.933 18.0038 146.933 18.0038 146.933C18.0038 146.933 18.0039 146.933 18.0039 146.933C18.0039 146.933 18.0039 146.933 18.0039 146.933C18.0039 146.933 18.0039 146.933 18.0039 146.933C18.0039 146.933 18.0039 146.933 18.0039 146.933C18.0039 146.933 18.0039 146.933 18.0039 146.933C18.0039 146.933 18.004 146.933 18.004 146.933C18.004 146.933 18.004 146.933 18.004 146.933C18.004 146.933 18.004 146.933 18.004 146.933C18.004 146.933 18.004 146.933 18.004 146.933C18.004 146.933 18.004 146.933 18.004 146.933C18.0041 146.933 18.0041 146.933 18.0041 146.933C18.0041 146.933 18.0041 146.933 18.0041 146.933C18.0041 146.933 18.0041 146.933 18.0041 146.933C18.0041 146.933 18.0041 146.933 18.0041 146.933C18.0041 146.933 18.0041 146.933 18.0041 146.933C18.0042 146.933 18.0042 146.933 18.0042 146.933C18.0042 146.933 18.0042 146.933 18.0042 146.933C18.0042 146.933 18.0042 146.933 18.0042 146.933C18.0042 146.933 18.0042 146.933 18.0042 146.933C18.0042 146.933 18.0042 146.933 18.0043 146.933C18.0043 146.933 18.0043 146.933 18.0043 146.933C18.0043 146.933 18.0043 146.933 18.0043 146.933C18.0043 146.933 18.0043 146.933 18.0043 146.933C18.0043 146.933 18.0043 146.933 18.0043 146.933C18.0043 146.933 18.0043 146.933 18.0044 146.933C18.0044 146.933 18.0044 146.933 18.0044 146.933C18.0044 146.933 18.0044 146.933 18.0044 146.933C18.0044 146.933 18.0044 146.933 18.0044 146.933C18.0044 146.933 18.0044 146.933 18.0044 146.933C18.0044 146.933 18.0045 146.933 18.0045 146.933C18.0045 146.933 18.0045 146.933 18.0045 146.933C18.0045 146.933 18.0045 146.933 18.0045 146.933C18.0045 146.933 18.0045 146.933 18.0045 146.933C18.0045 146.933 18.0045 146.933 18.0045 146.933C18.0045 146.933 18.0046 146.933 18.0046 146.933C18.0046 146.933 18.0046 146.933 18.0046 146.933C18.0046 146.933 18.0046 146.933 18.0046 146.933C18.0046 146.933 18.0046 146.933 18.0046 146.933C18.0046 146.933 18.0046 146.933 18.0046 146.933C18.0047 146.933 18.0047 146.933 18.0047 146.933C18.0047 146.933 18.0047 146.933 18.0047 146.933C18.0047 146.933 18.0047 146.933 18.0047 146.933C18.0047 146.933 18.0047 146.933 18.0047 146.933C18.0047 146.933 18.0047 146.933 18.0048 146.933C18.0048 146.933 18.0048 146.933 18.0048 146.933C18.0048 146.933 18.0048 146.933 18.0048 146.933C18.0048 146.933 18.0048 146.933 18.0048 146.933C18.0048 146.933 18.0048 146.933 18.0048 146.933C18.0048 146.933 18.0048 146.933 18.0049 146.933C18.0049 146.933 18.0049 146.933 18.0049 146.933C18.0049 146.933 18.0049 146.933 18.0049 146.933C18.0049 146.933 18.0049 146.933 18.0049 146.933C18.0049 146.933 18.0049 146.933 18.0049 146.933C18.0049 146.933 18.005 146.933 18.005 146.933C18.005 146.933 18.005 146.933 18.005 146.933C18.005 146.933 18.005 146.933 18.005 146.933C18.005 146.933 18.005 146.933 18.005 146.933C18.005 146.933 18.005 146.933 18.005 146.933C18.005 146.933 18.0051 146.933 18.0051 146.933C18.0051 146.933 18.0051 146.933 18.0051 146.933C18.0051 146.933 18.0051 146.933 18.0051 146.933C18.0051 146.933 18.0051 146.933 18.0051 146.933C18.0051 146.933 18.0051 146.933 18.0051 146.933C18.0052 146.933 18.0052 146.933 18.0052 146.933C18.0052 146.933 18.0052 146.933 18.0052 146.933C18.0052 146.933 18.0052 146.933 18.0052 146.933C18.0052 146.933 18.0052 146.933 18.0052 146.933C18.0052 146.933 18.0052 146.933 18.0052 146.933C18.0053 146.933 18.0053 146.933 18.0053 146.933C18.0053 146.933 18.0053 146.933 18.0053 146.933C18.0053 146.933 18.0053 146.933 18.0053 146.933C18.0053 146.933 18.0053 146.933 18.0053 146.933C18.0053 146.933 18.0053 146.933 18.0054 146.933C18.0054 146.933 18.0054 146.933 18.0054 146.933C18.0054 146.933 18.0054 146.933 18.0054 146.933C18.0054 146.933 18.0054 146.933 18.0054 146.933C18.0054 146.933 18.0054 146.933 18.0054 146.933C18.0054 146.933 18.0054 146.933 18.0055 146.933C18.0055 146.933 18.0055 146.933 18.0055 146.933C18.0055 146.933 18.0055 146.933 18.0055 146.933C18.0055 146.933 18.0055 146.933 18.0055 146.933C18.0055 146.933 18.0055 146.933 18.0055 146.933C18.0055 146.933 18.0056 146.933 18.0056 146.933C18.0056 146.933 18.0056 146.933 18.0056 146.933C18.0056 146.933 18.0056 146.933 18.0056 146.933C18.0056 146.933 18.0056 146.933 18.0056 146.933C18.0056 146.933 18.0056 146.933 18.0056 146.933C18.0056 146.933 18.0057 146.933 18.0057 146.933C18.0057 146.933 18.0057 146.933 18.0057 146.933C18.0057 146.933 18.0057 146.933 18.0057 146.933C18.0057 146.933 18.0057 146.933 18.0057 146.933C18.0057 146.933 18.0057 146.933 18.0057 146.933C18.0058 146.933 18.0058 146.933 18.0058 146.933C18.0058 146.933 18.0058 146.933 18.0058 146.933C18.0058 146.933 18.0058 146.933 18.0058 146.933C18.0058 146.933 18.0058 146.933 18.0058 146.933C18.0058 146.933 18.0058 146.933 18.0058 146.933C18.0059 146.933 18.0059 146.933 18.0059 146.933C18.0059 146.933 18.0059 146.933 18.0059 146.933C18.0059 146.933 18.0059 146.933 18.0059 146.933C18.0059 146.933 18.0059 146.933 18.0059 146.933C18.0059 146.933 18.0059 146.933 18.006 146.933C18.006 146.933 18.006 146.933 18.006 146.933C18.006 146.933 18.006 146.933 18.006 146.933C18.006 146.933 18.006 146.933 18.006 146.933C18.006 146.933 18.006 146.933 18.006 146.933C18.006 146.933 18.0061 146.933 18.0061 146.933C18.0061 146.933 18.0061 146.933 18.0061 146.933C18.0061 146.933 18.0061 146.933 18.0061 146.933C18.0061 146.933 18.0061 146.933 18.0061 146.933C18.0061 146.933 18.0061 146.933 18.0061 146.933C18.0061 146.933 18.0062 146.933 18.0062 146.933C18.0062 146.933 18.0062 146.933 18.0062 146.933C18.0062 146.933 18.0062 146.933 18.0062 146.933C18.0062 146.933 18.0062 146.933 18.0062 146.933C18.0062 146.933 18.0062 146.933 18.0062 146.933C18.0063 146.933 18.0063 146.933 18.0063 146.933C18.0063 146.933 18.0063 146.933 18.0063 146.933C18.0063 146.933 18.0063 146.933 18.0063 146.933C18.0063 146.933 18.0063 146.933 18.0063 146.933C18.0063 146.933 18.0063 146.933 18.0063 146.933C18.0064 146.933 18.0064 146.933 18.0064 146.933C18.0064 146.933 18.0064 146.933 18.0064 146.933C18.0064 146.933 18.0064 146.933 18.0064 146.933C18.0064 146.933 18.0064 146.933 18.0064 146.933C18.0064 146.933 18.0064 146.933 18.0065 146.933C18.0065 146.933 18.0065 146.933 18.0065 146.933C18.0065 146.933 18.0065 146.933 18.0065 146.933C18.0065 146.933 18.0065 146.933 18.0065 146.933C18.0065 146.933 18.0065 146.933 18.0065 146.933C18.0065 146.933 18.0065 146.933 18.0066 146.933C18.0066 146.933 18.0066 146.933 18.0066 146.933C18.0066 146.933 18.0066 146.933 18.0066 146.933C18.0066 146.933 18.0066 146.933 18.0066 146.933C18.0066 146.933 18.0066 146.933 18.0066 146.933C18.0066 146.933 18.0067 146.933 18.0067 146.933C18.0067 146.933 18.0067 146.933 18.0067 146.933C18.0067 146.933 18.0067 146.933 18.0067 146.933C18.0067 146.933 18.0067 146.933 18.0067 146.933C18.0067 146.933 18.0067 146.933 18.0067 146.933C18.0067 146.933 18.0068 146.933 18.0068 146.933C18.0068 146.933 18.0068 146.933 18.0068 146.933C18.0068 146.933 18.0068 146.933 18.0068 146.933C18.0068 146.933 18.0068 146.933 18.0068 146.933C18.0068 146.933 18.0068 146.933 18.0068 146.933C18.0069 146.933 18.0069 146.933 18.0069 146.933C18.0069 146.933 18.0069 146.933 18.0069 146.933C18.0069 146.933 18.0069 146.933 18.0069 146.933C18.0069 146.933 18.0069 146.933 18.0069 146.933C18.0069 146.933 18.0069 146.933 18.0069 146.933C18.007 146.933 18.007 146.933 18.007 146.933C18.007 146.933 18.007 146.933 18.007 146.933C18.007 146.933 18.007 146.933 18.007 146.933C18.007 146.933 18.007 146.933 18.007 146.933C18.007 146.933 18.007 146.933 18.0071 146.933C18.0071 146.933 18.0071 146.933 18.0071 146.933C18.0071 146.933 18.0071 146.933 18.0071 146.933C18.0071 146.933 18.0071 146.933 18.0071 146.933C18.0071 146.933 18.0071 146.933 18.0071 146.933C18.0071 146.933 18.0071 146.933 18.0072 146.933C18.0072 146.933 18.0072 146.933 18.0072 146.933C18.0072 146.933 18.0072 146.933 18.0072 146.933C18.0072 146.933 18.0072 146.933 18.0072 146.933C18.0072 146.933 18.0072 146.933 18.0072 146.933C18.0072 146.933 18.0073 146.933 18.0073 146.933C18.0073 146.933 18.0073 146.933 18.0073 146.933C18.0073 146.933 18.0073 146.933 18.0073 146.933C18.0073 146.933 18.0073 146.933 18.0073 146.933C18.0073 146.933 18.0073 146.933 18.0073 146.933C18.0074 146.933 18.0074 146.933 18.0074 146.933C18.0074 146.933 18.0074 146.933 18.0074 146.933C18.0074 146.933 18.0074 146.933 18.0074 146.933C18.0074 146.933 18.0074 146.933 18.0074 146.933C18.0074 146.933 18.0074 146.933 18.0074 146.933C18.0075 146.933 18.0075 146.933 18.0075 146.933C18.0075 146.933 18.0075 146.933 18.0075 146.933C18.0075 146.933 18.0075 146.933 18.0075 146.933C18.0075 146.933 18.0075 146.933 18.0075 146.933C18.0075 146.933 18.0075 146.933 18.0076 146.933C18.0076 146.933 18.0076 146.933 18.0076 146.933C18.0076 146.933 18.0076 146.933 18.0076 146.933C18.0076 146.933 18.0076 146.933 18.0076 146.933C18.0076 146.933 18.0076 146.933 18.0076 146.933C18.0076 146.933 18.0076 146.933 18.0077 146.933C18.0077 146.933 18.0077 146.933 18.0077 146.933C18.0077 146.933 18.0077 146.933 18.0077 146.933C18.0077 146.933 18.0077 146.933 18.0077 146.933C18.0077 146.933 18.0077 146.933 18.0077 146.933C18.0077 146.933 18.0078 146.933 18.0078 146.933C18.0078 146.933 18.0078 146.933 18.0078 146.933C18.0078 146.933 18.0078 146.933 18.0078 146.933C18.0078 146.933 18.0078 146.933 18.0078 146.933C18.0078 146.933 18.0078 146.933 18.0078 146.933C18.0078 146.933 18.0079 146.933 18.0079 146.933C18.0079 146.933 18.0079 146.933 18.0079 146.933C18.0079 146.933 18.0079 146.933 18.0079 146.933C18.0079 146.933 18.0079 146.933 18.0079 146.933C18.0079 146.933 18.0079 146.933 18.0079 146.933C18.008 146.933 18.008 146.933 18.008 146.933C18.008 146.933 18.008 146.933 18.008 146.933C18.008 146.933 18.008 146.933 18.008 146.933C18.008 146.933 18.008 146.933 18.008 146.933C18.008 146.933 18.008 146.933 18.008 146.933C18.0081 146.933 18.0081 146.933 18.0081 146.933C18.0081 146.933 18.0081 146.933 18.0081 146.933C18.0081 146.933 18.0081 146.933 18.0081 146.933C18.0081 146.933 18.0081 146.933 18.0081 146.933C18.0081 146.933 18.0081 146.933 18.0082 146.933C18.0082 146.933 18.0082 146.933 18.0082 146.933C18.0082 146.933 18.0082 146.933 18.0082 146.933C18.0082 146.933 18.0082 146.933 18.0082 146.933C18.0082 146.933 18.0082 146.933 18.0082 146.933C18.0082 146.933 18.0082 146.933 18.0083 146.933C18.0083 146.933 18.0083 146.933 18.0083 146.933C18.0083 146.933 18.0083 146.933 18.0083 146.933C18.0083 146.933 18.0083 146.933 18.0083 146.933C18.0083 146.933 18.0083 146.933 18.0083 146.933C18.0083 146.933 18.0084 146.933 18.0084 146.933C18.0084 146.933 18.0084 146.933 18.0084 146.933C18.0084 146.933 18.0084 146.933 18.0084 146.933C18.0084 146.933 18.0084 146.933 18.0084 146.933C18.0084 146.933 18.0084 146.933 18.0084 146.933C18.0084 146.933 18.0085 146.933 18.0085 146.933C18.0085 146.933 18.0085 146.933 18.0085 146.933C18.0085 146.933 18.0085 146.933 18.0085 146.933C18.0085 146.933 18.0085 146.933 18.0085 146.933C18.0085 146.933 18.0085 146.933 18.0085 146.933C18.0086 146.933 18.0086 146.933 18.0086 146.933C18.0086 146.933 18.0086 146.933 18.0086 146.933C18.0086 146.933 18.0086 146.933 18.0086 146.933C18.0086 146.933 18.0086 146.933 18.0086 146.933C18.0086 146.933 18.0086 146.933 18.0087 146.933C18.0087 146.933 18.0087 146.933 18.0087 146.933C18.0087 146.933 18.0087 146.933 18.0087 146.933C18.0087 146.933 18.0087 146.933 18.0087 146.933C18.0087 146.933 18.0087 146.933 18.0087 146.933C18.0087 146.933 18.0087 146.933 18.0088 146.933C18.0088 146.933 18.0088 146.933 18.0088 146.933C18.0088 146.933 18.0088 146.933 18.0088 146.933C18.0088 146.933 18.0088 146.933 18.0088 146.933C18.0088 146.933 18.0088 146.933 18.0088 146.933C18.0088 146.933 18.0089 146.933 18.0089 146.933C18.0089 146.933 18.0089 146.933 18.0089 146.933C18.0089 146.933 18.0089 146.933 18.0089 146.933C18.0089 146.933 18.0089 146.933 18.0089 146.933C18.0089 146.933 18.0089 146.933 18.0089 146.933C18.0089 146.933 18.009 146.933 18.009 146.933C18.009 146.933 18.009 146.933 18.009 146.933C18.009 146.933 18.009 146.933 18.009 146.933C18.009 146.933 18.009 146.933 18.009 146.933C18.009 146.933 18.009 146.933 18.009 146.933C18.0091 146.933 18.0091 146.933 18.0091 146.933C18.0091 146.933 18.0091 146.933 18.0091 146.933C18.0091 146.933 18.0091 146.933 18.0091 146.933C18.0091 146.933 18.0091 146.933 18.0091 146.933C18.0091 146.933 18.0091 146.933 18.0091 146.933C18.0092 146.933 18.0092 146.933 18.0092 146.933C18.0092 146.933 18.0092 146.933 18.0092 146.933C18.0092 146.933 18.0092 146.933 18.0092 146.933C18.0092 146.933 18.0092 146.933 18.0092 146.933C18.0092 146.933 18.0092 146.933 18.0093 146.933C18.0093 146.933 18.0093 146.933 18.0093 146.933C18.0093 146.933 18.0093 146.933 18.0093 146.933C18.0093 146.933 18.0093 146.933 18.0093 146.933C18.0093 146.933 18.0093 146.933 18.0093 146.933C18.0093 146.933 18.0093 146.933 18.0094 146.933C18.0094 146.933 18.0094 146.933 18.0094 146.933C18.0094 146.933 18.0094 146.933 18.0094 146.933C18.0094 146.933 18.0094 146.933 18.0094 146.933C18.0094 146.933 18.0094 146.933 18.0094 146.933C18.0094 146.933 18.0095 146.933 18.0095 146.933C18.0095 146.933 18.0095 146.933 18.0095 146.933C18.0095 146.933 18.0095 146.933 18.0095 146.933C18.0095 146.933 18.0095 146.933 18.0095 146.933C18.0095 146.933 18.0095 146.933 18.0095 146.933C18.0095 146.933 18.0096 146.933 18.0096 146.933C18.0096 146.933 18.0096 146.933 18.0096 146.933C18.0096 146.933 18.0096 146.933 18.0096 146.933C18.0096 146.933 18.0096 146.933 18.0096 146.933C18.0096 146.933 18.0096 146.933 18.0096 146.933C18.0097 146.933 18.0097 146.933 18.0097 146.933C18.0097 146.933 18.0097 146.933 18.0097 146.933C18.0097 146.933 18.0097 146.933 18.0097 146.933C18.0097 146.933 18.0097 146.933 18.0097 146.933C18.0097 146.933 18.0097 146.933 18.0097 146.933C18.0098 146.933 18.0098 146.933 18.0098 146.933C18.0098 146.933 18.0098 146.933 18.0098 146.933C18.0098 146.933 18.0098 146.933 18.0098 146.933C18.0098 146.933 18.0098 146.933 18.0098 146.933C18.0098 146.933 18.0098 146.933 18.0099 146.933C18.0099 146.933 18.0099 146.933 18.0099 146.933C18.0099 146.933 18.0099 146.933 18.0099 146.933C18.0099 146.933 18.0099 146.933 18.0099 146.933C18.0099 146.933 18.0099 146.933 18.0099 146.933C18.0099 146.933 18.01 146.933 18.01 146.933C18.01 146.933 18.01 146.933 18.01 146.933C18.01 146.933 18.01 146.933 18.01 146.933C18.01 146.933 18.01 146.933 18.01 146.933C18.01 146.933 18.01 146.933 18.01 146.933C18.01 146.933 18.0101 146.933 18.0101 146.933C18.0101 146.933 18.0101 146.933 18.0101 146.933C18.0101 146.933 18.0101 146.933 18.0101 146.933C18.0101 146.933 18.0101 146.933 18.0101 146.933C18.0101 146.933 18.0101 146.933 18.0101 146.933C18.0102 146.933 18.0102 146.933 18.0102 146.933C18.0102 146.933 18.0102 146.933 18.0102 146.933C18.0102 146.933 18.0102 146.933 18.0102 146.933C18.0102 146.933 18.0102 146.933 18.0102 146.933C18.0102 146.933 18.0102 146.933 18.0102 146.933C18.0103 146.933 18.0103 146.933 18.0103 146.933C18.0103 146.933 18.0103 146.933 18.0103 146.933C18.0103 146.933 18.0103 146.933 18.0103 146.933C18.0103 146.933 18.0103 146.933 18.0103 146.933C18.0103 146.933 18.0103 146.933 18.0104 146.933C18.0104 146.933 18.0104 146.933 18.0104 146.933C18.0104 146.933 18.0104 146.933 18.0104 146.933C18.0104 146.933 18.0104 146.933 18.0104 146.933C18.0104 146.933 18.0104 146.933 18.0104 146.933C18.0104 146.933 18.0104 146.933 18.0105 146.933C18.0105 146.933 18.0105 146.933 18.0105 146.933C18.0105 146.933 18.0105 146.933 18.0105 146.933C18.0105 146.933 18.0105 146.933 18.0105 146.933C18.0105 146.933 18.0105 146.933 18.0105 146.933C18.0105 146.933 18.0106 146.933 18.0106 146.933C18.0106 146.933 18.0106 146.933 18.0106 146.933C18.0106 146.933 18.0106 146.933 18.0106 146.933C18.0106 146.933 18.0106 146.933 18.0106 146.933V146.153C18.0106 146.153 18.0106 146.153 18.0106 146.153C18.0106 146.153 18.0106 146.153 18.0106 146.153C18.0106 146.153 18.0106 146.153 18.0106 146.153C18.0106 146.153 18.0105 146.153 18.0105 146.153C18.0105 146.153 18.0105 146.153 18.0105 146.153C18.0105 146.153 18.0105 146.153 18.0105 146.153C18.0105 146.153 18.0105 146.153 18.0105 146.153C18.0105 146.153 18.0105 146.153 18.0105 146.153C18.0104 146.153 18.0104 146.153 18.0104 146.153C18.0104 146.153 18.0104 146.153 18.0104 146.153C18.0104 146.153 18.0104 146.153 18.0104 146.153C18.0104 146.153 18.0104 146.153 18.0104 146.153C18.0104 146.153 18.0104 146.153 18.0104 146.153C18.0103 146.153 18.0103 146.153 18.0103 146.153C18.0103 146.153 18.0103 146.153 18.0103 146.153C18.0103 146.153 18.0103 146.153 18.0103 146.153C18.0103 146.153 18.0103 146.153 18.0103 146.153C18.0103 146.153 18.0103 146.153 18.0102 146.153C18.0102 146.153 18.0102 146.153 18.0102 146.153C18.0102 146.153 18.0102 146.153 18.0102 146.153C18.0102 146.153 18.0102 146.153 18.0102 146.153C18.0102 146.153 18.0102 146.153 18.0102 146.153C18.0102 146.153 18.0102 146.153 18.0101 146.153C18.0101 146.153 18.0101 146.153 18.0101 146.153C18.0101 146.153 18.0101 146.153 18.0101 146.153C18.0101 146.153 18.0101 146.153 18.0101 146.153C18.0101 146.153 18.0101 146.153 18.0101 146.153C18.0101 146.153 18.01 146.153 18.01 146.153C18.01 146.153 18.01 146.153 18.01 146.153C18.01 146.153 18.01 146.153 18.01 146.153C18.01 146.153 18.01 146.153 18.01 146.153C18.01 146.153 18.01 146.153 18.01 146.153C18.01 146.153 18.0099 146.153 18.0099 146.153C18.0099 146.153 18.0099 146.153 18.0099 146.153C18.0099 146.153 18.0099 146.153 18.0099 146.153C18.0099 146.153 18.0099 146.153 18.0099 146.153C18.0099 146.153 18.0099 146.153 18.0099 146.153C18.0098 146.153 18.0098 146.153 18.0098 146.153C18.0098 146.153 18.0098 146.153 18.0098 146.153C18.0098 146.153 18.0098 146.153 18.0098 146.153C18.0098 146.153 18.0098 146.153 18.0098 146.153C18.0098 146.153 18.0098 146.153 18.0097 146.153C18.0097 146.153 18.0097 146.153 18.0097 146.153C18.0097 146.153 18.0097 146.153 18.0097 146.153C18.0097 146.153 18.0097 146.153 18.0097 146.153C18.0097 146.153 18.0097 146.153 18.0097 146.153C18.0097 146.153 18.0097 146.153 18.0096 146.153C18.0096 146.153 18.0096 146.153 18.0096 146.153C18.0096 146.153 18.0096 146.153 18.0096 146.153C18.0096 146.153 18.0096 146.153 18.0096 146.153C18.0096 146.153 18.0096 146.153 18.0096 146.153C18.0096 146.153 18.0095 146.153 18.0095 146.153C18.0095 146.153 18.0095 146.153 18.0095 146.153C18.0095 146.153 18.0095 146.153 18.0095 146.153C18.0095 146.153 18.0095 146.153 18.0095 146.153C18.0095 146.153 18.0095 146.153 18.0095 146.153C18.0095 146.153 18.0094 146.153 18.0094 146.153C18.0094 146.153 18.0094 146.153 18.0094 146.153C18.0094 146.153 18.0094 146.153 18.0094 146.153C18.0094 146.153 18.0094 146.153 18.0094 146.153C18.0094 146.153 18.0094 146.153 18.0094 146.153C18.0093 146.153 18.0093 146.153 18.0093 146.153C18.0093 146.153 18.0093 146.153 18.0093 146.153C18.0093 146.153 18.0093 146.153 18.0093 146.153C18.0093 146.153 18.0093 146.153 18.0093 146.153C18.0093 146.153 18.0093 146.153 18.0093 146.153C18.0092 146.153 18.0092 146.153 18.0092 146.153C18.0092 146.153 18.0092 146.153 18.0092 146.153C18.0092 146.153 18.0092 146.153 18.0092 146.153C18.0092 146.153 18.0092 146.153 18.0092 146.153C18.0092 146.153 18.0092 146.153 18.0091 146.153C18.0091 146.153 18.0091 146.153 18.0091 146.153C18.0091 146.153 18.0091 146.153 18.0091 146.153C18.0091 146.153 18.0091 146.153 18.0091 146.153C18.0091 146.153 18.0091 146.153 18.0091 146.153C18.0091 146.153 18.0091 146.153 18.009 146.153C18.009 146.153 18.009 146.153 18.009 146.153C18.009 146.153 18.009 146.153 18.009 146.153C18.009 146.153 18.009 146.153 18.009 146.153C18.009 146.153 18.009 146.153 18.009 146.153C18.009 146.153 18.0089 146.153 18.0089 146.153C18.0089 146.153 18.0089 146.153 18.0089 146.153C18.0089 146.153 18.0089 146.153 18.0089 146.153C18.0089 146.153 18.0089 146.153 18.0089 146.153C18.0089 146.153 18.0089 146.153 18.0089 146.153C18.0089 146.153 18.0088 146.153 18.0088 146.153C18.0088 146.153 18.0088 146.153 18.0088 146.153C18.0088 146.153 18.0088 146.153 18.0088 146.153C18.0088 146.153 18.0088 146.153 18.0088 146.153C18.0088 146.153 18.0088 146.153 18.0088 146.153C18.0087 146.153 18.0087 146.153 18.0087 146.153C18.0087 146.153 18.0087 146.153 18.0087 146.153C18.0087 146.153 18.0087 146.153 18.0087 146.153C18.0087 146.153 18.0087 146.153 18.0087 146.153C18.0087 146.153 18.0087 146.153 18.0087 146.153C18.0086 146.153 18.0086 146.153 18.0086 146.153C18.0086 146.153 18.0086 146.153 18.0086 146.153C18.0086 146.153 18.0086 146.153 18.0086 146.153C18.0086 146.153 18.0086 146.153 18.0086 146.153C18.0086 146.153 18.0086 146.153 18.0085 146.153C18.0085 146.153 18.0085 146.153 18.0085 146.153C18.0085 146.153 18.0085 146.153 18.0085 146.153C18.0085 146.153 18.0085 146.153 18.0085 146.153C18.0085 146.153 18.0085 146.153 18.0085 146.153C18.0085 146.153 18.0084 146.153 18.0084 146.153C18.0084 146.153 18.0084 146.153 18.0084 146.153C18.0084 146.153 18.0084 146.153 18.0084 146.153C18.0084 146.153 18.0084 146.153 18.0084 146.153C18.0084 146.153 18.0084 146.153 18.0084 146.153C18.0084 146.153 18.0083 146.153 18.0083 146.153C18.0083 146.153 18.0083 146.153 18.0083 146.153C18.0083 146.153 18.0083 146.153 18.0083 146.153C18.0083 146.153 18.0083 146.153 18.0083 146.153C18.0083 146.153 18.0083 146.153 18.0083 146.153C18.0082 146.153 18.0082 146.153 18.0082 146.153C18.0082 146.153 18.0082 146.153 18.0082 146.153C18.0082 146.153 18.0082 146.153 18.0082 146.153C18.0082 146.153 18.0082 146.153 18.0082 146.153C18.0082 146.153 18.0082 146.153 18.0082 146.153C18.0081 146.153 18.0081 146.153 18.0081 146.153C18.0081 146.153 18.0081 146.153 18.0081 146.153C18.0081 146.153 18.0081 146.153 18.0081 146.153C18.0081 146.153 18.0081 146.153 18.0081 146.153C18.0081 146.153 18.0081 146.153 18.008 146.153C18.008 146.153 18.008 146.153 18.008 146.153C18.008 146.153 18.008 146.153 18.008 146.153C18.008 146.153 18.008 146.153 18.008 146.153C18.008 146.153 18.008 146.153 18.008 146.153C18.008 146.153 18.008 146.153 18.0079 146.153C18.0079 146.153 18.0079 146.153 18.0079 146.153C18.0079 146.153 18.0079 146.153 18.0079 146.153C18.0079 146.153 18.0079 146.153 18.0079 146.153C18.0079 146.153 18.0079 146.153 18.0079 146.153C18.0079 146.153 18.0078 146.153 18.0078 146.153C18.0078 146.153 18.0078 146.153 18.0078 146.153C18.0078 146.153 18.0078 146.153 18.0078 146.153C18.0078 146.153 18.0078 146.153 18.0078 146.153C18.0078 146.153 18.0078 146.153 18.0078 146.153C18.0078 146.153 18.0077 146.153 18.0077 146.153C18.0077 146.153 18.0077 146.153 18.0077 146.153C18.0077 146.153 18.0077 146.153 18.0077 146.153C18.0077 146.153 18.0077 146.153 18.0077 146.153C18.0077 146.153 18.0077 146.153 18.0077 146.153C18.0076 146.153 18.0076 146.153 18.0076 146.153C18.0076 146.153 18.0076 146.153 18.0076 146.153C18.0076 146.153 18.0076 146.153 18.0076 146.153C18.0076 146.153 18.0076 146.153 18.0076 146.153C18.0076 146.153 18.0076 146.153 18.0076 146.153C18.0075 146.153 18.0075 146.153 18.0075 146.153C18.0075 146.153 18.0075 146.153 18.0075 146.153C18.0075 146.153 18.0075 146.153 18.0075 146.153C18.0075 146.153 18.0075 146.153 18.0075 146.153C18.0075 146.153 18.0075 146.153 18.0074 146.153C18.0074 146.153 18.0074 146.153 18.0074 146.153C18.0074 146.153 18.0074 146.153 18.0074 146.153C18.0074 146.153 18.0074 146.153 18.0074 146.153C18.0074 146.153 18.0074 146.153 18.0074 146.153C18.0074 146.153 18.0074 146.153 18.0073 146.153C18.0073 146.153 18.0073 146.153 18.0073 146.153C18.0073 146.153 18.0073 146.153 18.0073 146.153C18.0073 146.153 18.0073 146.153 18.0073 146.153C18.0073 146.153 18.0073 146.153 18.0073 146.153C18.0073 146.153 18.0072 146.153 18.0072 146.153C18.0072 146.153 18.0072 146.153 18.0072 146.153C18.0072 146.153 18.0072 146.153 18.0072 146.153C18.0072 146.153 18.0072 146.153 18.0072 146.153C18.0072 146.153 18.0072 146.153 18.0072 146.153C18.0071 146.153 18.0071 146.153 18.0071 146.153C18.0071 146.153 18.0071 146.153 18.0071 146.153C18.0071 146.153 18.0071 146.153 18.0071 146.153C18.0071 146.153 18.0071 146.153 18.0071 146.153C18.0071 146.153 18.0071 146.153 18.0071 146.153C18.007 146.153 18.007 146.153 18.007 146.153C18.007 146.153 18.007 146.153 18.007 146.153C18.007 146.153 18.007 146.153 18.007 146.153C18.007 146.153 18.007 146.153 18.007 146.153C18.007 146.153 18.007 146.153 18.0069 146.153C18.0069 146.153 18.0069 146.153 18.0069 146.153C18.0069 146.153 18.0069 146.153 18.0069 146.153C18.0069 146.153 18.0069 146.153 18.0069 146.153C18.0069 146.153 18.0069 146.153 18.0069 146.153C18.0069 146.153 18.0069 146.153 18.0068 146.153C18.0068 146.153 18.0068 146.153 18.0068 146.153C18.0068 146.153 18.0068 146.153 18.0068 146.153C18.0068 146.153 18.0068 146.153 18.0068 146.153C18.0068 146.153 18.0068 146.153 18.0068 146.153C18.0068 146.153 18.0067 146.153 18.0067 146.153C18.0067 146.153 18.0067 146.153 18.0067 146.153C18.0067 146.153 18.0067 146.153 18.0067 146.153C18.0067 146.153 18.0067 146.153 18.0067 146.153C18.0067 146.153 18.0067 146.153 18.0067 146.153C18.0067 146.153 18.0066 146.153 18.0066 146.153C18.0066 146.153 18.0066 146.153 18.0066 146.153C18.0066 146.153 18.0066 146.153 18.0066 146.153C18.0066 146.153 18.0066 146.153 18.0066 146.153C18.0066 146.153 18.0066 146.153 18.0066 146.153C18.0065 146.153 18.0065 146.153 18.0065 146.153C18.0065 146.153 18.0065 146.153 18.0065 146.153C18.0065 146.153 18.0065 146.153 18.0065 146.153C18.0065 146.153 18.0065 146.153 18.0065 146.153C18.0065 146.153 18.0065 146.153 18.0065 146.153C18.0064 146.153 18.0064 146.153 18.0064 146.153C18.0064 146.153 18.0064 146.153 18.0064 146.153C18.0064 146.153 18.0064 146.153 18.0064 146.153C18.0064 146.153 18.0064 146.153 18.0064 146.153C18.0064 146.153 18.0064 146.153 18.0063 146.153C18.0063 146.153 18.0063 146.153 18.0063 146.153C18.0063 146.153 18.0063 146.153 18.0063 146.153C18.0063 146.153 18.0063 146.153 18.0063 146.153C18.0063 146.153 18.0063 146.153 18.0063 146.153C18.0063 146.153 18.0063 146.153 18.0062 146.153C18.0062 146.153 18.0062 146.153 18.0062 146.153C18.0062 146.153 18.0062 146.153 18.0062 146.153C18.0062 146.153 18.0062 146.153 18.0062 146.153C18.0062 146.153 18.0062 146.153 18.0062 146.153C18.0062 146.153 18.0061 146.153 18.0061 146.153C18.0061 146.153 18.0061 146.153 18.0061 146.153C18.0061 146.153 18.0061 146.153 18.0061 146.153C18.0061 146.153 18.0061 146.153 18.0061 146.153C18.0061 146.153 18.0061 146.153 18.0061 146.153C18.0061 146.153 18.006 146.153 18.006 146.153C18.006 146.153 18.006 146.153 18.006 146.153C18.006 146.153 18.006 146.153 18.006 146.153C18.006 146.153 18.006 146.153 18.006 146.153C18.006 146.153 18.006 146.153 18.006 146.153C18.0059 146.153 18.0059 146.153 18.0059 146.153C18.0059 146.153 18.0059 146.153 18.0059 146.153C18.0059 146.153 18.0059 146.153 18.0059 146.153C18.0059 146.153 18.0059 146.153 18.0059 146.153C18.0059 146.153 18.0059 146.153 18.0058 146.153C18.0058 146.153 18.0058 146.153 18.0058 146.153C18.0058 146.153 18.0058 146.153 18.0058 146.153C18.0058 146.153 18.0058 146.153 18.0058 146.153C18.0058 146.153 18.0058 146.153 18.0058 146.153C18.0058 146.153 18.0058 146.153 18.0057 146.153C18.0057 146.153 18.0057 146.153 18.0057 146.153C18.0057 146.153 18.0057 146.153 18.0057 146.153C18.0057 146.153 18.0057 146.153 18.0057 146.153C18.0057 146.153 18.0057 146.153 18.0057 146.153C18.0057 146.153 18.0056 146.153 18.0056 146.153C18.0056 146.153 18.0056 146.153 18.0056 146.153C18.0056 146.153 18.0056 146.153 18.0056 146.153C18.0056 146.153 18.0056 146.153 18.0056 146.153C18.0056 146.153 18.0056 146.153 18.0056 146.153C18.0056 146.153 18.0055 146.153 18.0055 146.153C18.0055 146.153 18.0055 146.153 18.0055 146.153C18.0055 146.153 18.0055 146.153 18.0055 146.153C18.0055 146.153 18.0055 146.153 18.0055 146.153C18.0055 146.153 18.0055 146.153 18.0055 146.153C18.0054 146.153 18.0054 146.153 18.0054 146.153C18.0054 146.153 18.0054 146.153 18.0054 146.153C18.0054 146.153 18.0054 146.153 18.0054 146.153C18.0054 146.153 18.0054 146.153 18.0054 146.153C18.0054 146.153 18.0054 146.153 18.0054 146.153C18.0053 146.153 18.0053 146.153 18.0053 146.153C18.0053 146.153 18.0053 146.153 18.0053 146.153C18.0053 146.153 18.0053 146.153 18.0053 146.153C18.0053 146.153 18.0053 146.153 18.0053 146.153C18.0053 146.153 18.0053 146.153 18.0052 146.153C18.0052 146.153 18.0052 146.153 18.0052 146.153C18.0052 146.153 18.0052 146.153 18.0052 146.153C18.0052 146.153 18.0052 146.153 18.0052 146.153C18.0052 146.153 18.0052 146.153 18.0052 146.153C18.0052 146.153 18.0052 146.153 18.0051 146.153C18.0051 146.153 18.0051 146.153 18.0051 146.153C18.0051 146.153 18.0051 146.153 18.0051 146.153C18.0051 146.153 18.0051 146.153 18.0051 146.153C18.0051 146.153 18.0051 146.153 18.0051 146.153C18.0051 146.153 18.005 146.153 18.005 146.153C18.005 146.153 18.005 146.153 18.005 146.153C18.005 146.153 18.005 146.153 18.005 146.153C18.005 146.153 18.005 146.153 18.005 146.153C18.005 146.153 18.005 146.153 18.005 146.153C18.005 146.153 18.0049 146.153 18.0049 146.153C18.0049 146.153 18.0049 146.153 18.0049 146.153C18.0049 146.153 18.0049 146.153 18.0049 146.153C18.0049 146.153 18.0049 146.153 18.0049 146.153C18.0049 146.153 18.0049 146.153 18.0049 146.153C18.0048 146.153 18.0048 146.153 18.0048 146.153C18.0048 146.153 18.0048 146.153 18.0048 146.153C18.0048 146.153 18.0048 146.153 18.0048 146.153C18.0048 146.153 18.0048 146.153 18.0048 146.153C18.0048 146.153 18.0048 146.153 18.0048 146.153C18.0047 146.153 18.0047 146.153 18.0047 146.153C18.0047 146.153 18.0047 146.153 18.0047 146.153C18.0047 146.153 18.0047 146.153 18.0047 146.153C18.0047 146.153 18.0047 146.153 18.0047 146.153C18.0047 146.153 18.0047 146.153 18.0046 146.153C18.0046 146.153 18.0046 146.153 18.0046 146.153C18.0046 146.153 18.0046 146.153 18.0046 146.153C18.0046 146.153 18.0046 146.153 18.0046 146.153C18.0046 146.153 18.0046 146.153 18.0046 146.153C18.0046 146.153 18.0045 146.153 18.0045 146.153C18.0045 146.153 18.0045 146.153 18.0045 146.153C18.0045 146.153 18.0045 146.153 18.0045 146.153C18.0045 146.153 18.0045 146.153 18.0045 146.153C18.0045 146.153 18.0045 146.153 18.0045 146.153C18.0045 146.153 18.0044 146.153 18.0044 146.153C18.0044 146.153 18.0044 146.153 18.0044 146.153C18.0044 146.153 18.0044 146.153 18.0044 146.153C18.0044 146.153 18.0044 146.153 18.0044 146.153C18.0044 146.153 18.0044 146.153 18.0044 146.153C18.0043 146.153 18.0043 146.153 18.0043 146.153C18.0043 146.153 18.0043 146.153 18.0043 146.153C18.0043 146.153 18.0043 146.153 18.0043 146.153C18.0043 146.153 18.0043 146.153 18.0043 146.153C18.0043 146.153 18.0043 146.153 18.0043 146.153C18.0042 146.153 18.0042 146.153 18.0042 146.153C18.0042 146.153 18.0042 146.153 18.0042 146.153C18.0042 146.153 18.0042 146.153 18.0042 146.153C18.0042 146.153 18.0042 146.153 18.0042 146.153C18.0042 146.153 18.0042 146.153 18.0041 146.153C18.0041 146.153 18.0041 146.153 18.0041 146.153C18.0041 146.153 18.0041 146.153 18.0041 146.153C18.0041 146.153 18.0041 146.153 18.0041 146.153C18.0041 146.153 18.0041 146.153 18.0041 146.153C18.0041 146.153 18.0041 146.153 18.004 146.153C18.004 146.153 18.004 146.153 18.004 146.153C18.004 146.153 18.004 146.153 18.004 146.153C18.004 146.153 18.004 146.153 18.004 146.153C18.004 146.153 18.004 146.153 18.004 146.153C18.004 146.153 18.0039 146.153 18.0039 146.153C18.0039 146.153 18.0039 146.153 18.0039 146.153C18.0039 146.153 18.0039 146.153 18.0039 146.153C18.0039 146.153 18.0039 146.153 18.0039 146.153C18.0039 146.153 18.0039 146.153 18.0039 146.153C18.0039 146.153 18.0038 146.153 18.0038 146.153C18.0038 146.153 18.0038 146.153 18.0038 146.153C18.0038 146.153 18.0038 146.153 18.0038 146.153C18.0038 146.153 18.0038 146.153 18.0038 146.153C18.0038 146.153 18.0038 146.153 18.0038 146.153C18.0037 146.153 18.0037 146.153 18.0037 146.153C18.0037 146.153 18.0037 146.153 18.0037 146.153C18.0037 146.153 18.0037 146.153 18.0037 146.153C18.0037 146.153 18.0037 146.153 18.0037 146.153C18.0037 146.153 18.0037 146.153 18.0037 146.153C18.0036 146.153 18.0036 146.153 18.0036 146.153C18.0036 146.153 18.0036 146.153 18.0036 146.153C18.0036 146.153 18.0036 146.153 18.0036 146.153C18.0036 146.153 18.0036 146.153 18.0036 146.153C18.0036 146.153 18.0036 146.153 18.0035 146.153C18.0035 146.153 18.0035 146.153 18.0035 146.153C18.0035 146.153 18.0035 146.153 18.0035 146.153C18.0035 146.153 18.0035 146.153 18.0035 146.153C18.0035 146.153 18.0035 146.153 18.0035 146.153C18.0035 146.153 18.0035 146.153 18.0034 146.153C18.0034 146.153 18.0034 146.153 18.0034 146.153C18.0034 146.153 18.0034 146.153 18.0034 146.153C18.0034 146.153 18.0034 146.153 18.0034 146.153C18.0034 146.153 18.0034 146.153 18.0034 146.153C18.0034 146.153 18.0033 146.153 18.0033 146.153C18.0033 146.153 18.0033 146.153 18.0033 146.153C18.0033 146.153 18.0033 146.153 18.0033 146.153C18.0033 146.153 18.0033 146.153 18.0033 146.153C18.0033 146.153 18.0033 146.153 18.0033 146.153C18.0032 146.153 18.0032 146.153 18.0032 146.153C18.0032 146.153 18.0032 146.153 18.0032 146.153C18.0032 146.153 18.0032 146.153 18.0032 146.153C18.0032 146.153 18.0032 146.153 18.0032 146.153C18.0032 146.153 18.0032 146.153 18.0032 146.153C18.0031 146.153 18.0031 146.153 18.0031 146.153C18.0031 146.153 18.0031 146.153 18.0031 146.153C18.0031 146.153 18.0031 146.153 18.0031 146.153C18.0031 146.153 18.0031 146.153 18.0031 146.153C18.0031 146.153 18.0031 146.153 18.003 146.153C18.003 146.153 18.003 146.153 18.003 146.153C18.003 146.153 18.003 146.153 18.003 146.153C18.003 146.153 18.003 146.153 18.003 146.153C18.003 146.153 18.003 146.153 18.003 146.153C18.003 146.153 18.003 146.153 18.0029 146.153C18.0029 146.153 18.0029 146.153 18.0029 146.153C18.0029 146.153 18.0029 146.153 18.0029 146.153C18.0029 146.153 18.0029 146.153 18.0029 146.153C18.0029 146.153 18.0029 146.153 18.0029 146.153C18.0029 146.153 18.0028 146.153 18.0028 146.153C18.0028 146.153 18.0028 146.153 18.0028 146.153C18.0028 146.153 18.0028 146.153 18.0028 146.153C18.0028 146.153 18.0028 146.153 18.0028 146.153C18.0028 146.153 18.0028 146.153 18.0028 146.153C18.0028 146.153 18.0027 146.153 18.0027 146.153C18.0027 146.153 18.0027 146.153 18.0027 146.153C18.0027 146.153 18.0027 146.153 18.0027 146.153C18.0027 146.153 18.0027 146.153 18.0027 146.153C18.0027 146.153 18.0027 146.153 18.0027 146.153C18.0026 146.153 18.0026 146.153 18.0026 146.153C18.0026 146.153 18.0026 146.153 18.0026 146.153C18.0026 146.153 18.0026 146.153 18.0026 146.153C18.0026 146.153 18.0026 146.153 18.0026 146.153C18.0026 146.153 18.0026 146.153 18.0026 146.153C18.0025 146.153 18.0025 146.153 18.0025 146.153C18.0025 146.153 18.0025 146.153 18.0025 146.153C18.0025 146.153 18.0025 146.153 18.0025 146.153C18.0025 146.153 18.0025 146.153 18.0025 146.153C18.0025 146.153 18.0025 146.153 18.0024 146.153C18.0024 146.153 18.0024 146.153 18.0024 146.153C18.0024 146.153 18.0024 146.153 18.0024 146.153C18.0024 146.153 18.0024 146.153 18.0024 146.153C18.0024 146.153 18.0024 146.153 18.0024 146.153C18.0024 146.153 18.0024 146.153 18.0023 146.153C18.0023 146.153 18.0023 146.153 18.0023 146.153C18.0023 146.153 18.0023 146.153 18.0023 146.153C18.0023 146.153 18.0023 146.153 18.0023 146.153C18.0023 146.153 18.0023 146.153 18.0023 146.153C18.0023 146.153 18.0022 146.153 18.0022 146.153C18.0022 146.153 18.0022 146.153 18.0022 146.153C18.0022 146.153 18.0022 146.153 18.0022 146.153C18.0022 146.153 18.0022 146.153 18.0022 146.153C18.0022 146.153 18.0022 146.153 18.0022 146.153C18.0022 146.153 18.0021 146.153 18.0021 146.153C18.0021 146.153 18.0021 146.153 18.0021 146.153C18.0021 146.153 18.0021 146.153 18.0021 146.153C18.0021 146.153 18.0021 146.153 18.0021 146.153C18.0021 146.153 18.0021 146.153 18.0021 146.153C18.002 146.153 18.002 146.153 18.002 146.153C18.002 146.153 18.002 146.153 18.002 146.153C18.002 146.153 18.002 146.153 18.002 146.153C18.002 146.153 18.002 146.153 18.002 146.153C18.002 146.153 18.002 146.153 18.0019 146.153C18.0019 146.153 18.0019 146.153 18.0019 146.153C18.0019 146.153 18.0019 146.153 18.0019 146.153C18.0019 146.153 18.0019 146.153 18.0019 146.153C18.0019 146.153 18.0019 146.153 18.0019 146.153C18.0019 146.153 18.0019 146.153 18.0018 146.153C18.0018 146.153 18.0018 146.153 18.0018 146.153C18.0018 146.153 18.0018 146.153 18.0018 146.153C18.0018 146.153 18.0018 146.153 18.0018 146.153C18.0018 146.153 18.0018 146.153 18.0018 146.153C18.0018 146.153 18.0017 146.153 18.0017 146.153C18.0017 146.153 18.0017 146.153 18.0017 146.153C18.0017 146.153 18.0017 146.153 18.0017 146.153C18.0017 146.153 18.0017 146.153 18.0017 146.153C18.0017 146.153 18.0017 146.153 18.0017 146.153C18.0017 146.153 18.0016 146.153 18.0016 146.153C18.0016 146.153 18.0016 146.153 18.0016 146.153C18.0016 146.153 18.0016 146.153 18.0016 146.153C18.0016 146.153 18.0016 146.153 18.0016 146.153C18.0016 146.153 18.0016 146.153 18.0016 146.153C18.0015 146.153 18.0015 146.153 18.0015 146.153C18.0015 146.153 18.0015 146.153 18.0015 146.153C18.0015 146.153 18.0015 146.153 18.0015 146.153C18.0015 146.153 18.0015 146.153 18.0015 146.153C18.0015 146.153 18.0015 146.153 18.0015 146.153C18.0014 146.153 18.0014 146.153 18.0014 146.153C18.0014 146.153 18.0014 146.153 18.0014 146.153C18.0014 146.153 18.0014 146.153 18.0014 146.153C18.0014 146.153 18.0014 146.153 18.0014 146.153C18.0014 146.153 18.0014 146.153 18.0013 146.153C18.0013 146.153 18.0013 146.153 18.0013 146.153C18.0013 146.153 18.0013 146.153 18.0013 146.153C18.0013 146.153 18.0013 146.153 18.0013 146.153C18.0013 146.153 18.0013 146.153 18.0013 146.153C18.0013 146.153 18.0013 146.153 18.0012 146.153C18.0012 146.153 18.0012 146.153 18.0012 146.153C18.0012 146.153 18.0012 146.153 18.0012 146.153C18.0012 146.153 18.0012 146.153 18.0012 146.153C18.0012 146.153 18.0012 146.153 18.0012 146.153C18.0012 146.153 18.0011 146.153 18.0011 146.153C18.0011 146.153 18.0011 146.153 18.0011 146.153C18.0011 146.153 18.0011 146.153 18.0011 146.153C18.0011 146.153 18.0011 146.153 18.0011 146.153C18.0011 146.153 18.0011 146.153 18.0011 146.153C18.0011 146.153 18.001 146.153 18.001 146.153C18.001 146.153 18.001 146.153 18.001 146.153C18.001 146.153 18.001 146.153 18.001 146.153C18.001 146.153 18.001 146.153 18.001 146.153C18.001 146.153 18.001 146.153 18.001 146.153C18.0009 146.153 18.0009 146.153 18.0009 146.153C18.0009 146.153 18.0009 146.153 18.0009 146.153C18.0009 146.153 18.0009 146.153 18.0009 146.153C18.0009 146.153 18.0009 146.153 18.0009 146.153C18.0009 146.153 18.0009 146.153 18.0009 146.153C18.0008 146.153 18.0008 146.153 18.0008 146.153C18.0008 146.153 18.0008 146.153 18.0008 146.153C18.0008 146.153 18.0008 146.153 18.0008 146.153C18.0008 146.153 18.0008 146.153 18.0008 146.153C18.0008 146.153 18.0008 146.153 18.0007 146.153C18.0007 146.153 18.0007 146.153 18.0007 146.153C18.0007 146.153 18.0007 146.153 18.0007 146.153C18.0007 146.153 18.0007 146.153 18.0007 146.153C18.0007 146.153 18.0007 146.153 18.0007 146.153C18.0007 146.153 18.0006 146.153 18.0006 146.153C18.0006 146.153 18.0006 146.153 18.0006 146.153C18.0006 146.153 18.0006 146.153 18.0006 146.153C18.0006 146.153 18.0006 146.153 18.0006 146.153C18.0006 146.153 18.0006 146.153 18.0006 146.153C18.0006 146.153 18.0005 146.153 18.0005 146.153C18.0005 146.153 18.0005 146.153 18.0005 146.153C18.0005 146.153 18.0005 146.153 18.0005 146.153C18.0005 146.153 18.0005 146.153 18.0005 146.153C18.0005 146.153 18.0005 146.153 18.0005 146.153C18.0004 146.153 18.0004 146.153 18.0004 146.153C18.0004 146.153 18.0004 146.153 18.0004 146.153C18.0004 146.153 18.0004 146.153 18.0004 146.153C18.0004 146.153 18.0004 146.153 18.0004 146.153C18.0004 146.153 18.0004 146.153 18.0004 146.153C18.0003 146.153 18.0003 146.153 18.0003 146.153C18.0003 146.153 18.0003 146.153 18.0003 146.153C18.0003 146.153 18.0003 146.153 18.0003 146.153C18.0003 146.153 18.0003 146.153 18.0003 146.153C18.0003 146.153 18.0003 146.153 18.0002 146.153C18.0002 146.153 18.0002 146.153 18.0002 146.153C18.0002 146.153 18.0002 146.153 18.0002 146.153C18.0002 146.153 18.0002 146.153 18.0002 146.153C18.0002 146.153 18.0002 146.153 18.0002 146.153C18.0002 146.153 18.0002 146.153 18.0001 146.153C18.0001 146.153 18.0001 146.153 18.0001 146.153C18.0001 146.153 18.0001 146.153 18.0001 146.153C18.0001 146.153 18.0001 146.153 18.0001 146.153C18.0001 146.153 18.0001 146.153 18.0001 146.153C18.0001 146.153 18 146.153 18 146.153C18 146.153 18 146.153 18 146.153C18 146.153 18 146.153 18 146.153V146.933ZM17.61 136.765V146.543H18.39V136.765H17.61ZM18.0106 136.375H18V137.155H18.0106V136.375ZM33.4098 122.1C33.4098 129.957 26.543 136.375 18.0106 136.375V137.155C26.9185 137.155 34.1898 130.442 34.1898 122.1H33.4098ZM18.0106 107.826C26.543 107.826 33.4098 114.243 33.4098 122.1H34.1898C34.1898 113.759 26.9185 107.046 18.0106 107.046V107.826ZM18 107.826H18.0106V107.046H18V107.826ZM17.61 97.6597V107.436H18.39V97.6597H17.61ZM18.0106 97.2697H18V98.0497H18.0106V97.2697ZM33.4098 82.9949C33.4098 90.852 26.543 97.2697 18.0106 97.2697V98.0497C26.9185 98.0497 34.1898 91.336 34.1898 82.9949H33.4098ZM18.0106 68.7201C26.543 68.7201 33.4098 75.1378 33.4098 82.9949H34.1898C34.1898 74.6537 26.9185 67.9401 18.0106 67.9401V68.7201ZM18.0001 68.7201L18.0108 68.7201L18.0105 67.9401L17.9999 67.9401L18.0001 68.7201ZM17.61 58.5561V68.3301H18.39V58.5561H17.61ZM18.0108 58.1661L18.0001 58.1661L17.9999 58.9461L18.0105 58.9461L18.0108 58.1661ZM33.4098 43.8914C33.4098 51.7485 26.543 58.1661 18.0106 58.1661V58.9461C26.9185 58.9461 34.1898 52.2325 34.1898 43.8914H33.4098Z" fill="#D9D9D9" mask="url(#path-1-inside-1_5507_19287)"/>
</g>
<defs>
<filter id="filter0_dd_5507_19287" x="13.5028" y="12.5028" width="535.299" height="179.888" filterUnits="userSpaceOnUse" color-interpolation-filters="sRGB">
<feFlood flood-opacity="0" result="BackgroundImageFix"/>
<feColorMatrix in="SourceAlpha" type="matrix" values="0 0 0 0 0 0 0 0 0 0 0 0 0 0 0 0 0 0 127 0" result="hardAlpha"/>
<feOffset dy="2.2486"/>
<feGaussianBlur stdDeviation="2.2486"/>
<feComposite in2="hardAlpha" operator="out"/>
<feColorMatrix type="matrix" values="0 0 0 0 0 0 0 0 0 0 0 0 0 0 0 0 0 0 0.1 0"/>
<feBlend mode="normal" in2="BackgroundImageFix" result="effect1_dropShadow_5507_19287"/>
<feColorMatrix in="SourceAlpha" type="matrix" values="0 0 0 0 0 0 0 0 0 0 0 0 0 0 0 0 0 0 127 0" result="hardAlpha"/>
<feOffset/>
<feGaussianBlur stdDeviation="2.2486"/>
<feComposite in2="hardAlpha" operator="out"/>
<feColorMatrix type="matrix" values="0 0 0 0 0 0 0 0 0 0 0 0 0 0 0 0 0 0 0.14 0"/>
<feBlend mode="normal" in2="effect1_dropShadow_5507_19287" result="effect2_dropShadow_5507_19287"/>
<feBlend mode="normal" in="SourceGraphic" in2="effect2_dropShadow_5507_19287" result="shape"/>
</filter>
</defs>
</svg>
