<svg xmlns="http://www.w3.org/2000/svg" width="86" height="181" fill="none"><g filter="url(#a)"><mask id="b" fill="#fff"><path fill-rule="evenodd" d="M4.497 31.886c0-14.903 12.081-26.984 26.983-26.984h49.47v15.05c-12.763 1.179-22.488 7.291-22.488 14.655 0 7.363 9.725 13.476 22.488 14.655v7.861c-12.763 1.18-22.488 7.292-22.488 14.655 0 7.364 9.725 13.476 22.488 14.655v10.315c-12.763 1.18-22.488 7.292-22.488 14.655 0 7.364 9.725 13.476 22.488 14.655v10.32c-12.763 1.179-22.488 7.291-22.488 14.655 0 7.363 9.725 13.476 22.488 14.655v10.108H31.48c-14.902 0-26.983-12.081-26.983-26.983V31.886Z" clip-rule="evenodd"/></mask><path fill="#965EFB" fill-opacity=".7" fill-rule="evenodd" d="M4.497 31.886c0-14.903 12.081-26.984 26.983-26.984h49.47v15.05c-12.763 1.179-22.488 7.291-22.488 14.655 0 7.363 9.725 13.476 22.488 14.655v7.861c-12.763 1.18-22.488 7.292-22.488 14.655 0 7.364 9.725 13.476 22.488 14.655v10.315c-12.763 1.18-22.488 7.292-22.488 14.655 0 7.364 9.725 13.476 22.488 14.655v10.32c-12.763 1.179-22.488 7.291-22.488 14.655 0 7.363 9.725 13.476 22.488 14.655v10.108H31.48c-14.902 0-26.983-12.081-26.983-26.983V31.886Z" clip-rule="evenodd" shape-rendering="crispEdges"/><path fill="#D9D9D9" d="M80.95 4.902h.787v-.787h-.787v.787Zm0 15.05.072.783.715-.066v-.717h-.787Zm0 29.31h.787v-.718l-.715-.066-.072.784Zm0 7.861.072.784.715-.066v-.718h-.787Zm0 29.31h.787v-.717l-.715-.066-.072.783Zm0 10.315.072.784.715-.066v-.718h-.787Zm0 29.31h.787v-.717l-.715-.066-.072.783Zm0 10.32.072.783.715-.066v-.717h-.787Zm0 29.31h.787v-.718l-.715-.066-.072.784Zm0 10.108v.787h.787v-.787h-.787ZM31.48 4.116c-15.337 0-27.77 12.432-27.77 27.77h1.574c0-14.468 11.729-26.197 26.196-26.197V4.115Zm49.47 0H31.48v1.573h49.47V4.115Zm.787 15.836V4.902h-1.574v15.05h1.574ZM59.249 34.607c0-3.306 2.186-6.464 6.098-8.985 3.897-2.513 9.39-4.306 15.675-4.887l-.145-1.567c-6.477.598-12.227 2.451-16.383 5.13-4.142 2.67-6.819 6.251-6.819 10.309h1.574Zm21.773 13.871c-6.285-.58-11.778-2.373-15.675-4.886-3.912-2.522-6.098-5.68-6.098-8.985h-1.574c0 4.057 2.677 7.638 6.819 10.308 4.156 2.68 9.906 4.532 16.383 5.13l.145-1.567Zm.715 8.645v-7.861h-1.574v7.861h1.574ZM59.249 71.778c0-3.306 2.186-6.463 6.098-8.985 3.897-2.512 9.39-4.305 15.675-4.886l-.145-1.567c-6.477.598-12.227 2.45-16.383 5.13-4.142 2.67-6.819 6.25-6.819 10.308h1.574ZM81.022 85.65c-6.285-.58-11.778-2.374-15.675-4.886-3.912-2.522-6.098-5.68-6.098-8.986h-1.574c0 4.058 2.677 7.638 6.819 10.309 4.156 2.679 9.906 4.532 16.383 5.13l.145-1.567Zm.715 11.098V86.433h-1.574v10.315h1.574Zm-22.488 14.655c0-3.306 2.186-6.463 6.098-8.985 3.897-2.513 9.39-4.306 15.675-4.886l-.145-1.567c-6.477.598-12.227 2.45-16.383 5.13-4.142 2.67-6.819 6.251-6.819 10.308h1.574Zm21.773 13.872c-6.285-.581-11.778-2.374-15.675-4.886-3.912-2.522-6.098-5.68-6.098-8.986h-1.574c0 4.058 2.677 7.638 6.819 10.308 4.156 2.68 9.906 4.533 16.383 5.131l.145-1.567Zm.715 11.103v-10.32h-1.574v10.32h1.574Zm-22.488 14.655c0-3.306 2.186-6.464 6.098-8.986 3.897-2.512 9.39-4.305 15.675-4.886l-.145-1.567c-6.477.598-12.227 2.451-16.383 5.13-4.142 2.671-6.819 6.251-6.819 10.309h1.574Zm21.773 13.871c-6.285-.581-11.778-2.374-15.675-4.886-3.912-2.522-6.098-5.679-6.098-8.985h-1.574c0 4.057 2.677 7.638 6.819 10.308 4.156 2.679 9.906 4.532 16.383 5.13l.145-1.567Zm.715 10.892v-10.108h-1.574v10.108h1.574Zm-50.257.787h49.47v-1.574H31.48v1.574Zm-27.77-27.77c0 15.337 12.433 27.77 27.77 27.77v-1.574c-14.467 0-26.196-11.729-26.196-26.196H3.71Zm0-116.927v116.927h1.574V31.886H3.71Z" mask="url(#b)"/></g><path fill="#FEFEFE" d="M39.075 137.759v6.408H20.166v-6.537c0-1.877.379-3.49 1.136-4.838.75-1.354 1.831-2.394 3.24-3.121 1.41-.726 3.097-1.089 5.06-1.089 1.97 0 3.663.366 5.078 1.099 1.416.726 2.503 1.775 3.26 3.148.757 1.366 1.135 3.01 1.135 4.93Zm-2.963 2.983v-2.816c0-1.318-.24-2.416-.72-3.297-.487-.88-1.21-1.541-2.17-1.985-.967-.443-2.173-.664-3.62-.664-1.446 0-2.646.221-3.6.664-.96.444-1.678 1.099-2.152 1.967-.48.862-.72 1.933-.72 3.213v2.918h12.982Zm2.963-15.267H24.893v-3.342h14.182v3.342Zm-16.194-1.68c0 .529-.176.984-.526 1.366-.358.382-.785.572-1.284.572-.505 0-.933-.19-1.283-.572a1.931 1.931 0 0 1-.536-1.366c0-.536.179-.991.536-1.367.35-.382.778-.572 1.283-.572.499 0 .926.19 1.284.572.35.376.526.831.526 1.367Zm5.761-16.308.332 3.047a2.45 2.45 0 0 0-.867.452c-.271.209-.49.493-.656.85-.166.357-.25.794-.25 1.311 0 .695.152 1.28.453 1.754.302.468.693.699 1.173.692.412.007.748-.144 1.006-.452.259-.314.471-.831.637-1.551l.517-2.419c.29-1.342.748-2.339 1.376-2.992.628-.658 1.45-.991 2.465-.997.893.006 1.68.268 2.364.785.677.511 1.206 1.222 1.588 2.133.381.911.572 1.957.572 3.139 0 1.736-.363 3.133-1.09 4.192-.732 1.058-1.75 1.689-3.055 1.892l-.314-3.259c.64-.147 1.123-.461 1.45-.942.326-.48.489-1.104.489-1.874 0-.794-.163-1.431-.49-1.911-.326-.486-.729-.729-1.21-.729-.405 0-.74.157-1.005.47-.265.308-.468.788-.61 1.441l-.508 2.419c-.283 1.36-.76 2.367-1.43 3.019-.678.652-1.534.976-2.568.969-.874.007-1.63-.23-2.27-.71-.647-.487-1.146-1.161-1.497-2.022-.357-.868-.535-1.869-.535-3.001 0-1.662.354-2.97 1.062-3.924.707-.96 1.665-1.554 2.871-1.782Zm10.71-9.247c0 1.416-.31 2.631-.932 3.647-.622 1.01-1.48 1.788-2.576 2.336-1.102.542-2.37.812-3.804.812-1.44 0-2.712-.277-3.813-.83-1.108-.554-1.97-1.336-2.586-2.346-.621-1.015-.932-2.216-.932-3.6 0-1.152.212-2.17.637-3.057.419-.892 1.012-1.603 1.782-2.132.763-.53 1.656-.831 2.677-.905v3.194a3.055 3.055 0 0 0-1.708.924c-.461.48-.692 1.123-.692 1.93 0 .683.184 1.283.554 1.8.363.517.886.92 1.57 1.209.683.283 1.501.425 2.455.425.967 0 1.798-.142 2.493-.425.69-.283 1.222-.68 1.598-1.191.369-.517.554-1.123.554-1.819 0-.492-.093-.932-.277-1.32a2.655 2.655 0 0 0-.822-.988c-.357-.265-.791-.446-1.302-.545v-3.194c1.003.08 1.893.375 2.668.886.77.511 1.373 1.206 1.81 2.087.43.88.646 1.914.646 3.102Zm0-15.006c0 1.385-.304 2.585-.914 3.601-.61 1.016-1.462 1.803-2.557 2.364-1.096.554-2.376.83-3.841.83-1.465 0-2.748-.276-3.85-.83-1.102-.56-1.958-1.348-2.567-2.364-.61-1.016-.914-2.216-.914-3.6 0-1.386.305-2.586.914-3.602.61-1.015 1.465-1.8 2.567-2.354 1.101-.56 2.385-.84 3.85-.84 1.465 0 2.745.28 3.84.84 1.096.554 1.949 1.339 2.558 2.354.61 1.016.914 2.216.914 3.601Zm-2.677-.018c0-.751-.206-1.38-.619-1.884-.418-.505-.978-.88-1.68-1.126-.702-.253-1.484-.379-2.345-.379-.868 0-1.653.126-2.355.379-.708.246-1.27.621-1.69 1.126-.418.505-.627 1.133-.627 1.884 0 .77.209 1.41.628 1.92.418.505.981.883 1.69 1.136.7.246 1.486.37 2.354.37.861 0 1.643-.124 2.345-.37.702-.253 1.262-.631 1.68-1.136.413-.51.619-1.15.619-1.92ZM33.11 64.563h-8.217V61.22h14.181v3.241h-2.52v.148c.794.32 1.443.846 1.948 1.579.505.726.757 1.622.757 2.687 0 .93-.206 1.75-.619 2.465-.418.708-1.024 1.262-1.819 1.662-.8.4-1.766.6-2.899.6h-9.03V70.26h8.513c.899 0 1.613-.247 2.142-.74.53-.492.794-1.138.794-1.938 0-.492-.12-.97-.36-1.431a2.911 2.911 0 0 0-1.07-1.136c-.48-.301-1.081-.452-1.801-.452ZM30.766 54.44h8.31v3.342H24.892V54.59h2.41v-.166a4.053 4.053 0 0 1-1.892-1.56c-.468-.72-.702-1.61-.702-2.669 0-.979.21-1.831.628-2.558.418-.732 1.024-1.298 1.819-1.698.794-.407 1.757-.607 2.89-.6h9.03v3.342h-8.514c-.947 0-1.69.246-2.225.739-.535.486-.803 1.16-.803 2.022 0 .584.13 1.104.388 1.56.252.45.619.803 1.099 1.062.48.252 1.061.378 1.745.378Zm-5.872-19.583h2.585v8.153h-2.585v-8.153Zm-3.398 6.14v-3.342H34.81c.449 0 .794-.068 1.034-.203.234-.142.394-.327.48-.554.086-.228.13-.48.13-.758 0-.209-.016-.4-.047-.572a4.994 4.994 0 0 0-.083-.406l2.613-.563c.061.178.13.433.203.766.074.326.117.726.13 1.2.024.837-.102 1.591-.38 2.262a3.52 3.52 0 0 1-1.31 1.598c-.591.387-1.33.578-2.216.572H21.496Z"/><defs><filter id="a" width="85.447" height="179.888" x="0" y=".405" color-interpolation-filters="sRGB" filterUnits="userSpaceOnUse"><feFlood flood-opacity="0" result="BackgroundImageFix"/><feColorMatrix in="SourceAlpha" result="hardAlpha" values="0 0 0 0 0 0 0 0 0 0 0 0 0 0 0 0 0 0 127 0"/><feOffset dy="2.249"/><feGaussianBlur stdDeviation="1.124"/><feComposite in2="hardAlpha" operator="out"/><feColorMatrix values="0 0 0 0 0 0 0 0 0 0 0 0 0 0 0 0 0 0 0.1 0"/><feBlend in2="BackgroundImageFix" result="effect1_dropShadow_4901_8490"/><feColorMatrix in="SourceAlpha" result="hardAlpha" values="0 0 0 0 0 0 0 0 0 0 0 0 0 0 0 0 0 0 127 0"/><feOffset/><feGaussianBlur stdDeviation="2.249"/><feComposite in2="hardAlpha" operator="out"/><feColorMatrix values="0 0 0 0 0 0 0 0 0 0 0 0 0 0 0 0 0 0 0.14 0"/><feBlend in2="effect1_dropShadow_4901_8490" result="effect2_dropShadow_4901_8490"/><feBlend in="SourceGraphic" in2="effect2_dropShadow_4901_8490" result="shape"/></filter></defs></svg>