<svg xmlns="http://www.w3.org/2000/svg" width="174" height="158" fill="none"><path fill="#F5F5F5" d="M25.465 71.54c-33.954 19.603-33.954 51.384.003 70.99 33.954 19.602 89.004 19.602 122.954 0 33.954-19.602 33.954-51.383-.003-70.99-33.954-19.602-89-19.602-122.954 0Z"/><path fill="#E0E0E0" d="M32.17 134.94c11.953 0 21.643-5.595 21.643-12.496 0-6.902-9.69-12.497-21.643-12.497-11.953 0-21.643 5.595-21.643 12.497 0 6.901 9.69 12.496 21.643 12.496Z"/><path fill="#E0E0E0" d="M67.511 138.446c9.902 0 17.93-4.635 17.93-10.352 0-5.718-8.028-10.353-17.93-10.353s-17.929 4.635-17.929 10.353c0 5.717 8.027 10.352 17.93 10.352Z"/><path fill="#E0E0E0" d="m100.107 89.752-43.839 25.296c-.514.296-.514.778 0 1.074l6.86 3.949c.514.296 1.345.296 1.859 0l43.838-25.296c.514-.296.514-.778 0-1.074l-6.86-3.949c-.514-.296-1.345-.296-1.858 0Z"/><path fill="#E0E0E0" d="m111.408 87.837-.895-.507c-.532-.306-1.335-.488-2.155-.488-.817 0-1.616.181-2.141.485l-1.855 1.07-.003-.007-47.77 27.582-7.077-4.088 53.152-30.679c1.595-.92 3.614-1.427 5.687-1.427 2.087 0 4.113.507 5.704 1.427l52.675 30.408-7.078 4.084-48.244-27.86Z"/><path fill="#E0E0E0" d="M94.043 147.789v-2.112h-3.66v-2.112h-3.656v-2.111h-3.66v-2.112h-3.66v-2.112H75.75v-2.116h-3.66v-2.643l54.565-31.549v2.358h3.66v2.115h3.657v2.112h3.66v2.112h3.66v2.112h3.656v2.112h3.66v2.111h4.581l-55.061 31.835h-4.085Z"/><path fill="#FAFAFA" d="M94.956 146.242v-2.002c0-.06-.05-.114-.114-.114h-3.546v-2.001a.115.115 0 0 0-.114-.114h-3.546v-1.998a.115.115 0 0 0-.114-.114h-3.546v-2.001a.115.115 0 0 0-.114-.115h-3.546v-2.001c0-.06-.05-.114-.114-.114h-3.546v-2.001a.115.115 0 0 0-.114-.114h-3.546v-1.934l53.667-31.028v1.919c0 .061.049.114.114.114h3.546v2.001c0 .061.05.115.114.115h3.546v2.001c0 .06.05.114.114.114h3.546v2.001c0 .061.05.114.114.114h3.546v2.002c0 .06.05.114.114.114h3.546v2.001c0 .061.05.114.114.114h3.546v2.001c0 .061.05.115.114.115h3.239l-53.502 30.925h-3.518Z"/><path fill="#E0E0E0" d="M126.561 100.801v1.723c0 .124.1.224.225.224h3.431v1.887c0 .125.1.225.225.225h3.432v1.887c0 .125.1.225.225.225h3.431v1.887c0 .125.1.225.225.225h3.435v1.887c0 .125.1.225.225.225h3.432v1.887c0 .125.1.225.225.225h3.435v1.887c0 .125.1.224.225.224h2.818l-53.11 30.708h-3.371v-1.887c0-.125-.1-.225-.225-.225H91.41v-1.887c0-.125-.1-.225-.225-.225h-3.432v-1.887c0-.125-.1-.225-.224-.225h-3.436v-1.887c0-.125-.1-.225-.224-.225h-3.432v-1.887c0-.125-.1-.224-.225-.224h-3.435v-1.888c0-.124-.1-.224-.225-.224h-3.432v-1.759l53.442-30.896Zm.225-.393-53.892 31.161v2.111h3.66v2.112h3.66v2.112h3.66v2.112h3.66v2.112h3.66v2.112h3.66v2.111h3.66l53.892-31.16h-3.66v-2.112h-3.66v-2.112h-3.66v-2.111h-3.66v-2.112h-3.66v-2.112h-3.66v-2.112h-3.66v-2.112Z"/><path fill="#FC6161" d="M137.758 115.648a.436.436 0 0 1-.225-.061l-10.976-6.339a.449.449 0 0 1 .449-.778l10.977 6.336a.45.45 0 0 1 .164.614.449.449 0 0 1-.389.228Z"/><path fill="#455A64" d="M137.755 117.478a.19.19 0 0 1-.085-.021l-14.637-8.451a.17.17 0 1 1 .171-.292l14.637 8.45c.082.047.107.15.06.232a.178.178 0 0 1-.146.082ZM135.923 118.534a.19.19 0 0 1-.085-.021l-14.637-8.451a.17.17 0 1 1 .171-.293l14.637 8.451c.082.047.107.15.06.232a.178.178 0 0 1-.146.082ZM128.609 118.534a.19.19 0 0 1-.085-.021l-12.804-7.392a.168.168 0 0 1-.06-.232.169.169 0 0 1 .232-.06l12.803 7.391c.082.047.107.15.06.232a.178.178 0 0 1-.146.082ZM134.099 121.702a.183.183 0 0 1-.086-.022l-3.66-2.111a.17.17 0 0 1 .172-.293l3.66 2.112c.082.046.107.15.06.232a.178.178 0 0 1-.146.082ZM126.777 119.59a.18.18 0 0 1-.085-.022l-12.804-7.391a.168.168 0 0 1-.06-.232.17.17 0 0 1 .232-.061l12.803 7.392c.082.046.107.15.06.232a.178.178 0 0 1-.146.082ZM132.263 122.757a.19.19 0 0 1-.085-.021l-3.657-2.112a.168.168 0 0 1-.06-.232.167.167 0 0 1 .231-.06l3.657 2.112a.168.168 0 0 1 .061.231.18.18 0 0 1-.147.082ZM124.949 120.645a.194.194 0 0 1-.086-.021l-12.803-7.391a.168.168 0 0 1-.06-.232.17.17 0 0 1 .232-.061l12.803 7.392a.167.167 0 0 1 .06.231.178.178 0 0 1-.146.082ZM130.439 123.813a.19.19 0 0 1-.085-.021l-3.657-2.112a.17.17 0 1 1 .171-.293l3.657 2.112a.168.168 0 0 1-.086.314ZM123.125 121.702a.194.194 0 0 1-.086-.021l-12.803-7.392a.17.17 0 1 1 .171-.292l12.803 7.391a.17.17 0 0 1 .061.232.169.169 0 0 1-.146.082ZM128.615 124.87a.183.183 0 0 1-.086-.022l-3.656-2.111a.17.17 0 1 1 .171-.293l3.657 2.112c.082.046.107.15.06.232a.162.162 0 0 1-.146.082ZM121.293 122.758a.183.183 0 0 1-.086-.022l-12.803-7.391a.17.17 0 1 1 .171-.293l12.803 7.392a.17.17 0 0 1 .061.232.17.17 0 0 1-.146.082ZM126.783 125.926a.194.194 0 0 1-.086-.021l-3.656-2.112a.17.17 0 1 1 .171-.292l3.657 2.111c.082.047.107.15.06.232a.16.16 0 0 1-.146.082Z"/><path fill="#FC6161" d="M118.597 124.363a.19.19 0 0 1-.085-.021l-12.803-7.392a.168.168 0 0 1-.061-.231.168.168 0 0 1 .232-.061l12.803 7.391a.17.17 0 0 1 .061.232.18.18 0 0 1-.147.082ZM124.084 127.531a.194.194 0 0 1-.086-.021l-3.656-2.112a.17.17 0 1 1 .171-.293l3.656 2.112a.17.17 0 0 1 .061.232.174.174 0 0 1-.146.082ZM114.938 126.756a.442.442 0 0 1-.225-.06l-7.317-4.224a.45.45 0 0 1 .45-.778l7.317 4.224a.45.45 0 0 1-.225.838Z"/><path fill="#455A64" d="M114.936 132.811a.18.18 0 0 1-.085-.022l-18.283-10.555a.169.169 0 0 1-.06-.232.17.17 0 0 1 .231-.061l18.283 10.556a.168.168 0 0 1-.086.314ZM113.065 133.842a.186.186 0 0 1-.086-.022l-18.282-10.555a.17.17 0 0 1 .171-.293l18.283 10.556c.082.046.107.15.06.232a.162.162 0 0 1-.146.082ZM111.198 134.876a.194.194 0 0 1-.086-.021L92.83 124.299a.169.169 0 0 1-.06-.232.168.168 0 0 1 .231-.06l18.282 10.555a.168.168 0 0 1-.085.314ZM102.151 140.18a.183.183 0 0 1-.086-.022l-18.286-10.555a.17.17 0 0 1 .171-.293l18.286 10.556a.17.17 0 0 1 .061.232.167.167 0 0 1-.146.082ZM100.28 141.215a.194.194 0 0 1-.086-.021l-18.286-10.556a.169.169 0 0 1-.06-.232.17.17 0 0 1 .231-.061l18.286 10.556a.17.17 0 0 1 .061.232.167.167 0 0 1-.146.082ZM103.99 134.883a.196.196 0 0 1-.086-.022l-10.977-6.335a.169.169 0 0 1-.06-.232.169.169 0 0 1 .232-.061l10.973 6.332c.082.046.107.15.06.232a.164.164 0 0 1-.142.086ZM102.162 135.914a.183.183 0 0 1-.086-.022l-10.977-6.335a.169.169 0 0 1-.06-.232.17.17 0 0 1 .232-.061l10.976 6.336a.17.17 0 0 1 .061.232.178.178 0 0 1-.146.082Z"/><path fill="#263238" d="M160.609 113.4c.275-.157.446-.499.446-.981V69.886c0-.485-.171-1.02-.446-1.495l2.637-1.523c.274.475.446 1.013.446 1.495v42.529c0 .485-.172.824-.446.985l-2.637 1.523Z"/><path fill="#37474F" d="M160.607 68.392c-.274-.475-.652-.892-1.073-1.135l-48.13-27.789c-1.677-.967-4.395-.967-6.072 0v46.025c1.677-.966 4.395-.956 6.072.011l48.13 27.789c.421.243.799.264 1.073.107.275-.156.446-.499.446-.981V69.887c-.003-.486-.175-1.02-.446-1.495Z"/><path fill="#455A64" d="M105.332 39.468c1.677-.967 4.395-.967 6.072 0l48.13 27.79c.456.285.81.666 1.074 1.134l2.636-1.524a3.12 3.12 0 0 0-1.074-1.134l-49.45-28.542c-2.479-1.43-6.221-1.43-8.7 0"/><path fill="#000" d="M56.113 113.4c-.274-.157-.446-.499-.446-.981V69.886c0-.485.172-1.02.446-1.495l-2.636-1.523c-.274.475-.446 1.013-.446 1.495v42.529c0 .485.172.824.446.985l2.636 1.523Z"/><path fill="#263238" d="M108.553 38.747c-1.167-.032-2.347.207-3.239.72l-48.13 27.79c-.418.242-.8.656-1.074 1.134-.275.475-.446 1.013-.446 1.495v42.529c0 .485.171.824.446.981.275.157.653.136 1.074-.107l48.13-27.789c.888-.514 2.072-.76 3.239-.728V38.747Z"/><path fill="#455A64" d="M104 37.192 54.55 65.737c-.492.318-.838.7-1.073 1.135l2.636 1.523a3.09 3.09 0 0 1 1.074-1.135l48.13-27.789c1.676-.967 4.394-.967 6.071 0l1.313-2.276c-2.479-1.434-6.222-1.434-8.701-.003Z"/><path fill="#FC6161" d="m156.24 71.606-45.076-25.959c-.799-.46-1.802-.692-2.804-.692-1.002 0-2.005.228-2.804.692L73.75 64.004l1.695.978 30.96-17.872c-.004 0 .004 0 0 0 .539-.31 1.245-.464 1.951-.464.707 0 1.413.153 1.948.464-.003 0 .004 0 0 0l44.238 25.477 1.698-.98Z"/><path fill="#fff" d="m156.24 71.606-45.076-25.959c-.799-.46-1.802-.692-2.804-.692-1.002 0-2.005.228-2.804.692L73.75 64.004l1.695.978 30.96-17.872c-.004 0 .004 0 0 0 .539-.31 1.245-.464 1.951-.464.707 0 1.413.153 1.948.464-.003 0 .004 0 0 0l44.238 25.477 1.698-.98Z" opacity=".5"/><path fill="#FC6161" d="M110.313 47.113c-.539-.31-1.245-.46-1.948-.464-.706 0-1.413.154-1.951.464l-30.96 17.872v3.343l30.96-17.872c.538-.31 1.245-.464 1.951-.464s1.413.153 1.948.464l44.238 25.477v-3.342l-44.238-25.478Z"/><path fill="#000" d="M108.365 46.65c-.706 0-1.413.153-1.951.463l-30.96 17.872v3.343l30.96-17.872c.538-.31 1.245-.464 1.951-.464v-3.343Z" opacity=".15"/><path fill="#FC6161" d="m156.241 71.606-1.694.978v3.078l1.694.996v-5.052Z"/><path fill="#fff" d="m156.241 71.606-1.694.978v3.078l1.694.996v-5.052Z" opacity=".3"/><path fill="#FC6161" d="M73.75 64.008v4.987l1.698-.985v-3.025l-1.698-.977Z"/><path fill="#000" d="M73.75 64.008v4.987l1.698-.985v-3.025l-1.698-.977Z" opacity=".3"/><path fill="#455A64" d="M112.11 84.291c-.956-.55-2.204-.87-3.514-.906-.075 0-.149-.004-.221-.004-1.373 0-2.679.307-3.685.87l-.171.083-.046.043-47.403 27.365V78.626L104.72 51.12l1.316-.753c.589-.342 1.434-.535 2.322-.535.814 0 1.595.164 2.173.453l.242.136 1.231.699 47.649 27.507v33.116l-47.542-27.45Z"/><path fill="#37474F" d="M108.365 49.827c-.888 0-1.734.196-2.326.535l-1.316.753-47.649 27.507v33.116l47.402-27.365.047-.043.171-.082c1.003-.56 2.301-.867 3.674-.87v-33.55h-.003Z"/><path fill="#E0E0E0" d="M111.712 81.102a.172.172 0 0 1-.09-.025l-.759-.439a.18.18 0 0 1-.09-.153v-.878a.175.175 0 0 1 .35 0v.774l.671.39c.085.05.114.156.064.238-.025.065-.086.093-.146.093ZM154.786 105.974a.17.17 0 0 1-.089-.025l-1.537-.888a.173.173 0 0 1-.065-.239.175.175 0 0 1 .239-.065l1.538.889c.085.05.114.157.064.239a.17.17 0 0 1-.15.089Zm-3.078-1.777a.17.17 0 0 1-.09-.025l-1.537-.888a.172.172 0 0 1-.064-.239.175.175 0 0 1 .239-.064l1.537.888c.086.05.114.157.064.239a.166.166 0 0 1-.149.089Zm-3.075-1.776a.17.17 0 0 1-.09-.025l-1.537-.888a.172.172 0 0 1-.064-.239.176.176 0 0 1 .239-.065l1.537.889a.172.172 0 0 1 .064.239.17.17 0 0 1-.149.089Zm-3.079-1.777a.167.167 0 0 1-.089-.025l-1.538-.888a.173.173 0 0 1-.064-.239.176.176 0 0 1 .239-.064l1.538.888c.085.05.114.157.064.239a.167.167 0 0 1-.15.089Zm-3.075-1.776a.168.168 0 0 1-.089-.025l-1.538-.889a.173.173 0 0 1-.064-.238.176.176 0 0 1 .239-.065l1.538.889c.085.05.114.156.064.238a.17.17 0 0 1-.15.09ZM139.4 97.09a.17.17 0 0 1-.089-.025l-1.537-.888a.172.172 0 0 1-.064-.239.176.176 0 0 1 .239-.064l1.537.888c.086.05.114.157.064.239a.166.166 0 0 1-.15.09Zm-3.075-1.776a.17.17 0 0 1-.089-.025l-1.537-.889a.172.172 0 0 1-.064-.239.176.176 0 0 1 .239-.064l1.537.889c.086.05.114.157.064.239a.17.17 0 0 1-.15.089Zm-3.075-1.777a.172.172 0 0 1-.089-.025l-1.537-.888a.172.172 0 0 1-.064-.24.176.176 0 0 1 .239-.063l1.537.888c.086.05.114.157.064.239a.174.174 0 0 1-.15.09Zm-3.078-1.776a.167.167 0 0 1-.089-.025l-1.538-.889a.173.173 0 0 1-.064-.239.176.176 0 0 1 .239-.064l1.538.888c.085.05.114.157.064.24a.167.167 0 0 1-.15.089Zm-3.075-1.777a.167.167 0 0 1-.089-.025l-1.538-.888a.173.173 0 0 1-.064-.24.18.18 0 0 1 .239-.063l1.537.888c.086.05.115.157.065.239a.176.176 0 0 1-.15.09Zm-3.079-1.776a.172.172 0 0 1-.089-.025l-1.537-.889a.173.173 0 0 1-.065-.239.176.176 0 0 1 .239-.064l1.538.888c.086.05.114.157.064.24a.166.166 0 0 1-.15.089Zm-3.075-1.777a.17.17 0 0 1-.089-.025l-1.537-.888a.173.173 0 0 1-.065-.24.179.179 0 0 1 .239-.063l1.538.888c.086.05.114.157.064.239a.176.176 0 0 1-.15.09Zm-3.078-1.776a.166.166 0 0 1-.089-.025l-1.538-.889a.172.172 0 0 1-.064-.239.176.176 0 0 1 .239-.064l1.537.888c.086.05.114.157.065.24a.162.162 0 0 1-.15.089Zm-3.075-1.777a.166.166 0 0 1-.089-.025l-1.538-.888a.172.172 0 0 1-.064-.24.176.176 0 0 1 .239-.063l1.537.888c.086.05.114.157.065.239a.166.166 0 0 1-.15.09ZM157.086 107.297a.17.17 0 0 1-.089-.025l-.76-.439a.173.173 0 0 1-.064-.239.18.18 0 0 1 .239-.064l.496.286v-.575c0-.096.078-.175.175-.175.096 0 .174.079.174.175v.878a.172.172 0 0 1-.089.153.129.129 0 0 1-.082.025ZM157.081 104.757a.175.175 0 0 1-.175-.175v-1.665a.175.175 0 0 1 .35 0v1.665a.175.175 0 0 1-.175.175Zm0-3.335a.176.176 0 0 1-.175-.175v-1.666c0-.096.079-.175.175-.175.096 0 .175.079.175.175v1.666a.176.176 0 0 1-.175.175Zm0-3.336a.175.175 0 0 1-.175-.174v-1.666c0-.097.079-.175.175-.175.096 0 .175.078.175.175v1.666a.175.175 0 0 1-.175.174Zm0-3.331a.175.175 0 0 1-.175-.175v-1.666c0-.097.079-.175.175-.175.096 0 .175.078.175.175v1.666a.175.175 0 0 1-.175.175Zm0-3.336a.175.175 0 0 1-.175-.175v-1.666c0-.096.079-.174.175-.174.096 0 .175.078.175.174v1.666a.175.175 0 0 1-.175.175Zm0-3.332a.175.175 0 0 1-.175-.175v-1.666a.175.175 0 0 1 .35 0v1.666a.175.175 0 0 1-.175.175Zm0-3.335a.175.175 0 0 1-.175-.175v-1.666c0-.096.079-.175.175-.175.096 0 .175.079.175.175v1.666a.175.175 0 0 1-.175.175ZM157.083 81.42a.175.175 0 0 1-.175-.175v-.774l-.671-.389a.173.173 0 0 1-.064-.239.176.176 0 0 1 .239-.064l.76.439a.18.18 0 0 1 .089.153v.878a.18.18 0 0 1-.178.17ZM154.786 79.215a.172.172 0 0 1-.089-.025l-1.537-.888a.173.173 0 0 1-.065-.239.175.175 0 0 1 .239-.064l1.538.888c.085.05.114.157.064.24a.164.164 0 0 1-.15.088Zm-3.078-1.776a.172.172 0 0 1-.09-.025l-1.537-.888a.172.172 0 0 1-.064-.24.176.176 0 0 1 .239-.064l1.537.889c.086.05.114.157.064.239a.16.16 0 0 1-.149.089Zm-3.075-1.777a.172.172 0 0 1-.09-.025l-1.537-.888a.172.172 0 0 1-.064-.239.176.176 0 0 1 .239-.064l1.537.888c.086.05.114.157.064.24a.164.164 0 0 1-.149.088Zm-3.079-1.773a.17.17 0 0 1-.089-.025l-1.538-.888a.173.173 0 0 1-.064-.239.176.176 0 0 1 .239-.064l1.538.888c.085.05.114.157.064.24a.168.168 0 0 1-.15.088Zm-3.075-1.776a.17.17 0 0 1-.089-.025l-1.538-.888a.173.173 0 0 1-.064-.24.176.176 0 0 1 .239-.064l1.538.889c.085.05.114.157.064.239a.17.17 0 0 1-.15.089Zm-3.079-1.777a.172.172 0 0 1-.089-.025l-1.537-.888a.172.172 0 0 1-.064-.239.176.176 0 0 1 .239-.064l1.537.888c.086.05.114.157.064.24a.166.166 0 0 1-.15.088Zm-3.075-1.776a.17.17 0 0 1-.089-.025l-1.537-.888a.172.172 0 0 1-.064-.24.175.175 0 0 1 .239-.064l1.537.889c.086.05.114.157.064.239a.17.17 0 0 1-.15.089Zm-3.075-1.777a.17.17 0 0 1-.089-.025l-1.537-.888a.172.172 0 0 1-.064-.239.176.176 0 0 1 .239-.064l1.537.888c.086.05.114.157.064.24a.174.174 0 0 1-.15.088Zm-3.078-1.776a.167.167 0 0 1-.089-.025l-1.538-.888a.173.173 0 0 1-.064-.24.18.18 0 0 1 .239-.064l1.538.889c.085.05.114.156.064.239a.167.167 0 0 1-.15.089Zm-3.075-1.777a.167.167 0 0 1-.089-.025l-1.538-.888a.173.173 0 0 1-.064-.239.176.176 0 0 1 .239-.064l1.537.888c.086.05.115.157.065.24a.176.176 0 0 1-.15.088Zm-3.079-1.776a.172.172 0 0 1-.089-.025l-1.537-.889a.173.173 0 0 1-.065-.239.176.176 0 0 1 .239-.064l1.538.889c.086.05.114.157.064.239a.166.166 0 0 1-.15.089Zm-3.075-1.777a.172.172 0 0 1-.089-.025l-1.537-.888a.173.173 0 0 1-.065-.239.176.176 0 0 1 .239-.064l1.538.888c.086.05.114.157.064.239a.176.176 0 0 1-.15.09Zm-3.078-1.776a.166.166 0 0 1-.089-.025l-1.538-.889a.172.172 0 0 1-.064-.239.176.176 0 0 1 .239-.064l1.537.889c.086.05.114.157.065.239a.169.169 0 0 1-.15.089Zm-3.075-1.777a.166.166 0 0 1-.089-.025l-1.538-.888a.172.172 0 0 1-.064-.239.176.176 0 0 1 .239-.064l1.537.888c.086.05.114.157.065.239a.173.173 0 0 1-.15.09ZM110.948 54.786a.175.175 0 0 1-.175-.174v-.878c0-.064.033-.121.09-.153a.17.17 0 0 1 .174 0l.76.438c.086.05.114.157.064.24a.17.17 0 0 1-.239.064l-.495-.286v.575a.176.176 0 0 1-.179.174ZM110.948 78.124a.175.175 0 0 1-.175-.175v-1.666a.175.175 0 0 1 .35 0v1.666a.17.17 0 0 1-.175.175Zm0-3.336a.175.175 0 0 1-.175-.175v-1.666a.175.175 0 1 1 .35 0v1.666a.17.17 0 0 1-.175.175Zm0-3.332a.175.175 0 0 1-.175-.175v-1.666a.175.175 0 0 1 .35 0v1.666a.17.17 0 0 1-.175.175Zm0-3.335a.175.175 0 0 1-.175-.175V66.28a.175.175 0 1 1 .35 0v1.666a.17.17 0 0 1-.175.175Zm0-3.332a.175.175 0 0 1-.175-.175v-1.666a.175.175 0 1 1 .35 0v1.666a.17.17 0 0 1-.175.175Zm0-3.336a.175.175 0 0 1-.175-.174v-1.666a.175.175 0 0 1 .35 0v1.666a.17.17 0 0 1-.175.174Zm0-3.335a.175.175 0 0 1-.175-.175v-1.666a.175.175 0 1 1 .35 0v1.666a.17.17 0 0 1-.175.175ZM104.718 81.102a.17.17 0 0 0 .089-.025l.76-.439a.181.181 0 0 0 .089-.153v-.878a.175.175 0 0 0-.175-.174.175.175 0 0 0-.175.174v.775l-.67.388a.173.173 0 0 0-.065.24c.025.064.086.092.147.092ZM61.493 105.884a.171.171 0 0 1 .064-.239l1.538-.889a.171.171 0 0 1 .24.065.171.171 0 0 1-.065.239l-1.538.888a.171.171 0 0 1-.239-.064Zm3.075-1.777a.171.171 0 0 1 .064-.239l1.538-.888a.172.172 0 0 1 .24.064.171.171 0 0 1-.065.239l-1.538.888a.16.16 0 0 1-.089.025.175.175 0 0 1-.15-.089Zm3.075-1.776a.171.171 0 0 1 .065-.239l1.537-.889a.172.172 0 0 1 .24.065.171.171 0 0 1-.065.239l-1.538.888a.16.16 0 0 1-.089.025.176.176 0 0 1-.15-.089Zm3.079-1.777a.171.171 0 0 1 .064-.239l1.538-.888a.172.172 0 0 1 .239.064.171.171 0 0 1-.065.239l-1.537.888a.16.16 0 0 1-.09.025.175.175 0 0 1-.15-.089Zm3.075-1.776a.171.171 0 0 1 .064-.24l1.538-.888a.172.172 0 0 1 .239.064.171.171 0 0 1-.065.24l-1.537.888a.16.16 0 0 1-.09.025.175.175 0 0 1-.15-.09ZM76.876 97a.171.171 0 0 1 .064-.239l1.537-.888a.172.172 0 0 1 .24.064.171.171 0 0 1-.065.239l-1.537.888a.16.16 0 0 1-.09.025.175.175 0 0 1-.15-.089Zm3.075-1.776a.171.171 0 0 1 .064-.24l1.537-.888a.172.172 0 0 1 .24.064.171.171 0 0 1-.065.24l-1.538.888a.16.16 0 0 1-.089.025.175.175 0 0 1-.15-.09Zm3.078-1.777a.171.171 0 0 1 .064-.239l1.538-.888a.172.172 0 0 1 .239.064.171.171 0 0 1-.064.239l-1.538.888a.171.171 0 0 1-.239-.064Zm3.075-1.773a.171.171 0 0 1 .064-.239l1.538-.888a.172.172 0 0 1 .239.064.171.171 0 0 1-.064.239l-1.538.888a.16.16 0 0 1-.089.025.192.192 0 0 1-.15-.089Zm3.079-1.776a.171.171 0 0 1 .064-.24l1.537-.888a.175.175 0 0 1 .24.064.171.171 0 0 1-.065.24l-1.537.888a.16.16 0 0 1-.09.025.187.187 0 0 1-.15-.09Zm3.075-1.777a.171.171 0 0 1 .064-.239l1.537-.888a.171.171 0 0 1 .24.064.171.171 0 0 1-.065.239l-1.537.888a.16.16 0 0 1-.09.025.193.193 0 0 1-.15-.089Zm3.078-1.776a.171.171 0 0 1 .064-.24l1.538-.888a.175.175 0 0 1 .239.064.171.171 0 0 1-.064.24l-1.538.888a.16.16 0 0 1-.089.025.187.187 0 0 1-.15-.09Zm3.075-1.777a.171.171 0 0 1 .064-.239l1.538-.888a.172.172 0 0 1 .239.064.172.172 0 0 1-.064.239l-1.538.888a.161.161 0 0 1-.089.025.183.183 0 0 1-.15-.089Zm3.079-1.776a.17.17 0 0 1 .064-.24l1.538-.888a.172.172 0 0 1 .239.064.171.171 0 0 1-.065.24l-1.537.888a.162.162 0 0 1-.089.025.179.179 0 0 1-.15-.09ZM59.343 107.297c.029 0 .06-.007.09-.025l.76-.439a.173.173 0 0 0 .063-.239.18.18 0 0 0-.239-.064l-.495.286v-.575a.175.175 0 0 0-.175-.175.175.175 0 0 0-.175.175v.878c0 .064.032.121.09.153a.13.13 0 0 0 .081.025ZM59.172 104.579v-1.666c0-.096.078-.175.175-.175.096 0 .175.079.175.175v1.666a.175.175 0 0 1-.175.175.171.171 0 0 1-.175-.175Zm0-3.332v-1.666a.175.175 0 0 1 .35 0v1.666a.175.175 0 0 1-.175.175.175.175 0 0 1-.175-.175Zm0-3.335v-1.666a.175.175 0 0 1 .35 0v1.666a.175.175 0 0 1-.35 0Zm0-3.332v-1.666a.175.175 0 0 1 .35 0v1.666a.175.175 0 0 1-.35 0Zm0-3.336v-1.666a.175.175 0 0 1 .35 0v1.666a.175.175 0 0 1-.35 0Zm0-3.332v-1.666a.175.175 0 0 1 .35 0v1.666a.175.175 0 0 1-.35 0Zm0-3.335v-1.666a.175.175 0 0 1 .35 0v1.666a.175.175 0 0 1-.35 0ZM59.346 81.42a.175.175 0 0 0 .175-.175v-.774l.67-.389a.173.173 0 0 0 .065-.239.176.176 0 0 0-.239-.064l-.76.439a.18.18 0 0 0-.089.153v.878a.18.18 0 0 0 .178.17ZM61.493 79.13a.171.171 0 0 1 .064-.24l1.538-.888a.171.171 0 0 1 .24.064.171.171 0 0 1-.065.24l-1.538.888a.16.16 0 0 1-.089.025.178.178 0 0 1-.15-.09Zm3.075-1.777a.171.171 0 0 1 .064-.24l1.538-.887a.172.172 0 0 1 .24.064.171.171 0 0 1-.065.239l-1.538.888a.16.16 0 0 1-.089.025.184.184 0 0 1-.15-.09Zm3.079-1.777a.171.171 0 0 1 .064-.239l1.538-.888a.172.172 0 0 1 .239.064.171.171 0 0 1-.065.24l-1.537.888a.16.16 0 0 1-.09.024.179.179 0 0 1-.15-.089Zm3.075-1.776a.171.171 0 0 1 .064-.24l1.538-.888a.172.172 0 0 1 .239.065.171.171 0 0 1-.065.239l-1.537.888a.161.161 0 0 1-.09.025.175.175 0 0 1-.15-.09Zm3.075-1.777a.171.171 0 0 1 .064-.239l1.538-.888a.172.172 0 0 1 .239.064.171.171 0 0 1-.065.24l-1.537.888a.161.161 0 0 1-.09.025.175.175 0 0 1-.15-.09Zm3.079-1.776a.171.171 0 0 1 .064-.24l1.537-.888a.172.172 0 0 1 .24.065.171.171 0 0 1-.065.239l-1.537.888a.161.161 0 0 1-.09.025.176.176 0 0 1-.15-.09Zm3.075-1.777a.171.171 0 0 1 .064-.239l1.537-.888a.171.171 0 0 1 .24.064.171.171 0 0 1-.065.24l-1.538.887a.16.16 0 0 1-.089.025.176.176 0 0 1-.15-.089Zm3.078-1.776a.171.171 0 0 1 .064-.24l1.538-.887a.172.172 0 0 1 .239.064.171.171 0 0 1-.064.239l-1.538.888a.171.171 0 0 1-.239-.064Zm3.075-1.777a.171.171 0 0 1 .064-.239l1.538-.888a.175.175 0 0 1 .239.064.171.171 0 0 1-.064.24l-1.538.887a.16.16 0 0 1-.089.025.175.175 0 0 1-.15-.089Zm3.079-1.776a.171.171 0 0 1 .064-.24l1.537-.888a.172.172 0 0 1 .24.065.171.171 0 0 1-.065.239l-1.537.888a.171.171 0 0 1-.239-.064Zm3.075-1.777a.171.171 0 0 1 .064-.239l1.537-.888a.171.171 0 0 1 .24.064.171.171 0 0 1-.065.24l-1.537.887a.161.161 0 0 1-.09.025.175.175 0 0 1-.15-.089Zm3.078-1.776a.171.171 0 0 1 .064-.24l1.538-.888a.172.172 0 0 1 .239.065.171.171 0 0 1-.064.239l-1.538.888a.171.171 0 0 1-.239-.064Zm3.075-1.777a.171.171 0 0 1 .064-.239l1.538-.888a.172.172 0 0 1 .239.064.172.172 0 0 1-.064.24l-1.538.887a.161.161 0 0 1-.089.025.176.176 0 0 1-.15-.089Zm3.079-1.776a.17.17 0 0 1 .064-.24l1.538-.888a.172.172 0 0 1 .239.065.171.171 0 0 1-.065.239l-1.537.888a.17.17 0 0 1-.239-.064ZM105.473 54.786a.175.175 0 0 0 .175-.174v-.878a.173.173 0 0 0-.089-.153.171.171 0 0 0-.175 0l-.76.438a.172.172 0 0 0-.064.24.17.17 0 0 0 .239.064l.496-.286v.575a.18.18 0 0 0 .178.174ZM105.301 77.949v-1.666a.175.175 0 0 1 .349 0v1.666a.175.175 0 1 1-.349 0Zm0-3.336v-1.666a.175.175 0 0 1 .349 0v1.666a.175.175 0 1 1-.349 0Zm0-3.332v-1.666a.175.175 0 1 1 .349 0v1.666a.175.175 0 1 1-.349 0Zm0-3.335V66.28a.175.175 0 0 1 .349 0v1.666a.175.175 0 1 1-.349 0Zm0-3.335v-1.666a.175.175 0 0 1 .349 0v1.666a.175.175 0 0 1-.174.174.17.17 0 0 1-.175-.174Zm0-3.332v-1.666a.175.175 0 1 1 .349 0v1.666a.175.175 0 1 1-.349 0Zm0-3.336v-1.666a.175.175 0 0 1 .349 0v1.666a.175.175 0 1 1-.349 0Z"/><path fill="#37474F" d="m163.691 84.448 5.908 3.414-5.908 3.41v-6.824Z"/><path fill="#455A64" d="m168.175 88.683 1.331-.767c.417-.243.628-.56.628-.878 0-.317-.211-.635-.628-.877l-5.815-3.357v1.644l4.056 2.34a.288.288 0 0 1 0 .496l-.995.575 1.423.824Z"/><path fill="#455A64" d="M159.821 91.865c-1.677.967-3.036 3.225-3.036 5.04 0 .878.318 1.488.831 1.78.553.314 1.442.832 1.442.832l9.025-5.847c.417-.243.628-.557.628-.874v-6.578c0 .317-.211.635-.628.877l-8.262 4.77Z"/><path fill="#37474F" d="M168.083 87.095a186.74 186.74 0 0 1-4.128 2.54l-4.166 2.461c-.664.407-1.227.981-1.687 1.62a6.906 6.906 0 0 0-1.031 2.119c-.2.745-.282 1.594.092 2.28.093.167.214.317.368.434.15.114.339.214.503.321l1.027.646-1.074-.564c-.178-.1-.353-.178-.535-.296a1.536 1.536 0 0 1-.438-.456c-.229-.36-.314-.789-.336-1.202a4.778 4.778 0 0 1 .129-1.235c.189-.806.563-1.559 1.031-2.236.474-.675 1.052-1.288 1.762-1.734 1.409-.81 2.804-1.609 4.216-2.394 1.417-.781 2.833-1.562 4.267-2.304Z"/><path fill="#37474F" d="M161.247 92.685c-1.677.967-3.036 3.225-3.036 5.04 0 1.817 1.359 2.505 3.036 1.535l8.262-4.77c.417-.242.627-.556.627-.874v-6.578c0 .318-.21.635-.627.878l-8.262 4.77Z"/><path fill="#FAFAFA" d="M161.76 93.666c.963-.556 1.744-.107 1.744 1.01 0 1.113-.781 2.468-1.744 3.025-.963.556-1.744.107-1.744-1.01-.004-1.113.777-2.468 1.744-3.025Z"/><path fill="#37474F" d="M105.128 92.4V4.375c0-2.265-1.123-2.89-2.122-3.467-.999-.578-2.644-.928-4.063-.107L62.596 21.788c-1.42.82-2.573 2.815-2.573 4.452v88.023c0 1.641 1.028 2.604 2.027 3.182.998.578 2.74 1.21 4.16.389l36.346-20.986c1.424-.817 2.572-2.166 2.572-4.449Z"/><path fill="#263238" d="M102.816 93.23 65.438 114.81l.011-88.404-4.677-2.7c-.463.805-.752 1.711-.752 2.532v88.023c0 1.641 1.027 2.604 2.026 3.182.999.578 2.74 1.209 4.16.389l36.346-20.987c.889-.513 1.763-1.28 2.226-2.482l-.146-.082-1.816-1.05Z"/><path fill="#455A64" d="M102.49 3.613 66.036 24.66c-.996.57-1.805 1.976-1.805 3.121v87.31c0 1.759 1.252 2.479 2.775 1.598l35.484-20.483c1.123-.65 2.044-2.24 2.044-3.543V4.793c0-1.298-.921-1.83-2.044-1.18Z"/><path fill="#000" d="M102.759 8.968V90.58c0 1.238-.874 2.75-1.941 3.368l-32.862 18.974c-1.07.624-1.94.121-1.94-1.12V29.586c0-1.002.57-2.186 1.362-2.925.061-.057.122-.114.186-.167.128-.1.26-.193.396-.271l9.243-5.337s.27-.157.602-.346c.332-.193.603-.04.603.346 0 .382.29.531.646.325l10.773-6.218c.353-.204.646-.682.646-1.067 0-.36.239-.795.539-1.01.021-.014.043-.024.06-.039l9.043-5.219.193-.114c1.349-.778 2.451-.139 2.451 1.424Z"/><path fill="#263238" d="M97.996 91.769c1.07-.614 1.94-2.13 1.94-3.368V7.76l-8.872 5.119a.35.35 0 0 0-.06.04c-.303.213-.539.648-.539 1.009 0 .381-.292.86-.645 1.066l-10.774 6.218c-.356.207-.645.06-.645-.325s-.272-.538-.603-.346l-.603.346-9.243 5.337a3.403 3.403 0 0 0-.396.271l-.185.168c-.792.738-1.363 1.923-1.363 2.925v80.646l31.988-18.464Z"/><path fill="#263238" d="m80.683 17.925 4.938-2.85c.296-.171.535-.05.535.27 0 .318-.24.718-.535.886l-4.938 2.85c-.296.171-.535.05-.535-.271 0-.318.24-.714.535-.885ZM88.15 13.376c.332-.192.6-.035.6.346 0 .382-.268.85-.6 1.042-.332.193-.6.036-.6-.346 0-.382.268-.849.6-1.042Z"/><path fill="#455A64" d="M63.4 36.8c0-.646-.424-1.417-.948-1.72-.253-.146-.482-.157-.653-.054-.118.072-.589.332-.713.407-.182.107-.293.343-.293.674v7.174c0 .646.425 1.416.949 1.72.242.139.46.153.628.067.132-.067.61-.346.735-.42.181-.108.296-.343.296-.675V36.8Z"/><path fill="#37474F" d="M62.695 37.206v7.174c0 .646-.425.924-.95.62-.524-.302-.948-1.073-.948-1.718v-7.174c0-.646.424-.924.949-.621.524.307.949 1.074.949 1.72Z"/><path fill="#455A64" d="M63.4 49.353c0-.646-.424-1.416-.948-1.72-.253-.146-.482-.156-.653-.053-.118.072-.589.332-.713.407-.182.107-.293.342-.293.674v7.174c0 .646.425 1.416.949 1.72.242.139.46.153.628.067.132-.068.61-.346.735-.42.181-.108.296-.343.296-.675v-7.174Z"/><path fill="#37474F" d="M62.695 49.76v7.174c0 .646-.425.924-.95.62-.524-.303-.948-1.073-.948-1.719v-7.174c0-.645.424-.924.949-.62.524.306.949 1.073.949 1.72Z"/><path fill="#FC6161" d="M105.526 8.453c-.457-.26-1.084-.225-1.78.174l-.2.114-9.29 5.362c-.02.01-.042.025-.063.04-.31.22-.557.666-.557 1.037 0 .393-.3.885-.663 1.096l-11.066 6.389-.025.01c-.007-.185-.075-.314-.182-.374-.11-.064-.524-.307-.639-.371-.11-.064-.267-.054-.438.046-.343.196-.621.357-.621.357l-9.496 5.483a3.583 3.583 0 0 0-.407.278c-.064.054-.125.114-.189.171-.813.76-1.398 1.977-1.398 3.008v84.459c0 .635.22 1.081.581 1.288.107.064.535.31.646.371.36.207.856.178 1.409-.143l33.761-19.492c1.099-.631 1.994-2.186 1.994-3.456V10.45c0-.799-.282-1.362-.738-1.626-.1-.061-.532-.31-.639-.371Z"/><path fill="#000" d="M71.342 116.973v.164l-.19.11c-.549.318-1.045.35-1.405.143-.107-.061-.539-.31-.642-.371-.36-.21-.582-.653-.582-1.288V31.268c0-.692.264-1.466.689-2.13l.76.44c-.414.652-.667 1.409-.667 2.061v84.456c0 .403.096.735.274.963a.846.846 0 0 0 .685.321c.25 0 .535-.089.82-.256l.258-.15ZM94.651 14.903c-.142.2-.232.438-.232.645 0 .24-.096.51-.246.742l-.767-.442c.14-.21.232-.453.232-.667 0-.232.096-.5.25-.717l.763.439Z" opacity=".3"/><path fill="#FAFAFA" d="M70.26 117.38a.841.841 0 0 1-.684-.321c-.179-.225-.275-.56-.275-.963v-84.46c0-.966.556-2.158 1.355-2.903l.061-.057a3.36 3.36 0 0 1 .125-.11c.125-.1.257-.19.385-.261l9.496-5.483.617-.357a.44.44 0 0 1 .207-.068c.179 0 .2.21.2.3 0 .342.196.57.492.57a.75.75 0 0 0 .382-.117l11.066-6.389c.41-.239.731-.774.731-1.216 0-.322.218-.725.496-.92.018-.015.036-.022.053-.033l9.29-5.362.2-.117c.367-.21.731-.325 1.052-.325.778 0 1.259.635 1.259 1.659v83.846c0 1.23-.863 2.725-1.923 3.335l-33.76 19.492c-.29.171-.575.26-.825.26Z"/><path fill="#FC6161" d="M105.501 8.795c-.321 0-.685.11-1.052.325l-.2.117-9.29 5.362c-.017.01-.035.018-.053.032-.278.196-.496.6-.496.92 0 .446-.32.981-.731 1.217l-11.066 6.389a.752.752 0 0 1-.381.118c-.296 0-.493-.229-.493-.571 0-.09-.018-.3-.2-.3a.403.403 0 0 0-.206.068l-.617.357-9.497 5.483c-.128.075-.26.164-.385.26-.043.036-.082.075-.125.11l-.06.054c-.8.746-1.356 1.937-1.356 2.904v13.149l37.464-21.636v-12.7c.007-1.023-.478-1.658-1.256-1.658Z"/><path fill="#fff" d="M105.501 8.795c-.321 0-.685.11-1.052.325l-.2.117-9.29 5.362c-.017.01-.035.018-.053.032-.278.196-.496.6-.496.92 0 .446-.32.981-.731 1.217l-11.066 6.389a.752.752 0 0 1-.381.118c-.296 0-.493-.229-.493-.571 0-.09-.018-.3-.2-.3a.403.403 0 0 0-.206.068l-.617.357-9.497 5.483c-.128.075-.26.164-.385.26-.043.036-.082.075-.125.11l-.06.054c-.8.746-1.356 1.937-1.356 2.904v13.149l37.464-21.636v-12.7c.007-1.023-.478-1.658-1.256-1.658Z" opacity=".3"/><path fill="#FAFAFA" d="M72.006 31.664a.1.1 0 0 1-.014.053.097.097 0 0 1-.036.04l-.075.042c-.014.008-.025.008-.036 0-.01-.007-.014-.021-.014-.039v-1.363l-.3.479c-.01.02-.025.032-.035.035-.014.004-.025.004-.032-.007l-.043-.05a.076.076 0 0 1-.01-.043c0-.017.006-.039.017-.057l.396-.635c.01-.014.021-.028.029-.035a.33.33 0 0 1 .028-.018l.075-.043c.014-.007.025-.007.036 0 .01.007.014.021.014.04v1.6ZM72.783 31.215a.1.1 0 0 1-.014.053.096.096 0 0 1-.036.04l-.075.042c-.014.007-.025.007-.035 0-.011-.007-.015-.021-.015-.039v-1.363l-.3.478c-.01.022-.024.032-.035.036-.014.003-.025.003-.032-.007l-.043-.05a.076.076 0 0 1-.01-.043c0-.018.007-.04.017-.057l.396-.635c.011-.014.022-.029.029-.036a.329.329 0 0 1 .028-.018l.075-.042c.015-.007.025-.007.036 0 .01.007.014.021.014.039v1.602ZM73.218 29.863c.014-.007.025-.007.035 0 .011.007.015.021.015.039v.164a.123.123 0 0 1-.015.057.097.097 0 0 1-.035.04l-.125.07c-.014.008-.025.008-.036 0-.01-.006-.014-.02-.014-.038v-.165c0-.017.003-.035.014-.057a.097.097 0 0 1 .036-.039l.125-.071Zm0 .867c.014-.008.025-.008.035 0 .011.007.015.021.015.039v.164a.122.122 0 0 1-.015.057.097.097 0 0 1-.035.04l-.125.07c-.014.008-.025.008-.036 0-.01-.007-.014-.02-.014-.039v-.164a.1.1 0 0 1 .014-.053.097.097 0 0 1 .036-.04l.125-.074ZM73.652 30.33c.017.068.05.111.107.125.053.015.117 0 .189-.042a.658.658 0 0 0 .114-.09.521.521 0 0 0 .093-.12.66.66 0 0 0 .09-.321.32.32 0 0 0-.026-.144.136.136 0 0 0-.064-.075.156.156 0 0 0-.093-.014.413.413 0 0 0-.114.043.493.493 0 0 0-.179.171l-.046.072a.166.166 0 0 1-.05.05l-.096.053c-.01.007-.022.007-.029 0-.007-.007-.01-.018-.01-.032l.057-.86c0-.018.003-.036.014-.053a.096.096 0 0 1 .036-.04l.652-.378c.015-.007.025-.007.036 0 .01.007.014.022.014.04v.089a.122.122 0 0 1-.014.057.097.097 0 0 1-.036.039l-.538.31-.029.446c.022-.025.05-.053.086-.089a.891.891 0 0 1 .135-.096.447.447 0 0 1 .182-.064.232.232 0 0 1 .15.028.256.256 0 0 1 .1.125.562.562 0 0 1 .036.221c0 .09-.015.178-.036.264a1.067 1.067 0 0 1-.25.446.861.861 0 0 1-.182.146.551.551 0 0 1-.178.068.26.26 0 0 1-.15-.01.2.2 0 0 1-.103-.093.333.333 0 0 1-.04-.168c0-.014.004-.029.011-.046a.083.083 0 0 1 .029-.033l.085-.05c.011-.007.018-.007.029-.003.01.003.014.01.018.029ZM74.75 29.727c.007.022.014.043.025.065.01.021.028.035.05.042.021.008.05.008.09 0a.59.59 0 0 0 .252-.142.623.623 0 0 0 .15-.243.53.53 0 0 0 .025-.153.273.273 0 0 0-.021-.121.098.098 0 0 0-.06-.054.154.154 0 0 0-.09.004.505.505 0 0 0-.114.05l-.154.089c-.014.007-.025.007-.035 0-.01-.007-.014-.022-.014-.04v-.089c0-.014.003-.028.01-.046s.014-.032.022-.046l.335-.671-.535.307c-.014.007-.025.007-.036 0-.01-.007-.014-.022-.014-.04v-.089a.1.1 0 0 1 .014-.053.097.097 0 0 1 .036-.04l.731-.42c.014-.008.025-.008.036 0 .01.007.014.021.014.039v.089a.141.141 0 0 1-.01.05c-.008.018-.015.036-.026.053l-.328.66a.451.451 0 0 1 .171-.06.225.225 0 0 1 .132.025.23.23 0 0 1 .086.11c.021.05.032.114.032.193a.933.933 0 0 1-.282.66.803.803 0 0 1-.392.225.252.252 0 0 1-.15-.015.189.189 0 0 1-.085-.089.35.35 0 0 1-.03-.143c0-.014.005-.028.012-.046a.086.086 0 0 1 .028-.032l.086-.05c.014-.007.025-.01.032-.003 0 .007.004.014.007.024ZM77.642 26.817l-.571 1.947v-.849l-.635.368 1.206-1.466Zm0-.143h-.007c-.025 0-.05.01-.068.021-.01.007-.022.014-.029.025l-.003.004-1.206 1.466a.15.15 0 0 0 0 .185c.029.032.068.05.11.05.026 0 .05-.007.072-.018l.417-.242v.596c0 .071.054.132.125.142h.022a.146.146 0 0 0 .139-.103l.567-1.937a.144.144 0 0 0 .01-.054.149.149 0 0 0-.15-.135ZM97.463 17.014l-.31.178v-.606l.31-.179v.607ZM97.951 16.73l-.31.181v-.87l.31-.179v.867ZM98.447 16.447l-.31.178v-1.199l.31-.178v1.199Z"/><path fill="#FC6161" d="m98.94 16.162-.311.178v-1.513l.31-.181v1.516Z"/><path fill="#FAFAFA" d="M101.098 13.357c-.321.186-.61.525-.821.92l.207.165c.161-.3.378-.553.617-.692.243-.14.461-.136.618-.022l.206-.4c-.214-.153-.506-.156-.827.03Zm-.535 1.146.189.15c.093-.172.214-.315.349-.393.136-.079.264-.079.35-.01l.189-.368c-.139-.104-.328-.104-.539.018-.21.12-.399.342-.538.602Zm.278.22.26.207.264-.513c-.067-.046-.16-.05-.264.01a.712.712 0 0 0-.26.297Z"/><path fill="#FC6161" d="M104.844 11.235c.111-.065.2.003.2.153v.978c0 .15-.089.32-.2.385l-1.744 1.006c-.111.064-.2-.004-.2-.154v-.977c0-.15.089-.321.2-.385l1.744-1.006Zm0-.082-1.744 1.006c-.146.085-.264.31-.264.502v.982c0 .192.118.285.264.2l1.744-1.007c.147-.085.264-.31.264-.503v-.977c0-.2-.117-.289-.264-.203Z"/><path fill="#FAFAFA" d="m104.137 12.915-.985.567c-.046.025-.082 0-.082-.06v-.81c0-.061.036-.129.082-.157l.985-.568c.046-.024.082 0 .082.061v.81c0 .06-.036.132-.082.157Z"/><path fill="#FC6161" d="m105.298 11.998-.071.039v-.528l.071-.04c.039-.02.071.08.071.225-.003.143-.032.279-.071.304Z"/><path fill="#FAFAFA" d="M104.222 20.485c-.211.121-.382.392-.382.606 0 .214.171.286.382.16.21-.12.381-.392.381-.606.004-.21-.167-.281-.381-.16Zm0-2.918c-.211.121-.382.392-.382.606 0 .21.171.286.382.16.21-.12.381-.392.381-.606.004-.21-.167-.281-.381-.16Zm0 1.459c-.211.121-.382.392-.382.606 0 .21.171.286.382.16.21-.12.381-.392.381-.606.004-.21-.167-.281-.381-.16ZM79.83 33.135l.846-2.447a2.7 2.7 0 0 1 .06-.129.318.318 0 0 1 .132-.142l.303-.175c.032-.018.061-.018.086 0 .025.018.036.05.036.093v3.834c0 .043-.011.09-.036.133a.23.23 0 0 1-.086.096l-.36.207c-.032.018-.06.018-.086 0-.024-.018-.035-.05-.035-.093v-2.319l-.578 1.67c-.014.039-.036.085-.06.135a.26.26 0 0 1-.104.11l-.232.136c-.043.025-.075.029-.103.008a.242.242 0 0 1-.061-.061l-.578-1.003v2.32c0 .042-.01.088-.036.131a.23.23 0 0 1-.085.096l-.36.207c-.033.018-.061.018-.086 0-.025-.017-.036-.05-.036-.092v-3.835c0-.043.01-.09.036-.132a.23.23 0 0 1 .085-.096l.304-.175c.06-.036.103-.04.132-.011l.06.06.842 1.474ZM82.65 33.377l-.88-2.208c-.004-.01-.004-.022-.004-.04 0-.042.01-.089.035-.131.025-.047.05-.079.086-.097l.335-.192c.036-.022.068-.022.093-.008.025.018.043.04.053.065l.593 1.49.592-2.175a.398.398 0 0 1 .053-.125.264.264 0 0 1 .093-.104l.335-.192c.032-.018.061-.018.086 0 .025.018.036.05.036.093 0 .017-.004.032-.004.042L82.9 34.386a.395.395 0 0 1-.053.125.232.232 0 0 1-.093.1l-.336.193c-.032.018-.06.018-.085 0-.025-.018-.036-.05-.036-.093 0-.014 0-.028.004-.043l.35-1.291ZM86.94 29.09l-.382 1.994a.75.75 0 0 1-.058.178.241.241 0 0 1-.1.114l-.36.207c-.043.025-.078.025-.103.004-.025-.021-.043-.06-.05-.114l-.57-3.414c-.004-.018-.004-.032-.004-.047 0-.042.01-.089.035-.131.025-.047.05-.079.086-.097l.328-.189a.107.107 0 0 1 .086-.014c.025.007.042.04.053.093l.375 2.3.328-1.773c.007-.032.021-.074.043-.131.021-.058.06-.1.114-.132l.364-.21c.053-.033.092-.033.114 0a.304.304 0 0 1 .043.081l.328 1.395.374-2.733a.328.328 0 0 1 .054-.157.245.245 0 0 1 .086-.085l.328-.19c.032-.017.06-.017.085 0 .025.019.036.05.036.093 0 .011 0 .029-.004.05L88 30.256a.553.553 0 0 1-.05.175.26.26 0 0 1-.104.118l-.36.207c-.043.025-.079.025-.1 0a.31.31 0 0 1-.053-.114l-.393-1.552ZM88.911 27.602c.01-.089.04-.196.082-.314a2.128 2.128 0 0 1 .47-.742c.115-.117.247-.22.4-.31.154-.09.29-.14.41-.157a.46.46 0 0 1 .315.053c.089.054.153.143.203.272.047.128.072.292.072.495v1.745c0 .043-.011.089-.036.132a.23.23 0 0 1-.086.096l-.339.196c-.032.018-.06.018-.085 0-.025-.018-.036-.05-.036-.092v-.197c-.06.15-.153.3-.268.45a1.54 1.54 0 0 1-.445.378.89.89 0 0 1-.343.128.367.367 0 0 1-.253-.046.402.402 0 0 1-.157-.203.932.932 0 0 1-.057-.34c0-.27.071-.527.217-.766.147-.24.34-.457.582-.653l.724-.585c0-.16-.04-.253-.121-.275-.079-.021-.179.004-.3.072a.597.597 0 0 0-.175.142 1.24 1.24 0 0 0-.121.182c-.028.047-.05.082-.075.107a.312.312 0 0 1-.075.061L89 27.67c-.028.018-.053.021-.075.007-.01-.007-.017-.032-.014-.075Zm.746 1.245c.1-.057.189-.128.267-.21.079-.082.147-.172.2-.264.054-.093.093-.19.121-.282.025-.093.04-.182.04-.268v-.06l-.607.492c-.121.1-.21.19-.264.275a.484.484 0 0 0-.078.264c0 .082.032.125.096.128a.505.505 0 0 0 .225-.075ZM92.035 27.966c0 .043-.011.089-.036.132a.23.23 0 0 1-.086.096l-.339.196c-.032.018-.06.018-.085 0-.025-.018-.036-.05-.036-.092v-3.892c0-.043.01-.09.036-.132a.23.23 0 0 1 .085-.097l.34-.196c.031-.018.06-.018.085 0 .025.018.036.05.036.093v3.892ZM93.226 27.277c0 .043-.01.09-.036.132a.23.23 0 0 1-.085.097l-.34.196c-.031.018-.06.018-.085 0-.025-.018-.036-.05-.036-.093v-3.892c0-.043.011-.089.036-.132a.23.23 0 0 1 .086-.096l.339-.196c.032-.018.06-.018.085 0 .025.018.036.05.036.092v3.892ZM93.723 25.608a3.089 3.089 0 0 1 .292-1.306c.097-.2.21-.378.346-.542.136-.16.286-.289.453-.385.168-.097.318-.143.453-.14.136.004.25.047.346.129a.79.79 0 0 1 .222.353c.053.154.078.332.078.535v.268c0 .043-.01.089-.036.132-.025.046-.05.078-.085.096l-1.488.86c0 .093.014.164.043.217.029.054.064.09.114.111a.253.253 0 0 0 .164.01.597.597 0 0 0 .193-.074 1.03 1.03 0 0 0 .378-.353c.032-.05.06-.09.082-.111a.345.345 0 0 1 .086-.068l.356-.207c.032-.017.061-.021.086-.003.025.018.036.05.032.093a.929.929 0 0 1-.068.253c-.042.11-.107.235-.192.367a2.817 2.817 0 0 1-.318.396 1.908 1.908 0 0 1-.439.343.97.97 0 0 1-.453.146.501.501 0 0 1-.346-.129.824.824 0 0 1-.217-.381 1.942 1.942 0 0 1-.082-.61Zm1.091-1.52a.916.916 0 0 0-.22.178c-.062.068-.111.143-.154.218a1.066 1.066 0 0 0-.097.232c-.021.078-.035.15-.042.21l1.005-.581a1.375 1.375 0 0 0-.032-.168.284.284 0 0 0-.078-.132.212.212 0 0 0-.146-.046.529.529 0 0 0-.236.09ZM97.172 24.042c0 .121.025.207.075.25.05.046.139.028.274-.05l.271-.158c.033-.017.061-.017.086 0 .025.018.036.05.036.093v.393c0 .042-.011.089-.036.132a.23.23 0 0 1-.086.096l-.328.189c-.278.16-.492.196-.642.1-.15-.093-.225-.325-.225-.7v-1.276l-.292.17c-.032.019-.06.019-.086 0-.025-.017-.035-.05-.035-.092v-.392c0-.043.01-.09.035-.132a.23.23 0 0 1 .086-.097l.292-.167v-.967c0-.043.011-.09.036-.132a.23.23 0 0 1 .086-.096l.339-.197c.032-.017.06-.017.085 0 .025.018.036.05.036.093v.967l.574-.332c.032-.018.06-.018.086 0 .025.018.035.05.035.093v.392c0 .043-.01.09-.035.132a.23.23 0 0 1-.086.097l-.574.331v1.26h-.007Z"/><path fill="#FC6161" d="M105.507 8.934c.699 0 1.116.567 1.116 1.516v83.846c0 1.163-.849 2.636-1.851 3.21l-33.761 19.492c-.268.154-.524.236-.75.236-.51 0-.816-.428-.816-1.142V31.636c0-.927.539-2.08 1.306-2.796l.064-.061.11-.1c.125-.096.25-.182.371-.253l9.496-5.483s.279-.16.618-.357a.267.267 0 0 1 .135-.046c.057 0 .057.143.057.157 0 .42.26.713.635.713.147 0 .3-.046.453-.135l11.066-6.39c.45-.26.803-.848.803-1.34 0-.275.196-.636.435-.807a.26.26 0 0 1 .043-.025l9.289-5.361.196-.115c.35-.196.689-.303.985-.303Zm0-.282c-.339 0-.721.11-1.124.343l-.2.114-9.289 5.362c-.021.01-.043.025-.064.039-.31.221-.557.667-.557 1.038 0 .392-.3.885-.663 1.095l-11.066 6.39a.646.646 0 0 1-.31.095c-.207 0-.35-.157-.35-.428 0-.281-.14-.442-.342-.442a.579.579 0 0 0-.279.086l-.62.356-9.496 5.483a3.575 3.575 0 0 0-.407.279c-.064.053-.125.114-.19.17-.813.76-1.398 1.977-1.398 3.008v84.456c0 .902.45 1.423 1.103 1.423.267 0 .57-.089.892-.275l33.76-19.491c1.099-.632 1.995-2.187 1.995-3.457V10.45c.007-1.138-.564-1.798-1.395-1.798Z"/><path fill="#455A64" d="M76.382 56.135c-.357.207-.646.76-.646 1.234s.289.692.646.489c.356-.207.645-.76.645-1.235 0-.474-.288-.695-.645-.488Zm0 1.334c-.196.114-.353-.007-.353-.268 0-.26.157-.563.353-.678.196-.114.353.008.353.268s-.157.564-.353.678Zm2.832-2.968c-.356.207-.645.76-.645 1.234s.288.692.645.489c.357-.207.646-.76.646-1.234 0-.479-.29-.696-.646-.49Zm0 1.33c-.196.114-.353-.007-.353-.267s.157-.564.353-.678c.196-.114.353.007.353.268 0 .264-.157.567-.353.677Zm.764-4.052v-2.765c0-.125-.079-.185-.172-.128l-4.544 2.625-.21-1.359c-.015-.089-.076-.121-.15-.078l-.81.467c-.082.046-.147.171-.147.278 0 .107.065.157.147.11l.695-.399.856 5.498c.015.089.075.12.15.078l4.038-2.333c.082-.046.147-.171.147-.278 0-.107-.065-.157-.147-.11l-3.92 2.264-.11-.717 4.027-2.832a.456.456 0 0 0 .15-.321Zm-.29.021-3.945 2.776-.424-2.712 4.37-2.521V51.8Z"/><path fill="#FC6161" d="M72.54 61.632a.53.53 0 0 1-.275-.075c-.218-.125-.34-.396-.34-.742V50.89c0-.6.358-1.278.818-1.542l30.746-17.754c.232-.136.464-.146.653-.04.218.126.339.397.339.743v9.924c0 .6-.357 1.277-.817 1.541L72.918 61.518a.758.758 0 0 1-.379.114Zm31.324-29.794a.425.425 0 0 0-.2.064L72.918 49.656c-.347.2-.64.764-.64 1.235v9.924c0 .214.062.374.161.435.097.053.215.01.297-.04l30.746-17.754c.346-.2.639-.767.639-1.234v-9.924c0-.214-.061-.375-.161-.436a.183.183 0 0 0-.096-.024Z"/><path fill="#E0E0E0" d="M82.442 54.9a.239.239 0 0 1-.239-.24v-9.538a.239.239 0 1 1 .478 0v9.539a.237.237 0 0 1-.239.239Z"/><path fill="#455A64" d="m91.26 42.993-6.885 3.97c-.165.093-.293-.007-.293-.221 0-.218.132-.467.293-.56l6.884-3.97c.165-.093.293.007.293.22.003.215-.129.464-.293.56Z"/><path fill="#E0E0E0" d="M84.076 48.832a.116.116 0 0 1-.103-.06.12.12 0 0 1 .043-.165L95.74 41.84a.12.12 0 0 1 .165.043.12.12 0 0 1-.043.164l-11.726 6.767a.12.12 0 0 1-.06.018ZM84.076 50.134a.116.116 0 0 1-.103-.06.12.12 0 0 1 .043-.165l11.725-6.767a.121.121 0 0 1 .165.043.12.12 0 0 1-.043.164l-11.726 6.767a.093.093 0 0 1-.06.018ZM84.076 51.44a.116.116 0 0 1-.103-.06.12.12 0 0 1 .043-.165l6.906-3.984a.12.12 0 0 1 .164.042.12.12 0 0 1-.043.165l-6.906 3.984a.094.094 0 0 1-.06.018Z"/><path fill="#455A64" d="M97.786 42.855c-.007-.008-.01-.022-.014-.04v-.16a.542.542 0 0 1-.296.085c-.082.008-.121-.021-.129-.078a.644.644 0 0 1 .018-.193c.018-.075.04-.121.068-.135.003-.004.01-.004.021-.004.008 0 .015 0 .022-.003.05.014.096.017.142.01a.412.412 0 0 0 .15-.057v-.65c-.089 0-.16-.01-.22-.028-.062-.017-.108-.064-.147-.132a.68.68 0 0 1-.057-.306c0-.179.039-.346.114-.503.075-.157.178-.286.31-.39v-.128c0-.039.014-.067.047-.085l.028-.015c.018-.01.029-.01.036-.007.007.007.01.022.014.04v.12c.114-.056.207-.081.275-.063.032.007.05.032.05.082s-.007.11-.025.174c-.014.065-.036.107-.057.118a.171.171 0 0 1-.064.015.413.413 0 0 0-.183.053v.617l.022.004a.854.854 0 0 1 .207.039.27.27 0 0 1 .135.121c.04.064.058.16.058.296 0 .179-.036.35-.111.51-.075.165-.178.3-.31.414v.172c0 .042-.015.07-.047.092l-.028.018c-.011 0-.022 0-.029-.003Zm-.014-2.19a.448.448 0 0 0-.125.321c0 .106.043.167.128.188v-.51h-.003Zm.217 1.355a.543.543 0 0 0 .032-.182c0-.068-.01-.114-.032-.14a.183.183 0 0 0-.092-.053v.528a.442.442 0 0 0 .092-.153ZM98.448 42.155a.532.532 0 0 1-.018-.146c0-.025.003-.043.01-.057l.557-1.402c.043-.11.075-.2.093-.264a.666.666 0 0 0 .025-.178c0-.086-.022-.143-.061-.164-.04-.022-.096-.015-.168.024a.547.547 0 0 0-.132.108c-.039.042-.075.092-.117.15a.33.33 0 0 1-.061.074c-.029.015-.054.007-.082-.028a.184.184 0 0 1-.04-.114c0-.058.026-.118.072-.19a.959.959 0 0 1 .182-.203c.071-.064.146-.117.218-.16.156-.093.281-.11.374-.054.09.057.136.171.136.35 0 .103-.015.21-.047.32-.032.111-.085.261-.164.447l-.4 1.016.55-.317c.025-.014.04-.014.05.004.01.014.018.05.018.1v.05c0 .05-.007.092-.018.12a.131.131 0 0 1-.05.065l-.885.51c-.017.007-.032-.01-.042-.06ZM99.63 41.52c-.01-.018-.014-.05-.014-.1v-.05c0-.05.003-.093.014-.117a.114.114 0 0 1 .05-.065l.289-.167v-1.606l-.304.24c-.025.014-.042 0-.053-.05a.701.701 0 0 1-.014-.154c0-.043.017-.082.057-.118l.538-.453c.022-.01.04-.014.061-.01.021.003.032.014.032.035v1.934l.236-.136c.025-.014.039-.01.05.004.01.014.014.05.014.1v.05c0 .05-.004.092-.014.12a.136.136 0 0 1-.05.065l-.842.485c-.025.014-.04.01-.05-.007ZM100.956 40.785a.302.302 0 0 1-.157.007c-.035-.014-.057-.039-.057-.078 0-.032.014-.09.043-.164.029-.079.053-.122.075-.136.003-.004.025-.004.057.004a.401.401 0 0 0 .111-.004.445.445 0 0 0 .317-.264.757.757 0 0 0 .071-.328c0-.268-.099-.343-.299-.228l-.221.128c-.033.018-.054.021-.068.01-.011-.01-.018-.038-.018-.085l.046-1.01c0-.046.011-.081.025-.11a.17.17 0 0 1 .072-.068l.652-.378c.025-.014.04-.01.05.007.011.018.015.05.015.1v.071a.25.25 0 0 1-.015.1.122.122 0 0 1-.05.057l-.456.264-.029.568.065-.036c.367-.214.552-.075.552.414 0 .257-.053.478-.164.656-.11.179-.242.314-.396.403a.898.898 0 0 1-.221.1ZM101.895 40.158v-.279c0-.06.042-.117.128-.167l.071-.04c.086-.05.129-.042.129.022v.278c0 .064-.043.121-.129.171l-.071.04c-.086.046-.128.039-.128-.025ZM102.621 39.761c-.075-.018-.136-.078-.182-.182-.047-.103-.068-.25-.068-.438 0-.353.054-.671.164-.96.107-.289.229-.52.357-.7.128-.174.218-.277.267-.31.033-.017.061-.003.079.043a.325.325 0 0 1 .028.136c0 .018 0 .032-.003.04a.17.17 0 0 1-.021.035c-.132.139-.239.3-.325.47a2.094 2.094 0 0 0-.182.554.744.744 0 0 1 .232-.222.267.267 0 0 1 .196-.039c.064.01.118.057.157.14.043.081.061.2.061.356 0 .16-.025.31-.072.446-.046.14-.107.253-.185.353a.983.983 0 0 1-.25.225c-.093.053-.178.071-.253.053Zm.396-.578a.793.793 0 0 0 .057-.31c0-.114-.022-.196-.061-.235-.039-.043-.093-.047-.153-.011a.538.538 0 0 0-.168.168c-.003.042-.003.107-.003.192 0 .175.017.293.053.346.036.057.079.068.136.036a.38.38 0 0 0 .139-.185Z"/><path fill="#000" d="M87 111.216v-8.551c0-.203.143-.449.317-.549l20.434-11.79c.175-.1.317-.018.317.182v8.55c0 .204-.142.45-.317.55l-20.434 11.79c-.174.103-.317.021-.317-.182Z" opacity=".15"/><path fill="#FC6161" d="m108.856 90.967-20.433 11.79a.7.7 0 0 0-.317.55v8.55c0 .204.142.446.317.546l1.138.639c.175.1.46.096.635-.004l20.433-11.79a.699.699 0 0 0 .318-.549v-8.55a.692.692 0 0 0-.318-.547l-1.138-.638a.71.71 0 0 0-.635.003Z"/><path fill="#FC6161" d="M89.879 112.856v-8.551a.7.7 0 0 1 .317-.55l20.434-11.79c.175-.1.317-.017.317.182v8.551c0 .204-.142.45-.317.55l-20.434 11.789c-.174.1-.317.018-.317-.181Z"/><path fill="#000" d="M90.196 113.039c-.168.096-.478.1-.635.003l-1.135-.638a.697.697 0 0 1-.32-.546v-8.551c0-.107.039-.221.1-.325l1.765 1.01a.647.647 0 0 0-.093.31v8.551c0 .186.132.293.318.186Z" opacity=".2"/><path fill="#fff" d="M110.941 92.091c-.025-.16-.157-.217-.314-.124L90.193 103.76a.633.633 0 0 0-.224.239l-1.77-1.01a.598.598 0 0 1 .218-.224l20.433-11.794a.71.71 0 0 1 .635-.003l1.135.638a.676.676 0 0 1 .321.485Z" opacity=".4"/><path fill="#FAFAFA" d="M97.195 101.884c.428-.246.76-.306.999-.171.235.132.356.457.356.978 0 .517-.117.984-.356 1.395-.236.41-.571.738-.999.988l-.85.488v1.577a.322.322 0 0 1-.042.157.26.26 0 0 1-.1.114l-.431.25c-.04.021-.072.021-.1 0-.029-.021-.043-.057-.043-.111v-4.569a.35.35 0 0 1 .043-.161.267.267 0 0 1 .1-.114l1.423-.821Zm-.85 2.79.825-.474c.2-.118.364-.264.482-.439.12-.175.181-.396.181-.66s-.06-.414-.181-.446c-.122-.032-.282.011-.482.128l-.824.475v1.416ZM100.649 99.89c.057-.032.1-.036.129-.014a.3.3 0 0 1 .075.139l1.302 3.721a.333.333 0 0 1-.039.203.271.271 0 0 1-.1.114l-.382.221c-.071.04-.121.05-.15.025a.188.188 0 0 1-.057-.082l-.228-.653-1.677.967-.228.917a.727.727 0 0 1-.057.15.371.371 0 0 1-.15.146l-.382.221c-.039.022-.071.022-.1 0-.028-.021-.043-.057-.043-.11 0-.018 0-.036.004-.054l1.302-5.222c.022-.093.047-.168.075-.225.029-.057.071-.1.128-.132l.578-.332Zm.293 2.936-.585-1.68-.585 2.354 1.17-.674ZM105.052 97.347c.04-.021.072-.021.1 0 .029.022.043.057.043.11a.22.22 0 0 1-.011.072l-1.259 3.674v1.556a.343.343 0 0 1-.043.16.253.253 0 0 1-.1.114l-.424.247c-.039.021-.071.021-.1 0-.028-.022-.043-.058-.043-.111v-1.555l-1.259-2.223a.138.138 0 0 1-.011-.057c0-.053.015-.103.043-.16a.271.271 0 0 1 .1-.115l.4-.231c.071-.04.124-.047.157-.022.035.029.057.05.064.068l.859 1.505.86-2.5a.819.819 0 0 1 .064-.143.423.423 0 0 1 .161-.164l.399-.225Z"/><path fill="#FC6161" d="M82.847 123.83c-.749-1.266-1.997-2.454-3.745-3.464-6.122-3.535-16.046-3.535-22.171 0-1.748 1.01-2.997 2.198-3.746 3.464h-.845v3.204h.01c.115 2.226 1.638 4.434 4.581 6.132 6.121 3.535 16.046 3.535 22.17 0 2.944-1.698 4.478-3.906 4.592-6.132v-3.204h-.846Z"/><path fill="#000" d="M82.847 123.83c-.749-1.266-1.997-2.454-3.745-3.464-6.122-3.535-16.046-3.535-22.171 0-1.748 1.01-2.997 2.198-3.746 3.464h-.845v3.204h.01c.115 2.226 1.638 4.434 4.581 6.132 6.121 3.535 16.046 3.535 22.17 0 2.944-1.698 4.478-3.906 4.592-6.132v-3.204h-.846Z" opacity=".25"/><path fill="#000" d="M68.018 117.716c-4.013 0-8.023.885-11.087 2.65-1.748 1.01-2.997 2.198-3.746 3.464h-.845v3.204h.01c.115 2.226 1.638 4.434 4.581 6.132 3.06 1.766 7.074 2.65 11.087 2.65v-18.1Z" opacity=".1"/><path fill="#000" d="M59.457 119.186c-.892.335-1.74.727-2.522 1.18-1.748 1.01-2.997 2.198-3.746 3.464h-.845v3.204h.01c.115 2.226 1.638 4.434 4.58 6.132.786.453 1.631.845 2.523 1.181v-15.161Z" opacity=".1"/><path fill="#FC6161" d="M76.578 119.186c.892.335 1.741.727 2.522 1.18 1.748 1.01 2.993 2.198 3.746 3.464h.845v3.204c-.114 2.226-1.648 4.434-4.59 6.132-.786.453-1.631.845-2.523 1.181v-15.161Z" opacity=".5"/><path fill="#FC6161" d="M56.927 117.43c-6.121 3.535-6.121 9.264 0 12.8 5.358 3.092 13.624 3.478 19.71 1.159l.242-.093a16.68 16.68 0 0 0 2.215-1.066c5.105-2.947 5.954-7.42 2.544-10.877v-.004c-.678-.688-1.527-1.334-2.54-1.922-6.122-3.532-16.046-3.532-22.17.003Z"/><path fill="#000" d="M56.927 117.43c-6.121 3.535-6.121 9.264 0 12.8 5.358 3.092 13.624 3.478 19.71 1.159l.242-.093a16.68 16.68 0 0 0 2.215-1.066c5.105-2.947 5.954-7.42 2.544-10.877v-.004c-.678-.688-1.527-1.334-2.54-1.922-6.122-3.532-16.046-3.532-22.17.003Z" opacity=".2"/><path fill="#F5F5F5" d="M81.642 119.354c.064.074 2.208 2.333 1.64 5.582-.542 3.111-4.897 5.729-6.4 6.357.778-.31 1.524-.663 2.216-1.066 5.105-2.943 5.954-7.417 2.544-10.873ZM54.385 128.307c-.064-.075-2.208-2.333-1.64-5.583.541-3.111 4.897-5.729 6.399-6.357a16.81 16.81 0 0 0-2.215 1.067c-5.109 2.943-5.954 7.42-2.544 10.873Z" opacity=".5"/><path fill="#FC6161" d="M78.337 129.766c5.69-3.285 5.69-8.611 0-11.897-5.69-3.285-14.919-3.285-20.609 0-5.69 3.286-5.69 8.612 0 11.897 5.69 3.286 14.915 3.286 20.609 0Z"/><path fill="#fff" d="M78.337 129.766c5.69-3.285 5.69-8.611 0-11.897-5.69-3.285-14.919-3.285-20.609 0-5.69 3.286-5.69 8.612 0 11.897 5.69 3.286 14.915 3.286 20.609 0Z" opacity=".4"/><path fill="#fff" d="M81.944 126.331c1.17-2.166.789-4.552-1.145-6.575a9.803 9.803 0 0 0-1.234-1.081c-.36-.271-.756-.528-1.18-.777-.233-.136-.472-.264-.718-.389.607.995.385 2.065-3.05 2.265-6.717.392 1.794 6.81 1.794 6.81s4.331-2.09 5.533-.253Z" opacity=".2"/><path fill="#fff" d="M81.249 124.555c1.01-.115 1.509-1.149 1.116-2.316-.392-1.166-1.526-2.019-2.532-1.905-1.01.115-1.51 1.149-1.117 2.316.392 1.166 1.527 2.019 2.533 1.905Z" opacity=".5"/><path fill="#FC6161" d="M70.627 129.906c-.332-2.494-11.234-9.4-11.234-9.4s-2.418-.97-1.616-2.661a12.236 12.236 0 0 0-1.876 1.312c-3.246 2.812-3.25 6.504 0 9.315.217.192.456.378.706.56.336.242.692.478 1.081.703.371.217.756.417 1.156.606a17.156 17.156 0 0 0 2.005.792 21.54 21.54 0 0 0 3.253.781 24.786 24.786 0 0 0 3.985.311 24.53 24.53 0 0 0 3.977-.329c.007.007-1.748-.353-1.437-1.99Z"/><path fill="#fff" d="M70.627 129.906c-.332-2.494-11.234-9.4-11.234-9.4s-2.418-.97-1.616-2.661a12.236 12.236 0 0 0-1.876 1.312c-3.246 2.812-3.25 6.504 0 9.315.217.192.456.378.706.56.336.242.692.478 1.081.703.371.217.756.417 1.156.606a17.156 17.156 0 0 0 2.005.792 21.54 21.54 0 0 0 3.253.781 24.786 24.786 0 0 0 3.985.311 24.53 24.53 0 0 0 3.977-.329c.007.007-1.748-.353-1.437-1.99Z" opacity=".3"/><path fill="#FC6161" d="M60.35 119.386c-4.066 2.347-4.23 6.093-.495 8.558.157.103.324.206.5.306 4.237 2.447 11.111 2.447 15.35 0 4.237-2.447 4.24-6.417 0-8.864-.172-.1-.354-.197-.532-.289-4.267-2.155-10.756-2.059-14.822.289Z"/><path fill="#000" d="M60.35 119.386c-4.066 2.347-4.23 6.093-.495 8.558.157.103.324.206.5.306 4.237 2.447 11.111 2.447 15.35 0 4.237-2.447 4.24-6.417 0-8.864-.172-.1-.354-.197-.532-.289-4.267-2.155-10.756-2.059-14.822.289Z" opacity=".2"/><path fill="#FC6161" d="M68.034 129.805c5.73 0 10.377-2.681 10.377-5.989s-4.646-5.99-10.377-5.99c-5.732 0-10.378 2.682-10.378 5.99 0 3.308 4.646 5.989 10.378 5.989Z"/><path fill="#000" d="M68.034 129.805c5.73 0 10.377-2.681 10.377-5.989s-4.646-5.99-10.377-5.99c-5.732 0-10.378 2.682-10.378 5.99 0 3.308 4.646 5.989 10.378 5.989Z" opacity=".5"/><path fill="#FC6161" d="M60.694 121.251c4.052-2.34 10.623-2.34 14.676 0 1.658.956 2.636 2.158 2.935 3.4-.303 1.245-1.28 2.443-2.935 3.399-4.053 2.341-10.624 2.341-14.676 0-1.66-.956-2.637-2.158-2.936-3.399.3-1.242 1.277-2.444 2.936-3.4Z"/><path fill="#000" d="M60.694 121.251c4.052-2.34 10.623-2.34 14.676 0 1.658.956 2.636 2.158 2.935 3.4-.303 1.245-1.28 2.443-2.935 3.399-4.053 2.341-10.624 2.341-14.676 0-1.66-.956-2.637-2.158-2.936-3.399.3-1.242 1.277-2.444 2.936-3.4Z" opacity=".35"/><path fill="#FC6161" d="M74.564 125.621c0-.203.003-1.027 0-1.238-.004-.506-.354-.999-1.11-1.445-.007-.007-.018-.01-.025-.018-1.395-.806-2.832-.699-4.117-.378h-.01c-.546.139-1.063.314-1.538.478-.653.229-1.188.411-1.648.51h-.003c-.286.061-.543.09-.785.075a1.712 1.712 0 0 1-.65-.171c.018-.011.033-.025.05-.035.05-.036.108-.068.165-.1.146-.086.288-.157.435-.218a3.016 3.016 0 0 1 2.308-.053l1.33-1.342v-1.231a6.355 6.355 0 0 0-3.638-.132 7.315 7.315 0 0 0-1.156.4l-1.33-.767-1.588.917v1.231l.542.313c-.157.243-.235.482-.232.718 0 .203.004 1.023 0 1.23 0 .51.364.999 1.131 1.441a4.608 4.608 0 0 0 2.194.632c.146.007.293.003.439 0 .83-.039 1.626-.261 2.354-.51.157-.054.307-.104.457-.157l-1.338 1.341v1.231c1.89.756 3.735.399 5.13-.221l1.313.759 1.587-.916v-1.231l-.546-.314c.19-.264.279-.535.279-.799Zm-3.347-.104a3.43 3.43 0 0 1-2.965.225c1.242-.439 2.284-.82 3.169-.349-.065.039-.132.082-.204.124Z"/><path fill="#FC6161" d="M69.312 122.546h-.01c-.546.139-1.063.314-1.538.478-.653.229-1.188.411-1.648.51h-.003c-.286.061-.543.09-.785.075a1.657 1.657 0 0 1-.757-.224c-.51-.297-.584-.728.157-1.213a4.199 4.199 0 0 1 .6-.318 3.02 3.02 0 0 1 2.308-.053l1.33-1.342a6.355 6.355 0 0 0-3.638-.132 7.315 7.315 0 0 0-1.156.4l-1.33-.767-1.588.917 1.316.76-.01.01c-1.335 1.013-1.363 2.066.139 2.933a4.618 4.618 0 0 0 2.194.631c.146.007.292.004.438 0 .831-.039 1.627-.26 2.355-.51 1.523-.51 2.757-1.11 3.785-.517.688.396.495.895-.257 1.33a3.402 3.402 0 0 1-3.01.204l-1.396 1.398c1.89.756 3.735.4 5.13-.221l1.313.76 1.587-.917-1.313-.76c1.32-1.024 1.474-2.137-.07-3.039-.008-.007-.019-.011-.026-.018-1.395-.803-2.836-.696-4.117-.375Z"/><path fill="#fff" d="M69.312 122.546h-.01c-.546.139-1.063.314-1.538.478-.653.229-1.188.411-1.648.51h-.003c-.286.061-.543.09-.785.075a1.657 1.657 0 0 1-.757-.224c-.51-.297-.584-.728.157-1.213a4.199 4.199 0 0 1 .6-.318 3.02 3.02 0 0 1 2.308-.053l1.33-1.342a6.355 6.355 0 0 0-3.638-.132 7.315 7.315 0 0 0-1.156.4l-1.33-.767-1.588.917 1.316.76-.01.01c-1.335 1.013-1.363 2.066.139 2.933a4.618 4.618 0 0 0 2.194.631c.146.007.292.004.438 0 .831-.039 1.627-.26 2.355-.51 1.523-.51 2.757-1.11 3.785-.517.688.396.495.895-.257 1.33a3.402 3.402 0 0 1-3.01.204l-1.396 1.398c1.89.756 3.735.4 5.13-.221l1.313.76 1.587-.917-1.313-.76c1.32-1.024 1.474-2.137-.07-3.039-.008-.007-.019-.011-.026-.018-1.395-.803-2.836-.696-4.117-.375Z" opacity=".3"/><path fill="#F5F5F5" d="m61.258 120.881 1.601-.728 1.317.578-1.33-.767-1.588.917ZM65.144 120.381c.857-.185 2.24-.239 3.414.114l-.92 1.31 1.33-1.342c-1.42-.453-2.671-.421-3.824-.082ZM73.43 122.924a.13.13 0 0 1 .024.018c1.541.903 1.391 2.016.072 3.04 1.17-1.274.96-2.166-.314-2.897-1.27-.731-2.894-.724-3.9-.532 1.281-.328 2.722-.435 4.117.371Z" opacity=".45"/><path fill="#F5F5F5" d="m73.525 125.979 1.01.774-1.281.902 1.587-.917-1.316-.759ZM70.843 125.7c-1.395.66-2.53.221-2.53.221l-1.508 1.199 1.394-1.398a3.422 3.422 0 0 0 2.644-.022ZM66.111 123.538c-.599.236-1.466.196-1.901-.182-.46-.396-.164-.817.52-1.184-.741.489-.666.92-.156 1.213.239.139.485.21.756.224.24.018.496-.01.781-.071ZM62.56 121.647c-.113.1-1.066.992-.645 1.88.45.949 1.848 1.559 2.979 1.684a4.629 4.629 0 0 1-2.194-.631c-1.502-.867-1.473-1.916-.14-2.933Z" opacity=".45"/><path fill="#FC6161" d="M81.05 119.043c-.749-1.266-1.997-2.454-3.745-3.464-6.122-3.535-16.046-3.535-22.17 0-1.749 1.01-2.997 2.198-3.747 3.464h-.845v3.203h.01c.115 2.226 1.638 4.435 4.581 6.133 6.122 3.535 16.046 3.535 22.17 0 2.944-1.698 4.478-3.907 4.592-6.133v-3.203h-.846Z"/><path fill="#000" d="M81.05 119.043c-.749-1.266-1.997-2.454-3.745-3.464-6.122-3.535-16.046-3.535-22.17 0-1.749 1.01-2.997 2.198-3.747 3.464h-.845v3.203h.01c.115 2.226 1.638 4.435 4.581 6.133 6.122 3.535 16.046 3.535 22.17 0 2.944-1.698 4.478-3.907 4.592-6.133v-3.203h-.846Z" opacity=".25"/><path fill="#000" d="M66.225 112.929c-4.013 0-8.023.884-11.087 2.65-1.748 1.01-2.996 2.198-3.746 3.464h-.845v3.203h.01c.115 2.226 1.638 4.435 4.581 6.133 3.06 1.765 7.074 2.65 11.087 2.65v-18.1Z" opacity=".1"/><path fill="#000" d="M57.66 114.398c-.892.336-1.74.728-2.522 1.181-1.748 1.01-2.996 2.198-3.746 3.464h-.845v3.203h.01c.115 2.226 1.638 4.435 4.581 6.133a17 17 0 0 0 2.522 1.18v-15.161Z" opacity=".1"/><path fill="#FC6161" d="M74.781 114.398c.892.336 1.741.728 2.522 1.181 1.748 1.01 2.997 2.198 3.746 3.464h.845v3.203c-.114 2.226-1.648 4.435-4.59 6.133a17 17 0 0 1-2.523 1.18v-15.161Z" opacity=".5"/><path fill="#FC6161" d="M55.134 112.643c-6.121 3.535-6.121 9.264 0 12.8 5.358 3.092 13.624 3.478 19.71 1.159l.242-.093c.778-.31 1.523-.663 2.215-1.066 5.105-2.947 5.954-7.42 2.544-10.877v-.004c-.678-.688-1.527-1.334-2.54-1.923-6.122-3.531-16.05-3.531-22.17.004Z"/><path fill="#000" d="M55.134 112.643c-6.121 3.535-6.121 9.264 0 12.8 5.358 3.092 13.624 3.478 19.71 1.159l.242-.093c.778-.31 1.523-.663 2.215-1.066 5.105-2.947 5.954-7.42 2.544-10.877v-.004c-.678-.688-1.527-1.334-2.54-1.923-6.122-3.531-16.05-3.531-22.17.004Z" opacity=".2"/><path fill="#F5F5F5" d="M79.845 114.566c.064.075 2.208 2.333 1.64 5.583-.542 3.111-4.897 5.729-6.4 6.357.779-.31 1.524-.663 2.216-1.066 5.109-2.943 5.954-7.417 2.544-10.874ZM52.591 123.52c-.064-.075-2.208-2.333-1.64-5.583.541-3.111 4.897-5.729 6.399-6.357-.778.31-1.523.664-2.215 1.067-5.105 2.943-5.954 7.42-2.544 10.873Z" opacity=".5"/><path fill="#FC6161" d="M76.524 124.979c5.69-3.285 5.69-8.611 0-11.897-5.69-3.285-14.918-3.285-20.608 0-5.69 3.286-5.69 8.612 0 11.897 5.693 3.286 14.918 3.286 20.608 0Z"/><path fill="#fff" d="M76.524 124.979c5.69-3.285 5.69-8.611 0-11.897-5.69-3.285-14.918-3.285-20.608 0-5.69 3.286-5.69 8.612 0 11.897 5.693 3.286 14.918 3.286 20.608 0Z" opacity=".4"/><path fill="#fff" d="M80.132 121.544c1.17-2.166.788-4.552-1.145-6.575a9.803 9.803 0 0 0-1.234-1.081 13.416 13.416 0 0 0-1.898-1.166c.606.995.385 2.065-3.05 2.265-6.718.392 1.794 6.81 1.794 6.81s4.334-2.091 5.533-.253Z" opacity=".2"/><path fill="#fff" d="M79.436 119.767c1.01-.114 1.51-1.148 1.117-2.315-.393-1.166-1.527-2.019-2.533-1.905-1.01.115-1.509 1.149-1.117 2.316.39 1.166 1.524 2.019 2.533 1.904Z" opacity=".5"/><path fill="#FC6161" d="M68.814 125.119c-.332-2.494-11.233-9.4-11.233-9.4s-2.419-.97-1.616-2.661a12.236 12.236 0 0 0-1.877 1.312c-3.246 2.811-3.25 6.504 0 9.315.218.192.457.378.707.56.335.242.692.478 1.08.702.372.218.757.418 1.156.607a17.156 17.156 0 0 0 2.005.792 21.54 21.54 0 0 0 3.254.781 24.614 24.614 0 0 0 3.985.31 24.419 24.419 0 0 0 3.977-.328c.003.007-1.752-.353-1.438-1.99Z"/><path fill="#fff" d="M68.814 125.119c-.332-2.494-11.233-9.4-11.233-9.4s-2.419-.97-1.616-2.661a12.236 12.236 0 0 0-1.877 1.312c-3.246 2.811-3.25 6.504 0 9.315.218.192.457.378.707.56.335.242.692.478 1.08.702.372.218.757.418 1.156.607a17.156 17.156 0 0 0 2.005.792 21.54 21.54 0 0 0 3.254.781 24.614 24.614 0 0 0 3.985.31 24.419 24.419 0 0 0 3.977-.328c.003.007-1.752-.353-1.438-1.99Z" opacity=".3"/><path fill="#FC6161" d="M58.538 114.598c-4.067 2.348-4.23 6.093-.496 8.558.157.104.325.207.5.307 4.238 2.447 11.112 2.447 15.35 0 4.238-2.447 4.241-6.417 0-8.865a12.71 12.71 0 0 0-.532-.288c-4.263-2.155-10.755-2.059-14.822.288Z"/><path fill="#000" d="M58.538 114.598c-4.067 2.348-4.23 6.093-.496 8.558.157.104.325.207.5.307 4.238 2.447 11.112 2.447 15.35 0 4.238-2.447 4.241-6.417 0-8.865a12.71 12.71 0 0 0-.532-.288c-4.263-2.155-10.755-2.059-14.822.288Z" opacity=".2"/><path fill="#FC6161" d="M66.221 125.018c5.731 0 10.377-2.682 10.377-5.989 0-3.308-4.646-5.99-10.377-5.99-5.731 0-10.377 2.682-10.377 5.99 0 3.307 4.646 5.989 10.377 5.989Z"/><path fill="#000" d="M66.221 125.018c5.731 0 10.377-2.682 10.377-5.989 0-3.308-4.646-5.99-10.377-5.99-5.731 0-10.377 2.682-10.377 5.99 0 3.307 4.646 5.989 10.377 5.989Z" opacity=".5"/><path fill="#FC6161" d="M58.881 116.464c4.053-2.34 10.624-2.34 14.676 0 1.659.956 2.636 2.158 2.936 3.4-.303 1.245-1.28 2.443-2.936 3.399-4.052 2.341-10.623 2.341-14.676 0-1.659-.956-2.636-2.158-2.936-3.399.3-1.242 1.281-2.444 2.936-3.4Z"/><path fill="#000" d="M58.881 116.464c4.053-2.34 10.624-2.34 14.676 0 1.659.956 2.636 2.158 2.936 3.4-.303 1.245-1.28 2.443-2.936 3.399-4.052 2.341-10.623 2.341-14.676 0-1.659-.956-2.636-2.158-2.936-3.399.3-1.242 1.281-2.444 2.936-3.4Z" opacity=".35"/><path fill="#FC6161" d="M72.759 120.834c0-.204.003-1.028 0-1.238-.004-.507-.353-.999-1.11-1.445-.007-.007-.017-.01-.025-.018-1.394-.806-2.832-.699-4.116-.378h-.01c-.547.139-1.064.314-1.538.478-.653.229-1.188.41-1.649.51h-.003c-.286.061-.542.09-.785.075a1.712 1.712 0 0 1-.65-.171c.019-.011.033-.025.05-.036.05-.035.108-.067.165-.099a3.53 3.53 0 0 1 .435-.218 3.016 3.016 0 0 1 2.308-.054l1.33-1.341v-1.231a6.355 6.355 0 0 0-3.638-.132 7.315 7.315 0 0 0-1.156.4l-1.33-.767-1.588.917v1.23l.542.314c-.157.243-.235.482-.231.717 0 .204.003 1.024 0 1.231 0 .51.363.999 1.13 1.441a4.62 4.62 0 0 0 2.194.632c.147.007.293.003.44 0 .83-.04 1.626-.261 2.353-.51.157-.054.307-.104.457-.157l-1.338 1.341v1.231c1.891.756 3.735.399 5.13-.222l1.313.76 1.587-.916v-1.231l-.545-.314c.185-.264.278-.535.278-.799Zm-3.35-.104a3.43 3.43 0 0 1-2.964.225c1.241-.439 2.283-.82 3.167-.349-.064.039-.128.082-.203.124Z"/><path fill="#FC6161" d="M67.508 117.758h-.011c-.546.139-1.063.314-1.537.478-.653.229-1.188.41-1.649.51h-.003a2.942 2.942 0 0 1-.785.075 1.646 1.646 0 0 1-.756-.225c-.51-.296-.585-.727.157-1.212.05-.036.107-.068.164-.1a3.53 3.53 0 0 1 .435-.218 3.016 3.016 0 0 1 2.308-.053l1.33-1.342a6.355 6.355 0 0 0-3.638-.132 7.315 7.315 0 0 0-1.156.4l-1.33-.767-1.588.917 1.317.76-.011.01c-1.334 1.013-1.363 2.066.139 2.933a4.618 4.618 0 0 0 2.194.631c.146.007.292.004.439 0 .83-.039 1.626-.26 2.354-.51 1.523-.51 2.758-1.11 3.785-.517.689.396.496.895-.257 1.33a3.522 3.522 0 0 1-.367.186c-.967.413-1.962.314-2.644.018l-1.394 1.398c1.89.756 3.734.399 5.13-.221l1.312.76 1.588-.917-1.313-.76c1.32-1.02 1.473-2.133-.072-3.039-.007-.008-.017-.011-.025-.018-1.394-.803-2.832-.696-4.116-.375Z"/><path fill="#fff" d="M67.508 117.758h-.011c-.546.139-1.063.314-1.537.478-.653.229-1.188.41-1.649.51h-.003a2.942 2.942 0 0 1-.785.075 1.646 1.646 0 0 1-.756-.225c-.51-.296-.585-.727.157-1.212.05-.036.107-.068.164-.1a3.53 3.53 0 0 1 .435-.218 3.016 3.016 0 0 1 2.308-.053l1.33-1.342a6.355 6.355 0 0 0-3.638-.132 7.315 7.315 0 0 0-1.156.4l-1.33-.767-1.588.917 1.317.76-.011.01c-1.334 1.013-1.363 2.066.139 2.933a4.618 4.618 0 0 0 2.194.631c.146.007.292.004.439 0 .83-.039 1.626-.26 2.354-.51 1.523-.51 2.758-1.11 3.785-.517.689.396.496.895-.257 1.33a3.522 3.522 0 0 1-.367.186c-.967.413-1.962.314-2.644.018l-1.394 1.398c1.89.756 3.734.399 5.13-.221l1.312.76 1.588-.917-1.313-.76c1.32-1.02 1.473-2.133-.072-3.039-.007-.008-.017-.011-.025-.018-1.394-.803-2.832-.696-4.116-.375Z" opacity=".3"/><path fill="#F5F5F5" d="m59.457 116.093 1.605-.728 1.313.578-1.33-.767-1.588.917ZM63.352 115.593c.856-.185 2.24-.239 3.414.114l-.92 1.31 1.33-1.342c-1.42-.453-2.676-.421-3.824-.082ZM71.628 118.136a.133.133 0 0 1 .025.018c1.541.903 1.392 2.016.072 3.04 1.17-1.274.96-2.166-.314-2.897-1.27-.731-2.893-.724-3.9-.532 1.285-.328 2.723-.435 4.117.371Z" opacity=".45"/><path fill="#F5F5F5" d="m71.728 121.19 1.006.775-1.28.902 1.587-.917-1.313-.76ZM69.046 120.912c-1.395.66-2.53.221-2.53.221l-1.508 1.195 1.395-1.398c.677.296 1.676.396 2.643-.018ZM64.314 118.75c-.599.236-1.466.196-1.9-.182-.461-.396-.165-.817.52-1.184-.742.489-.667.92-.157 1.213.239.139.485.21.756.224.236.018.496-.01.781-.071ZM60.76 116.859c-.11.1-1.067.992-.646 1.88.45.949 1.848 1.559 2.979 1.684a4.63 4.63 0 0 1-2.194-.631c-1.502-.867-1.473-1.916-.139-2.933Z" opacity=".45"/><path fill="#FC6161" d="M52.596 114.042c.749-1.266 1.997-2.454 3.745-3.464 6.122-3.535 16.046-3.535 22.17 0 1.749 1.01 2.997 2.198 3.746 3.464h.846v3.203h-.01c-.115 2.226-1.638 4.435-4.581 6.133-6.122 3.535-16.046 3.535-22.17 0-2.944-1.698-4.478-3.907-4.592-6.133v-3.203h.846Z"/><path fill="#000" d="M52.596 114.042c.749-1.266 1.997-2.454 3.745-3.464 6.122-3.535 16.046-3.535 22.17 0 1.749 1.01 2.997 2.198 3.746 3.464h.846v3.203h-.01c-.115 2.226-1.638 4.435-4.581 6.133-6.122 3.535-16.046 3.535-22.17 0-2.944-1.698-4.478-3.907-4.592-6.133v-3.203h.846Z" opacity=".25"/><path fill="#000" d="M67.422 107.928c4.013 0 8.023.884 11.087 2.65 1.748 1.01 2.997 2.198 3.746 3.464h.845v3.204h-.01c-.115 2.226-1.638 4.434-4.581 6.132-3.06 1.766-7.074 2.65-11.087 2.65v-18.1Z" opacity=".1"/><path fill="#000" d="M75.988 109.397c.892.336 1.741.728 2.522 1.181 1.748 1.01 2.997 2.198 3.746 3.464h.846v3.204h-.011c-.114 2.226-1.638 4.434-4.58 6.132-.785.453-1.63.845-2.523 1.18v-15.161Z" opacity=".1"/><path fill="#FC6161" d="M58.863 109.397c-.892.336-1.74.728-2.522 1.181-1.748 1.01-2.993 2.198-3.745 3.464h-.846v3.204c.114 2.226 1.648 4.434 4.591 6.132.785.453 1.63.845 2.522 1.18v-15.161Z" opacity=".5"/><path fill="#FC6161" d="M78.501 107.645c6.121 3.535 6.121 9.264 0 12.799-5.358 3.093-13.624 3.479-19.71 1.16l-.242-.093a16.563 16.563 0 0 1-2.215-1.067c-5.105-2.946-5.954-7.42-2.544-10.876v-.004c.678-.688 1.527-1.334 2.54-1.923 6.125-3.531 16.05-3.531 22.171.004Z"/><path fill="#000" d="M78.501 107.645c6.121 3.535 6.121 9.264 0 12.799-5.358 3.093-13.624 3.479-19.71 1.16l-.242-.093a16.563 16.563 0 0 1-2.215-1.067c-5.105-2.946-5.954-7.42-2.544-10.876v-.004c.678-.688 1.527-1.334 2.54-1.923 6.125-3.531 16.05-3.531 22.171.004Z" opacity=".2"/><path fill="#F5F5F5" d="M53.79 109.569c-.064.075-2.208 2.333-1.64 5.583.542 3.111 4.897 5.729 6.4 6.357a16.563 16.563 0 0 1-2.216-1.067c-5.105-2.946-5.954-7.42-2.544-10.873ZM81.044 118.523c.064-.075 2.208-2.333 1.64-5.583-.541-3.111-4.897-5.729-6.399-6.357.778.31 1.523.664 2.216 1.067 5.104 2.943 5.953 7.416 2.543 10.873Z" opacity=".5"/><path fill="#FC6161" d="M67.436 122.443c8.048 0 14.572-3.767 14.572-8.412 0-4.646-6.524-8.412-14.572-8.412-8.048 0-14.573 3.766-14.573 8.412 0 4.645 6.525 8.412 14.573 8.412Z"/><path fill="#fff" d="M67.436 122.443c8.048 0 14.572-3.767 14.572-8.412 0-4.646-6.524-8.412-14.572-8.412-8.048 0-14.573 3.766-14.573 8.412 0 4.645 6.525 8.412 14.573 8.412Z" opacity=".4"/><path fill="#fff" d="M53.521 116.546c-1.17-2.166-.788-4.552 1.145-6.575.357-.375.77-.735 1.235-1.081a12.612 12.612 0 0 1 1.897-1.166c-.606.995-.385 2.065 3.05 2.265 6.718.392-1.794 6.81-1.794 6.81s-4.33-2.094-5.533-.253Z" opacity=".2"/><path fill="#fff" d="M54.22 114.769c-1.01-.114-1.51-1.148-1.117-2.315.392-1.166 1.526-2.019 2.532-1.905 1.01.114 1.51 1.149 1.117 2.315-.392 1.163-1.527 2.02-2.533 1.905Z" opacity=".5"/><path fill="#FC6161" d="M64.844 120.117c.332-2.494 11.233-9.4 11.233-9.4s2.419-.97 1.616-2.661a12.248 12.248 0 0 1 1.877 1.312c3.246 2.811 3.25 6.504 0 9.315a9.752 9.752 0 0 1-.707.56 12.52 12.52 0 0 1-1.08.702c-.371.218-.757.418-1.156.607a17.187 17.187 0 0 1-2.005.792c-1.035.339-2.13.599-3.254.781a24.614 24.614 0 0 1-3.985.31 24.419 24.419 0 0 1-3.977-.328c-.007.011 1.748-.349 1.438-1.99Z"/><path fill="#fff" d="M64.844 120.117c.332-2.494 11.233-9.4 11.233-9.4s2.419-.97 1.616-2.661a12.248 12.248 0 0 1 1.877 1.312c3.246 2.811 3.25 6.504 0 9.315a9.752 9.752 0 0 1-.707.56 12.52 12.52 0 0 1-1.08.702c-.371.218-.757.418-1.156.607a17.187 17.187 0 0 1-2.005.792c-1.035.339-2.13.599-3.254.781a24.614 24.614 0 0 1-3.985.31 24.419 24.419 0 0 1-3.977-.328c-.007.011 1.748-.349 1.438-1.99Z" opacity=".3"/><path fill="#FC6161" d="M75.115 109.6c4.067 2.348 4.231 6.093.496 8.558a8.962 8.962 0 0 1-.5.307c-4.237 2.447-11.111 2.447-15.35 0-4.237-2.447-4.24-6.417 0-8.865.172-.099.354-.196.532-.289 4.267-2.154 10.756-2.058 14.822.289Z"/><path fill="#000" d="M75.115 109.6c4.067 2.348 4.231 6.093.496 8.558a8.962 8.962 0 0 1-.5.307c-4.237 2.447-11.111 2.447-15.35 0-4.237-2.447-4.24-6.417 0-8.865.172-.099.354-.196.532-.289 4.267-2.154 10.756-2.058 14.822.289Z" opacity=".2"/><path fill="#FC6161" d="M74.766 109.796c4.052 2.34 4.052 6.132 0 8.472-4.053 2.341-10.623 2.341-14.676 0-4.052-2.34-4.052-6.132 0-8.472 4.056-2.34 10.623-2.34 14.676 0Z"/><path fill="#000" d="M74.766 109.796c4.052 2.34 4.052 6.132 0 8.472-4.053 2.341-10.623 2.341-14.676 0-4.052-2.34-4.052-6.132 0-8.472 4.056-2.34 10.623-2.34 14.676 0Z" opacity=".5"/><path fill="#FC6161" d="M74.768 111.466c-4.052-2.34-10.623-2.34-14.676 0-1.659.956-2.636 2.158-2.936 3.4.303 1.245 1.28 2.443 2.936 3.399 4.053 2.34 10.624 2.34 14.676 0 1.659-.956 2.636-2.158 2.94-3.399-.304-1.242-1.281-2.444-2.94-3.4Z"/><path fill="#000" d="M74.768 111.466c-4.052-2.34-10.623-2.34-14.676 0-1.659.956-2.636 2.158-2.936 3.4.303 1.245 1.28 2.443 2.936 3.399 4.053 2.34 10.624 2.34 14.676 0 1.659-.956 2.636-2.158 2.94-3.399-.304-1.242-1.281-2.444-2.94-3.4Z" opacity=".35"/><path fill="#FC6161" d="M73.962 115.836c0-.203.004-1.027 0-1.238-.004-.506-.353-1.002-1.11-1.444-.007-.008-.017-.011-.025-.018-1.394-.807-2.832-.7-4.116-.378h-.01c-.547.139-1.064.313-1.538.478-.653.228-1.188.41-1.648.51h-.004c-.285.06-.542.089-.785.075a1.733 1.733 0 0 1-.65-.172c.019-.01.033-.025.05-.035.05-.036.108-.068.165-.1a3.53 3.53 0 0 1 .435-.218 3.02 3.02 0 0 1 2.308-.053l1.33-1.342v-1.227a6.355 6.355 0 0 0-3.638-.132 7.315 7.315 0 0 0-1.156.4l-1.33-.767-1.588.917v1.23l.543.314c-.157.243-.236.482-.232.717 0 .204.003 1.024 0 1.231 0 .51.364.999 1.13 1.441a4.62 4.62 0 0 0 2.194.632c.147.007.293.003.44 0 .83-.04 1.626-.261 2.354-.511.157-.053.306-.103.456-.157l-1.338 1.342v1.231c1.891.756 3.736.399 5.13-.222l1.313.76 1.588-.917v-1.23l-.546-.314c.189-.271.282-.539.278-.803Zm-3.346-.107a3.43 3.43 0 0 1-2.964.225c1.24-.439 2.282-.821 3.167-.35l-.203.125Z"/><path fill="#FC6161" d="M68.71 112.759h-.01c-.546.139-1.063.314-1.537.478-.653.228-1.188.41-1.648.51h-.004a2.942 2.942 0 0 1-.785.075 1.647 1.647 0 0 1-.756-.225c-.51-.296-.585-.727.157-1.212a4.199 4.199 0 0 1 .6-.318 3.016 3.016 0 0 1 2.307-.053l1.33-1.342a6.355 6.355 0 0 0-3.638-.132 7.315 7.315 0 0 0-1.156.4l-1.33-.767-1.588.917 1.317.759-.011.011c-1.334 1.013-1.363 2.066.14 2.932a4.608 4.608 0 0 0 2.193.632c.146.007.293.003.439 0 .83-.039 1.626-.26 2.354-.51 1.523-.51 2.758-1.11 3.785-.517.689.396.496.895-.257 1.33a3.718 3.718 0 0 1-.367.186c-.967.413-1.962.314-2.644.017l-1.394 1.399c1.89.756 3.735.399 5.13-.221l1.312.76 1.588-.917-1.313-.76c1.32-1.02 1.473-2.133-.072-3.039-.007-.008-.017-.011-.025-.018-1.394-.803-2.832-.696-4.116-.375Z"/><path fill="#fff" d="M68.71 112.759h-.01c-.546.139-1.063.314-1.537.478-.653.228-1.188.41-1.648.51h-.004a2.942 2.942 0 0 1-.785.075 1.647 1.647 0 0 1-.756-.225c-.51-.296-.585-.727.157-1.212a4.199 4.199 0 0 1 .6-.318 3.016 3.016 0 0 1 2.307-.053l1.33-1.342a6.355 6.355 0 0 0-3.638-.132 7.315 7.315 0 0 0-1.156.4l-1.33-.767-1.588.917 1.317.759-.011.011c-1.334 1.013-1.363 2.066.14 2.932a4.608 4.608 0 0 0 2.193.632c.146.007.293.003.439 0 .83-.039 1.626-.26 2.354-.51 1.523-.51 2.758-1.11 3.785-.517.689.396.496.895-.257 1.33a3.718 3.718 0 0 1-.367.186c-.967.413-1.962.314-2.644.017l-1.394 1.399c1.89.756 3.735.399 5.13-.221l1.312.76 1.588-.917-1.313-.76c1.32-1.02 1.473-2.133-.072-3.039-.007-.008-.017-.011-.025-.018-1.394-.803-2.832-.696-4.116-.375Z" opacity=".3"/><path fill="#F5F5F5" d="m60.652 111.092 1.602-.725 1.316.578-1.33-.77-1.588.917ZM64.54 110.592c.855-.186 2.24-.239 3.413.114l-.92 1.309 1.33-1.341c-1.416-.45-2.672-.421-3.824-.082ZM72.824 113.139a.133.133 0 0 1 .025.018c1.54.903 1.39 2.016.071 3.039 1.17-1.273.96-2.165-.314-2.896-1.27-.732-2.893-.724-3.899-.532 1.284-.328 2.722-.435 4.117.371Z" opacity=".45"/><path fill="#F5F5F5" d="m72.923 116.192 1.006.774-1.28.903 1.587-.917-1.313-.76ZM70.241 115.914c-1.394.66-2.529.221-2.529.221l-1.509 1.199 1.395-1.399c.678.293 1.677.393 2.643-.021ZM65.51 113.753c-.6.235-1.466.196-1.902-.182-.46-.396-.164-.817.521-1.184-.742.488-.667.92-.157 1.213.24.139.485.21.757.224.235.018.492-.01.78-.071ZM61.955 111.862c-.11.1-1.066.992-.645 1.88.45.949 1.847 1.559 2.978 1.684a4.63 4.63 0 0 1-2.194-.631c-1.501-.867-1.473-1.92-.139-2.933Z" opacity=".45"/><path fill="#fff" d="m53.58 112.45.397-3 .392 3 5.194.229-5.194.224-.392 3-.396-3-5.194-.224 5.194-.229Z"/><path fill="#263238" d="m36.68 118.616 1.355-.657-1.33-.385-.025 1.042Z"/><path fill="#263238" d="M50.071 121.213s-15.9-7.348-16.106-6.271c-.046.239-.04.453.004.649a.94.94 0 0 0-.043-.057l.282 2.019s1.134.988 2.475 1.063c.004-.096.015-.699.025-1.041.432.185.878.406 1.402.759 1.017.689 1.666 1.884 2.743 3.272.785 1.013 2.19 1.491 4.278 1.805 2.243.335 4.227-.086 4.79-.689.447-.474.229-1.366.15-1.509Z"/><path fill="#FFA8A7" d="M49.629 120.835c-.154-.164-.717-.795-1.48-1.488-.671-.606-1.449-1.369-2.287-1.986-.336-.247-.85-.643-1.138-.957a13.115 13.115 0 0 1-.785-.941c-.763-1.021-1.38-2.137-1.901-3.296-.246-.55-.557-1.135-.66-1.731a11.121 11.121 0 0 1-.175-1.915c0-2.897.064-3.354.093-5.558l-6.742.178c.213 1.224.538 2.893.645 4.281.164 2.112.218 2.583-.617 4.68-.246.617-.61 1.213-.646 1.877-.057 1.081.778 2.019 1.72 2.55.778.443 1.676.639 2.433 1.11.795.496 1.409 1.241 1.972 1.976.532.696.956 1.513 1.71 2.005.83.546 1.626.717 2.593.92 1.109.236 2.54.268 3.488.2 1.649-.121 2.886-.721 1.777-1.905Z"/><path fill="#37474F" d="M48.726 119.65c-.685-.585-1.652-1.427-2.822-2.369-.26-.135-1.313-.396-2.476.211-2.38 1.237-2.793 3.01-2.793 3.01s.5 1.203 1.923 1.716c2.729 1.224 7.63.874 7.687-.396.036-.809-.692-1.459-1.52-2.172Zm-13.991-8.012s-.16.414-.585 1.227c-.425.813-.507 1.627.007 2.447.681 1.084 1.527 1.423 2.39 1.655.774-2.397-.867-4.801-1.812-5.329Z"/><path fill="#263238" d="M22.297 114.835c.453.724-.136 3.46-.032 5.408.092 1.769.563 4.855.021 6.603-.646 2.072-1.955 4.477-4.391 2.536-1.51-1.202-2.376-2.757-2.58-5.305-.142-1.769.564-4.22 1.17-6.392.71-2.536.978-3.892.978-3.892l4.834 1.042Z"/><path fill="#FFA8A7" d="M17.297 101.778c-.175 4.128.307 7.028.336 9.671-.029 1.231-.111 2.269-.378 3.571-.346 1.687-.935 4.031-1.185 5.126-.346 1.527-.606 2.49-.078 4.203.043.132.103.26.17.385.74 1.413 2.612 2.479 3.212 2.308.167.278.592.446 1.055.367a1.35 1.35 0 0 0 .4-.132c.4-.196.778-.599.999-1.298.035-.118.067-.239.096-.375.435-2.126.121-3.499.079-4.334-.047-.96.007-2.183.092-3.731.086-1.549.453-6.414.992-8.737.4-1.623.899-3.66 1.423-5.829l-7.213-1.195Z"/><path fill="#37474F" d="M15.703 122.133c1.477-.653 5.764-.742 6.446 1.345.018 1.966.028 3.296-1.21 5.005-1.648 2.272-3.799-.135-4.623-1.666-.824-1.53-.813-3.624-.613-4.684Z"/><path fill="#455A64" d="M22.88 47.858c-2.087 3.742-3.771 6.9-4.317 16.785-.613 11.158-.52 15.407-.574 16.755-.054 1.349-.92 3.817-1.659 10.449-.738 6.631.04 22.709.04 22.709s.52 1.085 3.056 1.331c2.34.228 3.714-.596 3.714-.596s3.717-21.111 4.634-25.1c.917-3.991 3.592-17.115 3.592-17.115l1.452 10.67s-.742 3.656-.068 9.481c.671 5.826 1.984 17.573 1.984 17.573s1.555.692 3.546.917c2.261.253 3.93-.453 3.93-.453s1.966-23.712 2.016-30.308c.05-6.596-.46-23.056-2.465-32.837l-18.881-.26Z"/><path fill="#37474F" d="M33.552 60.404 31.37 73.076l1.452 10.67-.57-10.81 1.943-10.395c1.595-.37 5.226-2.25 6.243-4.969-2.472 2.55-6.885 2.832-6.885 2.832Zm-7.38-7.47c.288-1.062.592-2.122.934-3.185-.606.942-1.063 1.973-1.455 3.018a28.812 28.812 0 0 0-.978 3.203 33.152 33.152 0 0 0-.628 3.286c-.153 1.102-.26 2.215-.246 3.335.275-1.084.532-2.158.785-3.235.26-1.074.503-2.151.77-3.218.261-1.074.536-2.137.818-3.203Zm-1.591-.81c.363-.648.73-1.298 1.063-1.983-.568.51-1.063 1.081-1.524 1.68-.46.6-.867 1.239-1.241 1.898-.36.664-.692 1.349-.945 2.066-.257.713-.457 1.452-.528 2.212l1.03-1.99c.35-.654.696-1.303 1.06-1.945.353-.65.724-1.288 1.085-1.937ZM22.947 94.47a405.066 405.066 0 0 0-1.795 10.316 390.109 390.109 0 0 0 2.333-10.206c.742-3.41 1.445-6.817 2.14-10.249.654-3.442 1.103-6.913 1.463-10.384.371-3.474.646-6.953.881-10.438-.506 3.453-.963 6.913-1.423 10.37-.474 3.453-.949 6.906-1.612 10.317a803.608 803.608 0 0 0-1.987 10.274Zm18.164-17.22c.058 1.513.136 3.036.1 4.53-.042 1.503-.146 3.026-.232 4.538l-.264 4.549a387.557 387.557 0 0 0-.428 9.11c.379-3.017.707-6.042.974-9.071.271-3.032.525-6.05.65-9.11.014-3.076-.225-6.097-.475-9.133-.26-3.032-.603-6.058-1.049-9.065l.503 9.104c.079 1.516.164 3.032.221 4.548Z"/><path fill="#FC6161" d="M36.992 27.007c2.883.877 4.242 1.33 5.861 4.555 1.334 2.654 2.333 5.833 3.967 10.292l8.783-.143-1.563 5.612s-5.25.816-7.948 1.148c-3.453.421-3.834.207-4.751-1.633-1.61-3.225-3.404-8.773-3.404-8.773l-.945-11.058Z"/><path fill="#000" d="M36.992 27.007c2.883.877 4.242 1.33 5.861 4.555 1.334 2.654 2.333 5.833 3.967 10.292l8.783-.143-1.563 5.612s-5.25.816-7.948 1.148c-3.453.421-3.834.207-4.751-1.633-1.61-3.225-3.404-8.773-3.404-8.773l-.945-11.058Z" opacity=".15"/><path fill="#000" d="M46.817 41.855c-1.49 0-3.464 1.509-3.731 3.46 0-1.926.735-3.678 3.428-4.292l.303.832Z" opacity=".15"/><path fill="#FC6161" d="M57.006 35.176h.011l-.514-.342v.007c-.114-.071-.281-.079-.485.003l-5.682 2.348c-.45.182-.9.717-1 1.191l-2.34 10.87c-.053.253.004.435.133.524h-.004l.528.353v-.007c.114.075.282.082.489-.003l5.682-2.348c.45-.182.9-.717 1-1.191.46-2.137 1.883-8.733 2.34-10.87.06-.264-.008-.453-.158-.535Z"/><path fill="#fff" d="M57.006 35.176h.011l-.514-.342v.007c-.114-.071-.281-.079-.485.003l-5.682 2.348c-.45.182-.9.717-1 1.191l-2.34 10.87c-.053.253.004.435.133.524h-.004l.528.353v-.007c.114.075.282.082.489-.003l5.682-2.348c.45-.182.9-.717 1-1.191.46-2.137 1.883-8.733 2.34-10.87.06-.264-.008-.453-.158-.535Z" opacity=".8"/><path fill="#FC6161" d="M50.337 37.89c-.235.24-.428.55-.489.839l-2.343 10.866c-.05.242-.004.424.114.517l-.496-.332.004-.003c-.132-.093-.186-.271-.136-.525l2.344-10.87c.057-.267.232-.552.45-.791l.552.3Z"/><path fill="#fff" d="M50.337 37.89c-.235.24-.428.55-.489.839l-2.343 10.866c-.05.242-.004.424.114.517l-.496-.332.004-.003c-.132-.093-.186-.271-.136-.525l2.344-10.87c.057-.267.232-.552.45-.791l.552.3Z" opacity=".6"/><path fill="#FC6161" d="m47.51 49.596 2.34-10.87c.103-.474.55-1.01.999-1.191l5.682-2.348c.45-.181.732.054.632.528l-2.34 10.87c-.104.474-.55 1.01-1 1.191l-5.682 2.348c-.453.185-.735-.05-.631-.528Z"/><path fill="#fff" d="m47.51 49.596 2.34-10.87c.103-.474.55-1.01.999-1.191l5.682-2.348c.45-.181.732.054.632.528l-2.34 10.87c-.104.474-.55 1.01-1 1.191l-5.682 2.348c-.453.185-.735-.05-.631-.528Z" opacity=".4"/><path fill="#455A64" d="m50.136 40.913.44-2.034a.354.354 0 0 1 .185-.224l.91-.371c.085-.036.135.01.117.1-.085.399-.353 1.633-.439 2.033a.354.354 0 0 1-.185.224l-.91.372c-.085.032-.135-.011-.118-.1Z"/><path fill="#263238" d="M50.681 39.339c.046-.218.26-.464.478-.553.218-.09.357.014.31.232-.046.217-.26.463-.478.553-.22.089-.356-.014-.31-.232ZM50.47 40.363c.046-.217.26-.463.478-.553.218-.089.357.015.31.232-.046.218-.26.464-.478.553-.217.09-.357-.014-.31-.232Z"/><path fill="#FFA8A7" d="M56.73 42.125c.428-.667.382-.753.114-1.067-.267-.318-.852-.828-1.694-.76-.564.046-1.138.064-1.423.232-.286.168-.004.767.742.895 1.177.2 1.184.518 1.184.518s-1.084-.182-1.516-.186c-.432 0-1.206.243-1.691.346-.485.104-.55.742.293.913l-.892.193c-.625.132-.82.478-.307.842a.93.93 0 0 0 .581.185s-.67.036-.67.257c-.007.642.417.785 1.79 1.11 1.31.306 1.613.988 1.381 1.48 0 0 .503-.328.949-.674.328-.253.6-.532.42-1.053 0 0 .74-.024.76-.481.022-.457-.228-.967-.228-.967s.421-.235.368-.777c-.054-.543-.31-.789-.31-.789l.15-.217Z"/><path fill="#F28F8F" d="M52.742 43.02c.268-.054.521-.129.81-.132.3.01.553.121.803.21.499.196.995.407 1.462.689a9.415 9.415 0 0 1-1.544-.464c-.25-.096-.496-.207-.735-.246-.243-.032-.528-.022-.796-.057ZM52.129 44.236c.275-.096.589-.121.881-.071.296.039.578.128.853.22.549.197 1.08.433 1.58.743-.57-.136-1.117-.328-1.659-.517-.546-.19-1.066-.393-1.655-.375Z"/><path fill="#263238" d="M24.004 10.526c-1.534 1.563-1.69 4.056-1.098 6.129.278.967.88 1.887 1.398 2.743a25.317 25.317 0 0 0 3.118 4.135c.47.51.96.895 1.637 1.084 1.092.303 2.219.478 3.35.532.46.021.93.15 1.248-.2.293-.321.407-.856.543-1.256a16.28 16.28 0 0 1 2.061-4.084c.735-1.053 1.716-2.519 2.876-3.086.481-.235 1.02-.542 1.106-1.07-.1.581.267 1.209.827 1.405-.331-.224-.306-.738-.11-1.088.196-.35.517-.617.706-.97a1.567 1.567 0 0 0-.043-1.52c.443.2.62.82.357 1.224.45-.246.749-.75.749-1.263.004-1.224-1.263-1.609-1.805-2.536-.257-.44-.253-.942-.425-1.406a9.955 9.955 0 0 0-.463-1.08 5.886 5.886 0 0 0-1.466-1.845c-2.326-1.966-5.705-1.84-8.466-1.017-1.316.393-2.686 1.063-3.606 2.084-.617.613-1.078 1.28-1.277 2.147-.482.271-.889.564-1.217.938Z"/><path fill="#FAFAFA" d="M20.117 52.834c-2.005-.945.189-2.265.624-8.397.114-1.58-.417-5.497-.417-5.497s1.644-3.157.72-10.784l5.583-1.427 7.466-.532 2.9 1.063c.96.86 2.719 2.223 4.114 4.285 2.012 2.975 2.315 6.21.146 8.575-.032.468.271 7.642.856 9.393.542 1.627.66 1.812-.217 2.537-2.758 2.004-18.226 2.147-21.775.784Z"/><path fill="#FC6161" d="m34.09 26.19 2.9.813c2.686 2.119 5.854 5.804 5.975 8.668.122 2.865-.5 4.795-.5 4.795s-.306 5.936.293 9.021c.6 3.086 2.012 10.563 2.012 10.563s-1.534 1.58-3.83 2.17c-.618-3.957-2.038-18.9-1.87-22.368.171-3.467.282-9.171-4.98-13.662Z"/><path fill="#000" d="m34.09 26.19 2.9.813c2.686 2.119 5.854 5.804 5.975 8.668.122 2.865-.5 4.795-.5 4.795s-.306 5.936.293 9.021c.6 3.086 2.012 10.563 2.012 10.563s-1.534 1.58-3.83 2.17c-.618-3.957-2.038-18.9-1.87-22.368.171-3.467.282-9.171-4.98-13.662Z" opacity=".3"/><path fill="#000" d="M39.648 41.74c.246-.918.51-1.827.781-2.737.275-.906.532-1.82.778-2.732.117-.457.232-.917.289-1.37.078-.432-.221-.803-.521-1.149-.62-.685-1.377-1.27-2.144-1.805l-.071-.05.017-.086c.1-.481.093-1.006.025-1.505a3.885 3.885 0 0 0-.492-1.427 4.502 4.502 0 0 0-1.045-1.116 7.166 7.166 0 0 0-1.324-.814c.49.186.953.432 1.384.731.436.297.828.66 1.131 1.103.29.453.478.96.575 1.484a4.477 4.477 0 0 1-.004 1.602l-.053-.136c.788.542 1.559 1.11 2.211 1.834.16.181.31.378.432.602.036.05.053.118.079.179.024.06.05.121.056.192.033.143.015.268.008.393-.064.485-.19.945-.314 1.405-.25.92-.56 1.816-.86 2.719-.307.895-.628 1.787-.938 2.682Z" opacity=".2"/><path fill="#FC6161" d="M26.624 26.725s1.159 1.562 2.664 5.208c1.506 3.65 2.961 6.963 2.861 10.313-.1 3.346-1.755 20.747-1.755 20.747s-4.045.047-9.25-.649l.557-5.811-1.755 5.051-2.669-1.145c1.356-5.519 2.654-10.495 2.836-13.802.182-3.307.753-18.607.753-18.607l5.758-1.305Z"/><path fill="#000" d="M26.624 26.725s1.159 1.562 2.664 5.208c1.506 3.65 2.961 6.963 2.861 10.313-.1 3.346-1.755 20.747-1.755 20.747s-4.045.047-9.25-.649l.557-5.811-1.755 5.051-2.669-1.145c1.356-5.519 2.654-10.495 2.836-13.802.182-3.307.753-18.607.753-18.607l5.758-1.305Z" opacity=".3"/><path fill="#000" d="M31.497 43.227c-.25-.866-.745-1.62-1.27-2.34a27.749 27.749 0 0 0-1.69-2.08 59.465 59.465 0 0 0-.889-1.005l-.453-.5c-.075-.089-.15-.164-.228-.264-.018-.028-.04-.039-.057-.078a.986.986 0 0 1-.054-.129c-.021-.082-.018-.15-.021-.224.068-.521.292-.914.496-1.324.22-.4.456-.785.713-1.163l.018.225-1.341-1.416-.668-.714-.163-.178-.083-.09c-.025-.035-.05-.038-.114-.142-.05-.136-.028-.214-.028-.307.007-.089.018-.171.032-.257.121-.656.307-1.284.51-1.908.207-.62.414-1.241.653-1.852-.168.632-.343 1.263-.5 1.895-.15.631-.32 1.266-.406 1.901-.018.146-.029.342-.004.41-.021-.035.014.018.047.043l.085.086.175.175.692.699 1.377 1.409.096.1-.082.121c-.242.367-.47.753-.678 1.142-.2.381-.417.795-.47 1.173.003.036 0 .082.007.107.007.007.007.018.007.029 0 .01.028.039.039.057.06.078.14.164.207.25l.442.506c.296.339.592.678.878 1.024.567.699 1.116 1.416 1.612 2.172.25.378.471.77.67 1.178.208.4.368.827.443 1.27Z" opacity=".2"/><path fill="#F28F8F" d="M34.215 36.917c1.206-1.048 1.823-1.466 2.404-1.676.582-.214 2.608-1.242 3.393-1.498.5-.165.763.627.16 1.23-.467.464-1.72 1.124-2.261 1.477-.546.353-1.56 1.794-1.56 1.794l-2.136-1.327Z"/><path fill="#FFA8A7" d="M15.798 32.059c1.063-2.794 2.122-3.136 5.161-3.721 3.093 2.593 1.231 9.057 1.231 9.057l-.899 6.714s7.402-1.648 8.226-2.265c.824-.617 2.954-3.286 3.675-4.088.98-1.096 1.516-1 2.062-.96 1.78.132 2.18.25 2.568.46.392.21.392.66.392.66.471.025 1.17-.043 1.32.717.097.503.075.614.075.614s.168.003.318.15c.424.42-.129 2.033-.521 2.443-.278.29-.7.353-1.263.321-.478-.028-.296-.528-.296-.528l-.66.09c-1.355 1.123-1.277 3.146-3.136 3.734-.392.125-1.216.175-2.28.625-3.973 1.676-10.344 6.328-13.95 6.917-3.522.57-3.565-1.324-3.782-3.493-.196-1.937.7-14.661 1.759-17.447Z"/><path fill="#FAFAFA" d="m25.938 42.971 2.646-.767s-.506.606-.206 2.419c.3 1.812 1.401 2.472 1.401 2.472l-3.763 2.194-.078-6.318Z"/><path fill="#F28F8F" d="m21.391 43.352-.096.757c-1.584.535-3.318 2.81-3.639 3.72.197-1.423.953-3.503 3.735-4.477Z"/><path fill="#FC6161" d="M20.865 28.031s-.328.075-1.316.307c-.988.232-2.397.692-3.353 2.48-.96 1.787-.981 2.525-1.392 5.493-.413 2.968-.988 9.839-.938 12.379.05 2.54.418 3.692 1.088 4.163.671.47 2.183.767 4.317-.083 2.133-.852 8.412-3.927 8.412-3.927s-.832.114-1.281-2.333c-.45-2.444.014-3.714.014-3.714l-4.98 1.163 1.063-6.92c0 .003 1.43-7.042-1.634-9.008Z"/><path fill="#000" d="M20.865 28.031s-.328.075-1.316.307c-.988.232-2.397.692-3.353 2.48-.96 1.787-.981 2.525-1.392 5.493-.413 2.968-.988 9.839-.938 12.379.05 2.54.418 3.692 1.088 4.163.671.47 2.183.767 4.317-.083 2.133-.852 8.412-3.927 8.412-3.927s-.832.114-1.281-2.333c-.45-2.444.014-3.714.014-3.714l-4.98 1.163 1.063-6.92c0 .003 1.43-7.042-1.634-9.008Z" opacity=".15"/><path fill="#000" d="M21.435 43.963c-1.733.492-3.09 1.784-3.724 3.546.339-2.85 2.43-4.184 3.863-4.46l-.139.914Z" opacity=".15"/><path fill="#F28F8F" d="m38.216 37.912-2.122-.264 2.058-.021c.04.096.06.193.064.285ZM39.613 39.246l-2.43-.132 2.412-.15c.014.086.022.182.018.282ZM39.373 40.327a.783.783 0 0 1-.303.307 1.52 1.52 0 0 1-.4.171l.032-.025c-.053.132-.114.26-.174.389l-.054-.06a.49.49 0 0 1 .389.064c.11.07.185.185.232.3a.774.774 0 0 0-.264-.243.49.49 0 0 0-.332-.036l-.093.025.036-.086c.053-.132.11-.26.175-.389l.01-.02.022-.005c.132-.032.264-.081.392-.142a.87.87 0 0 0 .332-.25Z"/><path fill="#F28F8F" d="M38.757 40.688c-.235.067-.867.128-.867.128s-.007.175-.264.485c-.139.168-.438.425-.438.425l.66-.09s.139-.306.727-.467l.182-.481Z"/><path fill="#FFA8A7" d="M26.041 21.363c-.835.157-1.626-.253-2.133-.81-1.124-1.234-1.23-2.493-.706-3.332.428-.688 1.49-1.13 2.233-.663.795.496.82.903 1.12 1.466.31.578 1.07.121.81-2.14 1.544-.728 1.295-3.314 2.126-4.37 1.306-1.652 3.457-1.224 4.156-.838.62-.507 1.869-.757 2.928-.19 1.039.557 1.73 1.723 2.098 5.74.375 4.096-.332 6.825-1.273 7.695-.65.6-1.859 1.002-3.3.92l.01 1.545s4.16 4.338-1.145 3.945c-3.974-.292-6.01-3.403-6.01-3.403l-.036-6.21c0 .003-.086.499-.878.645Z"/><path fill="#B16668" d="M34.748 20.635a1.183 1.183 0 0 1-1.391.931 1.182 1.182 0 0 1-.931-1.391l2.322.46Z"/><path fill="#F28F8F" d="M32.418 20.56c.064.489.428.902.938 1.006.143.029.282.025.417.004a1.198 1.198 0 0 0-1.355-1.01Z"/><path fill="#263238" d="M32.37 16.59a.688.688 0 0 1-.852.471.69.69 0 0 1-.439-.87.688.688 0 0 1 .853-.471c.353.107.55.5.439.87ZM37.81 13.968l-1.423-.763a.777.777 0 0 1 1.07-.35c.392.21.55.71.353 1.113ZM36.165 16.412a.686.686 0 0 0 .874.424c.35-.128.524-.528.392-.892a.686.686 0 0 0-.873-.424c-.35.125-.525.528-.393.892ZM31.504 13.427l-1.52.824a.83.83 0 0 1 .317-1.163.904.904 0 0 1 1.203.339Z"/><path fill="#37474F" d="M39.575 14.343a61.65 61.65 0 0 0-.303-.022c-.981-.057-2.255-.032-3.004.229-.942.328-1.26.66-1.79.684-.568.022-.95-.278-1.995-.517-.831-.189-2.19-.096-3.225.05-.11.018-.217.032-.32.05-.18.029-.354.268-.325.535.032.268.253.471.349.589a.734.734 0 0 1 .121.239c.14.414.26 1.213.503 1.648.097.175.236.389.453.578.072.06.143.117.221.167l.125.075c.111.061.232.11.371.15.022.007.043.01.061.018.032.007.064.018.096.025a2.872 2.872 0 0 0 .425.053c.043.004.089.004.135.004.054 0 .115 0 .172-.003 1.323-.054 1.833-.689 2.119-1.335.285-.645.142-1.534.752-1.559h.057c.018 0 .04.004.054.008.456.082.456.902.778 1.476.124.221.274.44.474.625.036.032.071.064.11.096l.058.043.06.043a.462.462 0 0 0 .054.035c.032.018.046.029.06.036.015.01.033.018.047.025.01.007.021.01.032.018a2.078 2.078 0 0 0 .589.189c.192.032.406.046.649.036 1.238-.061 1.616-.785 1.787-1.238.171-.457.196-1.256.268-1.684a.5.5 0 0 1 .096-.225c.082-.107.239-.36.239-.628.01-.264-.186-.5-.353-.513Zm-6.186 2.64c-.04.245-.14.599-.4.898-.264.3-.695.546-1.405.567-.717.022-1.156-.25-1.427-.577l-.05-.061a.317.317 0 0 1-.043-.06c-.014-.018-.025-.04-.039-.058a.605.605 0 0 0-.032-.05c-.007-.014-.018-.028-.025-.043a.304.304 0 0 0-.021-.035l-.032-.06a2.023 2.023 0 0 1-.082-.183s0-.003-.004-.003l-.043-.11c-.021-.065-.043-.126-.057-.176l-.01-.032-.011-.032c-.132-.435-.31-1.298-.097-1.502.207-.196.803-.435 1.791-.385.032 0 .068.004.107.004.154.01.303.028.453.053l.179.032a3.671 3.671 0 0 1 .734.229c.011.003.022.007.029.014.018.007.036.018.053.025a.9.9 0 0 1 .31.217c.222.257.204.832.122 1.327Zm5.73-.447c-.054.346-.169 1.1-.836 1.452-.189.1-.428.172-.72.19-.778.05-1.242-.247-1.516-.596 0-.004-.004-.004-.004-.007-.01-.015-.021-.025-.028-.04-.011-.014-.022-.032-.032-.046-.008-.007-.011-.014-.018-.025-.015-.021-.029-.046-.043-.068l-.046-.078c-.008-.015-.015-.025-.022-.04l-.01-.02c-.008-.012-.011-.022-.015-.033-.004-.007-.007-.018-.01-.025a2.445 2.445 0 0 1-.118-.325c-.132-.485-.225-1.056-.057-1.334.167-.278.874-.606 1.566-.724.16-.025.31-.043.45-.053.017 0 .035-.004.053-.004.021 0 .039-.004.057-.004.053-.003.107-.003.157-.003h.057c.025 0 .05 0 .075.003a3.661 3.661 0 0 1 .353.036l.053.01c.004 0 .011 0 .015.004.01.004.025.004.035.008.018.003.04.007.057.014a.47.47 0 0 1 .068.018c.04.01.075.024.11.035.008.004.015.004.019.007.11.043.192.09.253.14.225.192.16 1.066.096 1.508Z"/><path fill="#F28F8F" d="m36.562 18.573-2.248.974-.353-2.7c.082-.432.157-.806.524-.842l2.077 2.568Z"/><path fill="#37474F" d="m28.89 14.9-3.464 1.658c.175.118.278.193.535.428l3.018-1.37-.09-.717Z"/><path fill="#F28F8F" d="M34.089 24.845c-2.077-.075-4.86-.813-5.605-2.15.414 1.444 1.877 2.19 3.043 2.518 1.416.4 2.544.439 2.544.439l.018-.807Z"/><path fill="url(#a)" fill-opacity=".5" d="M136.371 49.741c13.459 0 24.37-10.911 24.37-24.37C160.741 11.91 149.83 1 136.371 1 122.911 1 112 11.911 112 25.37c0 13.46 10.911 24.371 24.371 24.371Z"/><path fill="url(#b)" d="M136.37 45.389c11.056 0 20.019-8.963 20.019-20.019S147.426 5.352 136.37 5.352s-20.018 8.962-20.018 20.018c0 11.056 8.962 20.019 20.018 20.019Z"/><mask id="c" width="33" height="33" x="120" y="9" maskUnits="userSpaceOnUse" style="mask-type:alpha"><path fill="#3CD384" d="M136.366 41.037c8.653 0 15.667-7.015 15.667-15.667 0-8.653-7.014-15.667-15.667-15.667-8.653 0-15.667 7.014-15.667 15.667 0 8.652 7.014 15.667 15.667 15.667Z"/></mask><g mask="url(#c)"><path fill="url(#d)" d="M136.366 41.037c8.653 0 15.667-7.015 15.667-15.667 0-8.653-7.014-15.667-15.667-15.667-8.653 0-15.667 7.014-15.667 15.667 0 8.652 7.014 15.667 15.667 15.667Z"/><path fill="url(#e)" fill-opacity=".5" d="M144.199 17.536a5.222 5.222 0 1 0 0-10.444 5.222 5.222 0 0 0 0 10.444Z"/><path fill="url(#f)" fill-opacity=".5" d="M130.056 41.907a4.134 4.134 0 1 0 0-8.268 4.134 4.134 0 0 0 0 8.268Z"/><path fill="url(#g)" fill-opacity=".5" d="M130.052 17.971a1.958 1.958 0 1 0 0-3.915 1.958 1.958 0 0 0 0 3.915Z"/><path fill="url(#h)" fill-opacity=".5" d="M149.639 22.759a1.088 1.088 0 1 0 0-2.176 1.088 1.088 0 0 0 0 2.176Z"/><g filter="url(#i)" opacity=".16"><path fill="#231F20" fill-opacity=".4" d="M136.584 37.933a15.9 15.9 0 0 1-10.828-4.257 15.843 15.843 0 0 1-5.013-10.483c-.026.37-.044.74-.044 1.116 0 4.206 1.674 8.239 4.653 11.213a15.9 15.9 0 0 0 22.464 0 15.845 15.845 0 0 0 4.652-11.212c0-.376-.018-.747-.044-1.117a15.839 15.839 0 0 1-5.013 10.483 15.899 15.899 0 0 1-10.827 4.257Z"/></g></g><g filter="url(#j)"><path fill="#fff" fill-rule="evenodd" d="M140.223 27.898a.87.87 0 0 1-1.158-.417c-.288-.61-1.227-1.24-2.694-1.24-1.38 0-2.242.574-2.757 1.35a.87.87 0 1 1-1.45-.961c.842-1.27 2.253-2.13 4.207-2.13 1.865 0 3.593.804 4.269 2.24a.87.87 0 0 1-.417 1.158Z" clip-rule="evenodd"/></g><g filter="url(#k)"><path fill="#fff" d="M132.457 19.93a1.088 1.088 0 1 1 2.176 0v1.306a1.088 1.088 0 1 1-2.176 0v-1.305Z"/></g><g filter="url(#l)"><path fill="#fff" d="M138.113 19.93a1.088 1.088 0 1 1 2.176 0v1.306a1.088 1.088 0 1 1-2.176 0v-1.305Z"/></g><defs><linearGradient id="h" x1="150.308" x2="148.3" y1="22.592" y2="20.081" gradientUnits="userSpaceOnUse"><stop stop-color="#F33B3B"/><stop offset="1" stop-color="#FC3A3A" stop-opacity=".24"/></linearGradient><linearGradient id="g" x1="131.257" x2="127.642" y1="17.67" y2="13.151" gradientUnits="userSpaceOnUse"><stop stop-color="#FF3737"/><stop offset="1" stop-color="#FF3A3A" stop-opacity=".1"/></linearGradient><linearGradient id="d" x1="136.366" x2="136.366" y1="9.703" y2="41.037" gradientUnits="userSpaceOnUse"><stop stop-color="#FF8455"/><stop offset="1" stop-color="#FF0909"/></linearGradient><linearGradient id="e" x1="138.977" x2="143.503" y1="14.403" y2="12.314" gradientUnits="userSpaceOnUse"><stop stop-color="#FF3F3F"/><stop offset="1" stop-color="#F55" stop-opacity="0"/></linearGradient><linearGradient id="f" x1="132.6" x2="124.968" y1="41.271" y2="31.73" gradientUnits="userSpaceOnUse"><stop stop-color="#EF2B2B"/><stop offset="1" stop-color="#FF5858" stop-opacity=".49"/></linearGradient><filter id="j" width="16.703" height="11.481" x="128.02" y="22.5" color-interpolation-filters="sRGB" filterUnits="userSpaceOnUse"><feFlood flood-opacity="0" result="BackgroundImageFix"/><feColorMatrix in="SourceAlpha" result="hardAlpha" values="0 0 0 0 0 0 0 0 0 0 0 0 0 0 0 0 0 0 127 0"/><feOffset dy="2"/><feGaussianBlur stdDeviation="2"/><feComposite in2="hardAlpha" operator="out"/><feColorMatrix values="0 0 0 0 0 0 0 0 0 0 0 0 0 0 0 0 0 0 0.1 0"/><feBlend in2="BackgroundImageFix" result="effect1_dropShadow_1361_32012"/><feBlend in="SourceGraphic" in2="effect1_dropShadow_1361_32012" result="shape"/></filter><filter id="k" width="10.176" height="11.481" x="128.457" y="16.843" color-interpolation-filters="sRGB" filterUnits="userSpaceOnUse"><feFlood flood-opacity="0" result="BackgroundImageFix"/><feColorMatrix in="SourceAlpha" result="hardAlpha" values="0 0 0 0 0 0 0 0 0 0 0 0 0 0 0 0 0 0 127 0"/><feOffset dy="2"/><feGaussianBlur stdDeviation="2"/><feComposite in2="hardAlpha" operator="out"/><feColorMatrix values="0 0 0 0 0 0 0 0 0 0 0 0 0 0 0 0 0 0 0.1 0"/><feBlend in2="BackgroundImageFix" result="effect1_dropShadow_1361_32012"/><feBlend in="SourceGraphic" in2="effect1_dropShadow_1361_32012" result="shape"/></filter><filter id="l" width="10.176" height="11.481" x="134.113" y="16.843" color-interpolation-filters="sRGB" filterUnits="userSpaceOnUse"><feFlood flood-opacity="0" result="BackgroundImageFix"/><feColorMatrix in="SourceAlpha" result="hardAlpha" values="0 0 0 0 0 0 0 0 0 0 0 0 0 0 0 0 0 0 127 0"/><feOffset dy="2"/><feGaussianBlur stdDeviation="2"/><feComposite in2="hardAlpha" operator="out"/><feColorMatrix values="0 0 0 0 0 0 0 0 0 0 0 0 0 0 0 0 0 0 0.1 0"/><feBlend in2="BackgroundImageFix" result="effect1_dropShadow_1361_32012"/><feBlend in="SourceGraphic" in2="effect1_dropShadow_1361_32012" result="shape"/></filter><filter id="i" width="55.77" height="40.973" x="108.699" y="11.193" color-interpolation-filters="sRGB" filterUnits="userSpaceOnUse"><feFlood flood-opacity="0" result="BackgroundImageFix"/><feBlend in="SourceGraphic" in2="BackgroundImageFix" result="shape"/><feGaussianBlur result="effect1_foregroundBlur_1361_32012" stdDeviation="6"/></filter><radialGradient id="a" cx="0" cy="0" r="1" gradientTransform="rotate(90 55.5 80.87) scale(24.3705)" gradientUnits="userSpaceOnUse"><stop offset=".761" stop-color="#FFC1C1"/><stop offset="1" stop-color="#FFC8C8" stop-opacity=".4"/></radialGradient><radialGradient id="b" cx="0" cy="0" r="1" gradientTransform="rotate(90 55.5 80.87) scale(20.0187)" gradientUnits="userSpaceOnUse"><stop offset=".602" stop-color="#FFCDCD"/><stop offset="1" stop-color="#FFC9C9" stop-opacity=".29"/></radialGradient></defs></svg>