<svg width="279" height="90" viewBox="0 0 279 90" fill="none" xmlns="http://www.w3.org/2000/svg">
<g filter="url(#filter0_dd_4786_6089)">
<mask id="path-1-inside-1_4786_6089" fill="white">
<path fill-rule="evenodd" clip-rule="evenodd" d="M10.8628 15.6189C10.8628 12.2126 8.2324 9.35143 4.67566 8.54735C7.04912 4.7579 11.2617 2.23792 16.0628 2.23792H263.336C270.751 2.23792 276.762 8.2492 276.762 15.6645V72.7274C276.762 80.1427 270.751 86.154 263.336 86.154H16.0628C11.7102 86.154 7.84138 84.0829 5.38802 80.8724C8.57805 79.8687 10.8628 77.1676 10.8628 73.993C10.8628 69.963 7.18085 66.696 2.63899 66.696C2.63807 66.696 2.63715 66.696 2.63623 66.696V61.832H2.63899C7.18085 61.832 10.8628 58.565 10.8628 54.535C10.8628 50.5049 7.18085 47.2379 2.63899 47.2379H2.63623V42.374H2.63899C7.18085 42.374 10.8628 39.107 10.8628 35.0769C10.8628 31.0469 7.18085 27.7799 2.63899 27.7799H2.63623V22.9159H2.63899C7.18085 22.9159 10.8628 19.6489 10.8628 15.6189Z"/>
</mask>
<path fill-rule="evenodd" clip-rule="evenodd" d="M10.8628 15.6189C10.8628 12.2126 8.2324 9.35143 4.67566 8.54735C7.04912 4.7579 11.2617 2.23792 16.0628 2.23792H263.336C270.751 2.23792 276.762 8.2492 276.762 15.6645V72.7274C276.762 80.1427 270.751 86.154 263.336 86.154H16.0628C11.7102 86.154 7.84138 84.0829 5.38802 80.8724C8.57805 79.8687 10.8628 77.1676 10.8628 73.993C10.8628 69.963 7.18085 66.696 2.63899 66.696C2.63807 66.696 2.63715 66.696 2.63623 66.696V61.832H2.63899C7.18085 61.832 10.8628 58.565 10.8628 54.535C10.8628 50.5049 7.18085 47.2379 2.63899 47.2379H2.63623V42.374H2.63899C7.18085 42.374 10.8628 39.107 10.8628 35.0769C10.8628 31.0469 7.18085 27.7799 2.63899 27.7799H2.63623V22.9159H2.63899C7.18085 22.9159 10.8628 19.6489 10.8628 15.6189Z" fill="#FEFEFE"/>
<path d="M4.67566 8.54735L4.34377 8.33947L4.05061 8.80753L4.5893 8.92931L4.67566 8.54735ZM5.38802 80.8724L5.27048 80.4988L4.73777 80.6665L5.07686 81.1102L5.38802 80.8724ZM2.63623 66.696H2.24462V67.0876H2.63623V66.696ZM2.63623 61.832V61.4404H2.24462V61.832H2.63623ZM2.63623 47.2379H2.24462V47.6295H2.63623V47.2379ZM2.63623 42.374V41.9824H2.24462V42.374H2.63623ZM2.63623 27.7799H2.24462V28.1715H2.63623V27.7799ZM2.63623 22.9159V22.5243H2.24462V22.9159H2.63623ZM4.5893 8.92931C8.00237 9.70092 10.4712 12.4291 10.4712 15.6189H11.2544C11.2544 11.9961 8.46244 9.00195 4.76201 8.16538L4.5893 8.92931ZM16.0628 1.84631C11.1212 1.84631 6.78583 4.44052 4.34377 8.33947L5.00754 8.75522C7.31242 5.07528 11.4021 2.62952 16.0628 2.62952V1.84631ZM263.336 1.84631H16.0628V2.62952H263.336V1.84631ZM277.154 15.6645C277.154 8.03292 270.967 1.84631 263.336 1.84631V2.62952C270.535 2.62952 276.371 8.46548 276.371 15.6645H277.154ZM277.154 72.7274V15.6645H276.371V72.7274H277.154ZM263.336 86.5456C270.967 86.5456 277.154 80.359 277.154 72.7274H276.371C276.371 79.9264 270.535 85.7624 263.336 85.7624V86.5456ZM16.0628 86.5456H263.336V85.7624H16.0628V86.5456ZM5.07686 81.1102C7.60112 84.4134 11.583 86.5456 16.0628 86.5456V85.7624C11.8374 85.7624 8.08164 83.7523 5.69917 80.6346L5.07686 81.1102ZM10.4712 73.993C10.4712 76.9667 8.32786 79.5369 5.27048 80.4988L5.50555 81.246C8.82824 80.2005 11.2544 77.3685 11.2544 73.993H10.4712ZM2.63899 67.0876C7.0099 67.0876 10.4712 70.2219 10.4712 73.993H11.2544C11.2544 69.704 7.35181 66.3044 2.63899 66.3044V67.0876ZM2.63623 67.0876C2.63623 67.0876 2.63623 67.0876 2.63624 67.0876C2.63624 67.0876 2.63624 67.0876 2.63624 67.0876C2.63624 67.0876 2.63624 67.0876 2.63625 67.0876C2.63625 67.0876 2.63625 67.0876 2.63625 67.0876C2.63625 67.0876 2.63626 67.0876 2.63626 67.0876C2.63626 67.0876 2.63626 67.0876 2.63626 67.0876C2.63626 67.0876 2.63627 67.0876 2.63627 67.0876C2.63627 67.0876 2.63627 67.0876 2.63627 67.0876C2.63628 67.0876 2.63628 67.0876 2.63628 67.0876C2.63628 67.0876 2.63628 67.0876 2.63628 67.0876C2.63629 67.0876 2.63629 67.0876 2.63629 67.0876C2.63629 67.0876 2.63629 67.0876 2.6363 67.0876C2.6363 67.0876 2.6363 67.0876 2.6363 67.0876C2.6363 67.0876 2.6363 67.0876 2.63631 67.0876C2.63631 67.0876 2.63631 67.0876 2.63631 67.0876C2.63631 67.0876 2.63631 67.0876 2.63632 67.0876C2.63632 67.0876 2.63632 67.0876 2.63632 67.0876C2.63632 67.0876 2.63633 67.0876 2.63633 67.0876C2.63633 67.0876 2.63633 67.0876 2.63633 67.0876C2.63633 67.0876 2.63634 67.0876 2.63634 67.0876C2.63634 67.0876 2.63634 67.0876 2.63634 67.0876C2.63635 67.0876 2.63635 67.0876 2.63635 67.0876C2.63635 67.0876 2.63635 67.0876 2.63635 67.0876C2.63636 67.0876 2.63636 67.0876 2.63636 67.0876C2.63636 67.0876 2.63636 67.0876 2.63636 67.0876C2.63637 67.0876 2.63637 67.0876 2.63637 67.0876C2.63637 67.0876 2.63637 67.0876 2.63638 67.0876C2.63638 67.0876 2.63638 67.0876 2.63638 67.0876C2.63638 67.0876 2.63638 67.0876 2.63639 67.0876C2.63639 67.0876 2.63639 67.0876 2.63639 67.0876C2.63639 67.0876 2.6364 67.0876 2.6364 67.0876C2.6364 67.0876 2.6364 67.0876 2.6364 67.0876C2.6364 67.0876 2.63641 67.0876 2.63641 67.0876C2.63641 67.0876 2.63641 67.0876 2.63641 67.0876C2.63642 67.0876 2.63642 67.0876 2.63642 67.0876C2.63642 67.0876 2.63642 67.0876 2.63642 67.0876C2.63643 67.0876 2.63643 67.0876 2.63643 67.0876C2.63643 67.0876 2.63643 67.0876 2.63643 67.0876C2.63644 67.0876 2.63644 67.0876 2.63644 67.0876C2.63644 67.0876 2.63644 67.0876 2.63645 67.0876C2.63645 67.0876 2.63645 67.0876 2.63645 67.0876C2.63645 67.0876 2.63645 67.0876 2.63646 67.0876C2.63646 67.0876 2.63646 67.0876 2.63646 67.0876C2.63646 67.0876 2.63647 67.0876 2.63647 67.0876C2.63647 67.0876 2.63647 67.0876 2.63647 67.0876C2.63647 67.0876 2.63648 67.0876 2.63648 67.0876C2.63648 67.0876 2.63648 67.0876 2.63648 67.0876C2.63649 67.0876 2.63649 67.0876 2.63649 67.0876C2.63649 67.0876 2.63649 67.0876 2.63649 67.0876C2.6365 67.0876 2.6365 67.0876 2.6365 67.0876C2.6365 67.0876 2.6365 67.0876 2.6365 67.0876C2.63651 67.0876 2.63651 67.0876 2.63651 67.0876C2.63651 67.0876 2.63651 67.0876 2.63652 67.0876C2.63652 67.0876 2.63652 67.0876 2.63652 67.0876C2.63652 67.0876 2.63652 67.0876 2.63653 67.0876C2.63653 67.0876 2.63653 67.0876 2.63653 67.0876C2.63653 67.0876 2.63654 67.0876 2.63654 67.0876C2.63654 67.0876 2.63654 67.0876 2.63654 67.0876C2.63654 67.0876 2.63655 67.0876 2.63655 67.0876C2.63655 67.0876 2.63655 67.0876 2.63655 67.0876C2.63656 67.0876 2.63656 67.0876 2.63656 67.0876C2.63656 67.0876 2.63656 67.0876 2.63656 67.0876C2.63657 67.0876 2.63657 67.0876 2.63657 67.0876C2.63657 67.0876 2.63657 67.0876 2.63657 67.0876C2.63658 67.0876 2.63658 67.0876 2.63658 67.0876C2.63658 67.0876 2.63658 67.0876 2.63659 67.0876C2.63659 67.0876 2.63659 67.0876 2.63659 67.0876C2.63659 67.0876 2.63659 67.0876 2.6366 67.0876C2.6366 67.0876 2.6366 67.0876 2.6366 67.0876C2.6366 67.0876 2.63661 67.0876 2.63661 67.0876C2.63661 67.0876 2.63661 67.0876 2.63661 67.0876C2.63661 67.0876 2.63662 67.0876 2.63662 67.0876C2.63662 67.0876 2.63662 67.0876 2.63662 67.0876C2.63663 67.0876 2.63663 67.0876 2.63663 67.0876C2.63663 67.0876 2.63663 67.0876 2.63663 67.0876C2.63664 67.0876 2.63664 67.0876 2.63664 67.0876C2.63664 67.0876 2.63664 67.0876 2.63664 67.0876C2.63665 67.0876 2.63665 67.0876 2.63665 67.0876C2.63665 67.0876 2.63665 67.0876 2.63666 67.0876C2.63666 67.0876 2.63666 67.0876 2.63666 67.0876C2.63666 67.0876 2.63666 67.0876 2.63667 67.0876C2.63667 67.0876 2.63667 67.0876 2.63667 67.0876C2.63667 67.0876 2.63668 67.0876 2.63668 67.0876C2.63668 67.0876 2.63668 67.0876 2.63668 67.0876C2.63668 67.0876 2.63669 67.0876 2.63669 67.0876C2.63669 67.0876 2.63669 67.0876 2.63669 67.0876C2.6367 67.0876 2.6367 67.0876 2.6367 67.0876C2.6367 67.0876 2.6367 67.0876 2.6367 67.0876C2.63671 67.0876 2.63671 67.0876 2.63671 67.0876C2.63671 67.0876 2.63671 67.0876 2.63671 67.0876C2.63672 67.0876 2.63672 67.0876 2.63672 67.0876C2.63672 67.0876 2.63672 67.0876 2.63673 67.0876C2.63673 67.0876 2.63673 67.0876 2.63673 67.0876C2.63673 67.0876 2.63673 67.0876 2.63674 67.0876C2.63674 67.0876 2.63674 67.0876 2.63674 67.0876C2.63674 67.0876 2.63675 67.0876 2.63675 67.0876C2.63675 67.0876 2.63675 67.0876 2.63675 67.0876C2.63675 67.0876 2.63676 67.0876 2.63676 67.0876C2.63676 67.0876 2.63676 67.0876 2.63676 67.0876C2.63676 67.0876 2.63677 67.0876 2.63677 67.0876C2.63677 67.0876 2.63677 67.0876 2.63677 67.0876C2.63678 67.0876 2.63678 67.0876 2.63678 67.0876C2.63678 67.0876 2.63678 67.0876 2.63678 67.0876C2.63679 67.0876 2.63679 67.0876 2.63679 67.0876C2.63679 67.0876 2.63679 67.0876 2.6368 67.0876C2.6368 67.0876 2.6368 67.0876 2.6368 67.0876C2.6368 67.0876 2.6368 67.0876 2.63681 67.0876C2.63681 67.0876 2.63681 67.0876 2.63681 67.0876C2.63681 67.0876 2.63682 67.0876 2.63682 67.0876C2.63682 67.0876 2.63682 67.0876 2.63682 67.0876C2.63682 67.0876 2.63683 67.0876 2.63683 67.0876C2.63683 67.0876 2.63683 67.0876 2.63683 67.0876C2.63683 67.0876 2.63684 67.0876 2.63684 67.0876C2.63684 67.0876 2.63684 67.0876 2.63684 67.0876C2.63685 67.0876 2.63685 67.0876 2.63685 67.0876C2.63685 67.0876 2.63685 67.0876 2.63685 67.0876C2.63686 67.0876 2.63686 67.0876 2.63686 67.0876C2.63686 67.0876 2.63686 67.0876 2.63687 67.0876C2.63687 67.0876 2.63687 67.0876 2.63687 67.0876C2.63687 67.0876 2.63687 67.0876 2.63688 67.0876C2.63688 67.0876 2.63688 67.0876 2.63688 67.0876C2.63688 67.0876 2.63689 67.0876 2.63689 67.0876C2.63689 67.0876 2.63689 67.0876 2.63689 67.0876C2.63689 67.0876 2.6369 67.0876 2.6369 67.0876C2.6369 67.0876 2.6369 67.0876 2.6369 67.0876C2.6369 67.0876 2.63691 67.0876 2.63691 67.0876C2.63691 67.0876 2.63691 67.0876 2.63691 67.0876C2.63692 67.0876 2.63692 67.0876 2.63692 67.0876C2.63692 67.0876 2.63692 67.0876 2.63692 67.0876C2.63693 67.0876 2.63693 67.0876 2.63693 67.0876C2.63693 67.0876 2.63693 67.0876 2.63694 67.0876C2.63694 67.0876 2.63694 67.0876 2.63694 67.0876C2.63694 67.0876 2.63694 67.0876 2.63695 67.0876C2.63695 67.0876 2.63695 67.0876 2.63695 67.0876C2.63695 67.0876 2.63696 67.0876 2.63696 67.0876C2.63696 67.0876 2.63696 67.0876 2.63696 67.0876C2.63696 67.0876 2.63697 67.0876 2.63697 67.0876C2.63697 67.0876 2.63697 67.0876 2.63697 67.0876C2.63697 67.0876 2.63698 67.0876 2.63698 67.0876C2.63698 67.0876 2.63698 67.0876 2.63698 67.0876C2.63699 67.0876 2.63699 67.0876 2.63699 67.0876C2.63699 67.0876 2.63699 67.0876 2.63699 67.0876C2.637 67.0876 2.637 67.0876 2.637 67.0876C2.637 67.0876 2.637 67.0876 2.63701 67.0876C2.63701 67.0876 2.63701 67.0876 2.63701 67.0876C2.63701 67.0876 2.63701 67.0876 2.63702 67.0876C2.63702 67.0876 2.63702 67.0876 2.63702 67.0876C2.63702 67.0876 2.63703 67.0876 2.63703 67.0876C2.63703 67.0876 2.63703 67.0876 2.63703 67.0876C2.63703 67.0876 2.63704 67.0876 2.63704 67.0876C2.63704 67.0876 2.63704 67.0876 2.63704 67.0876C2.63704 67.0876 2.63705 67.0876 2.63705 67.0876C2.63705 67.0876 2.63705 67.0876 2.63705 67.0876C2.63706 67.0876 2.63706 67.0876 2.63706 67.0876C2.63706 67.0876 2.63706 67.0876 2.63706 67.0876C2.63707 67.0876 2.63707 67.0876 2.63707 67.0876C2.63707 67.0876 2.63707 67.0876 2.63708 67.0876C2.63708 67.0876 2.63708 67.0876 2.63708 67.0876C2.63708 67.0876 2.63708 67.0876 2.63709 67.0876C2.63709 67.0876 2.63709 67.0876 2.63709 67.0876C2.63709 67.0876 2.6371 67.0876 2.6371 67.0876C2.6371 67.0876 2.6371 67.0876 2.6371 67.0876C2.6371 67.0876 2.63711 67.0876 2.63711 67.0876C2.63711 67.0876 2.63711 67.0876 2.63711 67.0876C2.63711 67.0876 2.63712 67.0876 2.63712 67.0876C2.63712 67.0876 2.63712 67.0876 2.63712 67.0876C2.63713 67.0876 2.63713 67.0876 2.63713 67.0876C2.63713 67.0876 2.63713 67.0876 2.63713 67.0876C2.63714 67.0876 2.63714 67.0876 2.63714 67.0876C2.63714 67.0876 2.63714 67.0876 2.63715 67.0876C2.63715 67.0876 2.63715 67.0876 2.63715 67.0876C2.63715 67.0876 2.63715 67.0876 2.63716 67.0876C2.63716 67.0876 2.63716 67.0876 2.63716 67.0876C2.63716 67.0876 2.63716 67.0876 2.63717 67.0876C2.63717 67.0876 2.63717 67.0876 2.63717 67.0876C2.63717 67.0876 2.63718 67.0876 2.63718 67.0876C2.63718 67.0876 2.63718 67.0876 2.63718 67.0876C2.63718 67.0876 2.63719 67.0876 2.63719 67.0876C2.63719 67.0876 2.63719 67.0876 2.63719 67.0876C2.6372 67.0876 2.6372 67.0876 2.6372 67.0876C2.6372 67.0876 2.6372 67.0876 2.6372 67.0876C2.63721 67.0876 2.63721 67.0876 2.63721 67.0876C2.63721 67.0876 2.63721 67.0876 2.63722 67.0876C2.63722 67.0876 2.63722 67.0876 2.63722 67.0876C2.63722 67.0876 2.63722 67.0876 2.63723 67.0876C2.63723 67.0876 2.63723 67.0876 2.63723 67.0876C2.63723 67.0876 2.63723 67.0876 2.63724 67.0876C2.63724 67.0876 2.63724 67.0876 2.63724 67.0876C2.63724 67.0876 2.63725 67.0876 2.63725 67.0876C2.63725 67.0876 2.63725 67.0876 2.63725 67.0876C2.63725 67.0876 2.63726 67.0876 2.63726 67.0876C2.63726 67.0876 2.63726 67.0876 2.63726 67.0876C2.63727 67.0876 2.63727 67.0876 2.63727 67.0876C2.63727 67.0876 2.63727 67.0876 2.63727 67.0876C2.63728 67.0876 2.63728 67.0876 2.63728 67.0876C2.63728 67.0876 2.63728 67.0876 2.63729 67.0876C2.63729 67.0876 2.63729 67.0876 2.63729 67.0876C2.63729 67.0876 2.63729 67.0876 2.6373 67.0876C2.6373 67.0876 2.6373 67.0876 2.6373 67.0876C2.6373 67.0876 2.6373 67.0876 2.63731 67.0876C2.63731 67.0876 2.63731 67.0876 2.63731 67.0876C2.63731 67.0876 2.63732 67.0876 2.63732 67.0876C2.63732 67.0876 2.63732 67.0876 2.63732 67.0876C2.63732 67.0876 2.63733 67.0876 2.63733 67.0876C2.63733 67.0876 2.63733 67.0876 2.63733 67.0876C2.63734 67.0876 2.63734 67.0876 2.63734 67.0876C2.63734 67.0876 2.63734 67.0876 2.63734 67.0876C2.63735 67.0876 2.63735 67.0876 2.63735 67.0876C2.63735 67.0876 2.63735 67.0876 2.63736 67.0876C2.63736 67.0876 2.63736 67.0876 2.63736 67.0876C2.63736 67.0876 2.63736 67.0876 2.63737 67.0876C2.63737 67.0876 2.63737 67.0876 2.63737 67.0876C2.63737 67.0876 2.63737 67.0876 2.63738 67.0876C2.63738 67.0876 2.63738 67.0876 2.63738 67.0876C2.63738 67.0876 2.63739 67.0876 2.63739 67.0876C2.63739 67.0876 2.63739 67.0876 2.63739 67.0876C2.63739 67.0876 2.6374 67.0876 2.6374 67.0876C2.6374 67.0876 2.6374 67.0876 2.6374 67.0876C2.63741 67.0876 2.63741 67.0876 2.63741 67.0876C2.63741 67.0876 2.63741 67.0876 2.63741 67.0876C2.63742 67.0876 2.63742 67.0876 2.63742 67.0876C2.63742 67.0876 2.63742 67.0876 2.63743 67.0876C2.63743 67.0876 2.63743 67.0876 2.63743 67.0876C2.63743 67.0876 2.63743 67.0876 2.63744 67.0876C2.63744 67.0876 2.63744 67.0876 2.63744 67.0876C2.63744 67.0876 2.63744 67.0876 2.63745 67.0876C2.63745 67.0876 2.63745 67.0876 2.63745 67.0876C2.63745 67.0876 2.63746 67.0876 2.63746 67.0876C2.63746 67.0876 2.63746 67.0876 2.63746 67.0876C2.63746 67.0876 2.63747 67.0876 2.63747 67.0876C2.63747 67.0876 2.63747 67.0876 2.63747 67.0876C2.63748 67.0876 2.63748 67.0876 2.63748 67.0876C2.63748 67.0876 2.63748 67.0876 2.63748 67.0876C2.63749 67.0876 2.63749 67.0876 2.63749 67.0876C2.63749 67.0876 2.63749 67.0876 2.6375 67.0876C2.6375 67.0876 2.6375 67.0876 2.6375 67.0876C2.6375 67.0876 2.6375 67.0876 2.63751 67.0876C2.63751 67.0876 2.63751 67.0876 2.63751 67.0876C2.63751 67.0876 2.63751 67.0876 2.63752 67.0876C2.63752 67.0876 2.63752 67.0876 2.63752 67.0876C2.63752 67.0876 2.63753 67.0876 2.63753 67.0876C2.63753 67.0876 2.63753 67.0876 2.63753 67.0876C2.63753 67.0876 2.63754 67.0876 2.63754 67.0876C2.63754 67.0876 2.63754 67.0876 2.63754 67.0876C2.63755 67.0876 2.63755 67.0876 2.63755 67.0876C2.63755 67.0876 2.63755 67.0876 2.63755 67.0876C2.63756 67.0876 2.63756 67.0876 2.63756 67.0876C2.63756 67.0876 2.63756 67.0876 2.63756 67.0876C2.63757 67.0876 2.63757 67.0876 2.63757 67.0876C2.63757 67.0876 2.63757 67.0876 2.63758 67.0876C2.63758 67.0876 2.63758 67.0876 2.63758 67.0876C2.63758 67.0876 2.63758 67.0876 2.63759 67.0876C2.63759 67.0876 2.63759 67.0876 2.63759 67.0876C2.63759 67.0876 2.6376 67.0876 2.6376 67.0876C2.6376 67.0876 2.6376 67.0876 2.6376 67.0876C2.6376 67.0876 2.63761 67.0876 2.63761 67.0876C2.63761 67.0876 2.63761 67.0876 2.63761 67.0876C2.63762 67.0876 2.63762 67.0876 2.63762 67.0876C2.63762 67.0876 2.63762 67.0876 2.63762 67.0876C2.63763 67.0876 2.63763 67.0876 2.63763 67.0876C2.63763 67.0876 2.63763 67.0876 2.63763 67.0876C2.63764 67.0876 2.63764 67.0876 2.63764 67.0876C2.63764 67.0876 2.63764 67.0876 2.63765 67.0876C2.63765 67.0876 2.63765 67.0876 2.63765 67.0876C2.63765 67.0876 2.63765 67.0876 2.63766 67.0876C2.63766 67.0876 2.63766 67.0876 2.63766 67.0876C2.63766 67.0876 2.63767 67.0876 2.63767 67.0876C2.63767 67.0876 2.63767 67.0876 2.63767 67.0876C2.63767 67.0876 2.63768 67.0876 2.63768 67.0876C2.63768 67.0876 2.63768 67.0876 2.63768 67.0876C2.63769 67.0876 2.63769 67.0876 2.63769 67.0876C2.63769 67.0876 2.63769 67.0876 2.63769 67.0876C2.6377 67.0876 2.6377 67.0876 2.6377 67.0876C2.6377 67.0876 2.6377 67.0876 2.6377 67.0876C2.63771 67.0876 2.63771 67.0876 2.63771 67.0876C2.63771 67.0876 2.63771 67.0876 2.63772 67.0876C2.63772 67.0876 2.63772 67.0876 2.63772 67.0876C2.63772 67.0876 2.63772 67.0876 2.63773 67.0876C2.63773 67.0876 2.63773 67.0876 2.63773 67.0876C2.63773 67.0876 2.63774 67.0876 2.63774 67.0876C2.63774 67.0876 2.63774 67.0876 2.63774 67.0876C2.63774 67.0876 2.63775 67.0876 2.63775 67.0876C2.63775 67.0876 2.63775 67.0876 2.63775 67.0876C2.63776 67.0876 2.63776 67.0876 2.63776 67.0876C2.63776 67.0876 2.63776 67.0876 2.63776 67.0876C2.63777 67.0876 2.63777 67.0876 2.63777 67.0876C2.63777 67.0876 2.63777 67.0876 2.63777 67.0876C2.63778 67.0876 2.63778 67.0876 2.63778 67.0876C2.63778 67.0876 2.63778 67.0876 2.63779 67.0876C2.63779 67.0876 2.63779 67.0876 2.63779 67.0876C2.63779 67.0876 2.63779 67.0876 2.6378 67.0876C2.6378 67.0876 2.6378 67.0876 2.6378 67.0876C2.6378 67.0876 2.63781 67.0876 2.63781 67.0876C2.63781 67.0876 2.63781 67.0876 2.63781 67.0876C2.63781 67.0876 2.63782 67.0876 2.63782 67.0876C2.63782 67.0876 2.63782 67.0876 2.63782 67.0876C2.63783 67.0876 2.63783 67.0876 2.63783 67.0876C2.63783 67.0876 2.63783 67.0876 2.63783 67.0876C2.63784 67.0876 2.63784 67.0876 2.63784 67.0876C2.63784 67.0876 2.63784 67.0876 2.63784 67.0876C2.63785 67.0876 2.63785 67.0876 2.63785 67.0876C2.63785 67.0876 2.63785 67.0876 2.63786 67.0876C2.63786 67.0876 2.63786 67.0876 2.63786 67.0876C2.63786 67.0876 2.63786 67.0876 2.63787 67.0876C2.63787 67.0876 2.63787 67.0876 2.63787 67.0876C2.63787 67.0876 2.63788 67.0876 2.63788 67.0876C2.63788 67.0876 2.63788 67.0876 2.63788 67.0876C2.63788 67.0876 2.63789 67.0876 2.63789 67.0876C2.63789 67.0876 2.63789 67.0876 2.63789 67.0876C2.6379 67.0876 2.6379 67.0876 2.6379 67.0876C2.6379 67.0876 2.6379 67.0876 2.6379 67.0876C2.63791 67.0876 2.63791 67.0876 2.63791 67.0876C2.63791 67.0876 2.63791 67.0876 2.63791 67.0876C2.63792 67.0876 2.63792 67.0876 2.63792 67.0876C2.63792 67.0876 2.63792 67.0876 2.63793 67.0876C2.63793 67.0876 2.63793 67.0876 2.63793 67.0876C2.63793 67.0876 2.63793 67.0876 2.63794 67.0876C2.63794 67.0876 2.63794 67.0876 2.63794 67.0876C2.63794 67.0876 2.63795 67.0876 2.63795 67.0876C2.63795 67.0876 2.63795 67.0876 2.63795 67.0876C2.63795 67.0876 2.63796 67.0876 2.63796 67.0876C2.63796 67.0876 2.63796 67.0876 2.63796 67.0876C2.63796 67.0876 2.63797 67.0876 2.63797 67.0876C2.63797 67.0876 2.63797 67.0876 2.63797 67.0876C2.63798 67.0876 2.63798 67.0876 2.63798 67.0876C2.63798 67.0876 2.63798 67.0876 2.63798 67.0876C2.63799 67.0876 2.63799 67.0876 2.63799 67.0876C2.63799 67.0876 2.63799 67.0876 2.638 67.0876C2.638 67.0876 2.638 67.0876 2.638 67.0876C2.638 67.0876 2.638 67.0876 2.63801 67.0876C2.63801 67.0876 2.63801 67.0876 2.63801 67.0876C2.63801 67.0876 2.63802 67.0876 2.63802 67.0876C2.63802 67.0876 2.63802 67.0876 2.63802 67.0876C2.63802 67.0876 2.63803 67.0876 2.63803 67.0876C2.63803 67.0876 2.63803 67.0876 2.63803 67.0876C2.63803 67.0876 2.63804 67.0876 2.63804 67.0876C2.63804 67.0876 2.63804 67.0876 2.63804 67.0876C2.63805 67.0876 2.63805 67.0876 2.63805 67.0876C2.63805 67.0876 2.63805 67.0876 2.63805 67.0876C2.63806 67.0876 2.63806 67.0876 2.63806 67.0876C2.63806 67.0876 2.63806 67.0876 2.63807 67.0876C2.63807 67.0876 2.63807 67.0876 2.63807 67.0876C2.63807 67.0876 2.63807 67.0876 2.63808 67.0876C2.63808 67.0876 2.63808 67.0876 2.63808 67.0876C2.63808 67.0876 2.63809 67.0876 2.63809 67.0876C2.63809 67.0876 2.63809 67.0876 2.63809 67.0876C2.63809 67.0876 2.6381 67.0876 2.6381 67.0876C2.6381 67.0876 2.6381 67.0876 2.6381 67.0876C2.6381 67.0876 2.63811 67.0876 2.63811 67.0876C2.63811 67.0876 2.63811 67.0876 2.63811 67.0876C2.63812 67.0876 2.63812 67.0876 2.63812 67.0876C2.63812 67.0876 2.63812 67.0876 2.63812 67.0876C2.63813 67.0876 2.63813 67.0876 2.63813 67.0876C2.63813 67.0876 2.63813 67.0876 2.63814 67.0876C2.63814 67.0876 2.63814 67.0876 2.63814 67.0876C2.63814 67.0876 2.63814 67.0876 2.63815 67.0876C2.63815 67.0876 2.63815 67.0876 2.63815 67.0876C2.63815 67.0876 2.63816 67.0876 2.63816 67.0876C2.63816 67.0876 2.63816 67.0876 2.63816 67.0876C2.63816 67.0876 2.63817 67.0876 2.63817 67.0876C2.63817 67.0876 2.63817 67.0876 2.63817 67.0876C2.63817 67.0876 2.63818 67.0876 2.63818 67.0876C2.63818 67.0876 2.63818 67.0876 2.63818 67.0876C2.63819 67.0876 2.63819 67.0876 2.63819 67.0876C2.63819 67.0876 2.63819 67.0876 2.63819 67.0876C2.6382 67.0876 2.6382 67.0876 2.6382 67.0876C2.6382 67.0876 2.6382 67.0876 2.63821 67.0876C2.63821 67.0876 2.63821 67.0876 2.63821 67.0876C2.63821 67.0876 2.63821 67.0876 2.63822 67.0876C2.63822 67.0876 2.63822 67.0876 2.63822 67.0876C2.63822 67.0876 2.63823 67.0876 2.63823 67.0876C2.63823 67.0876 2.63823 67.0876 2.63823 67.0876C2.63823 67.0876 2.63824 67.0876 2.63824 67.0876C2.63824 67.0876 2.63824 67.0876 2.63824 67.0876C2.63824 67.0876 2.63825 67.0876 2.63825 67.0876C2.63825 67.0876 2.63825 67.0876 2.63825 67.0876C2.63826 67.0876 2.63826 67.0876 2.63826 67.0876C2.63826 67.0876 2.63826 67.0876 2.63826 67.0876C2.63827 67.0876 2.63827 67.0876 2.63827 67.0876C2.63827 67.0876 2.63827 67.0876 2.63828 67.0876C2.63828 67.0876 2.63828 67.0876 2.63828 67.0876C2.63828 67.0876 2.63828 67.0876 2.63829 67.0876C2.63829 67.0876 2.63829 67.0876 2.63829 67.0876C2.63829 67.0876 2.6383 67.0876 2.6383 67.0876C2.6383 67.0876 2.6383 67.0876 2.6383 67.0876C2.6383 67.0876 2.63831 67.0876 2.63831 67.0876C2.63831 67.0876 2.63831 67.0876 2.63831 67.0876C2.63831 67.0876 2.63832 67.0876 2.63832 67.0876C2.63832 67.0876 2.63832 67.0876 2.63832 67.0876C2.63833 67.0876 2.63833 67.0876 2.63833 67.0876C2.63833 67.0876 2.63833 67.0876 2.63833 67.0876C2.63834 67.0876 2.63834 67.0876 2.63834 67.0876C2.63834 67.0876 2.63834 67.0876 2.63835 67.0876C2.63835 67.0876 2.63835 67.0876 2.63835 67.0876C2.63835 67.0876 2.63835 67.0876 2.63836 67.0876C2.63836 67.0876 2.63836 67.0876 2.63836 67.0876C2.63836 67.0876 2.63836 67.0876 2.63837 67.0876C2.63837 67.0876 2.63837 67.0876 2.63837 67.0876C2.63837 67.0876 2.63838 67.0876 2.63838 67.0876C2.63838 67.0876 2.63838 67.0876 2.63838 67.0876C2.63838 67.0876 2.63839 67.0876 2.63839 67.0876C2.63839 67.0876 2.63839 67.0876 2.63839 67.0876C2.6384 67.0876 2.6384 67.0876 2.6384 67.0876C2.6384 67.0876 2.6384 67.0876 2.6384 67.0876C2.63841 67.0876 2.63841 67.0876 2.63841 67.0876C2.63841 67.0876 2.63841 67.0876 2.63842 67.0876C2.63842 67.0876 2.63842 67.0876 2.63842 67.0876C2.63842 67.0876 2.63842 67.0876 2.63843 67.0876C2.63843 67.0876 2.63843 67.0876 2.63843 67.0876C2.63843 67.0876 2.63843 67.0876 2.63844 67.0876C2.63844 67.0876 2.63844 67.0876 2.63844 67.0876C2.63844 67.0876 2.63845 67.0876 2.63845 67.0876C2.63845 67.0876 2.63845 67.0876 2.63845 67.0876C2.63845 67.0876 2.63846 67.0876 2.63846 67.0876C2.63846 67.0876 2.63846 67.0876 2.63846 67.0876C2.63847 67.0876 2.63847 67.0876 2.63847 67.0876C2.63847 67.0876 2.63847 67.0876 2.63847 67.0876C2.63848 67.0876 2.63848 67.0876 2.63848 67.0876C2.63848 67.0876 2.63848 67.0876 2.63849 67.0876C2.63849 67.0876 2.63849 67.0876 2.63849 67.0876C2.63849 67.0876 2.63849 67.0876 2.6385 67.0876C2.6385 67.0876 2.6385 67.0876 2.6385 67.0876C2.6385 67.0876 2.6385 67.0876 2.63851 67.0876C2.63851 67.0876 2.63851 67.0876 2.63851 67.0876C2.63851 67.0876 2.63852 67.0876 2.63852 67.0876C2.63852 67.0876 2.63852 67.0876 2.63852 67.0876C2.63852 67.0876 2.63853 67.0876 2.63853 67.0876C2.63853 67.0876 2.63853 67.0876 2.63853 67.0876C2.63854 67.0876 2.63854 67.0876 2.63854 67.0876C2.63854 67.0876 2.63854 67.0876 2.63854 67.0876C2.63855 67.0876 2.63855 67.0876 2.63855 67.0876C2.63855 67.0876 2.63855 67.0876 2.63856 67.0876C2.63856 67.0876 2.63856 67.0876 2.63856 67.0876C2.63856 67.0876 2.63856 67.0876 2.63857 67.0876C2.63857 67.0876 2.63857 67.0876 2.63857 67.0876C2.63857 67.0876 2.63857 67.0876 2.63858 67.0876C2.63858 67.0876 2.63858 67.0876 2.63858 67.0876C2.63858 67.0876 2.63859 67.0876 2.63859 67.0876C2.63859 67.0876 2.63859 67.0876 2.63859 67.0876C2.63859 67.0876 2.6386 67.0876 2.6386 67.0876C2.6386 67.0876 2.6386 67.0876 2.6386 67.0876C2.63861 67.0876 2.63861 67.0876 2.63861 67.0876C2.63861 67.0876 2.63861 67.0876 2.63861 67.0876C2.63862 67.0876 2.63862 67.0876 2.63862 67.0876C2.63862 67.0876 2.63862 67.0876 2.63863 67.0876C2.63863 67.0876 2.63863 67.0876 2.63863 67.0876C2.63863 67.0876 2.63863 67.0876 2.63864 67.0876C2.63864 67.0876 2.63864 67.0876 2.63864 67.0876C2.63864 67.0876 2.63864 67.0876 2.63865 67.0876C2.63865 67.0876 2.63865 67.0876 2.63865 67.0876C2.63865 67.0876 2.63866 67.0876 2.63866 67.0876C2.63866 67.0876 2.63866 67.0876 2.63866 67.0876C2.63866 67.0876 2.63867 67.0876 2.63867 67.0876C2.63867 67.0876 2.63867 67.0876 2.63867 67.0876C2.63868 67.0876 2.63868 67.0876 2.63868 67.0876C2.63868 67.0876 2.63868 67.0876 2.63868 67.0876C2.63869 67.0876 2.63869 67.0876 2.63869 67.0876C2.63869 67.0876 2.63869 67.0876 2.6387 67.0876C2.6387 67.0876 2.6387 67.0876 2.6387 67.0876C2.6387 67.0876 2.6387 67.0876 2.63871 67.0876C2.63871 67.0876 2.63871 67.0876 2.63871 67.0876C2.63871 67.0876 2.63871 67.0876 2.63872 67.0876C2.63872 67.0876 2.63872 67.0876 2.63872 67.0876C2.63872 67.0876 2.63873 67.0876 2.63873 67.0876C2.63873 67.0876 2.63873 67.0876 2.63873 67.0876C2.63873 67.0876 2.63874 67.0876 2.63874 67.0876C2.63874 67.0876 2.63874 67.0876 2.63874 67.0876C2.63875 67.0876 2.63875 67.0876 2.63875 67.0876C2.63875 67.0876 2.63875 67.0876 2.63875 67.0876C2.63876 67.0876 2.63876 67.0876 2.63876 67.0876C2.63876 67.0876 2.63876 67.0876 2.63876 67.0876C2.63877 67.0876 2.63877 67.0876 2.63877 67.0876C2.63877 67.0876 2.63877 67.0876 2.63878 67.0876C2.63878 67.0876 2.63878 67.0876 2.63878 67.0876C2.63878 67.0876 2.63878 67.0876 2.63879 67.0876C2.63879 67.0876 2.63879 67.0876 2.63879 67.0876C2.63879 67.0876 2.6388 67.0876 2.6388 67.0876C2.6388 67.0876 2.6388 67.0876 2.6388 67.0876C2.6388 67.0876 2.63881 67.0876 2.63881 67.0876C2.63881 67.0876 2.63881 67.0876 2.63881 67.0876C2.63882 67.0876 2.63882 67.0876 2.63882 67.0876C2.63882 67.0876 2.63882 67.0876 2.63882 67.0876C2.63883 67.0876 2.63883 67.0876 2.63883 67.0876C2.63883 67.0876 2.63883 67.0876 2.63883 67.0876C2.63884 67.0876 2.63884 67.0876 2.63884 67.0876C2.63884 67.0876 2.63884 67.0876 2.63885 67.0876C2.63885 67.0876 2.63885 67.0876 2.63885 67.0876C2.63885 67.0876 2.63885 67.0876 2.63886 67.0876C2.63886 67.0876 2.63886 67.0876 2.63886 67.0876C2.63886 67.0876 2.63887 67.0876 2.63887 67.0876C2.63887 67.0876 2.63887 67.0876 2.63887 67.0876C2.63887 67.0876 2.63888 67.0876 2.63888 67.0876C2.63888 67.0876 2.63888 67.0876 2.63888 67.0876C2.63889 67.0876 2.63889 67.0876 2.63889 67.0876C2.63889 67.0876 2.63889 67.0876 2.63889 67.0876C2.6389 67.0876 2.6389 67.0876 2.6389 67.0876C2.6389 67.0876 2.6389 67.0876 2.6389 67.0876C2.63891 67.0876 2.63891 67.0876 2.63891 67.0876C2.63891 67.0876 2.63891 67.0876 2.63892 67.0876C2.63892 67.0876 2.63892 67.0876 2.63892 67.0876C2.63892 67.0876 2.63892 67.0876 2.63893 67.0876C2.63893 67.0876 2.63893 67.0876 2.63893 67.0876C2.63893 67.0876 2.63894 67.0876 2.63894 67.0876C2.63894 67.0876 2.63894 67.0876 2.63894 67.0876C2.63894 67.0876 2.63895 67.0876 2.63895 67.0876C2.63895 67.0876 2.63895 67.0876 2.63895 67.0876C2.63896 67.0876 2.63896 67.0876 2.63896 67.0876C2.63896 67.0876 2.63896 67.0876 2.63896 67.0876C2.63897 67.0876 2.63897 67.0876 2.63897 67.0876C2.63897 67.0876 2.63897 67.0876 2.63897 67.0876C2.63898 67.0876 2.63898 67.0876 2.63898 67.0876C2.63898 67.0876 2.63898 67.0876 2.63899 67.0876V66.3044C2.63898 66.3044 2.63898 66.3044 2.63898 66.3044C2.63898 66.3044 2.63898 66.3044 2.63897 66.3044C2.63897 66.3044 2.63897 66.3044 2.63897 66.3044C2.63897 66.3044 2.63897 66.3044 2.63896 66.3044C2.63896 66.3044 2.63896 66.3044 2.63896 66.3044C2.63896 66.3044 2.63896 66.3044 2.63895 66.3044C2.63895 66.3044 2.63895 66.3044 2.63895 66.3044C2.63895 66.3044 2.63894 66.3044 2.63894 66.3044C2.63894 66.3044 2.63894 66.3044 2.63894 66.3044C2.63894 66.3044 2.63893 66.3044 2.63893 66.3044C2.63893 66.3044 2.63893 66.3044 2.63893 66.3044C2.63892 66.3044 2.63892 66.3044 2.63892 66.3044C2.63892 66.3044 2.63892 66.3044 2.63892 66.3044C2.63891 66.3044 2.63891 66.3044 2.63891 66.3044C2.63891 66.3044 2.63891 66.3044 2.6389 66.3044C2.6389 66.3044 2.6389 66.3044 2.6389 66.3044C2.6389 66.3044 2.6389 66.3044 2.63889 66.3044C2.63889 66.3044 2.63889 66.3044 2.63889 66.3044C2.63889 66.3044 2.63889 66.3044 2.63888 66.3044C2.63888 66.3044 2.63888 66.3044 2.63888 66.3044C2.63888 66.3044 2.63887 66.3044 2.63887 66.3044C2.63887 66.3044 2.63887 66.3044 2.63887 66.3044C2.63887 66.3044 2.63886 66.3044 2.63886 66.3044C2.63886 66.3044 2.63886 66.3044 2.63886 66.3044C2.63885 66.3044 2.63885 66.3044 2.63885 66.3044C2.63885 66.3044 2.63885 66.3044 2.63885 66.3044C2.63884 66.3044 2.63884 66.3044 2.63884 66.3044C2.63884 66.3044 2.63884 66.3044 2.63883 66.3044C2.63883 66.3044 2.63883 66.3044 2.63883 66.3044C2.63883 66.3044 2.63883 66.3044 2.63882 66.3044C2.63882 66.3044 2.63882 66.3044 2.63882 66.3044C2.63882 66.3044 2.63882 66.3044 2.63881 66.3044C2.63881 66.3044 2.63881 66.3044 2.63881 66.3044C2.63881 66.3044 2.6388 66.3044 2.6388 66.3044C2.6388 66.3044 2.6388 66.3044 2.6388 66.3044C2.6388 66.3044 2.63879 66.3044 2.63879 66.3044C2.63879 66.3044 2.63879 66.3044 2.63879 66.3044C2.63878 66.3044 2.63878 66.3044 2.63878 66.3044C2.63878 66.3044 2.63878 66.3044 2.63878 66.3044C2.63877 66.3044 2.63877 66.3044 2.63877 66.3044C2.63877 66.3044 2.63877 66.3044 2.63876 66.3044C2.63876 66.3044 2.63876 66.3044 2.63876 66.3044C2.63876 66.3044 2.63876 66.3044 2.63875 66.3044C2.63875 66.3044 2.63875 66.3044 2.63875 66.3044C2.63875 66.3044 2.63875 66.3044 2.63874 66.3044C2.63874 66.3044 2.63874 66.3044 2.63874 66.3044C2.63874 66.3044 2.63873 66.3044 2.63873 66.3044C2.63873 66.3044 2.63873 66.3044 2.63873 66.3044C2.63873 66.3044 2.63872 66.3044 2.63872 66.3044C2.63872 66.3044 2.63872 66.3044 2.63872 66.3044C2.63871 66.3044 2.63871 66.3044 2.63871 66.3044C2.63871 66.3044 2.63871 66.3044 2.63871 66.3044C2.6387 66.3044 2.6387 66.3044 2.6387 66.3044C2.6387 66.3044 2.6387 66.3044 2.6387 66.3044C2.63869 66.3044 2.63869 66.3044 2.63869 66.3044C2.63869 66.3044 2.63869 66.3044 2.63868 66.3044C2.63868 66.3044 2.63868 66.3044 2.63868 66.3044C2.63868 66.3044 2.63868 66.3044 2.63867 66.3044C2.63867 66.3044 2.63867 66.3044 2.63867 66.3044C2.63867 66.3044 2.63866 66.3044 2.63866 66.3044C2.63866 66.3044 2.63866 66.3044 2.63866 66.3044C2.63866 66.3044 2.63865 66.3044 2.63865 66.3044C2.63865 66.3044 2.63865 66.3044 2.63865 66.3044C2.63864 66.3044 2.63864 66.3044 2.63864 66.3044C2.63864 66.3044 2.63864 66.3044 2.63864 66.3044C2.63863 66.3044 2.63863 66.3044 2.63863 66.3044C2.63863 66.3044 2.63863 66.3044 2.63863 66.3044C2.63862 66.3044 2.63862 66.3044 2.63862 66.3044C2.63862 66.3044 2.63862 66.3044 2.63861 66.3044C2.63861 66.3044 2.63861 66.3044 2.63861 66.3044C2.63861 66.3044 2.63861 66.3044 2.6386 66.3044C2.6386 66.3044 2.6386 66.3044 2.6386 66.3044C2.6386 66.3044 2.63859 66.3044 2.63859 66.3044C2.63859 66.3044 2.63859 66.3044 2.63859 66.3044C2.63859 66.3044 2.63858 66.3044 2.63858 66.3044C2.63858 66.3044 2.63858 66.3044 2.63858 66.3044C2.63857 66.3044 2.63857 66.3044 2.63857 66.3044C2.63857 66.3044 2.63857 66.3044 2.63857 66.3044C2.63856 66.3044 2.63856 66.3044 2.63856 66.3044C2.63856 66.3044 2.63856 66.3044 2.63856 66.3044C2.63855 66.3044 2.63855 66.3044 2.63855 66.3044C2.63855 66.3044 2.63855 66.3044 2.63854 66.3044C2.63854 66.3044 2.63854 66.3044 2.63854 66.3044C2.63854 66.3044 2.63854 66.3044 2.63853 66.3044C2.63853 66.3044 2.63853 66.3044 2.63853 66.3044C2.63853 66.3044 2.63852 66.3044 2.63852 66.3044C2.63852 66.3044 2.63852 66.3044 2.63852 66.3044C2.63852 66.3044 2.63851 66.3044 2.63851 66.3044C2.63851 66.3044 2.63851 66.3044 2.63851 66.3044C2.6385 66.3044 2.6385 66.3044 2.6385 66.3044C2.6385 66.3044 2.6385 66.3044 2.6385 66.3044C2.63849 66.3044 2.63849 66.3044 2.63849 66.3044C2.63849 66.3044 2.63849 66.3044 2.63849 66.3044C2.63848 66.3044 2.63848 66.3044 2.63848 66.3044C2.63848 66.3044 2.63848 66.3044 2.63847 66.3044C2.63847 66.3044 2.63847 66.3044 2.63847 66.3044C2.63847 66.3044 2.63847 66.3044 2.63846 66.3044C2.63846 66.3044 2.63846 66.3044 2.63846 66.3044C2.63846 66.3044 2.63845 66.3044 2.63845 66.3044C2.63845 66.3044 2.63845 66.3044 2.63845 66.3044C2.63845 66.3044 2.63844 66.3044 2.63844 66.3044C2.63844 66.3044 2.63844 66.3044 2.63844 66.3044C2.63843 66.3044 2.63843 66.3044 2.63843 66.3044C2.63843 66.3044 2.63843 66.3044 2.63843 66.3044C2.63842 66.3044 2.63842 66.3044 2.63842 66.3044C2.63842 66.3044 2.63842 66.3044 2.63842 66.3044C2.63841 66.3044 2.63841 66.3044 2.63841 66.3044C2.63841 66.3044 2.63841 66.3044 2.6384 66.3044C2.6384 66.3044 2.6384 66.3044 2.6384 66.3044C2.6384 66.3044 2.6384 66.3044 2.63839 66.3044C2.63839 66.3044 2.63839 66.3044 2.63839 66.3044C2.63839 66.3044 2.63838 66.3044 2.63838 66.3044C2.63838 66.3044 2.63838 66.3044 2.63838 66.3044C2.63838 66.3044 2.63837 66.3044 2.63837 66.3044C2.63837 66.3044 2.63837 66.3044 2.63837 66.3044C2.63836 66.3044 2.63836 66.3044 2.63836 66.3044C2.63836 66.3044 2.63836 66.3044 2.63836 66.3044C2.63835 66.3044 2.63835 66.3044 2.63835 66.3044C2.63835 66.3044 2.63835 66.3044 2.63835 66.3044C2.63834 66.3044 2.63834 66.3044 2.63834 66.3044C2.63834 66.3044 2.63834 66.3044 2.63833 66.3044C2.63833 66.3044 2.63833 66.3044 2.63833 66.3044C2.63833 66.3044 2.63833 66.3044 2.63832 66.3044C2.63832 66.3044 2.63832 66.3044 2.63832 66.3044C2.63832 66.3044 2.63831 66.3044 2.63831 66.3044C2.63831 66.3044 2.63831 66.3044 2.63831 66.3044C2.63831 66.3044 2.6383 66.3044 2.6383 66.3044C2.6383 66.3044 2.6383 66.3044 2.6383 66.3044C2.6383 66.3044 2.63829 66.3044 2.63829 66.3044C2.63829 66.3044 2.63829 66.3044 2.63829 66.3044C2.63828 66.3044 2.63828 66.3044 2.63828 66.3044C2.63828 66.3044 2.63828 66.3044 2.63828 66.3044C2.63827 66.3044 2.63827 66.3044 2.63827 66.3044C2.63827 66.3044 2.63827 66.3044 2.63826 66.3044C2.63826 66.3044 2.63826 66.3044 2.63826 66.3044C2.63826 66.3044 2.63826 66.3044 2.63825 66.3044C2.63825 66.3044 2.63825 66.3044 2.63825 66.3044C2.63825 66.3044 2.63824 66.3044 2.63824 66.3044C2.63824 66.3044 2.63824 66.3044 2.63824 66.3044C2.63824 66.3044 2.63823 66.3044 2.63823 66.3044C2.63823 66.3044 2.63823 66.3044 2.63823 66.3044C2.63823 66.3044 2.63822 66.3044 2.63822 66.3044C2.63822 66.3044 2.63822 66.3044 2.63822 66.3044C2.63821 66.3044 2.63821 66.3044 2.63821 66.3044C2.63821 66.3044 2.63821 66.3044 2.63821 66.3044C2.6382 66.3044 2.6382 66.3044 2.6382 66.3044C2.6382 66.3044 2.6382 66.3044 2.63819 66.3044C2.63819 66.3044 2.63819 66.3044 2.63819 66.3044C2.63819 66.3044 2.63819 66.3044 2.63818 66.3044C2.63818 66.3044 2.63818 66.3044 2.63818 66.3044C2.63818 66.3044 2.63817 66.3044 2.63817 66.3044C2.63817 66.3044 2.63817 66.3044 2.63817 66.3044C2.63817 66.3044 2.63816 66.3044 2.63816 66.3044C2.63816 66.3044 2.63816 66.3044 2.63816 66.3044C2.63816 66.3044 2.63815 66.3044 2.63815 66.3044C2.63815 66.3044 2.63815 66.3044 2.63815 66.3044C2.63814 66.3044 2.63814 66.3044 2.63814 66.3044C2.63814 66.3044 2.63814 66.3044 2.63814 66.3044C2.63813 66.3044 2.63813 66.3044 2.63813 66.3044C2.63813 66.3044 2.63813 66.3044 2.63812 66.3044C2.63812 66.3044 2.63812 66.3044 2.63812 66.3044C2.63812 66.3044 2.63812 66.3044 2.63811 66.3044C2.63811 66.3044 2.63811 66.3044 2.63811 66.3044C2.63811 66.3044 2.6381 66.3044 2.6381 66.3044C2.6381 66.3044 2.6381 66.3044 2.6381 66.3044C2.6381 66.3044 2.63809 66.3044 2.63809 66.3044C2.63809 66.3044 2.63809 66.3044 2.63809 66.3044C2.63809 66.3044 2.63808 66.3044 2.63808 66.3044C2.63808 66.3044 2.63808 66.3044 2.63808 66.3044C2.63807 66.3044 2.63807 66.3044 2.63807 66.3044C2.63807 66.3044 2.63807 66.3044 2.63807 66.3044C2.63806 66.3044 2.63806 66.3044 2.63806 66.3044C2.63806 66.3044 2.63806 66.3044 2.63805 66.3044C2.63805 66.3044 2.63805 66.3044 2.63805 66.3044C2.63805 66.3044 2.63805 66.3044 2.63804 66.3044C2.63804 66.3044 2.63804 66.3044 2.63804 66.3044C2.63804 66.3044 2.63803 66.3044 2.63803 66.3044C2.63803 66.3044 2.63803 66.3044 2.63803 66.3044C2.63803 66.3044 2.63802 66.3044 2.63802 66.3044C2.63802 66.3044 2.63802 66.3044 2.63802 66.3044C2.63802 66.3044 2.63801 66.3044 2.63801 66.3044C2.63801 66.3044 2.63801 66.3044 2.63801 66.3044C2.638 66.3044 2.638 66.3044 2.638 66.3044C2.638 66.3044 2.638 66.3044 2.638 66.3044C2.63799 66.3044 2.63799 66.3044 2.63799 66.3044C2.63799 66.3044 2.63799 66.3044 2.63798 66.3044C2.63798 66.3044 2.63798 66.3044 2.63798 66.3044C2.63798 66.3044 2.63798 66.3044 2.63797 66.3044C2.63797 66.3044 2.63797 66.3044 2.63797 66.3044C2.63797 66.3044 2.63796 66.3044 2.63796 66.3044C2.63796 66.3044 2.63796 66.3044 2.63796 66.3044C2.63796 66.3044 2.63795 66.3044 2.63795 66.3044C2.63795 66.3044 2.63795 66.3044 2.63795 66.3044C2.63795 66.3044 2.63794 66.3044 2.63794 66.3044C2.63794 66.3044 2.63794 66.3044 2.63794 66.3044C2.63793 66.3044 2.63793 66.3044 2.63793 66.3044C2.63793 66.3044 2.63793 66.3044 2.63793 66.3044C2.63792 66.3044 2.63792 66.3044 2.63792 66.3044C2.63792 66.3044 2.63792 66.3044 2.63791 66.3044C2.63791 66.3044 2.63791 66.3044 2.63791 66.3044C2.63791 66.3044 2.63791 66.3044 2.6379 66.3044C2.6379 66.3044 2.6379 66.3044 2.6379 66.3044C2.6379 66.3044 2.6379 66.3044 2.63789 66.3044C2.63789 66.3044 2.63789 66.3044 2.63789 66.3044C2.63789 66.3044 2.63788 66.3044 2.63788 66.3044C2.63788 66.3044 2.63788 66.3044 2.63788 66.3044C2.63788 66.3044 2.63787 66.3044 2.63787 66.3044C2.63787 66.3044 2.63787 66.3044 2.63787 66.3044C2.63786 66.3044 2.63786 66.3044 2.63786 66.3044C2.63786 66.3044 2.63786 66.3044 2.63786 66.3044C2.63785 66.3044 2.63785 66.3044 2.63785 66.3044C2.63785 66.3044 2.63785 66.3044 2.63784 66.3044C2.63784 66.3044 2.63784 66.3044 2.63784 66.3044C2.63784 66.3044 2.63784 66.3044 2.63783 66.3044C2.63783 66.3044 2.63783 66.3044 2.63783 66.3044C2.63783 66.3044 2.63783 66.3044 2.63782 66.3044C2.63782 66.3044 2.63782 66.3044 2.63782 66.3044C2.63782 66.3044 2.63781 66.3044 2.63781 66.3044C2.63781 66.3044 2.63781 66.3044 2.63781 66.3044C2.63781 66.3044 2.6378 66.3044 2.6378 66.3044C2.6378 66.3044 2.6378 66.3044 2.6378 66.3044C2.63779 66.3044 2.63779 66.3044 2.63779 66.3044C2.63779 66.3044 2.63779 66.3044 2.63779 66.3044C2.63778 66.3044 2.63778 66.3044 2.63778 66.3044C2.63778 66.3044 2.63778 66.3044 2.63777 66.3044C2.63777 66.3044 2.63777 66.3044 2.63777 66.3044C2.63777 66.3044 2.63777 66.3044 2.63776 66.3044C2.63776 66.3044 2.63776 66.3044 2.63776 66.3044C2.63776 66.3044 2.63776 66.3044 2.63775 66.3044C2.63775 66.3044 2.63775 66.3044 2.63775 66.3044C2.63775 66.3044 2.63774 66.3044 2.63774 66.3044C2.63774 66.3044 2.63774 66.3044 2.63774 66.3044C2.63774 66.3044 2.63773 66.3044 2.63773 66.3044C2.63773 66.3044 2.63773 66.3044 2.63773 66.3044C2.63772 66.3044 2.63772 66.3044 2.63772 66.3044C2.63772 66.3044 2.63772 66.3044 2.63772 66.3044C2.63771 66.3044 2.63771 66.3044 2.63771 66.3044C2.63771 66.3044 2.63771 66.3044 2.6377 66.3044C2.6377 66.3044 2.6377 66.3044 2.6377 66.3044C2.6377 66.3044 2.6377 66.3044 2.63769 66.3044C2.63769 66.3044 2.63769 66.3044 2.63769 66.3044C2.63769 66.3044 2.63769 66.3044 2.63768 66.3044C2.63768 66.3044 2.63768 66.3044 2.63768 66.3044C2.63768 66.3044 2.63767 66.3044 2.63767 66.3044C2.63767 66.3044 2.63767 66.3044 2.63767 66.3044C2.63767 66.3044 2.63766 66.3044 2.63766 66.3044C2.63766 66.3044 2.63766 66.3044 2.63766 66.3044C2.63765 66.3044 2.63765 66.3044 2.63765 66.3044C2.63765 66.3044 2.63765 66.3044 2.63765 66.3044C2.63764 66.3044 2.63764 66.3044 2.63764 66.3044C2.63764 66.3044 2.63764 66.3044 2.63763 66.3044C2.63763 66.3044 2.63763 66.3044 2.63763 66.3044C2.63763 66.3044 2.63763 66.3044 2.63762 66.3044C2.63762 66.3044 2.63762 66.3044 2.63762 66.3044C2.63762 66.3044 2.63762 66.3044 2.63761 66.3044C2.63761 66.3044 2.63761 66.3044 2.63761 66.3044C2.63761 66.3044 2.6376 66.3044 2.6376 66.3044C2.6376 66.3044 2.6376 66.3044 2.6376 66.3044C2.6376 66.3044 2.63759 66.3044 2.63759 66.3044C2.63759 66.3044 2.63759 66.3044 2.63759 66.3044C2.63758 66.3044 2.63758 66.3044 2.63758 66.3044C2.63758 66.3044 2.63758 66.3044 2.63758 66.3044C2.63757 66.3044 2.63757 66.3044 2.63757 66.3044C2.63757 66.3044 2.63757 66.3044 2.63756 66.3044C2.63756 66.3044 2.63756 66.3044 2.63756 66.3044C2.63756 66.3044 2.63756 66.3044 2.63755 66.3044C2.63755 66.3044 2.63755 66.3044 2.63755 66.3044C2.63755 66.3044 2.63755 66.3044 2.63754 66.3044C2.63754 66.3044 2.63754 66.3044 2.63754 66.3044C2.63754 66.3044 2.63753 66.3044 2.63753 66.3044C2.63753 66.3044 2.63753 66.3044 2.63753 66.3044C2.63753 66.3044 2.63752 66.3044 2.63752 66.3044C2.63752 66.3044 2.63752 66.3044 2.63752 66.3044C2.63751 66.3044 2.63751 66.3044 2.63751 66.3044C2.63751 66.3044 2.63751 66.3044 2.63751 66.3044C2.6375 66.3044 2.6375 66.3044 2.6375 66.3044C2.6375 66.3044 2.6375 66.3044 2.6375 66.3044C2.63749 66.3044 2.63749 66.3044 2.63749 66.3044C2.63749 66.3044 2.63749 66.3044 2.63748 66.3044C2.63748 66.3044 2.63748 66.3044 2.63748 66.3044C2.63748 66.3044 2.63748 66.3044 2.63747 66.3044C2.63747 66.3044 2.63747 66.3044 2.63747 66.3044C2.63747 66.3044 2.63746 66.3044 2.63746 66.3044C2.63746 66.3044 2.63746 66.3044 2.63746 66.3044C2.63746 66.3044 2.63745 66.3044 2.63745 66.3044C2.63745 66.3044 2.63745 66.3044 2.63745 66.3044C2.63744 66.3044 2.63744 66.3044 2.63744 66.3044C2.63744 66.3044 2.63744 66.3044 2.63744 66.3044C2.63743 66.3044 2.63743 66.3044 2.63743 66.3044C2.63743 66.3044 2.63743 66.3044 2.63743 66.3044C2.63742 66.3044 2.63742 66.3044 2.63742 66.3044C2.63742 66.3044 2.63742 66.3044 2.63741 66.3044C2.63741 66.3044 2.63741 66.3044 2.63741 66.3044C2.63741 66.3044 2.63741 66.3044 2.6374 66.3044C2.6374 66.3044 2.6374 66.3044 2.6374 66.3044C2.6374 66.3044 2.63739 66.3044 2.63739 66.3044C2.63739 66.3044 2.63739 66.3044 2.63739 66.3044C2.63739 66.3044 2.63738 66.3044 2.63738 66.3044C2.63738 66.3044 2.63738 66.3044 2.63738 66.3044C2.63737 66.3044 2.63737 66.3044 2.63737 66.3044C2.63737 66.3044 2.63737 66.3044 2.63737 66.3044C2.63736 66.3044 2.63736 66.3044 2.63736 66.3044C2.63736 66.3044 2.63736 66.3044 2.63736 66.3044C2.63735 66.3044 2.63735 66.3044 2.63735 66.3044C2.63735 66.3044 2.63735 66.3044 2.63734 66.3044C2.63734 66.3044 2.63734 66.3044 2.63734 66.3044C2.63734 66.3044 2.63734 66.3044 2.63733 66.3044C2.63733 66.3044 2.63733 66.3044 2.63733 66.3044C2.63733 66.3044 2.63732 66.3044 2.63732 66.3044C2.63732 66.3044 2.63732 66.3044 2.63732 66.3044C2.63732 66.3044 2.63731 66.3044 2.63731 66.3044C2.63731 66.3044 2.63731 66.3044 2.63731 66.3044C2.6373 66.3044 2.6373 66.3044 2.6373 66.3044C2.6373 66.3044 2.6373 66.3044 2.6373 66.3044C2.63729 66.3044 2.63729 66.3044 2.63729 66.3044C2.63729 66.3044 2.63729 66.3044 2.63729 66.3044C2.63728 66.3044 2.63728 66.3044 2.63728 66.3044C2.63728 66.3044 2.63728 66.3044 2.63727 66.3044C2.63727 66.3044 2.63727 66.3044 2.63727 66.3044C2.63727 66.3044 2.63727 66.3044 2.63726 66.3044C2.63726 66.3044 2.63726 66.3044 2.63726 66.3044C2.63726 66.3044 2.63725 66.3044 2.63725 66.3044C2.63725 66.3044 2.63725 66.3044 2.63725 66.3044C2.63725 66.3044 2.63724 66.3044 2.63724 66.3044C2.63724 66.3044 2.63724 66.3044 2.63724 66.3044C2.63723 66.3044 2.63723 66.3044 2.63723 66.3044C2.63723 66.3044 2.63723 66.3044 2.63723 66.3044C2.63722 66.3044 2.63722 66.3044 2.63722 66.3044C2.63722 66.3044 2.63722 66.3044 2.63722 66.3044C2.63721 66.3044 2.63721 66.3044 2.63721 66.3044C2.63721 66.3044 2.63721 66.3044 2.6372 66.3044C2.6372 66.3044 2.6372 66.3044 2.6372 66.3044C2.6372 66.3044 2.6372 66.3044 2.63719 66.3044C2.63719 66.3044 2.63719 66.3044 2.63719 66.3044C2.63719 66.3044 2.63718 66.3044 2.63718 66.3044C2.63718 66.3044 2.63718 66.3044 2.63718 66.3044C2.63718 66.3044 2.63717 66.3044 2.63717 66.3044C2.63717 66.3044 2.63717 66.3044 2.63717 66.3044C2.63716 66.3044 2.63716 66.3044 2.63716 66.3044C2.63716 66.3044 2.63716 66.3044 2.63716 66.3044C2.63715 66.3044 2.63715 66.3044 2.63715 66.3044C2.63715 66.3044 2.63715 66.3044 2.63715 66.3044C2.63714 66.3044 2.63714 66.3044 2.63714 66.3044C2.63714 66.3044 2.63714 66.3044 2.63713 66.3044C2.63713 66.3044 2.63713 66.3044 2.63713 66.3044C2.63713 66.3044 2.63713 66.3044 2.63712 66.3044C2.63712 66.3044 2.63712 66.3044 2.63712 66.3044C2.63712 66.3044 2.63711 66.3044 2.63711 66.3044C2.63711 66.3044 2.63711 66.3044 2.63711 66.3044C2.63711 66.3044 2.6371 66.3044 2.6371 66.3044C2.6371 66.3044 2.6371 66.3044 2.6371 66.3044C2.6371 66.3044 2.63709 66.3044 2.63709 66.3044C2.63709 66.3044 2.63709 66.3044 2.63709 66.3044C2.63708 66.3044 2.63708 66.3044 2.63708 66.3044C2.63708 66.3044 2.63708 66.3044 2.63708 66.3044C2.63707 66.3044 2.63707 66.3044 2.63707 66.3044C2.63707 66.3044 2.63707 66.3044 2.63706 66.3044C2.63706 66.3044 2.63706 66.3044 2.63706 66.3044C2.63706 66.3044 2.63706 66.3044 2.63705 66.3044C2.63705 66.3044 2.63705 66.3044 2.63705 66.3044C2.63705 66.3044 2.63704 66.3044 2.63704 66.3044C2.63704 66.3044 2.63704 66.3044 2.63704 66.3044C2.63704 66.3044 2.63703 66.3044 2.63703 66.3044C2.63703 66.3044 2.63703 66.3044 2.63703 66.3044C2.63703 66.3044 2.63702 66.3044 2.63702 66.3044C2.63702 66.3044 2.63702 66.3044 2.63702 66.3044C2.63701 66.3044 2.63701 66.3044 2.63701 66.3044C2.63701 66.3044 2.63701 66.3044 2.63701 66.3044C2.637 66.3044 2.637 66.3044 2.637 66.3044C2.637 66.3044 2.637 66.3044 2.63699 66.3044C2.63699 66.3044 2.63699 66.3044 2.63699 66.3044C2.63699 66.3044 2.63699 66.3044 2.63698 66.3044C2.63698 66.3044 2.63698 66.3044 2.63698 66.3044C2.63698 66.3044 2.63697 66.3044 2.63697 66.3044C2.63697 66.3044 2.63697 66.3044 2.63697 66.3044C2.63697 66.3044 2.63696 66.3044 2.63696 66.3044C2.63696 66.3044 2.63696 66.3044 2.63696 66.3044C2.63696 66.3044 2.63695 66.3044 2.63695 66.3044C2.63695 66.3044 2.63695 66.3044 2.63695 66.3044C2.63694 66.3044 2.63694 66.3044 2.63694 66.3044C2.63694 66.3044 2.63694 66.3044 2.63694 66.3044C2.63693 66.3044 2.63693 66.3044 2.63693 66.3044C2.63693 66.3044 2.63693 66.3044 2.63692 66.3044C2.63692 66.3044 2.63692 66.3044 2.63692 66.3044C2.63692 66.3044 2.63692 66.3044 2.63691 66.3044C2.63691 66.3044 2.63691 66.3044 2.63691 66.3044C2.63691 66.3044 2.6369 66.3044 2.6369 66.3044C2.6369 66.3044 2.6369 66.3044 2.6369 66.3044C2.6369 66.3044 2.63689 66.3044 2.63689 66.3044C2.63689 66.3044 2.63689 66.3044 2.63689 66.3044C2.63689 66.3044 2.63688 66.3044 2.63688 66.3044C2.63688 66.3044 2.63688 66.3044 2.63688 66.3044C2.63687 66.3044 2.63687 66.3044 2.63687 66.3044C2.63687 66.3044 2.63687 66.3044 2.63687 66.3044C2.63686 66.3044 2.63686 66.3044 2.63686 66.3044C2.63686 66.3044 2.63686 66.3044 2.63685 66.3044C2.63685 66.3044 2.63685 66.3044 2.63685 66.3044C2.63685 66.3044 2.63685 66.3044 2.63684 66.3044C2.63684 66.3044 2.63684 66.3044 2.63684 66.3044C2.63684 66.3044 2.63683 66.3044 2.63683 66.3044C2.63683 66.3044 2.63683 66.3044 2.63683 66.3044C2.63683 66.3044 2.63682 66.3044 2.63682 66.3044C2.63682 66.3044 2.63682 66.3044 2.63682 66.3044C2.63682 66.3044 2.63681 66.3044 2.63681 66.3044C2.63681 66.3044 2.63681 66.3044 2.63681 66.3044C2.6368 66.3044 2.6368 66.3044 2.6368 66.3044C2.6368 66.3044 2.6368 66.3044 2.6368 66.3044C2.63679 66.3044 2.63679 66.3044 2.63679 66.3044C2.63679 66.3044 2.63679 66.3044 2.63678 66.3044C2.63678 66.3044 2.63678 66.3044 2.63678 66.3044C2.63678 66.3044 2.63678 66.3044 2.63677 66.3044C2.63677 66.3044 2.63677 66.3044 2.63677 66.3044C2.63677 66.3044 2.63676 66.3044 2.63676 66.3044C2.63676 66.3044 2.63676 66.3044 2.63676 66.3044C2.63676 66.3044 2.63675 66.3044 2.63675 66.3044C2.63675 66.3044 2.63675 66.3044 2.63675 66.3044C2.63675 66.3044 2.63674 66.3044 2.63674 66.3044C2.63674 66.3044 2.63674 66.3044 2.63674 66.3044C2.63673 66.3044 2.63673 66.3044 2.63673 66.3044C2.63673 66.3044 2.63673 66.3044 2.63673 66.3044C2.63672 66.3044 2.63672 66.3044 2.63672 66.3044C2.63672 66.3044 2.63672 66.3044 2.63671 66.3044C2.63671 66.3044 2.63671 66.3044 2.63671 66.3044C2.63671 66.3044 2.63671 66.3044 2.6367 66.3044C2.6367 66.3044 2.6367 66.3044 2.6367 66.3044C2.6367 66.3044 2.6367 66.3044 2.63669 66.3044C2.63669 66.3044 2.63669 66.3044 2.63669 66.3044C2.63669 66.3044 2.63668 66.3044 2.63668 66.3044C2.63668 66.3044 2.63668 66.3044 2.63668 66.3044C2.63668 66.3044 2.63667 66.3044 2.63667 66.3044C2.63667 66.3044 2.63667 66.3044 2.63667 66.3044C2.63666 66.3044 2.63666 66.3044 2.63666 66.3044C2.63666 66.3044 2.63666 66.3044 2.63666 66.3044C2.63665 66.3044 2.63665 66.3044 2.63665 66.3044C2.63665 66.3044 2.63665 66.3044 2.63664 66.3044C2.63664 66.3044 2.63664 66.3044 2.63664 66.3044C2.63664 66.3044 2.63664 66.3044 2.63663 66.3044C2.63663 66.3044 2.63663 66.3044 2.63663 66.3044C2.63663 66.3044 2.63663 66.3044 2.63662 66.3044C2.63662 66.3044 2.63662 66.3044 2.63662 66.3044C2.63662 66.3044 2.63661 66.3044 2.63661 66.3044C2.63661 66.3044 2.63661 66.3044 2.63661 66.3044C2.63661 66.3044 2.6366 66.3044 2.6366 66.3044C2.6366 66.3044 2.6366 66.3044 2.6366 66.3044C2.63659 66.3044 2.63659 66.3044 2.63659 66.3044C2.63659 66.3044 2.63659 66.3044 2.63659 66.3044C2.63658 66.3044 2.63658 66.3044 2.63658 66.3044C2.63658 66.3044 2.63658 66.3044 2.63657 66.3044C2.63657 66.3044 2.63657 66.3044 2.63657 66.3044C2.63657 66.3044 2.63657 66.3044 2.63656 66.3044C2.63656 66.3044 2.63656 66.3044 2.63656 66.3044C2.63656 66.3044 2.63656 66.3044 2.63655 66.3044C2.63655 66.3044 2.63655 66.3044 2.63655 66.3044C2.63655 66.3044 2.63654 66.3044 2.63654 66.3044C2.63654 66.3044 2.63654 66.3044 2.63654 66.3044C2.63654 66.3044 2.63653 66.3044 2.63653 66.3044C2.63653 66.3044 2.63653 66.3044 2.63653 66.3044C2.63652 66.3044 2.63652 66.3044 2.63652 66.3044C2.63652 66.3044 2.63652 66.3044 2.63652 66.3044C2.63651 66.3044 2.63651 66.3044 2.63651 66.3044C2.63651 66.3044 2.63651 66.3044 2.6365 66.3044C2.6365 66.3044 2.6365 66.3044 2.6365 66.3044C2.6365 66.3044 2.6365 66.3044 2.63649 66.3044C2.63649 66.3044 2.63649 66.3044 2.63649 66.3044C2.63649 66.3044 2.63649 66.3044 2.63648 66.3044C2.63648 66.3044 2.63648 66.3044 2.63648 66.3044C2.63648 66.3044 2.63647 66.3044 2.63647 66.3044C2.63647 66.3044 2.63647 66.3044 2.63647 66.3044C2.63647 66.3044 2.63646 66.3044 2.63646 66.3044C2.63646 66.3044 2.63646 66.3044 2.63646 66.3044C2.63645 66.3044 2.63645 66.3044 2.63645 66.3044C2.63645 66.3044 2.63645 66.3044 2.63645 66.3044C2.63644 66.3044 2.63644 66.3044 2.63644 66.3044C2.63644 66.3044 2.63644 66.3044 2.63643 66.3044C2.63643 66.3044 2.63643 66.3044 2.63643 66.3044C2.63643 66.3044 2.63643 66.3044 2.63642 66.3044C2.63642 66.3044 2.63642 66.3044 2.63642 66.3044C2.63642 66.3044 2.63642 66.3044 2.63641 66.3044C2.63641 66.3044 2.63641 66.3044 2.63641 66.3044C2.63641 66.3044 2.6364 66.3044 2.6364 66.3044C2.6364 66.3044 2.6364 66.3044 2.6364 66.3044C2.6364 66.3044 2.63639 66.3044 2.63639 66.3044C2.63639 66.3044 2.63639 66.3044 2.63639 66.3044C2.63638 66.3044 2.63638 66.3044 2.63638 66.3044C2.63638 66.3044 2.63638 66.3044 2.63638 66.3044C2.63637 66.3044 2.63637 66.3044 2.63637 66.3044C2.63637 66.3044 2.63637 66.3044 2.63636 66.3044C2.63636 66.3044 2.63636 66.3044 2.63636 66.3044C2.63636 66.3044 2.63636 66.3044 2.63635 66.3044C2.63635 66.3044 2.63635 66.3044 2.63635 66.3044C2.63635 66.3044 2.63635 66.3044 2.63634 66.3044C2.63634 66.3044 2.63634 66.3044 2.63634 66.3044C2.63634 66.3044 2.63633 66.3044 2.63633 66.3044C2.63633 66.3044 2.63633 66.3044 2.63633 66.3044C2.63633 66.3044 2.63632 66.3044 2.63632 66.3044C2.63632 66.3044 2.63632 66.3044 2.63632 66.3044C2.63631 66.3044 2.63631 66.3044 2.63631 66.3044C2.63631 66.3044 2.63631 66.3044 2.63631 66.3044C2.6363 66.3044 2.6363 66.3044 2.6363 66.3044C2.6363 66.3044 2.6363 66.3044 2.6363 66.3044C2.63629 66.3044 2.63629 66.3044 2.63629 66.3044C2.63629 66.3044 2.63629 66.3044 2.63628 66.3044C2.63628 66.3044 2.63628 66.3044 2.63628 66.3044C2.63628 66.3044 2.63628 66.3044 2.63627 66.3044C2.63627 66.3044 2.63627 66.3044 2.63627 66.3044C2.63627 66.3044 2.63626 66.3044 2.63626 66.3044C2.63626 66.3044 2.63626 66.3044 2.63626 66.3044C2.63626 66.3044 2.63625 66.3044 2.63625 66.3044C2.63625 66.3044 2.63625 66.3044 2.63625 66.3044C2.63624 66.3044 2.63624 66.3044 2.63624 66.3044C2.63624 66.3044 2.63624 66.3044 2.63624 66.3044C2.63623 66.3044 2.63623 66.3044 2.63623 66.3044V67.0876ZM2.24462 61.832V66.696H3.02784V61.832H2.24462ZM2.63899 61.4404H2.63623V62.2236H2.63899V61.4404ZM10.4712 54.535C10.4712 58.306 7.0099 61.4404 2.63899 61.4404V62.2236C7.35181 62.2236 11.2544 58.824 11.2544 54.535H10.4712ZM2.63899 47.6295C7.0099 47.6295 10.4712 50.7639 10.4712 54.535H11.2544C11.2544 50.2459 7.35181 46.8463 2.63899 46.8463V47.6295ZM2.63623 47.6295H2.63899V46.8463H2.63623V47.6295ZM2.24462 42.374V47.2379H3.02784V42.374H2.24462ZM2.63899 41.9824H2.63623V42.7656H2.63899V41.9824ZM10.4712 35.0769C10.4712 38.848 7.0099 41.9824 2.63899 41.9824V42.7656C7.35181 42.7656 11.2544 39.366 11.2544 35.0769H10.4712ZM2.63899 28.1715C7.0099 28.1715 10.4712 31.3059 10.4712 35.0769H11.2544C11.2544 30.7879 7.35181 27.3883 2.63899 27.3883V28.1715ZM2.63623 28.1715H2.63899V27.3883H2.63623V28.1715ZM2.24462 22.9159V27.7799H3.02784V22.9159H2.24462ZM2.63899 22.5243H2.63623V23.3075H2.63899V22.5243ZM10.4712 15.6189C10.4712 19.39 7.0099 22.5243 2.63899 22.5243V23.3075C7.35181 23.3075 11.2544 19.9079 11.2544 15.6189H10.4712Z" fill="#D9D9D9" mask="url(#path-1-inside-1_4786_6089)"/>
</g>
<defs>
<filter id="filter0_dd_4786_6089" x="0.398468" y="0.000152826" width="278.602" height="89.5105" filterUnits="userSpaceOnUse" color-interpolation-filters="sRGB">
<feFlood flood-opacity="0" result="BackgroundImageFix"/>
<feColorMatrix in="SourceAlpha" type="matrix" values="0 0 0 0 0 0 0 0 0 0 0 0 0 0 0 0 0 0 127 0" result="hardAlpha"/>
<feOffset dy="1.11888"/>
<feGaussianBlur stdDeviation="1.11888"/>
<feComposite in2="hardAlpha" operator="out"/>
<feColorMatrix type="matrix" values="0 0 0 0 0 0 0 0 0 0 0 0 0 0 0 0 0 0 0.1 0"/>
<feBlend mode="normal" in2="BackgroundImageFix" result="effect1_dropShadow_4786_6089"/>
<feColorMatrix in="SourceAlpha" type="matrix" values="0 0 0 0 0 0 0 0 0 0 0 0 0 0 0 0 0 0 127 0" result="hardAlpha"/>
<feOffset/>
<feGaussianBlur stdDeviation="1.11888"/>
<feComposite in2="hardAlpha" operator="out"/>
<feColorMatrix type="matrix" values="0 0 0 0 0 0 0 0 0 0 0 0 0 0 0 0 0 0 0.14 0"/>
<feBlend mode="normal" in2="effect1_dropShadow_4786_6089" result="effect2_dropShadow_4786_6089"/>
<feBlend mode="normal" in="SourceGraphic" in2="effect2_dropShadow_4786_6089" result="shape"/>
</filter>
</defs>
</svg>
