<svg xmlns="http://www.w3.org/2000/svg" width="279" height="90" fill="none"><g filter="url(#a)"><mask id="b" fill="#fff"><path fill-rule="evenodd" d="M10.863 15.619c0-3.406-2.63-6.268-6.187-7.072a13.417 13.417 0 0 1 11.387-6.31h247.273c7.415 0 13.426 6.012 13.426 13.428v57.062c0 7.416-6.011 13.427-13.426 13.427H16.063a13.405 13.405 0 0 1-10.675-5.282c3.19-1.003 5.475-3.704 5.475-6.879 0-4.03-3.682-7.297-8.224-7.297h-.003v-4.864h.003c4.542 0 8.224-3.267 8.224-7.297 0-4.03-3.682-7.297-8.224-7.297h-.003v-4.864h.003c4.542 0 8.224-3.267 8.224-7.297 0-4.03-3.682-7.297-8.224-7.297h-.003v-4.864h.003c4.542 0 8.224-3.267 8.224-7.297Z" clip-rule="evenodd"/></mask><path fill="#FEFEFE" fill-rule="evenodd" d="M10.863 15.619c0-3.406-2.63-6.268-6.187-7.072a13.417 13.417 0 0 1 11.387-6.31h247.273c7.415 0 13.426 6.012 13.426 13.428v57.062c0 7.416-6.011 13.427-13.426 13.427H16.063a13.405 13.405 0 0 1-10.675-5.282c3.19-1.003 5.475-3.704 5.475-6.879 0-4.03-3.682-7.297-8.224-7.297h-.003v-4.864h.003c4.542 0 8.224-3.267 8.224-7.297 0-4.03-3.682-7.297-8.224-7.297h-.003v-4.864h.003c4.542 0 8.224-3.267 8.224-7.297 0-4.03-3.682-7.297-8.224-7.297h-.003v-4.864h.003c4.542 0 8.224-3.267 8.224-7.297Z" clip-rule="evenodd"/><path fill="#D9D9D9" d="m4.676 8.547-.332-.208-.293.469.538.121.087-.382Zm.712 72.325L5.27 80.5l-.532.168.339.443.311-.238ZM2.636 66.696h-.391v.392h.391v-.392Zm0-4.864v-.392h-.391v.392h.391Zm0-14.594h-.391v.392h.391v-.392Zm0-4.864v-.392h-.391v.392h.391Zm0-14.594h-.391v.392h.391v-.392Zm0-4.864v-.392h-.391v.392h.391ZM4.59 8.929c3.413.772 5.882 3.5 5.882 6.69h.783c0-3.623-2.792-6.617-6.492-7.454l-.173.764Zm11.474-7.083A13.809 13.809 0 0 0 4.343 8.34l.665.416A13.026 13.026 0 0 1 16.063 2.63v-.784Zm247.273 0H16.063v.784h247.273v-.784Zm13.818 13.819c0-7.632-6.187-13.819-13.818-13.819v.784c7.199 0 13.035 5.835 13.035 13.035h.783Zm0 57.062V15.664h-.783v57.063h.783Zm-13.818 13.819c7.631 0 13.818-6.187 13.818-13.819h-.783c0 7.2-5.836 13.035-13.035 13.035v.784Zm-247.273 0h247.273v-.784H16.063v.784ZM5.077 81.11a13.797 13.797 0 0 0 10.986 5.436v-.784c-4.226 0-7.981-2.01-10.364-5.127l-.622.475Zm5.394-7.117c0 2.974-2.143 5.544-5.2 6.506l.235.747c3.322-1.045 5.748-3.877 5.748-7.253h-.783ZM2.64 67.088c4.37 0 7.832 3.134 7.832 6.905h.783c0-4.289-3.902-7.689-8.615-7.689v.784Zm-.003 0h.003v-.784h-.002v.784Zm-.391-5.256v4.864h.783v-4.864h-.783Zm.394-.392h-.003v.784h.003v-.784Zm7.832-6.905c0 3.771-3.461 6.905-7.832 6.905v.784c4.713 0 8.615-3.4 8.615-7.689h-.783ZM2.64 47.63c4.37 0 7.832 3.134 7.832 6.905h.783c0-4.29-3.902-7.689-8.615-7.689v.784Zm-.003 0h.003v-.784h-.003v.784Zm-.391-5.256v4.864h.783v-4.864h-.783Zm.394-.392h-.003v.784h.003v-.784Zm7.832-6.905c0 3.771-3.461 6.905-7.832 6.905v.784c4.713 0 8.615-3.4 8.615-7.69h-.783ZM2.64 28.172c4.37 0 7.832 3.134 7.832 6.905h.783c0-4.29-3.902-7.689-8.615-7.689v.784Zm-.003 0h.003v-.784h-.003v.784Zm-.391-5.256v4.864h.783v-4.864h-.783Zm.394-.392h-.003v.784h.003v-.784Zm7.832-6.905c0 3.771-3.461 6.905-7.832 6.905v.784c4.713 0 8.615-3.4 8.615-7.69h-.783Z" mask="url(#b)"/></g><defs><filter id="a" width="278.602" height="89.51" x=".398" y="0" color-interpolation-filters="sRGB" filterUnits="userSpaceOnUse"><feFlood flood-opacity="0" result="BackgroundImageFix"/><feColorMatrix in="SourceAlpha" result="hardAlpha" values="0 0 0 0 0 0 0 0 0 0 0 0 0 0 0 0 0 0 127 0"/><feOffset dy="1.119"/><feGaussianBlur stdDeviation="1.119"/><feComposite in2="hardAlpha" operator="out"/><feColorMatrix values="0 0 0 0 0 0 0 0 0 0 0 0 0 0 0 0 0 0 0.1 0"/><feBlend in2="BackgroundImageFix" result="effect1_dropShadow_4786_6089"/><feColorMatrix in="SourceAlpha" result="hardAlpha" values="0 0 0 0 0 0 0 0 0 0 0 0 0 0 0 0 0 0 127 0"/><feOffset/><feGaussianBlur stdDeviation="1.119"/><feComposite in2="hardAlpha" operator="out"/><feColorMatrix values="0 0 0 0 0 0 0 0 0 0 0 0 0 0 0 0 0 0 0.14 0"/><feBlend in2="effect1_dropShadow_4786_6089" result="effect2_dropShadow_4786_6089"/><feBlend in="SourceGraphic" in2="effect2_dropShadow_4786_6089" result="shape"/></filter></defs></svg>