<svg xmlns="http://www.w3.org/2000/svg" width="40" height="40" fill="none"><g fill="#FEFEFE"><path d="M31.667 20a1.667 1.667 0 1 1-3.334 0 1.667 1.667 0 0 1 3.334 0Z"/><path fill-rule="evenodd" d="M16.573 5.417h5.187c3.063 0 5.49 0 7.388.255 1.954.263 3.535.816 4.784 2.063 1.54 1.542 2.031 3.605 2.21 6.283.961.422 1.688 1.317 1.766 2.45.009.102.009.21.009.31v6.444c0 .1 0 .208-.007.308-.08 1.133-.807 2.03-1.768 2.453-.179 2.677-.67 4.74-2.21 6.282-1.249 1.247-2.83 1.8-4.784 2.063-1.9.255-4.325.255-7.388.255h-5.187c-3.063 0-5.49 0-7.388-.255-1.953-.263-3.535-.816-4.783-2.063-1.247-1.248-1.8-2.83-2.064-4.783-.255-1.9-.255-4.325-.255-7.389v-.186c0-3.064 0-5.49.255-7.389.264-1.953.817-3.535 2.064-4.783 1.248-1.247 2.83-1.8 4.783-2.063 1.9-.255 4.325-.255 7.388-.255Zm17.04 20.833h-3.23c-3.575 0-6.635-2.713-6.635-6.25s3.06-6.25 6.634-6.25h3.23c-.19-2.235-.619-3.417-1.45-4.247-.705-.705-1.672-1.128-3.349-1.353-1.711-.23-3.97-.233-7.148-.233h-5c-3.178 0-5.435.003-7.15.233-1.675.225-2.642.648-3.347 1.353-.705.705-1.128 1.672-1.353 3.349-.23 1.713-.233 3.97-.233 7.148 0 3.178.003 5.437.233 7.15.225 1.675.648 2.642 1.353 3.347.705.705 1.672 1.128 3.349 1.353 1.713.23 3.97.233 7.148.233h5c3.178 0 5.437-.003 7.15-.233 1.675-.225 2.642-.648 3.347-1.353.831-.83 1.261-2.01 1.451-4.247ZM8.75 13.333a1.25 1.25 0 0 1 1.25-1.25h6.667a1.25 1.25 0 1 1 0 2.5H10a1.25 1.25 0 0 1-1.25-1.25Zm26.123 2.917h-4.49c-2.373 0-4.135 1.765-4.135 3.75s1.762 3.75 4.134 3.75h4.53c.343-.022.491-.253.503-.393v-6.714c-.012-.14-.16-.371-.503-.391l-.039-.002Z" clip-rule="evenodd"/></g></svg>