<svg xmlns="http://www.w3.org/2000/svg" width="43" height="90" fill="none"><g filter="url(#a)"><mask id="b" fill="#fff"><path fill-rule="evenodd" d="M2.238 15.665c0-7.416 6.011-13.427 13.426-13.427H40.28v7.49c-6.35.586-11.19 3.628-11.19 7.292 0 3.664 4.84 6.705 11.19 7.292v3.911c-6.35.587-11.19 3.628-11.19 7.292 0 3.664 4.84 6.706 11.19 7.292v5.133c-6.35.587-11.19 3.628-11.19 7.292 0 3.664 4.84 6.706 11.19 7.292v5.134c-6.35.587-11.19 3.628-11.19 7.292 0 3.664 4.84 6.706 11.19 7.292v5.03H15.664c-7.415 0-13.426-6.01-13.426-13.426V15.665Z" clip-rule="evenodd"/></mask><path fill="#965EFB" fill-opacity=".7" fill-rule="evenodd" d="M2.238 15.665c0-7.416 6.011-13.427 13.426-13.427H40.28v7.49c-6.35.586-11.19 3.628-11.19 7.292 0 3.664 4.84 6.705 11.19 7.292v3.911c-6.35.587-11.19 3.628-11.19 7.292 0 3.664 4.84 6.706 11.19 7.292v5.133c-6.35.587-11.19 3.628-11.19 7.292 0 3.664 4.84 6.706 11.19 7.292v5.134c-6.35.587-11.19 3.628-11.19 7.292 0 3.664 4.84 6.706 11.19 7.292v5.03H15.664c-7.415 0-13.426-6.01-13.426-13.426V15.665Z" clip-rule="evenodd" shape-rendering="crispEdges"/><path fill="#D9D9D9" d="M40.28 2.238h.391v-.392h-.391v.392Zm0 7.49.036.39.355-.033v-.357h-.391Zm0 14.584h.391v-.357l-.355-.033-.036.39Zm0 3.911.036.39.355-.033v-.357h-.391Zm0 14.584h.391v-.357l-.355-.033-.036.39Zm0 5.133.036.39.355-.033v-.357h-.391Zm0 14.584h.391v-.357l-.355-.033-.036.39Zm0 5.134.036.39.355-.033v-.357h-.391Zm0 14.584h.391v-.357l-.355-.033-.036.39Zm0 5.03v.392h.391v-.391h-.391ZM15.664 1.847c-7.631 0-13.818 6.187-13.818 13.819h.783c0-7.2 5.836-13.035 13.035-13.035v-.784Zm24.616 0H15.664v.784H40.28v-.784Zm.391 7.882v-7.49h-.783v7.49h.783ZM29.483 17.02c0-1.645 1.087-3.216 3.033-4.471 1.94-1.25 4.672-2.143 7.8-2.431l-.072-.78c-3.223.297-6.084 1.22-8.152 2.553-2.06 1.328-3.393 3.11-3.393 5.129h.784Zm10.833 6.902c-3.128-.29-5.86-1.181-7.8-2.431-1.946-1.255-3.033-2.826-3.033-4.471h-.784c0 2.019 1.332 3.8 3.393 5.129 2.068 1.333 4.929 2.255 8.152 2.553l.072-.78Zm.355 4.301v-3.911h-.783v3.911h.783Zm-11.188 7.292c0-1.645 1.087-3.216 3.033-4.47 1.94-1.25 4.672-2.143 7.8-2.432l-.072-.78c-3.223.298-6.084 1.22-8.152 2.553-2.06 1.329-3.393 3.11-3.393 5.13h.784Zm10.833 6.902c-3.128-.289-5.86-1.18-7.8-2.431-1.946-1.255-3.033-2.826-3.033-4.47h-.784c0 2.018 1.332 3.8 3.393 5.128 2.068 1.334 4.929 2.255 8.152 2.553l.072-.78Zm.355 5.523v-5.133h-.783v5.133h.783Zm-11.188 7.292c0-1.645 1.087-3.216 3.033-4.47 1.94-1.25 4.672-2.143 7.8-2.432l-.072-.78c-3.223.298-6.084 1.22-8.152 2.553-2.06 1.329-3.393 3.11-3.393 5.13h.784Zm10.833 6.902c-3.128-.288-5.86-1.18-7.8-2.43-1.946-1.256-3.033-2.827-3.033-4.472h-.784c0 2.02 1.332 3.8 3.393 5.13 2.068 1.333 4.929 2.255 8.152 2.552l.072-.78Zm.355 5.524v-5.134h-.783v5.134h.783ZM29.483 74.95c0-1.645 1.087-3.216 3.033-4.47 1.94-1.25 4.672-2.143 7.8-2.432l-.072-.78c-3.223.298-6.084 1.22-8.152 2.553-2.06 1.329-3.393 3.11-3.393 5.13h.784Zm10.833 6.902c-3.128-.289-5.86-1.18-7.8-2.43-1.946-1.256-3.033-2.827-3.033-4.472h-.784c0 2.02 1.332 3.8 3.393 5.13 2.068 1.333 4.929 2.255 8.152 2.552l.072-.78Zm.355 5.42v-5.03h-.783v5.03h.783Zm-25.007.392H40.28v-.783H15.664v.784ZM1.846 73.847c0 7.632 6.187 13.819 13.818 13.819v-.784c-7.199 0-13.035-5.836-13.035-13.035h-.783Zm0-58.181v58.181h.783V15.665h-.783Z" mask="url(#b)"/></g><defs><filter id="a" width="42.517" height="89.51" x="0" y="0" color-interpolation-filters="sRGB" filterUnits="userSpaceOnUse"><feFlood flood-opacity="0" result="BackgroundImageFix"/><feColorMatrix in="SourceAlpha" result="hardAlpha" values="0 0 0 0 0 0 0 0 0 0 0 0 0 0 0 0 0 0 127 0"/><feOffset dy="1.119"/><feGaussianBlur stdDeviation=".559"/><feComposite in2="hardAlpha" operator="out"/><feColorMatrix values="0 0 0 0 0 0 0 0 0 0 0 0 0 0 0 0 0 0 0.1 0"/><feBlend in2="BackgroundImageFix" result="effect1_dropShadow_4786_6082"/><feColorMatrix in="SourceAlpha" result="hardAlpha" values="0 0 0 0 0 0 0 0 0 0 0 0 0 0 0 0 0 0 127 0"/><feOffset/><feGaussianBlur stdDeviation="1.119"/><feComposite in2="hardAlpha" operator="out"/><feColorMatrix values="0 0 0 0 0 0 0 0 0 0 0 0 0 0 0 0 0 0 0.14 0"/><feBlend in2="effect1_dropShadow_4786_6082" result="effect2_dropShadow_4786_6082"/><feBlend in="SourceGraphic" in2="effect2_dropShadow_4786_6082" result="shape"/></filter></defs></svg>