<svg xmlns="http://www.w3.org/2000/svg" width="1200" height="800"><path fill="#F0F2F4" d="M0 0h1200v800H0V0Z"/><path fill="#C2CBD2" d="M0 0h1200v547c-2.554-3.192-4.91-6.235-7.18-9.598l-1.794-2.648-1.901-2.817a1959.293 1959.293 0 0 0-30.824-44.125c-1.418-1.975-2.83-3.954-4.242-5.933-8.45-11.809-17.198-23.376-26.059-34.879l-1.865-2.424a1260.385 1260.385 0 0 0-23.711-29.836c-1.276-1.56-2.546-3.124-3.815-4.69-5.066-6.24-10.263-12.36-15.511-18.448a917.141 917.141 0 0 1-6.04-7.079c-6.797-8.032-13.865-15.763-21.09-23.412a444.084 444.084 0 0 1-4.316-4.705c-7.07-7.805-14.402-15.31-21.86-22.744a2856.38 2856.38 0 0 1-5.962-5.969c-8.382-8.394-8.382-8.394-17.208-16.316-2.555-2.169-4.982-4.468-7.434-6.752a274.086 274.086 0 0 0-14.168-12.195 562.218 562.218 0 0 1-6.633-5.422C940.285 255.489 897.502 230.168 850 216l-2.55-.76c-4.448-1.293-8.903-2.341-13.45-3.24l-2.17-.44c-45.358-8.909-89.422 3.285-127.455 28.315-17.248 11.602-32.985 25.37-47.582 40.126a1398.51 1398.51 0 0 1-5.264 5.284C645.814 291.02 640.19 296.777 635 303l-2.195 2.625c-2.737 3.368-2.737 3.368-5.472 6.737a1244.4 1244.4 0 0 1-4.376 5.337c-9.95 12.116-19.315 24.613-28.52 37.301l-1.458 2.007c-10.418 14.442-20.274 29.294-30.229 44.055l-1.936 2.87c-8.886 13.176-17.676 26.403-26.307 39.748-4.43 6.82-8.962 13.575-13.507 20.32l-1.765 2.62C503.554 489.86 487.444 512.849 469 534l-2.121 2.46c-16.976 19.32-41.548 45.833-69.27 47.701-2.89.046-5.78.074-8.671.089l-2.99.063c-17.719.092-29.535-7.491-42.271-18.842-2.354-2.065-4.793-4.017-7.24-5.971-4.725-3.83-9.164-7.906-13.604-12.059-4.18-3.889-8.513-7.53-12.966-11.105-3.283-2.675-6.48-5.438-9.68-8.211-6.347-5.478-12.866-10.7-19.502-15.822-1.612-1.246-3.217-2.501-4.822-3.756C243.327 483.237 207.57 459.55 168 447l-3.512-1.14c-32.435-10.288-68.423-12.662-99.578 3.105-23.49 12.727-41.851 35.507-57.558 56.582l-1.267 1.699a996.257 996.257 0 0 0-3.405 4.621L1 514H0V0Z"/><path fill="#F0F2F4" d="M377 315c9.635 7.637 17.444 18.432 19.785 30.77 1.434 14.883-.52 29.09-9.785 41.23-8.327 9.992-19.1 16.656-32 19-13.913 1.18-26.45-1.612-37.734-10.043-10.8-9.246-16.927-19.902-19.266-33.957-1.003-14.969 2.42-27.906 12.375-39.375C328.78 303.485 354.522 300.661 377 315Z"/></svg>