<svg xmlns="http://www.w3.org/2000/svg" width="255" height="83" fill="none"><mask id="a" width="83" height="83" x="0" y="0" maskUnits="userSpaceOnUse" style="mask-type:luminance"><path fill="#fff" d="M82.352.39H.133v82.22h82.22V.39Z"/></mask><g mask="url(#a)"><mask id="b" width="83" height="83" x="0" y="0" maskUnits="userSpaceOnUse" style="mask-type:luminance"><path fill="#fff" d="M82.352.39H.133v82.22h82.22V.39Z"/></mask><g mask="url(#b)"><path fill="#609" d="M57.895 46.267c-3.358 0 2.698-.889-.66-.897-.26 0 .253-.197 0-.264-.64-.17-.355-.107 0-.688.12-.196-1.939-.416-1.779-.581 1.717-1.768-.152 7.087-3.708 5.73-1.068-1.868 1.955-10.171 4.166-10.171 6.547 0 12.538-2.656 19.086-2.648.338 0 .677.045 1.014.081 1.045.113 1.894.794 2.053 1.876a22.66 22.66 0 0 1 .23 3.566c-.046 3.67-.698 7.238-1.786 10.727-1.497 4.8-3.774 9.162-6.977 12.944-4.184 4.941-9.222 8.642-15.2 10.921-2.573.982-5.21 1.713-7.91 2.123-2.57.39-5.164.465-7.775.258-3.404-.269-6.682-1.082-9.933-2.098-2.193-.685-16.049-8.055-22.409-23.161-1.618-4.69-2.347-9.524-2.06-14.497.317-5.47 1.68-10.647 4.184-15.491 3.454-6.686 8.413-11.829 14.763-15.51 3.984-2.31 8.247-3.83 12.788-4.412 1.717-.22 3.452-.453 5.175-.43 5.423.075 10.655 1.148 15.61 3.532 4.21 2.024 7.907 4.792 11.184 8.185 1.267 1.313 1.293 3.058.064 4.408a61.95 61.95 0 0 1-2.49 2.572c-1.126 1.098-2.306 1.176-3.509.158-.92-.777-1.718-1.71-2.627-2.503-3.892-3.398-8.34-5.68-13.35-6.5-6.343-1.037-12.48-.203-18.176 3.071-4.01 2.304-7.323 5.413-9.89 9.398-2.243 3.483-3.682 7.272-4.262 11.404-.605 4.315-.23 8.566 1.055 12.714.398 1.283.899 2.535 1.409 3.775.86 2.09 8.662 11.822 13.171 13.335 2.573 1.208 5.246 2.063 8.046 2.444 2.286.31 4.58.374 6.88.11 4.741-.543 9.053-2.247 12.972-5.068 5.227-3.763 8.82-8.77 10.647-15.113.547-1.902-.325-3.157-2.234-3.3-.77-.058-1.546.019-2.32.02-2.698.003-1.93 0-4.628 0 3.466 0-.814-1.12-.814-.02Z"/><path fill="#F7F7F7" d="M41.628 69.915c0-.873.299-.523.299-1.282-.022-1.356-.862-1.885-1.99-1.264-.509.276-1.04.574-1.592.781-.37.144-.742-.585-.464-.873 1.105-1.081 2.255-2.093 3.338-3.173.266-.276.398-.69.597-1.035-.132-.115-.265-.207-.398-.322-.486.437-.928.92-1.459 1.265a.813.813 0 0 1-.043.025c-.426.234-1.07-.454-.73-.807 1.215-1.196 2.232-2.736 4.576-2.553-.265-.62-.442-1.011-.619-1.425-.066-.138-.12-.378-.187-.516-.663-1.402-1.427-2.657-2.09-4.082-.045-.092-.045-.253-.11-.322-.709-.782-.798-2.205-.73-2.76.11-.231.375-.286.491-.555.098-.227.047-.67.153-.846.197-.328.56-.197.864-.423.106-.079.068-.414.194-.475.796-.39.796-.943.685-1.655-.082-.537-.088-1.095-.124-1.653a.179.179 0 0 1 .094-.171.238.238 0 0 1 .286.053c.185.201.37.396.496.621 1.04 2 1.393 4.185 1.482 6.415 0 .115 0 .23.022.345.11 1.08-.266 2.414 1.238 2.782 2.056.506 3.339-.069 4.047-1.977.42-1.127.685-2.346.818-3.541.442-3.679 1.636-6.898 4.621-9.174.088-.07.132-.184.243-.345-.442-.529-.863-1.127-1.37-1.61-.245-.207-.709-.345-.996-.253-.818.207-1.37.184-1.968-.666-.64-.897-1.614-1.518-2.587-2.093-.044-.069-.111-.138-.088-.207.199-1.793-.332-3.31-1.26-4.828-.885-1.472-.642-2.99.376-4.484 1.083-1.586 3.089-2.092 3.902-2.938.315-.229.702-.648 1.829-.74 1.238-.115 1.068-1.146 2.232-1.146.244.414.947.203 1.28.548.508.528 1.215.965 1.524 1.61 1.217 2.551 1.46 5.195.089 7.817-.685 1.31-.575 2.345.597 3.518a59.02 59.02 0 0 0 3.737 3.402c2.83 2.415 4.704 5.428 5.19 9.29-.128 1.905-.63 2.692-1.755 5.527-1.125 2.836-4.085 6.663-5.081 7.513-4.864 4.998-11.084 7.93-16.673 8.48-.398.046-2.412.202-2.986.202Z"/><path fill="#F6F6F6" d="M30.3 64.436h3.665c1.62.02 2.335.72 2.64 2.548-.204.529-.646 2.467-.967 2.386-3.68-.929-8.59-1.554-15.195-9.643-.468-.574-1.238-1.068-1.198-1.803.101-1.743.081-3.507.122-5.25.08-2.374.81-4.454 2.733-5.924.709-.546.688-2.289 0-2.856-1.478-1.197-2.065-2.794-2.025-4.705.04-1.89.77-2.794 2.552-3.255 1.761-.441 3.664-.623 5.002.455.145.117.818.732.919 1.194.142.589.112 1.207.112 1.837-.02.987.061 1.953.81 2.71.072.074.136.176.198.3a.28.28 0 0 1-.165.386c-.277.095-.565.192-.863.3-.015.485-.043.981-.073 1.5a.595.595 0 0 1-.487.559 1.661 1.661 0 0 1-.25.021c-1.741.042-2.47 1.155-1.802 2.857.891 2.184 1.742 4.41 2.794 6.51 1.013 2.017 1.458 4.117 1.438 6.365.04 1.155.04 2.289.04 3.508Z"/><path fill="#609" d="M56.117 47.166c-.513-1.086-1.068-4.106-1.017-5.657-2.083 1.533-3.048 3.86-3.505 5.129-.136 1.727-.195 6.29.355 9.41.66 3.755 3.454 7.297 4.777 9.147.253-.158.152-.158.762-.581.762-.529 4.065-3.225 5.843-5.71 1.172-1.638 2.32-3.472 2.642-4.283-.322 0-1.3-.106-2.236-.106-1.168 0-4.675-1.11-7.621-7.349Z"/><path fill="#F7F7F7" fill-rule="evenodd" d="M54.215 45.557c-.164-.817-.032-1.891 0-2.355l.327-1.27c-.028.417.193 2.81.356 3.625.163.81.27 1.677.538 2.595.269.917.567 1.819.855 2.569.289.754.685 1.275.893 1.574 1.045 1.5 6.809 5.54 10.62 7.603-3.81-2.061-10.036-5.877-11.127-7.444-.233-.335-.635-.862-.923-1.616-.291-.76-.686-1.637-.957-2.56-.27-.925-.417-1.899-.581-2.721Z" clip-rule="evenodd"/><path fill="#F7F7F7" fill-rule="evenodd" d="M53.334 48.57c-.163-.817-.092-1.204-.061-1.668l.101-.582c-.027.417.236 1.273.4 2.088.162.81.41 1.67.679 2.588.269.917.569 1.819.855 2.568.29.755.602 1.329.81 1.628.347.41 5.793 6.662 6.606 7.085-1.829-1.216-6.664-6.374-6.91-6.651a8.926 8.926 0 0 1-.94-1.775c-.292-.76-.594-1.669-.865-2.594-.27-.923-.51-1.865-.675-2.687ZM55.94 59.98c-.132-.307-.122-.465-.137-.65l.017-.46c.014.165.161.798.292 1.104.13.303.325.549.513.885.188.337.448.64.634.91.187.271.347.402.467.502.192.131 1.182.988 1.6 1.085a8.116 8.116 0 0 1-1.745-.822 3.364 3.364 0 0 1-.565-.616 11.747 11.747 0 0 1-.58-.943 10.78 10.78 0 0 1-.497-.996Z" clip-rule="evenodd"/><path fill="#609" d="m46.837 26.655-.07.042a.293.293 0 0 1 .07-.042c.638-.39 4.563-3.045 5.774-3.448 1.27-.423 2.446-1.534 3.302-1.216.711.265 1.203.476 1.27.476-.813 1.269-2.337 2.96-4.623 3.542-1.932.491-4.13.647-4.878.582-.473-.041-.726.013-.845.064Z"/><path fill="#609" fill-rule="evenodd" d="M54.218 22.227c1.617-.26 2.81-.18 3.684.145.877.326 1.426.899 1.754 1.61.32.698.484 1.18.487 1.594.002.42-.163.756-.471 1.158-.322.42-.886.64-1.452.775a11.69 11.69 0 0 1-1.137.192c-.16.022-.308.042-.436.063-.654.108-2.266.446-3 .603-.815.35-2.701 1.16-3.795 1.62-.694.294-1.165.362-1.55.332a2.614 2.614 0 0 1-.52-.1c-.062-.017-.12-.034-.178-.052-.098-.03-.193-.058-.296-.084-.363-.09-.704-.44-.955-.894a3.623 3.623 0 0 1-.44-1.614c-.032-1.163.81-2.379 2.047-3.157 1.228-.773 3.157-1.8 6.258-2.19Zm3.492 5.227c-2.918.594-2.76.64-3.872.715-1.203.758-1.489.589-2.5 1.02-.534.395-1.383.59-2.075.866-.852.475-2.206-.197-1.905-.122a6.5 6.5 0 0 1 .31.087c.057.018.113.035.17.05.155.044.31.08.487.094.351.028.794-.032 1.47-.318a772 772 0 0 0 3.8-1.623l.009-.004.009-.002c.729-.156 2.356-.497 3.017-.606.137-.023.29-.044.454-.066.34-.045.728-.097 1.107-.187.56-.133 1.07-.342 1.352-.71.297-.387.439-.69.438-1.061-.002-.378-.155-.837-.475-1.534-.312-.68-.819-1.268-1.671-1.536.578.007 3.244 2.253 1.736 4.187l-.695.541-1.166.21Z" clip-rule="evenodd"/><path fill="#F7F7F7" fill-rule="evenodd" d="M54.218 22.224c1.617-.26 2.81-.18 3.684.145.877.327 1.426.899 1.754 1.611.32.697.484 1.18.487 1.593.002.42-.292 2.307-.6 2.709-.322.42-.757-.91-1.323-.776a11.78 11.78 0 0 1-1.137.192c-.16.022-.308.042-.436.063-.654.108-2.266.446-3 .603-.815.35-2.701 1.16-3.795 1.621-.694.293-1.165.361-1.55.331a2.628 2.628 0 0 1-.52-.1 8.544 8.544 0 0 1-.178-.052c-.098-.03-.193-.058-.296-.084-.363-.09-.704-.44-.955-.894a3.623 3.623 0 0 1-.44-1.614c-.032-1.163.81-2.379 2.047-3.157 1.228-.773 3.157-1.8 6.258-2.19Zm.012.154c-3.07.387-4.975 1.402-6.187 2.165-1.204.758-1.997 1.925-1.968 3.015a3.48 3.48 0 0 0 .423 1.548c.245.443.56.749.86.824.106.026.21.057.31.087.057.018.113.035.17.05.155.044.31.08.487.094.351.028.794-.032 1.47-.318a781.777 781.777 0 0 0 3.8-1.623l.009-.004.009-.002c.729-.156 2.356-.497 3.017-.606.137-.023.29-.044.454-.066.34-.045.728-.097 1.107-.187.56-.132 1.07-.342 1.352-.71.297-.387.439-.69.438-1.061-.002-.379-.155-.837-.475-1.534-.312-.68-.834-1.224-1.671-1.535-.838-.313-2.001-.394-3.602-.137h-.003Z" clip-rule="evenodd"/><path fill="#F7F7F7" fill-rule="evenodd" d="M47.726 25.142c.047-.338.214-.645.38-.809l.113.105c-.137.135-.128.333-.171.64-.043.303.087.58.369.841.368.34.84.776 1.57 1.055.73.28 1.477.527 2.051.564.555.036 1.094.102 1.657.123.112.004.248.028.358.032.657.026 1.29.14 1.715.19-.418-.049-1.05-.071-1.708-.097l-.331-.013c-.563-.021-1.155-.044-1.712-.08-.597-.038-1.39-.244-2.128-.526-.736-.282-1.428-.646-1.816-1.005-.324-.3-.396-.68-.347-1.02Z" clip-rule="evenodd"/><path fill="#F7F7F7" fill-rule="evenodd" d="M52.507 26.785c1.075-.005 2.348-.318 3.35-.294.827.02 1.75-.427 2.493-.693.763-.448 1.087-1.052 1.428-1.269l.31 1.136a9.212 9.212 0 0 1-1.738.826c-.754.27-1.637.482-2.493.462-.999-.024-2.285-.018-3.361-.012h-.16c-.553.003-1.006-.077-1.358-.08-.175-.002-.28-.05-.38-.054-.05-.002-.065.005-.095.001-.014-.002-.1-.036-.114-.04-.006 0-.082.009-.09.004-.007-.003.01.028 0 0h-.01c.04 0 .135 0 .132-.002a.03.03 0 0 0-.007-.003l.02.003c.023.003.059.006.107.008.097.005.237.008.413.01.35.003.838 0 1.392-.002h.161ZM46.361 28.44c-.142-.27-.374-.82-.355-1.005l.05-.423c-.015.148.592.777.712 1.004.118.224.333.378.711.476.8.208 3.798.232 4.217.215l-1.371.31c-.427.019-2.242.216-3.069 0-.435-.112-.75-.304-.895-.578Z" clip-rule="evenodd"/><path fill="#F6F6F6" d="M58.504 46.944c0-5.234 6.012-3.507 6.148-4.494 5.487 4.177 2.213 9.548 1.88 10.416-.508 1.322-6.48 7.138-7.8 8.618-1.058 1.184-.533 1.322-2.109 2.062l-11.128 2.062c-.44-1.234-1.337-5.382-.28-4.917 1.322.581 7.902-1.005 8.512-1.427.61-.424 4.777-8.513 5.234-8.672.457-.158-.457-2.749-.457-3.648Z"/></g></g><path fill="#fff" d="M84.623 49.663c0-6.437 4.963-10.378 11.04-10.378 4.662 0 7.429 2.346 8.813 4.933l-5.114 2.617a4.153 4.153 0 0 0-3.7-2.196c-2.917 0-4.873 2.226-4.873 5.024 0 2.797 1.956 5.023 4.873 5.023 1.294 0 2.497-.33 3.28-.902v-.873H95.06v-4.993h9.776v8.062c-2.226 2.466-5.234 4.06-9.175 4.06-6.076 0-11.039-3.97-11.039-10.377ZM107.619 51.438V39.616h6.166v11.611c0 1.925.993 3.46 3.489 3.46 2.467 0 3.46-1.535 3.46-3.46v-11.61h6.166v11.79c0 4.994-2.858 8.634-9.626 8.634-6.768 0-9.655-3.64-9.655-8.603ZM148.194 59.68h-6.919l-2.767-6.438h-2.196v6.438h-6.076V39.616h10.708c4.693 0 7.22 3.129 7.22 6.889 0 3.459-2.016 5.294-3.61 6.076l3.64 7.099Zm-6.197-13.266c0-1.083-.962-1.744-1.985-1.744h-3.7v3.52h3.7c1.023 0 1.985-.663 1.985-1.776ZM150.709 51.438V39.616h6.167v11.611c0 1.925.993 3.46 3.489 3.46 2.467 0 3.459-1.535 3.459-3.46v-11.61h6.167v11.79c0 4.994-2.858 8.634-9.626 8.634-6.768 0-9.656-3.64-9.656-8.603ZM183.134 60.04c-6.137 0-10.889-4.21-10.889-10.377 0-6.197 4.752-10.378 10.889-10.378 5.414 0 8.061 3.068 9.264 5.836l-5.234 2.436c-.511-1.564-2.075-2.918-4.03-2.918-2.768 0-4.723 2.226-4.723 5.024 0 2.797 1.955 5.023 4.723 5.023 1.955 0 3.519-1.353 4.03-2.918l5.234 2.407c-1.173 2.677-3.85 5.866-9.264 5.866ZM193.305 49.663c0-6.167 4.782-10.378 10.979-10.378 6.196 0 10.979 4.211 10.979 10.378 0 6.166-4.783 10.378-10.979 10.378-6.197 0-10.979-4.212-10.979-10.378Zm15.792 0c0-2.798-1.895-5.024-4.813-5.024-2.918 0-4.813 2.226-4.813 5.024 0 2.797 1.895 5.023 4.813 5.023 2.918 0 4.813-2.226 4.813-5.023ZM216.422 49.663c0-6.167 4.783-10.378 10.98-10.378 6.196 0 10.979 4.211 10.979 10.378 0 6.166-4.783 10.378-10.979 10.378-6.197 0-10.98-4.212-10.98-10.378Zm15.792 0c0-2.798-1.895-5.024-4.812-5.024-2.918 0-4.813 2.226-4.813 5.024 0 2.797 1.895 5.023 4.813 5.023 2.917 0 4.812-2.226 4.812-5.023ZM254.308 59.68h-13.686V39.616h6.076v14.77h7.61v5.294Z"/></svg>