<svg xmlns="http://www.w3.org/2000/svg" width="82" height="82" fill="none"><mask id="a" width="82" height="82" x="0" y="0" maskUnits="userSpaceOnUse" style="mask-type:luminance"><path fill="#fff" d="M82 0H0v82h82V0Z"/></mask><g mask="url(#a)"><path fill="#609" d="M57.61 45.75c-3.35 0 2.69-.89-.66-.89-.26 0 .25-.2 0-.26-.64-.17-.35-.11 0-.69.12-.2-1.93-.42-1.77-.58 1.71-1.76-.15 7.07-3.7 5.72-1.06-1.86 1.95-10.14 4.16-10.14 6.53 0 12.5-2.65 19.03-2.64.34 0 .68.05 1.01.08 1.04.11 1.89.79 2.05 1.87.17 1.17.24 2.37.23 3.56-.05 3.66-.7 7.22-1.78 10.7-1.49 4.79-3.76 9.14-6.96 12.91-4.17 4.93-9.2 8.62-15.16 10.89-2.57.98-5.2 1.71-7.89 2.12-2.56.39-5.15.46-7.75.26-3.4-.27-6.66-1.08-9.91-2.09-2.19-.68-16.01-8.03-22.35-23.1-1.61-4.68-2.34-9.5-2.05-14.46.32-5.46 1.68-10.62 4.17-15.45 3.45-6.67 8.39-11.8 14.72-15.47 3.97-2.3 8.23-3.82 12.75-4.4 1.71-.22 3.44-.45 5.16-.43 5.41.07 10.63 1.14 15.57 3.52 4.2 2.02 7.89 4.78 11.15 8.16 1.26 1.31 1.29 3.05.06 4.4-.8.88-1.63 1.73-2.48 2.56-1.12 1.1-2.3 1.17-3.5.16-.92-.78-1.71-1.71-2.62-2.5-3.88-3.39-8.32-5.66-13.31-6.48-6.33-1.03-12.45-.2-18.13 3.06-4 2.3-7.3 5.4-9.86 9.37-2.24 3.47-3.67 7.25-4.25 11.37-.6 4.3-.23 8.54 1.05 12.68.4 1.28.9 2.53 1.41 3.76.86 2.08 8.64 11.79 13.14 13.3 2.57 1.21 5.23 2.06 8.02 2.44 2.28.31 4.57.37 6.86.11 4.73-.54 9.03-2.24 12.94-5.05 5.21-3.75 8.8-8.75 10.62-15.07.55-1.9-.32-3.15-2.23-3.29-.77-.06-1.54.02-2.31.02h-4.62c3.46 0-.81-1.12-.81-.02v-.01Z"/><path fill="#F7F7F7" d="M41.38 69.34c0-.87.3-.52.3-1.28-.02-1.35-.86-1.88-1.98-1.26-.51.28-1.04.57-1.59.78-.37.14-.74-.58-.46-.87 1.1-1.08 2.25-2.09 3.33-3.16.26-.28.4-.69.6-1.03-.13-.11-.26-.21-.4-.32-.49.44-.93.92-1.46 1.26-.01 0-.03.02-.04.03-.43.23-1.07-.45-.73-.81 1.21-1.19 2.23-2.73 4.57-2.55-.26-.62-.44-1.01-.62-1.42-.07-.14-.12-.38-.19-.51-.66-1.4-1.42-2.65-2.08-4.07-.04-.09-.04-.25-.11-.32-.71-.78-.79-2.2-.73-2.75.11-.23.37-.29.49-.55.1-.23.05-.67.15-.84.2-.33.56-.2.86-.42.11-.08.07-.41.19-.47.79-.39.79-.94.68-1.65-.08-.54-.09-1.09-.12-1.65 0-.07.03-.14.09-.17.1-.05.21-.03.29.05.18.2.37.4.49.62 1.04 2 1.39 4.17 1.48 6.4 0 .11 0 .23.02.34.11 1.08-.26 2.41 1.24 2.77 2.05.5 3.33-.07 4.04-1.97.42-1.12.68-2.34.82-3.53.44-3.67 1.63-6.88 4.61-9.15.09-.07.13-.18.24-.34-.44-.53-.86-1.12-1.37-1.61-.24-.21-.71-.34-.99-.25-.82.21-1.37.18-1.96-.66-.64-.89-1.61-1.51-2.58-2.09-.05-.07-.11-.14-.09-.21.2-1.79-.33-3.3-1.26-4.82-.88-1.47-.64-2.98.38-4.47 1.08-1.58 3.08-2.09 3.89-2.93.31-.23.7-.65 1.82-.74 1.24-.11 1.07-1.14 2.23-1.14.24.41.94.2 1.28.55.51.53 1.21.96 1.52 1.61 1.21 2.55 1.46 5.18.09 7.8-.68 1.31-.57 2.34.6 3.51 1.19 1.19 2.45 2.32 3.73 3.39 2.82 2.41 4.69 5.41 5.18 9.27-.13 1.9-.63 2.68-1.75 5.51-1.12 2.83-4.07 6.64-5.07 7.49-4.85 4.98-11.06 7.91-16.63 8.46-.4.05-2.41.2-2.98.2l-.02-.03Z"/><path fill="#F6F6F6" d="M30.09 63.87h3.66c1.62.02 2.33.72 2.63 2.54-.2.53-.64 2.46-.96 2.38-3.67-.93-8.57-1.55-15.15-9.62-.47-.57-1.24-1.06-1.19-1.8.1-1.74.08-3.5.12-5.24.08-2.37.81-4.44 2.73-5.91.71-.54.69-2.28 0-2.85-1.47-1.19-2.06-2.79-2.02-4.69.04-1.89.77-2.79 2.54-3.25 1.76-.44 3.65-.62 4.99.45.14.12.82.73.92 1.19.14.59.11 1.2.11 1.83-.02.98.06 1.95.81 2.7.07.07.14.18.2.3.08.15 0 .33-.16.39-.28.09-.56.19-.86.3-.02.48-.04.98-.07 1.49-.02.28-.22.52-.49.56-.08.01-.17.02-.25.02-1.74.04-2.46 1.15-1.8 2.85.89 2.18 1.74 4.4 2.79 6.49 1.01 2.01 1.45 4.11 1.43 6.35.04 1.15.04 2.28.04 3.5l-.02.02Z"/><path fill="#609" d="M55.83 46.65c-.51-1.08-1.07-4.1-1.01-5.64-2.08 1.53-3.04 3.85-3.5 5.12-.13 1.72-.19 6.27.36 9.39.66 3.74 3.44 7.28 4.76 9.12.25-.16.15-.16.76-.58.76-.53 4.05-3.22 5.83-5.7 1.17-1.63 2.31-3.46 2.64-4.27-.32 0-1.3-.11-2.23-.11-1.16 0-4.66-1.11-7.6-7.33h-.01Z"/><path fill="#F7F7F7" fill-rule="evenodd" d="M53.94 45.05c-.16-.81-.03-1.89 0-2.35l.33-1.27c-.03.42.19 2.8.36 3.61.16.81.27 1.67.54 2.59.27.91.57 1.81.85 2.56.29.75.68 1.27.89 1.57 1.04 1.5 6.79 5.53 10.59 7.58-3.8-2.06-10.01-5.86-11.1-7.42-.23-.33-.63-.86-.92-1.61-.29-.76-.68-1.63-.96-2.55-.27-.92-.42-1.89-.58-2.71Z" clip-rule="evenodd"/><path fill="#F7F7F7" fill-rule="evenodd" d="M53.06 48.05c-.16-.82-.09-1.2-.06-1.66l.1-.58c-.03.42.24 1.27.4 2.08.16.81.41 1.67.68 2.58.27.91.57 1.81.85 2.56.29.75.6 1.33.81 1.62.35.41 5.78 6.64 6.59 7.07-1.82-1.21-6.65-6.36-6.89-6.63-.23-.33-.65-1.02-.94-1.77-.29-.76-.59-1.66-.86-2.59-.27-.92-.51-1.86-.67-2.68h-.01ZM55.66 59.43c-.13-.31-.12-.46-.14-.65l.02-.46c.01.17.16.8.29 1.1.13.3.32.55.51.88.19.34.45.64.63.91.19.27.35.4.47.5.19.13 1.18.99 1.59 1.08-.95-.32-1.6-.73-1.74-.82-.13-.11-.38-.34-.56-.61-.19-.27-.39-.6-.58-.94-.19-.34-.36-.69-.5-.99h.01Z" clip-rule="evenodd"/><path fill="#609" d="M46.58 26.19s-.06.03-.07.04c.01-.01.04-.03.07-.04.63-.39 4.55-3.04 5.76-3.44 1.27-.42 2.44-1.53 3.29-1.21.71.26 1.2.47 1.27.47-.81 1.27-2.33 2.95-4.61 3.53-1.93.49-4.12.64-4.87.58-.47-.04-.72.01-.84.06v.01Z"/><path fill="#609" fill-rule="evenodd" d="M53.94 21.78c1.61-.26 2.8-.18 3.67.14.88.33 1.42.9 1.75 1.61.32.69.48 1.18.49 1.59 0 .42-.16.75-.47 1.16-.32.42-.88.64-1.45.77-.39.09-.79.15-1.13.19-.16.02-.31.04-.43.06-.65.11-2.26.44-2.99.6-.81.35-2.69 1.16-3.79 1.62-.69.29-1.16.36-1.55.33-.19-.01-.36-.05-.52-.1-.06-.02-.12-.03-.18-.05-.1-.03-.19-.06-.29-.08-.36-.09-.7-.44-.95-.89-.25-.46-.42-1.03-.44-1.61-.03-1.16.81-2.37 2.04-3.15 1.22-.77 3.15-1.8 6.24-2.18v-.01Zm3.48 5.21c-2.91.59-2.75.64-3.86.71-1.2.76-1.48.59-2.49 1.02-.53.39-1.38.59-2.07.86-.85.47-2.2-.2-1.9-.12.11.03.21.06.31.09.06.02.11.03.17.05.15.04.31.08.49.09.35.03.79-.03 1.47-.32 1.09-.46 2.98-1.27 3.79-1.62.73-.16 2.35-.5 3.01-.61.14-.02.29-.04.45-.07.34-.05.73-.1 1.1-.19.56-.13 1.07-.34 1.35-.71.3-.39.44-.69.44-1.06 0-.38-.15-.83-.47-1.53-.31-.68-.82-1.26-1.67-1.53.58 0 3.24 2.25 1.73 4.18l-.69.54-1.16.21v.01Z" clip-rule="evenodd"/><path fill="#F7F7F7" fill-rule="evenodd" d="M53.94 21.78c1.61-.26 2.8-.18 3.67.14.88.33 1.42.9 1.75 1.61.32.69.48 1.18.49 1.59 0 .42-.29 2.3-.6 2.7-.32.42-.75-.91-1.32-.77-.39.09-.79.15-1.13.19-.16.02-.31.04-.43.06-.65.11-2.26.44-2.99.6-.81.35-2.69 1.16-3.79 1.62-.69.29-1.16.36-1.55.33-.19-.02-.36-.05-.52-.1-.06-.02-.12-.03-.18-.05-.1-.03-.19-.06-.29-.08-.36-.09-.7-.44-.95-.89-.25-.46-.42-1.03-.44-1.61-.03-1.16.81-2.37 2.04-3.15 1.22-.77 3.15-1.8 6.24-2.18v-.01Zm.01.15c-3.06.39-4.96 1.4-6.17 2.16-1.2.76-1.99 1.92-1.96 3.01.01.55.18 1.11.42 1.54.24.44.56.75.86.82.11.03.21.06.31.09.06.02.11.03.17.05.15.04.31.08.49.09.35.03.79-.03 1.47-.32 1.09-.46 2.98-1.27 3.79-1.62.73-.16 2.35-.5 3.01-.61.14-.02.29-.04.45-.06.34-.05.73-.1 1.1-.19.56-.13 1.07-.34 1.35-.71.3-.39.44-.69.44-1.06 0-.38-.15-.83-.47-1.53-.31-.68-.83-1.22-1.67-1.53-.84-.31-2-.39-3.59-.14v.01Z" clip-rule="evenodd"/><path fill="#F7F7F7" fill-rule="evenodd" d="M47.46 24.69c.05-.34.21-.64.38-.81l.11.1c-.14.14-.13.33-.17.64-.04.3.09.58.37.84.37.34.84.77 1.57 1.05.73.28 1.47.53 2.05.56.55.04 1.09.1 1.65.12.11 0 .25.03.36.03.65.03 1.29.14 1.71.19-.42-.05-1.05-.07-1.7-.1-.11 0-.22 0-.33-.01-.56-.02-1.15-.04-1.71-.08-.6-.04-1.39-.24-2.12-.52-.73-.28-1.42-.64-1.81-1-.32-.3-.39-.68-.35-1.02l-.01.01Z" clip-rule="evenodd"/><path fill="#F7F7F7" fill-rule="evenodd" d="M52.23 26.32c1.07 0 2.34-.32 3.34-.29.83.02 1.75-.43 2.49-.69.76-.45 1.09-1.05 1.43-1.27l.31 1.13c-.35.22-.98.55-1.73.82-.75.27-1.63.48-2.49.46-1-.02-2.28-.02-3.35-.01h-.16c-.55 0-1-.08-1.35-.08-.18 0-.28-.05-.38-.05h-.1c-.01 0-.1-.04-.11-.04h-.09H52.26l-.03.02ZM46.11 27.97c-.14-.27-.37-.82-.35-1l.05-.42c-.02.15.59.77.71 1 .12.22.33.38.71.47.8.21 3.79.23 4.21.21l-1.37.31c-.43.02-2.24.21-3.06 0-.43-.11-.75-.3-.89-.58l-.01.01Z" clip-rule="evenodd"/><path fill="#F6F6F6" d="M58.21 46.43c0-5.22 6-3.5 6.13-4.48 5.47 4.17 2.21 9.52 1.88 10.39-.51 1.32-6.46 7.12-7.78 8.6-1.05 1.18-.53 1.32-2.1 2.06l-11.1 2.06c-.44-1.23-1.33-5.37-.28-4.9 1.32.58 7.88-1 8.49-1.42.61-.42 4.76-8.49 5.22-8.65.46-.16-.46-2.74-.46-3.64v-.02Z"/></g></svg>