<svg width="255" height="83" viewBox="0 0 255 83" fill="none" xmlns="http://www.w3.org/2000/svg">
<mask id="mask0_957_8076" style="mask-type:luminance" maskUnits="userSpaceOnUse" x="0" y="0" width="83" height="83">
<path d="M82.3524 0.390625H0.133301V82.6097H82.3524V0.390625Z" fill="white"/>
</mask>
<g mask="url(#mask0_957_8076)">
<mask id="mask1_957_8076" style="mask-type:luminance" maskUnits="userSpaceOnUse" x="0" y="0" width="83" height="83">
<path d="M82.3522 0.390625H0.133301V82.6097H82.3522V0.390625Z" fill="white"/>
</mask>
<g mask="url(#mask1_957_8076)">
<path d="M57.895 46.2665C54.537 46.2665 60.5932 45.378 57.2352 45.3701C56.9755 45.3696 57.4879 45.1728 57.2352 45.1059C56.5955 44.9366 56.8803 44.9986 57.2352 44.4185C57.3545 44.2219 55.2961 44.0018 55.4565 43.8369C57.1731 42.0694 55.3041 50.9242 51.7476 49.5672C50.6798 47.6991 53.7028 39.3957 55.9137 39.3957C62.4611 39.3961 68.4521 36.7397 74.9996 36.7477C75.3375 36.7482 75.6774 36.7929 76.0143 36.8292C77.059 36.9419 77.9083 37.6233 78.0667 38.7051C78.2392 39.8794 78.3124 41.0825 78.2973 42.2709C78.2512 45.941 77.5985 49.5093 76.5106 52.9975C75.0136 57.7971 72.7365 62.1597 69.534 65.9421C65.3498 70.8831 60.3124 74.5837 54.3345 76.8632C51.7606 77.845 49.1236 78.5765 46.4246 78.9856C43.8541 79.3758 41.2598 79.4505 38.6494 79.2439C35.2448 78.975 31.9669 78.1617 28.7159 77.1462C26.5227 76.4611 12.6671 69.0915 6.30713 53.9847C4.68861 49.2957 3.96037 44.4612 4.24794 39.4883C4.56448 34.0184 5.92761 28.8406 8.43058 23.9969C11.8854 17.3107 16.8438 12.1682 23.1942 8.48702C27.1779 6.17755 31.4412 4.65738 35.9816 4.07542C37.6988 3.85536 39.4337 3.62165 41.1572 3.6452C46.5798 3.71966 51.8118 4.79263 56.767 7.17652C60.9762 9.20139 64.674 11.9685 67.9508 15.3622C69.2181 16.675 69.2442 18.4199 68.0149 19.7705C67.2098 20.6536 66.3766 21.5092 65.5243 22.3419C64.3993 23.4403 63.2192 23.5176 62.016 22.5002C61.0955 21.7227 60.2984 20.7903 59.389 19.9965C55.4966 16.5991 51.0497 14.3174 46.0389 13.4975C39.696 12.4599 33.5597 13.294 27.8628 16.5681C23.8531 18.8723 20.5404 21.9809 17.9736 25.9656C15.7298 29.4494 14.2905 33.238 13.7114 37.3696C13.1063 41.6847 13.4803 45.9357 14.7661 50.0842C15.1637 51.3668 15.6646 52.619 16.1749 53.8591C17.0345 55.9488 24.8367 65.6807 29.3463 67.1937C31.9186 68.402 34.5923 69.2569 37.3918 69.6377C39.6778 69.9481 41.9717 70.0119 44.2726 69.7478C49.0133 69.2048 53.3248 67.5015 57.2442 64.6798C62.4712 60.9169 66.0647 55.9108 67.8906 49.5672C68.4381 47.6646 67.5658 46.4102 65.6567 46.2665C64.8876 46.2086 64.1105 46.2856 63.3375 46.2869C60.6393 46.2904 61.4063 46.2869 58.7092 46.2869C62.1754 46.2873 57.895 45.1675 57.895 46.2665Z" fill="#660099"/>
<path d="M41.6276 69.9153C41.6276 69.0417 41.927 69.3921 41.927 68.6331C41.9049 67.2766 41.0645 66.7477 39.9369 67.3687C39.4283 67.6446 38.8976 67.9432 38.3448 68.1502C37.9754 68.2943 37.6034 67.5646 37.8806 67.2766C38.9861 66.1958 40.1359 65.1843 41.2194 64.1038C41.4847 63.8277 41.6173 63.4138 41.8163 63.0688C41.6838 62.9538 41.551 62.8619 41.4185 62.7469C40.932 63.1838 40.4897 63.6668 39.9591 64.0117C39.945 64.0207 39.9307 64.029 39.9163 64.037C39.4896 64.2709 38.8458 63.5828 39.1851 63.2299C40.4012 62.0344 41.4184 60.494 43.7623 60.6774C43.497 60.057 43.32 59.666 43.1431 59.252C43.0767 59.114 43.0227 58.8743 42.9563 58.7363C42.2931 57.3338 41.529 56.0791 40.8657 54.6537C40.8214 54.5616 40.8214 54.4007 40.7551 54.3316C40.0475 53.5498 39.9584 52.1274 40.0253 51.5728C40.1366 51.341 40.4011 51.2857 40.5174 51.0173C40.6153 50.7904 40.564 50.3468 40.6698 50.1712C40.8674 49.8435 41.2303 49.9735 41.5336 49.7484C41.6402 49.6692 41.6016 49.3339 41.728 49.2734C42.5239 48.8824 42.5239 48.3305 42.4135 47.618C42.3308 47.0806 42.3254 46.5233 42.2889 45.9647C42.2842 45.8935 42.3213 45.8263 42.3835 45.794C42.4793 45.7441 42.596 45.7661 42.6694 45.8466C42.8536 46.0483 43.0388 46.2429 43.1652 46.468C44.2045 48.4684 44.5581 50.6528 44.6466 52.8833C44.6466 52.9982 44.6466 53.1128 44.6687 53.2282C44.7792 54.3087 44.4033 55.6421 45.907 56.0101C47.9633 56.5161 49.2457 55.9411 49.9536 54.0327C50.3737 52.9062 50.6394 51.6873 50.7718 50.4918C51.214 46.813 52.4081 43.5939 55.3931 41.3177C55.4813 41.2487 55.5254 41.1337 55.6357 40.9727C55.1936 40.444 54.7734 39.8461 54.2651 39.3633C54.0214 39.1563 53.5572 39.0184 53.2704 39.1103C52.4523 39.3173 51.8998 39.2943 51.3022 38.4435C50.6615 37.5468 49.6879 36.926 48.7153 36.3512C48.6712 36.2823 48.604 36.2133 48.6271 36.1443C48.8256 34.3509 48.2952 32.8334 47.3667 31.3157C46.4824 29.8442 46.725 28.3267 47.7427 26.8323C48.8256 25.2457 50.8319 24.7399 51.6451 23.8938C51.9599 23.6652 52.347 23.2457 53.474 23.1537C54.7123 23.0387 54.5418 22.0078 55.7059 22.0078C55.9496 22.4216 56.6535 22.2107 56.9853 22.5556C57.4937 23.0844 58.2006 23.5212 58.5104 24.1651C59.7266 26.7173 59.9703 29.3614 58.5986 31.9827C57.9138 33.2932 58.0241 34.3278 59.1962 35.5005C60.3904 36.696 61.6508 37.8228 62.9332 38.9034C65.7637 41.3177 67.6367 44.3306 68.123 48.1934C67.9947 50.0983 67.4923 50.8846 66.3683 53.72C65.2433 56.5555 62.2825 60.3825 61.2868 61.2329C56.4228 66.2311 50.2033 69.1626 44.6143 69.7131C44.2162 69.7591 42.2024 69.9153 41.6276 69.9153Z" fill="#F7F7F7"/>
<path d="M30.3004 64.4356C31.6773 64.4356 32.8314 64.4356 33.9653 64.4356C35.5852 64.4563 36.3004 65.1569 36.6042 66.9844C36.401 67.5129 35.9585 69.4513 35.6382 69.3704C31.9588 68.4412 27.0478 67.8163 20.4432 59.727C19.9747 59.153 19.2047 58.6594 19.2452 57.9243C19.3464 56.1809 19.3262 54.4167 19.3666 52.6732C19.4476 50.2999 20.1767 48.2204 22.1001 46.7503C22.8088 46.204 22.7885 44.461 22.1001 43.8938C20.6221 42.6966 20.0348 41.1003 20.0753 39.189C20.1158 37.2988 20.8448 36.3955 22.6266 35.9335C24.3881 35.4925 26.2912 35.3112 27.6286 36.3887C27.7738 36.5059 28.4467 37.1213 28.548 37.5833C28.6897 38.1715 28.6604 38.7899 28.6604 39.42C28.6401 40.4072 28.7212 41.3734 29.4703 42.1295C29.5416 42.2036 29.6063 42.3061 29.6682 42.4291C29.7445 42.581 29.6614 42.7623 29.503 42.8163C29.2264 42.9106 28.9384 43.0084 28.6401 43.1168C28.6247 43.6008 28.5972 44.0972 28.5669 44.6155C28.5507 44.8931 28.3489 45.1328 28.0796 45.1745C27.9951 45.1873 27.9128 45.1961 27.8303 45.1961C26.0889 45.2381 25.3601 46.3513 26.0283 48.0527C26.919 50.2371 27.7695 52.4636 28.8224 54.5635C29.8348 56.5802 30.2802 58.6802 30.26 60.9278C30.3004 62.0831 30.3004 63.217 30.3004 64.4356Z" fill="#F6F6F6"/>
<path d="M56.117 47.166C55.6037 46.0803 55.0492 43.0597 55.1003 41.5088C53.0168 43.0422 52.0522 45.3686 51.595 46.6375C51.4586 48.3646 51.4004 52.928 51.9499 56.0486C52.6097 59.8027 55.4041 63.3449 56.7266 65.1954C56.9803 65.0366 56.879 65.0366 57.4887 64.6138C58.2507 64.0852 61.5535 61.3888 63.3322 58.9035C64.5044 57.2663 65.6524 55.4317 65.9743 54.621C65.6524 54.621 64.6738 54.5153 63.7383 54.5153C62.5702 54.5153 59.0629 53.4052 56.117 47.166Z" fill="#660099"/>
<path fill-rule="evenodd" clip-rule="evenodd" d="M54.2155 45.5569C54.0511 44.74 54.1834 43.6658 54.2155 43.2015L54.5424 41.9326C54.5143 42.3493 54.7349 44.7414 54.8983 45.5569C55.0608 46.3676 55.1671 47.2344 55.4358 48.1522C55.7045 49.0694 56.0033 49.9708 56.291 50.7205C56.5798 51.475 56.9759 51.996 57.1844 52.2954C58.2292 53.7952 63.9926 57.8358 67.8047 59.8982C63.9946 57.8367 57.768 54.0212 56.6771 52.4537C56.4435 52.1194 56.0424 51.5923 55.7536 50.8376C55.4628 50.0787 55.0678 49.2013 54.7971 48.2773C54.5263 47.353 54.38 46.3791 54.2155 45.5569Z" fill="#F7F7F7"/>
<path fill-rule="evenodd" clip-rule="evenodd" d="M53.334 48.5701C53.1706 47.7528 53.2418 47.3663 53.2729 46.9019L53.3742 46.3203C53.3471 46.7369 53.6098 47.5927 53.7732 48.4083C53.9356 49.2185 54.1843 50.0783 54.453 50.996C54.7217 51.9133 55.0215 52.8146 55.3083 53.5643C55.5971 54.3188 55.9099 54.8929 56.1185 55.1919C56.4654 55.6023 61.9109 61.8539 62.7241 62.2767C60.8952 61.0609 56.0603 55.9026 55.8137 55.6257C55.581 55.2909 55.1609 54.6054 54.8731 53.8509C54.5824 53.0916 54.2796 52.1822 54.0088 51.2574C53.7381 50.3335 53.4995 49.3923 53.334 48.5701Z" fill="#F7F7F7"/>
<path fill-rule="evenodd" clip-rule="evenodd" d="M55.9391 59.9793C55.8077 59.6732 55.8178 59.5153 55.8027 59.3309L55.8198 58.8691C55.8338 59.035 55.9812 59.6679 56.1116 59.974C56.2419 60.2774 56.4374 60.5228 56.6249 60.8593C56.8134 61.1959 57.0731 61.4998 57.2586 61.7692C57.4461 62.0403 57.6065 62.1711 57.7259 62.2707C57.9184 62.4021 58.908 63.2587 59.3251 63.3556C58.3706 63.0345 57.7168 62.6209 57.5805 62.5338C57.4481 62.4224 57.2025 62.1893 57.016 61.9182C56.8275 61.6453 56.6239 61.3145 56.4354 60.9753C56.2459 60.6361 56.0704 60.2875 55.9391 59.9793Z" fill="#F7F7F7"/>
<path d="M46.8373 26.6554C46.8052 26.6751 46.7812 26.6891 46.7661 26.6966C46.7802 26.6848 46.8032 26.6701 46.8373 26.6554C47.475 26.2644 51.4005 23.6099 52.6107 23.2072C53.8811 22.7841 55.0572 21.673 55.9125 21.991C56.6244 22.2555 57.1157 22.4669 57.1839 22.4669C56.3697 23.7358 54.8456 25.4277 52.5595 26.0093C50.6284 26.5004 48.4295 26.6558 47.6816 26.5908C47.2093 26.5499 46.9556 26.6042 46.8373 26.6554Z" fill="#660099"/>
<path fill-rule="evenodd" clip-rule="evenodd" d="M54.2183 22.2273C55.8346 21.9675 57.0288 22.0466 57.9021 22.372C58.7795 22.6985 59.3279 23.2706 59.6558 23.9828C59.9756 24.6795 60.1401 25.1629 60.1431 25.5757C60.1451 25.9952 59.9797 26.3323 59.6718 26.734C59.35 27.1539 58.7865 27.3746 58.22 27.5089C57.8329 27.6006 57.4289 27.6549 57.0829 27.7012C56.9225 27.7228 56.7751 27.7427 56.6468 27.7638C55.993 27.872 54.3807 28.2098 53.6468 28.3672C52.8316 28.7173 50.9456 29.5261 49.8517 29.9878C49.1578 30.281 48.6866 30.3494 48.3015 30.319C48.11 30.3041 47.9416 30.2647 47.7822 30.2196C47.72 30.2024 47.6618 30.1846 47.6037 30.167C47.5064 30.1379 47.4112 30.109 47.3079 30.0834C46.9449 29.9928 46.604 29.6422 46.3534 29.1885C46.1 28.7309 45.9279 28.151 45.9125 27.5752C45.8811 26.4115 46.7233 25.1963 47.9596 24.418C49.1879 23.6451 51.117 22.618 54.2183 22.2273ZM57.7096 27.4541C54.7918 28.0476 54.9503 28.0935 53.8383 28.1692C52.6351 28.9269 52.3493 28.7576 51.3386 29.1899C50.8042 29.5838 49.9549 29.7786 49.2631 30.0552C48.4108 30.5301 47.0572 29.8579 47.358 29.9328C47.4643 29.9591 47.5676 29.9901 47.6678 30.0202C47.725 30.0376 47.7811 30.0546 47.8373 30.0703C47.9927 30.114 48.1481 30.1503 48.3246 30.1641C48.6765 30.1917 49.1187 30.1317 49.7945 29.8461C50.8914 29.3833 52.7855 28.5709 53.5956 28.2226L53.6037 28.2192L53.6127 28.2174C54.3416 28.061 55.969 27.7202 56.6297 27.6107C56.7671 27.5879 56.9205 27.5674 57.0839 27.5455C57.4248 27.4997 57.8119 27.4478 58.1909 27.3581C58.7504 27.2255 59.2607 27.0163 59.5435 26.6476C59.8403 26.2608 59.9817 25.958 59.9807 25.5867C59.9786 25.2085 59.8262 24.7499 59.5064 24.0532C59.1936 23.3723 58.6872 22.7855 57.8349 22.5174C58.4125 22.5237 61.0786 24.7698 59.5706 26.7041L58.8757 27.2453L57.7096 27.4541Z" fill="#660099"/>
<path fill-rule="evenodd" clip-rule="evenodd" d="M54.2183 22.2244C55.8346 21.9646 57.0288 22.0436 57.9021 22.3692C58.7795 22.6958 59.3279 23.2679 59.6558 23.98C59.9756 24.6765 60.1401 25.16 60.1431 25.5726C60.1451 25.9921 59.8513 27.88 59.5435 28.2815C59.2206 28.7015 58.7865 27.3718 58.22 27.5061C57.8329 27.5976 57.4289 27.6519 57.0829 27.6983C56.9225 27.7199 56.7751 27.7397 56.6468 27.7608C55.993 27.8691 54.3807 28.2067 53.6468 28.3643C52.8316 28.7146 50.9456 29.5232 49.8517 29.985C49.1578 30.2782 48.6866 30.3465 48.3015 30.3162C48.11 30.3011 47.9416 30.2619 47.7822 30.2168C47.72 30.1994 47.6618 30.1818 47.6037 30.1642C47.5064 30.1349 47.4112 30.1062 47.3079 30.0804C46.9449 29.99 46.604 29.6394 46.3534 29.1856C46.1 28.7278 45.9279 28.1482 45.9125 27.5721C45.8811 26.4085 46.7233 25.1933 47.9596 24.4148C49.1879 23.6422 51.117 22.615 54.2183 22.2244ZM54.2303 22.3783C51.1602 22.7648 49.2551 23.7799 48.0428 24.5431C46.8386 25.3008 46.0456 26.4676 46.0748 27.558C46.0893 28.1091 46.2548 28.6666 46.4977 29.1058C46.7434 29.549 47.0572 29.8549 47.358 29.9298C47.4643 29.9562 47.5676 29.9873 47.6678 30.0174C47.725 30.0348 47.7811 30.0518 47.8373 30.0675C47.9927 30.1112 48.1481 30.1473 48.3246 30.1611C48.6765 30.1887 49.1187 30.1289 49.7945 29.8433C50.8914 29.3805 52.7855 28.568 53.5956 28.2198L53.6037 28.2162L53.6127 28.2145C54.3416 28.0581 55.969 27.7172 56.6297 27.6076C56.7671 27.5851 56.9205 27.5645 57.0839 27.5425C57.4248 27.4967 57.8119 27.445 58.1909 27.3553C58.7504 27.2226 59.2607 27.0134 59.5435 26.6447C59.8403 26.2577 59.9817 25.9551 59.9807 25.5838C59.9786 25.2054 59.8262 24.7469 59.5064 24.0504C59.1936 23.3694 58.6722 22.826 57.8349 22.5146C56.9967 22.202 55.8336 22.1206 54.2333 22.3779L54.2323 22.3781L54.2303 22.3783Z" fill="#F7F7F7"/>
<path fill-rule="evenodd" clip-rule="evenodd" d="M47.7259 25.1417C47.773 24.8042 47.9395 24.4974 48.1069 24.333L48.2192 24.4375C48.0818 24.5732 48.0909 24.7708 48.0478 25.0775C48.0046 25.3808 48.135 25.6577 48.4167 25.919C48.7847 26.2597 49.257 26.6946 49.9869 26.9745C50.7169 27.2539 51.4639 27.5012 52.0384 27.5381C52.5929 27.5736 53.1323 27.6396 53.6948 27.661C53.8071 27.6653 53.9435 27.6891 54.0528 27.6935C54.7095 27.7191 55.3422 27.8333 55.7683 27.8838C55.3502 27.8342 54.7175 27.8116 54.0598 27.7857C53.9515 27.7814 53.8402 27.7772 53.7289 27.773C53.1664 27.7515 52.5738 27.7289 52.0173 27.6933C51.4197 27.6552 50.6266 27.4494 49.8887 27.167C49.1527 26.8848 48.4609 26.5214 48.0728 26.1616C47.749 25.8621 47.6768 25.4824 47.7259 25.1417Z" fill="#F7F7F7"/>
<path fill-rule="evenodd" clip-rule="evenodd" d="M52.507 26.7851C53.5819 26.7798 54.8553 26.4673 55.8569 26.4909C56.6841 26.5105 57.6076 26.0642 58.3496 25.7982C59.1126 25.3496 59.4375 24.7462 59.7784 24.5293L60.0872 25.6652C59.7353 25.8894 59.1046 26.2205 58.3496 26.4909C57.5956 26.7612 56.7132 26.9727 55.8569 26.9525C54.8583 26.929 53.5718 26.9354 52.496 26.9405C52.4418 26.9408 52.3887 26.9411 52.3355 26.9414C51.7831 26.944 51.3299 26.8636 50.9779 26.8603C50.8025 26.8588 50.6982 26.8117 50.5989 26.8069C50.5488 26.8045 50.5327 26.812 50.5027 26.8083C50.4886 26.8064 50.4024 26.7723 50.3894 26.7687C50.3833 26.7671 50.3071 26.7766 50.2981 26.7718C50.2921 26.7687 50.3081 26.8 50.2981 26.7718L50.2881 26.772C50.3292 26.7725 50.4244 26.7715 50.4214 26.77C50.4184 26.7681 50.4154 26.7671 50.4144 26.7668C50.4164 26.7674 50.4224 26.7686 50.4335 26.77C50.4565 26.773 50.4926 26.7758 50.5408 26.7781C50.638 26.7827 50.7784 26.7857 50.9539 26.7873C51.3048 26.7905 51.7921 26.7886 52.3456 26.7858C52.3987 26.7857 52.4518 26.7854 52.507 26.7851Z" fill="#F7F7F7"/>
<path fill-rule="evenodd" clip-rule="evenodd" d="M46.3615 28.4393C46.2192 28.1692 45.9869 27.6208 46.006 27.4346L46.0564 27.0117C46.0414 27.1605 46.6479 27.7887 46.7682 28.0163C46.8865 28.2402 47.1011 28.3938 47.4791 28.4922C48.2792 28.7002 51.2772 28.7243 51.6963 28.7068L50.3247 29.0179C49.8976 29.0356 48.0827 29.2328 47.2565 29.0179C46.8214 28.9047 46.5055 28.7134 46.3615 28.4393Z" fill="#F7F7F7"/>
<path d="M58.5035 46.9445C58.5035 41.7099 64.5165 43.4371 64.6518 42.4502C70.1395 46.6268 66.8647 51.9983 66.5318 52.866C66.0235 54.1876 60.0526 60.0035 58.7311 61.4842C57.6742 62.6682 58.1986 62.8057 56.6234 63.5461L45.4953 65.608C45.0548 64.3745 44.1581 60.2256 45.2149 60.6908C46.5366 61.2723 53.1171 59.6864 53.7267 59.2636C54.3364 58.8404 58.5035 50.7511 58.9607 50.5923C59.4179 50.4336 58.5035 47.8432 58.5035 46.9445Z" fill="#F6F6F6"/>
</g>
</g>
<path d="M84.623 49.6628C84.623 43.2257 89.5863 39.2852 95.6625 39.2852C100.325 39.2852 103.092 41.6314 104.476 44.2183L99.3623 46.8353C98.7006 45.602 97.377 44.6394 95.6625 44.6394C92.7447 44.6394 90.7895 46.8654 90.7895 49.6628C90.7895 52.4603 92.7447 54.6862 95.6625 54.6862C96.9559 54.6862 98.1591 54.3553 98.9412 53.7838V52.9115H95.0609V47.9182H104.837V55.9796C102.611 58.4462 99.603 60.0405 95.6625 60.0405C89.5863 60.0405 84.623 56.0699 84.623 49.6628Z" fill="white"/>
<path d="M107.619 51.4377V39.6162H113.785V51.2271C113.785 53.1523 114.778 54.6864 117.274 54.6864C119.741 54.6864 120.734 53.1523 120.734 51.2271V39.6162H126.9V51.4076C126.9 56.4009 124.042 60.0406 117.274 60.0406C110.506 60.0406 107.619 56.4009 107.619 51.4377Z" fill="white"/>
<path d="M148.194 59.6797H141.275L138.508 53.2425H136.312V59.6797H130.236V39.6162H140.944C145.637 39.6162 148.164 42.7445 148.164 46.5046C148.164 49.9638 146.148 51.7987 144.554 52.5808L148.194 59.6797ZM141.997 46.4143C141.997 45.3314 141.035 44.6697 140.012 44.6697H136.312V48.1891H140.012C141.035 48.1891 141.997 47.5273 141.997 46.4143Z" fill="white"/>
<path d="M150.709 51.4377V39.6162H156.876V51.2271C156.876 53.1523 157.869 54.6864 160.365 54.6864C162.832 54.6864 163.824 53.1523 163.824 51.2271V39.6162H169.991V51.4076C169.991 56.4009 167.133 60.0406 160.365 60.0406C153.597 60.0406 150.709 56.4009 150.709 51.4377Z" fill="white"/>
<path d="M183.134 60.0405C176.997 60.0405 172.245 55.8292 172.245 49.6628C172.245 43.4663 176.997 39.2852 183.134 39.2852C188.548 39.2852 191.195 42.3533 192.398 45.1207L187.164 47.5572C186.653 45.993 185.089 44.6394 183.134 44.6394C180.366 44.6394 178.411 46.8654 178.411 49.6628C178.411 52.4603 180.366 54.6862 183.134 54.6862C185.089 54.6862 186.653 53.3326 187.164 51.7684L192.398 54.1748C191.225 56.852 188.548 60.0405 183.134 60.0405Z" fill="white"/>
<path d="M193.305 49.6628C193.305 43.4964 198.087 39.2852 204.284 39.2852C210.48 39.2852 215.263 43.4964 215.263 49.6628C215.263 55.8292 210.48 60.0405 204.284 60.0405C198.087 60.0405 193.305 55.8292 193.305 49.6628ZM209.097 49.6628C209.097 46.8654 207.202 44.6394 204.284 44.6394C201.366 44.6394 199.471 46.8654 199.471 49.6628C199.471 52.4603 201.366 54.6862 204.284 54.6862C207.202 54.6862 209.097 52.4603 209.097 49.6628Z" fill="white"/>
<path d="M216.422 49.6628C216.422 43.4964 221.205 39.2852 227.402 39.2852C233.598 39.2852 238.381 43.4964 238.381 49.6628C238.381 55.8292 233.598 60.0405 227.402 60.0405C221.205 60.0405 216.422 55.8292 216.422 49.6628ZM232.214 49.6628C232.214 46.8654 230.319 44.6394 227.402 44.6394C224.484 44.6394 222.589 46.8654 222.589 49.6628C222.589 52.4603 224.484 54.6862 227.402 54.6862C230.319 54.6862 232.214 52.4603 232.214 49.6628Z" fill="white"/>
<path d="M254.308 59.6797H240.622V39.6162H246.698V54.3856H254.308V59.6797Z" fill="white"/>
</svg>
