<svg xmlns="http://www.w3.org/2000/svg" width="97" height="19" fill="none"><g opacity=".88"><path fill="#B68EFC" d="m.01 0 45.24.024L96.147.05l-4.718 9.288 4.708 8.86-49.954-.026L0 18.148l4.717-8.855L.01 0Z"/><path fill="#FDFDFD" d="M11.632 4.363h1.598l2.774 6.786h.103l2.782-6.782h1.598l-.005 8.728H19.23l.004-6.316h-.081l-2.578 6.301h-1.04l-2.57-6.309h-.08l-.004 6.32h-1.253l.005-8.728Zm13.42 8.866c-.614 0-1.15-.14-1.607-.422a2.845 2.845 0 0 1-1.065-1.181c-.252-.506-.378-1.097-.378-1.773 0-.68.127-1.273.38-1.781a2.84 2.84 0 0 1 1.066-1.184c.458-.281.993-.422 1.607-.421.614 0 1.149.14 1.606.422a2.84 2.84 0 0 1 1.065 1.186c.253.508.379 1.102.378 1.781 0 .676-.127 1.267-.38 1.773a2.844 2.844 0 0 1-1.066 1.18c-.457.28-.993.42-1.607.42Zm.004-1.07c.398.001.727-.104.989-.314.261-.21.455-.49.58-.84a3.34 3.34 0 0 0 .192-1.154c0-.418-.063-.801-.19-1.15a1.875 1.875 0 0 0-.58-.849c-.261-.213-.59-.32-.988-.32-.401 0-.733.106-.998.32a1.904 1.904 0 0 0-.584.847c-.125.35-.188.733-.188 1.15 0 .42.062.806.187 1.155.128.35.322.63.583.84.264.21.597.316.997.316Zm9.376-4.004-1.155.204a1.37 1.37 0 0 0-.23-.422 1.139 1.139 0 0 0-.417-.329 1.512 1.512 0 0 0-.66-.128c-.361 0-.662.08-.904.243-.242.159-.363.364-.363.617 0 .22.081.395.243.529.162.133.423.243.784.328l1.04.24c.602.14 1.05.354 1.346.644.295.29.443.666.443 1.13 0 .391-.115.74-.342 1.047-.225.304-.539.543-.942.716-.4.173-.865.26-1.394.259-.733 0-1.33-.157-1.794-.47-.462-.315-.746-.763-.851-1.342l1.232-.187c.076.32.234.564.472.729.239.162.55.243.933.243.418 0 .752-.086 1.002-.26.25-.175.375-.39.375-.643a.669.669 0 0 0-.23-.516c-.15-.139-.382-.244-.694-.315l-1.108-.244c-.61-.14-1.062-.361-1.355-.665-.29-.304-.434-.69-.434-1.155 0-.387.109-.725.325-1.014a2.12 2.12 0 0 1 .895-.677c.38-.165.817-.247 1.308-.247.708 0 1.264.154 1.67.461.406.305.675.712.805 1.224Zm4.585-1.596v1.023L35.44 7.58V6.557l3.576.002Zm-2.616-1.57 1.275.001-.004 6.192c0 .247.037.433.111.558a.578.578 0 0 0 .285.252c.12.042.249.064.388.064.102 0 .192-.007.269-.021l.179-.034.23 1.053a2.5 2.5 0 0 1-.827.136 2.244 2.244 0 0 1-.938-.18 1.609 1.609 0 0 1-.703-.58c-.179-.261-.268-.59-.268-.985l.003-6.455Zm14.552 2.233-1.33-.001a2.033 2.033 0 0 0-.796-1.3 2.202 2.202 0 0 0-.677-.342 2.645 2.645 0 0 0-.788-.115c-.503 0-.954.126-1.352.379-.395.252-.707.623-.938 1.111-.227.489-.341 1.085-.341 1.79 0 .71.112 1.31.34 1.798.23.49.543.859.94 1.109.398.25.846.375 1.343.376.275 0 .537-.037.784-.11.25-.077.476-.19.678-.337a2.04 2.04 0 0 0 .806-1.282l1.33.005a3.56 3.56 0 0 1-.415 1.184 3.27 3.27 0 0 1-.78.929 3.528 3.528 0 0 1-1.083.6 4 4 0 0 1-1.33.212c-.755 0-1.428-.18-2.019-.538-.59-.36-1.056-.877-1.397-1.547-.338-.671-.506-1.47-.506-2.4 0-.932.172-1.731.513-2.399.341-.67.807-1.184 1.398-1.542.592-.36 1.264-.54 2.016-.54.463 0 .895.068 1.296.201.403.131.765.325 1.086.58.32.253.586.563.796.93.21.364.352.78.426 1.249Zm2.746 2.004-.002 3.886h-1.274l.005-8.728h1.257l-.002 3.248h.081a1.88 1.88 0 0 1 .704-.839c.315-.207.727-.31 1.236-.31.449 0 .84.092 1.176.277.338.185.599.46.783.827.188.364.281.819.28 1.364l-.001 4.163h-1.274l.002-4.01c0-.48-.123-.853-.37-1.117-.247-.267-.591-.4-1.032-.401-.3 0-.57.064-.81.191a1.382 1.382 0 0 0-.558.563c-.133.244-.2.54-.2.886Zm8.7 4.023c-.614 0-1.15-.141-1.606-.423a2.845 2.845 0 0 1-1.065-1.18c-.253-.507-.379-1.098-.378-1.774 0-.679.127-1.272.38-1.78a2.84 2.84 0 0 1 1.066-1.185c.457-.28.993-.421 1.607-.421.613 0 1.149.141 1.606.423a2.84 2.84 0 0 1 1.065 1.185c.252.509.378 1.102.378 1.781 0 .677-.127 1.267-.38 1.773a2.845 2.845 0 0 1-1.066 1.18c-.458.28-.993.421-1.607.42Zm.005-1.07c.398 0 .727-.104.989-.315.261-.21.454-.49.58-.839.128-.35.192-.734.192-1.155 0-.417-.064-.8-.191-1.15a1.874 1.874 0 0 0-.58-.848c-.26-.214-.59-.32-.988-.32-.4 0-.733.106-.997.318a1.904 1.904 0 0 0-.584.848c-.126.35-.188.733-.188 1.15 0 .421.062.806.187 1.156.127.35.322.629.583.84.264.21.596.315.997.315Zm4.468.94.004-6.545h1.274l-.003 6.546h-1.275Zm.648-7.555a.81.81 0 0 1-.571-.222.72.72 0 0 1-.234-.537c0-.21.078-.39.234-.537.16-.15.35-.225.572-.225.221 0 .41.075.566.226a.706.706 0 0 1 .239.537c0 .207-.08.386-.24.537a.795.795 0 0 1-.566.221Zm5.098 7.69c-.634 0-1.18-.144-1.636-.431a2.848 2.848 0 0 1-1.048-1.198c-.244-.509-.366-1.091-.366-1.747 0-.665.126-1.252.376-1.76.25-.511.603-.91 1.058-1.197.454-.287.99-.43 1.607-.43.497 0 .94.093 1.329.278.389.182.703.438.941.768.242.33.385.714.43 1.155l-1.24-.001a1.486 1.486 0 0 0-.468-.793c-.242-.222-.566-.333-.972-.333-.355 0-.666.094-.933.281-.264.185-.47.449-.618.792-.148.341-.222.744-.223 1.21 0 .478.072.89.217 1.236.145.347.35.616.613.806.267.19.581.286.942.286.241 0 .46-.044.656-.132.2-.09.365-.22.499-.387.136-.168.232-.37.286-.605h1.24a2.408 2.408 0 0 1-.414 1.134c-.23.332-.539.593-.925.783-.384.19-.834.285-1.351.285Zm6.872.004c-.645 0-1.2-.139-1.666-.414a2.803 2.803 0 0 1-1.073-1.173c-.25-.506-.374-1.098-.374-1.777 0-.67.126-1.261.376-1.773.253-.51.606-.91 1.057-1.197.455-.286.986-.43 1.594-.43.37.001.728.062 1.074.185a2.6 2.6 0 0 1 .933.575c.275.262.493.602.651 1.02.16.414.239.918.238 1.512v.452l-5.203-.003v-.954l3.955.002a1.88 1.88 0 0 0-.204-.891 1.547 1.547 0 0 0-.575-.618 1.608 1.608 0 0 0-.86-.227c-.359 0-.671.088-.938.264-.265.173-.47.4-.614.682-.142.278-.214.58-.214.907v.746c0 .438.076.81.23 1.117.155.306.373.54.65.703.28.16.605.239.977.24.241 0 .461-.035.66-.103a1.371 1.371 0 0 0 .848-.83l1.207.218c-.097.355-.27.666-.52.933a2.52 2.52 0 0 1-.934.617 3.493 3.493 0 0 1-1.275.217Z"/></g></svg>