<svg xmlns="http://www.w3.org/2000/svg" width="25" height="25" fill="none"><path stroke="#fff" stroke-linecap="round" stroke-linejoin="round" stroke-width="1.5" d="M13.87 9.34h-6m15 1.97v2.06c0 .55-.44 1-1 1.02h-1.96c-1.08 0-2.07-.79-2.16-1.87-.06-.63.18-1.22.6-1.63.37-.38.88-.6 1.44-.6h2.08c.56.02 1 .47 1 1.02Z"/><path stroke="#fff" stroke-linecap="round" stroke-linejoin="round" stroke-width="1.5" d="M18.35 10.89c-.42.41-.66 1-.6 1.63.09 1.08 1.08 1.87 2.16 1.87h1.96v1.45c0 3-2 5-5 5h-9c-3 0-5-2-5-5v-7c0-2.72 1.64-4.62 4.19-4.94.26-.04.53-.06.81-.06h9c.26 0 .51.01.75.05 2.58.3 4.25 2.21 4.25 4.95v1.45h-2.08c-.56 0-1.07.22-1.44.6Z"/></svg>