<svg width="18" height="18" viewBox="0 0 18 18" fill="none" xmlns="http://www.w3.org/2000/svg">
<path d="M9.01822 13.6741C9.38938 13.6741 9.69026 13.3733 9.69026 13.0021C9.69026 12.631 9.38938 12.3301 9.01822 12.3301C8.64707 12.3301 8.34619 12.631 8.34619 13.0021C8.34619 13.3733 8.64707 13.6741 9.01822 13.6741Z" fill="#222222"/>
<path d="M12.198 15.69H5.84461C5.42298 15.6648 5.02835 15.4742 4.74656 15.1595C4.46477 14.8449 4.31863 14.4317 4.33993 14.0099V4.01407C4.31863 3.59223 4.46477 3.17904 4.74656 2.86441C5.02835 2.54977 5.42298 2.35914 5.84461 2.33398H12.198C12.6196 2.35914 13.0143 2.54977 13.2961 2.86441C13.5778 3.17904 13.724 3.59223 13.7027 4.01407V14.0099C13.724 14.4317 13.5778 14.8449 13.2961 15.1595C13.0143 15.4742 12.6196 15.6648 12.198 15.69ZM5.84461 3.00602C5.60153 3.03169 5.37819 3.15163 5.22253 3.34008C5.06686 3.52854 4.99127 3.77051 5.01196 4.01407V14.0099C4.99127 14.2534 5.06686 14.4954 5.22253 14.6839C5.37819 14.8723 5.60153 14.9922 5.84461 15.0179H12.198C12.4411 14.9922 12.6644 14.8723 12.8201 14.6839C12.9758 14.4954 13.0513 14.2534 13.0307 14.0099V4.01407C13.0513 3.77051 12.9758 3.52854 12.8201 3.34008C12.6644 3.15163 12.4411 3.03169 12.198 3.00602H5.84461Z" fill="#222222"/>
</svg>
