<svg width="14" height="20" viewBox="0 0 14 20" fill="none" xmlns="http://www.w3.org/2000/svg">
<path d="M11.7029 0H2.24294C1.61556 0.0376857 1.02839 0.321391 0.608973 0.789488C0.189558 1.25759 -0.0282232 1.87226 0.00293696 2.5V17.37C-0.0282232 17.9977 0.189558 18.6124 0.608973 19.0805C1.02839 19.5486 1.61556 19.8323 2.24294 19.87H11.7029C12.3303 19.8323 12.9175 19.5486 13.3369 19.0805C13.7563 18.6124 13.9741 17.9977 13.9429 17.37V2.5C13.9741 1.87226 13.7563 1.25759 13.3369 0.789488C12.9175 0.321391 12.3303 0.0376857 11.7029 0ZM12.9429 17.37C12.9735 17.7325 12.8607 18.0926 12.6289 18.373C12.3971 18.6534 12.0647 18.8318 11.7029 18.87H2.24294C1.88115 18.8318 1.54873 18.6534 1.31693 18.373C1.08514 18.0926 0.972417 17.7325 1.00294 17.37V2.5C0.972417 2.13748 1.08514 1.77743 1.31693 1.49704C1.54873 1.21664 1.88115 1.03821 2.24294 1H3.77294V1.51C3.77294 1.77522 3.87829 2.02957 4.06583 2.21711C4.25337 2.40464 4.50772 2.51 4.77294 2.51H9.17294C9.43815 2.51 9.69251 2.40464 9.88004 2.21711C10.0676 2.02957 10.1729 1.77522 10.1729 1.51V1H11.7029C12.0647 1.03821 12.3971 1.21664 12.6289 1.49704C12.8607 1.77743 12.9735 2.13748 12.9429 2.5V17.37Z" fill="#222222"/>
<path d="M4.9729 16.869H8.9729C9.10551 16.869 9.23269 16.8163 9.32645 16.7225C9.42022 16.6288 9.4729 16.5016 9.4729 16.369C9.4729 16.2364 9.42022 16.1092 9.32645 16.0154C9.23269 15.9217 9.10551 15.869 8.9729 15.869H4.9729C4.84029 15.869 4.71311 15.9217 4.61935 16.0154C4.52558 16.1092 4.4729 16.2364 4.4729 16.369C4.4729 16.5016 4.52558 16.6288 4.61935 16.7225C4.71311 16.8163 4.84029 16.869 4.9729 16.869Z" fill="#222222"/>
</svg>
