<svg width="98" height="39" viewBox="0 0 98 39" fill="none" xmlns="http://www.w3.org/2000/svg">
<rect x="0.904785" y="0.65625" width="96.2347" height="37.4654" rx="5.87693" fill="white"/>
<path d="M47.6686 14.1589H50.9971V24.3936H47.6686V14.1589ZM33.5564 21.4104C33.5564 17.8754 28.489 18.5119 28.489 17.1737L28.4909 17.1773C28.4909 16.7153 28.9247 16.5355 29.619 16.5285C30.7707 16.5501 31.9006 16.811 32.9178 17.2901V14.4974C31.8703 14.1311 30.753 13.9473 29.627 13.9561C26.9391 13.9561 25.1484 15.2114 25.1484 17.3095C25.1484 20.5959 30.1861 20.0617 30.1861 21.4792C30.1861 22.0257 29.6568 22.2073 28.9167 22.2073C27.8205 22.2073 26.4019 21.8001 25.2897 21.2588V23.9316C26.4316 24.3724 27.6632 24.6016 28.9088 24.6051C31.6623 24.6034 33.5564 23.5473 33.5564 21.4104ZM47.6586 13.2597L50.9872 12.625V10.2061L47.6586 10.8408V13.2597ZM57.9129 13.9596C56.9435 13.9561 56.0113 14.2897 55.3165 14.8888L55.1454 14.1536H52.2267V27.8368L55.5394 27.2074L55.5473 23.854C56.0248 24.1679 56.7331 24.6034 57.8911 24.6034C60.2646 24.6034 62.4273 23.0536 62.4273 19.2859C62.4353 15.8373 60.2427 13.9596 57.9129 13.9596ZM57.1231 22.1421C56.3451 22.1439 55.8855 21.89 55.5632 21.5814L55.5413 17.172C55.8855 16.8317 56.363 16.5831 57.1231 16.5831C58.3307 16.5831 59.1664 17.7996 59.1664 19.3494C59.1763 20.9467 58.3546 22.1421 57.1231 22.1421ZM68.1076 13.9596C64.9581 13.9596 63.0401 16.3574 63.0401 19.3794C63.0401 22.9531 65.3003 24.6051 68.5254 24.6051C70.1071 24.6051 71.2929 24.2842 72.1962 23.8364V21.6044C71.2929 22.0116 70.2563 22.2585 68.9432 22.2585C67.652 22.2585 66.5179 21.8512 66.3687 20.4619H72.8527C72.8667 20.3085 72.8965 19.6861 72.8965 19.4005C72.8965 16.3592 71.2571 13.9596 68.1076 13.9596ZM66.3388 18.2757C66.3388 16.9393 67.258 16.3786 68.0857 16.3786C68.8994 16.3786 69.7649 16.941 69.7649 18.2757H66.3388ZM39.9748 16.6854V14.1589H37.46L37.452 11.5865L34.219 12.2019L34.205 21.7154C34.205 23.4732 35.6833 24.6086 37.645 24.6086C38.7353 24.6086 39.5331 24.427 39.9748 24.2137V21.9552C39.5491 22.1086 37.46 22.6569 37.46 20.9062V16.6836H39.9748V16.6854ZM46.8687 16.8864V14.1606C46.4211 14.0196 44.8772 13.7604 44.1012 15.0351L43.8983 14.1606H41.0333V24.3953H44.34V17.507C45.1239 16.5849 46.445 16.7665 46.8687 16.8864Z" fill="#646FDE"/>
</svg>
