<svg width="97" height="39" viewBox="0 0 97 39" fill="none" xmlns="http://www.w3.org/2000/svg">
<rect x="0.67041" y="0.65625" width="96.2347" height="37.4654" rx="5.87693" fill="white"/>
<path d="M65.4286 13.5527C65.6754 13.3579 65.7988 13.2604 65.9222 13.163C67.6374 11.7257 69.8338 11.8841 71.3021 13.5893C71.4502 13.7598 71.5242 13.772 71.6723 13.6258C71.771 13.5162 71.8821 13.4309 71.9808 13.3213C73.1283 12.2129 74.6461 11.8841 76.0651 12.5052C77.5581 13.163 78.3602 14.3201 78.3725 15.94C78.3972 19.4358 78.3849 22.9193 78.3849 26.415C78.3849 27.6574 77.6075 28.4369 76.3612 28.4369C75.8677 28.4369 75.3741 28.4004 74.8805 28.4491C74.3746 28.4978 74.2265 28.3395 74.2265 27.8157C74.2512 24.4053 74.2389 20.9948 74.2389 17.5844C74.2389 17.4382 74.2389 17.3042 74.2389 17.1581C74.2265 16.3664 73.9057 16.0375 73.1407 16.0009C72.4497 15.9644 71.9685 16.3785 71.8944 17.0728C71.8821 17.2311 71.8944 17.4017 71.8944 17.56C71.8944 20.5076 71.8944 23.443 71.8944 26.3906C71.8944 27.6817 71.1417 28.4369 69.8338 28.4247C69.1674 28.4125 68.2667 28.717 67.8842 28.2907C67.551 27.9253 67.7731 27.0605 67.7731 26.415C67.7731 23.3943 67.7731 20.3614 67.7731 17.3408C67.7731 16.2689 67.0698 15.7208 66.1567 16.0862C65.5891 16.3176 65.404 16.7683 65.404 17.3529C65.4163 20.1787 65.404 22.9924 65.404 25.8182C65.404 26.0374 65.404 26.2688 65.404 26.4881C65.3669 27.6695 64.6019 28.4125 63.4173 28.4247C62.9238 28.4369 62.4302 28.3882 61.9366 28.4369C61.406 28.4856 61.2456 28.3395 61.258 27.7792C61.2827 22.9924 61.2703 18.2056 61.2703 13.4066C61.2703 13.1995 61.2827 13.0046 61.2703 12.7976C61.2456 12.5296 61.3567 12.4443 61.6282 12.4443C62.7634 12.4565 63.8862 12.4565 65.0214 12.4443C65.3053 12.4443 65.441 12.5174 65.4163 12.8219C65.3916 13.0412 65.4163 13.2361 65.4286 13.5527Z" fill="#02B9EF"/>
<path d="M39.2699 20.1547C39.2699 21.8234 39.2699 23.4799 39.2699 25.1486C39.2576 27.3167 38.11 28.4372 35.9136 28.4494C34.9512 28.4494 33.9764 28.4616 33.0139 28.4494C31.0643 28.425 29.633 27.1461 29.5342 25.2217C29.4602 23.8453 29.4479 22.4568 29.5219 21.0804C29.6206 19.1072 31.1507 17.7187 33.1743 17.6943C33.7049 17.6821 34.2478 17.6943 34.7784 17.6943C35.2967 17.6821 35.4941 17.3898 35.4818 16.9026C35.4818 16.4154 35.2597 16.1962 34.7661 16.2205C34.2108 16.2327 33.6556 16.2327 33.1003 16.2205C31.743 16.1962 30.9903 15.4654 31.0026 14.1499C31.0026 13.614 30.7558 12.8953 31.1137 12.5787C31.4222 12.3107 32.1255 12.4812 32.6561 12.4812C34.0381 12.469 35.4077 12.4812 36.7897 12.4812C38.2581 12.4812 39.2576 13.4678 39.2699 14.9294C39.2823 16.659 39.2699 18.413 39.2699 20.1547ZM35.4941 22.9196C35.4941 22.7126 35.4941 22.5177 35.4941 22.3106C35.4941 21.0682 35.4941 21.0682 34.2355 21.1169C33.6062 21.1413 33.2607 21.458 33.2484 22.1035C33.236 22.6151 33.236 23.1145 33.2484 23.6261C33.2607 24.503 33.6556 24.7345 34.9388 24.771C35.889 24.7954 35.4077 24.1376 35.4941 23.7722C35.5435 23.5043 35.4818 23.1998 35.4941 22.9196Z" fill="#06306F"/>
<path d="M50.2526 18.827C50.2526 20.6906 50.2773 22.5663 50.2403 24.4299C50.2156 25.8671 49.8701 27.1704 48.4634 27.9378C47.8958 28.2423 47.2789 28.4128 46.6372 28.425C45.2182 28.4493 43.7992 28.425 42.3802 28.4493C42.0347 28.4493 41.9606 28.3275 41.973 28.023C41.9977 27.5115 41.9606 27.0121 41.9853 26.5005C42.01 25.5261 42.7627 24.7831 43.7498 24.7466C44.3915 24.7222 45.0208 24.7344 45.6624 24.7466C46.1807 24.7466 46.4645 24.5395 46.4645 23.9914C46.4645 23.4311 46.193 23.2362 45.6748 23.2241C44.811 23.1997 43.9473 23.3215 43.0959 23.0779C41.6275 22.6516 40.554 21.4458 40.517 19.9476C40.4429 17.5725 40.4923 15.1973 40.4799 12.8222C40.4799 12.5542 40.5663 12.469 40.8378 12.4811C41.8496 12.4933 42.8491 12.5055 43.8609 12.4811C44.3051 12.469 44.2434 12.7126 44.2434 12.9805C44.2434 14.771 44.2434 16.5493 44.2434 18.3398C44.2434 19.1193 44.6136 19.5335 45.3046 19.5578C46.119 19.5822 46.4768 19.2533 46.4768 18.4372C46.4768 16.6346 46.4892 14.8197 46.4645 13.0171C46.4645 12.5908 46.5755 12.469 47.0074 12.4811C47.9082 12.5177 48.8213 12.5299 49.722 12.4811C50.2156 12.4568 50.2896 12.6395 50.2773 13.0658C50.2403 14.9781 50.2526 16.9025 50.2526 18.827Z" fill="#06306F"/>
<path d="M18.8096 21.5916C18.8096 19.6062 18.8096 17.6087 18.8096 15.6233C18.8096 13.6745 20.0188 12.4565 22.0054 12.4808C23.3011 12.493 24.5967 12.3347 25.88 12.5783C27.5211 12.895 28.5576 14.1495 28.5699 15.8182C28.5823 17.5843 28.5699 19.3505 28.5699 21.1166C28.5699 23.3334 27.2496 24.6854 25.0039 24.7463C24.3252 24.7706 23.6466 24.7584 22.9679 24.7463C22.6594 24.7341 22.5237 24.8315 22.536 25.1604C22.5607 25.6476 22.5484 26.1348 22.536 26.622C22.5113 27.6695 21.7586 28.4247 20.7098 28.4369C20.0928 28.449 19.3155 28.6926 18.9206 28.3394C18.5504 28.0106 18.8219 27.231 18.8096 26.6464C18.7972 24.9655 18.8096 23.2725 18.8096 21.5916ZM22.536 18.6075C22.536 18.9972 22.536 19.3748 22.536 19.7646C22.536 21.1409 22.536 21.1409 23.9304 21.0191C24.535 20.9704 24.8188 20.6781 24.8311 20.0813C24.8435 19.3992 24.8064 18.7049 24.8435 18.0228C24.9175 16.0496 24.5473 16.2445 22.9185 16.2323C22.6224 16.2323 22.5237 16.3176 22.5237 16.6099C22.5484 17.2676 22.536 17.9376 22.536 18.6075Z" fill="#06306F"/>
<path d="M53.74 21.6164C53.74 19.9964 53.7276 18.3643 53.7523 16.7443C53.7523 16.3667 53.6659 16.2084 53.2464 16.2206C52.6911 16.2449 51.9508 16.4033 51.6423 16.1353C51.2598 15.7821 51.5559 15.0269 51.5066 14.4423C51.5066 14.4057 51.5066 14.357 51.5066 14.3205C51.5066 13.748 51.3215 13.0781 51.5683 12.6518C51.8151 12.2255 52.5677 12.4935 53.0983 12.3595C54.1472 12.0915 54.9369 11.4947 55.5785 10.6664C56.0227 10.1061 56.578 9.70419 57.2937 9.57021C57.6762 9.49713 57.9106 9.54585 57.886 10.0331C57.849 10.7151 57.886 11.4094 57.8736 12.1037C57.8613 12.396 57.9723 12.4935 58.2685 12.4813C58.7621 12.4691 59.2556 12.4935 59.7492 12.4691C60.0453 12.4569 60.1441 12.5665 60.1317 12.8589C60.1194 13.8576 60.1194 14.8442 60.1317 15.843C60.1317 16.1231 60.0577 16.2693 59.7492 16.2328C59.6875 16.2206 59.6258 16.2328 59.5641 16.2328C59.0212 16.2815 58.2685 15.9892 57.9847 16.3546C57.7132 16.6956 57.886 17.4021 57.886 17.9502C57.886 21.2632 57.8736 24.564 57.8983 27.877C57.8983 28.3398 57.7749 28.486 57.306 28.4495C56.8618 28.4129 56.4053 28.4495 55.9487 28.4373C54.6161 28.3886 53.74 27.4994 53.74 26.184C53.74 24.6614 53.74 23.1389 53.74 21.6164Z" fill="#02B9EF"/>
</svg>
