<svg width="97" height="39" viewBox="0 0 97 39" fill="none" xmlns="http://www.w3.org/2000/svg">
<rect x="0.435547" y="0.65625" width="96.2347" height="37.4654" rx="5.87693" fill="white"/>
<g clip-path="url(#clip0_181_14438)">
<path d="M11.778 14.7794L11.0762 17.5982L15.093 14.7633L12.4659 25.4598L15.134 25.4623L19.015 9.66309" fill="#3395FF"/>
<path d="M7.45366 20.9655L6.34863 25.4623H11.8172L14.0548 16.3145L7.45366 20.9655ZM26.4494 17.0064C26.3157 17.5486 26.0582 17.9468 25.6741 18.2011C25.2909 18.455 24.7531 18.5824 24.0589 18.5824H21.8533L22.6277 15.4315H24.8333C25.5266 15.4315 26.0029 15.5579 26.2613 15.8156C26.5198 16.0733 26.5822 16.4672 26.4494 17.0118M28.7329 16.9437C29.0137 15.8059 28.8978 14.9306 28.3845 14.318C27.8721 13.7101 26.9729 13.4038 25.6897 13.4038H20.7674L17.8043 25.4676H20.1957L21.3899 20.6051H22.9583C23.3103 20.6051 23.5875 20.6684 23.7897 20.7899C23.9925 20.9163 24.1115 21.1352 24.148 21.4512L24.5748 25.4676H27.1369L26.7216 21.7235C26.637 20.8872 26.2863 20.3961 25.6701 20.2502C26.4556 20.0022 27.1137 19.5889 27.644 19.0151C28.1705 18.4455 28.5467 17.7317 28.7329 16.9486M34.5459 21.1497C34.3454 21.9666 34.038 22.5842 33.6222 23.0169C33.2061 23.4497 32.7088 23.6636 32.1287 23.6636C31.5378 23.6636 31.1373 23.4546 30.9256 23.0315C30.7135 22.6085 30.7064 21.9958 30.9033 21.1935C31.1003 20.3912 31.4144 19.7639 31.8466 19.3117C32.2788 18.8595 32.7841 18.6334 33.3642 18.6334C33.9435 18.6334 34.3401 18.8522 34.5406 19.2864C34.7455 19.7226 34.75 20.3465 34.5495 21.1585L34.5459 21.1497ZM35.5939 16.8805L35.2945 18.101C35.1653 17.6633 34.9144 17.3132 34.5437 17.0507C34.1721 16.793 33.7122 16.6617 33.1637 16.6617C32.4909 16.6617 31.8448 16.8513 31.2255 17.2306C30.6061 17.6099 30.0625 18.1447 29.5991 18.8352C29.1357 19.5257 28.7971 20.3085 28.5788 21.1886C28.3649 22.0736 28.3203 22.8467 28.4496 23.5178C28.5832 24.1937 28.8639 24.7091 29.2962 25.0689C29.7328 25.4336 30.2898 25.6135 30.9715 25.6135C31.5132 25.6165 32.0488 25.4886 32.5399 25.2391C33.0255 25.0001 33.4573 24.6483 33.8054 24.2082L33.4935 25.4803H35.806L37.9176 16.8849H35.6006L35.5939 16.8805ZM46.2275 16.8805H39.5025L39.0324 18.7963H42.9454L37.7723 23.6734L37.3303 25.4725H44.2723L44.7424 23.5567H40.5496L45.802 18.6067M52.147 21.1352C51.9389 21.9812 51.6301 22.6172 51.2224 23.0315C50.8147 23.4497 50.321 23.6588 49.7413 23.6588C48.5294 23.6588 48.131 22.8176 48.5445 21.1352C48.7495 20.2988 49.0596 19.6701 49.474 19.2466C49.8884 18.8216 50.3905 18.6096 50.9809 18.6096C51.5602 18.6096 51.9514 18.8201 52.1528 19.2441C52.3542 19.6672 52.3524 20.2978 52.147 21.1342M53.5006 17.2038C52.9682 16.8421 52.2887 16.6612 51.4599 16.6612C50.6209 16.6612 49.8443 16.8411 49.1296 17.2009C48.4178 17.5585 47.7923 18.0923 47.3027 18.7598C46.7992 19.4357 46.4369 20.2283 46.2146 21.1327C45.9963 22.0337 45.9695 22.8249 46.1389 23.5022C46.3082 24.1781 46.6646 24.6984 47.1993 25.0582C47.7385 25.4209 48.4247 25.6013 49.2668 25.6013C50.0956 25.6013 50.8664 25.4195 51.5749 25.0577C52.2833 24.694 52.8893 24.1776 53.3928 23.4969C53.8963 22.819 54.2572 22.0284 54.48 21.124C54.7028 20.2195 54.7295 19.4299 54.5602 18.7511C54.3909 18.0752 54.0389 17.5549 53.5087 17.1927M61.7562 19.1765L62.3488 16.8377C62.1483 16.7259 61.8854 16.6675 61.5557 16.6675C61.0255 16.6675 60.5175 16.8105 60.0274 17.1003C59.6059 17.3463 59.2476 17.6935 58.9447 18.1282L59.2521 16.8688L58.5806 16.8717H56.932L54.8066 25.4637H57.1517L58.2545 20.9723C58.4149 20.3192 58.7036 19.8053 59.1202 19.4406C59.5346 19.0744 60.0515 18.8911 60.6753 18.8911C61.0585 18.8911 61.4149 18.9869 61.7536 19.178M68.2812 21.1765C68.0807 21.9788 67.7777 22.5915 67.3633 23.0145C66.949 23.4395 66.4499 23.6515 65.8707 23.6515C65.2914 23.6515 64.8949 23.4375 64.6854 23.0096C64.4716 22.5793 64.4671 21.9593 64.6676 21.1444C64.8681 20.3299 65.1756 19.7051 65.5989 19.2723C66.0222 18.8362 66.5212 18.6183 67.1004 18.6183C67.6708 18.6183 68.054 18.842 68.2589 19.2942C68.4639 19.7464 68.4684 20.3737 68.2714 21.176M69.9111 17.2179C69.4767 16.8387 68.922 16.649 68.2491 16.649C67.6596 16.649 67.0978 16.7949 66.5649 17.0896C66.0324 17.3838 65.6002 17.7849 65.2682 18.2925L65.2763 18.2342L65.6697 16.8678H63.3795L62.7958 19.2456L62.7779 19.3283L60.3718 29.1232H62.72L63.932 24.1927C64.0523 24.6313 64.2973 24.9755 64.6716 25.2245C65.0459 25.4725 65.508 25.5955 66.0574 25.5955C66.7391 25.5955 67.3896 25.4156 68.0067 25.0558C68.6261 24.695 69.1608 24.1757 69.6153 23.5046C70.0698 22.8336 70.4071 22.0556 70.6223 21.1755C70.8406 20.2939 70.8852 19.5077 70.7604 18.8196C70.6334 18.1306 70.3522 17.5972 69.9183 17.2199M77.7002 21.1415C77.4997 21.9535 77.1923 22.5759 76.7779 23.0038C76.3635 23.4346 75.8644 23.6491 75.2852 23.6491C74.6926 23.6491 74.2916 23.44 74.0821 23.0169C73.8683 22.5939 73.8638 21.9812 74.0599 21.1789C74.2559 20.3766 74.5687 19.7493 75.0009 19.2971C75.4331 18.8449 75.9389 18.6193 76.519 18.6193C77.0982 18.6193 77.4903 18.8381 77.6953 19.2709C77.9003 19.7051 77.9016 20.329 77.702 21.1429L77.7002 21.1415ZM78.7473 16.8698L78.4474 18.0903C78.3182 17.6502 78.0687 17.3001 77.6989 17.04C77.3246 16.7803 76.8657 16.651 76.3176 16.651C75.6448 16.651 74.9951 16.8406 74.3749 17.2199C73.7555 17.5992 73.2119 18.1311 72.7486 18.8196C72.2851 19.5082 71.9465 20.293 71.7282 21.1731C71.5121 22.0566 71.4697 22.8312 71.599 23.5051C71.7295 24.1762 72.0107 24.6945 72.4456 25.0563C72.8795 25.4161 73.4392 25.5979 74.1209 25.5979C74.669 25.5979 75.1925 25.4735 75.6893 25.2235C76.1737 24.9834 76.6045 24.6312 76.9516 24.1912L76.6397 25.4642H78.9523L81.0634 16.8722H78.7509L78.7473 16.8698ZM90.772 16.8727L90.7734 16.8703H89.352C89.3065 16.8703 89.2664 16.8727 89.225 16.8737H88.4876L88.1088 17.4474L88.0153 17.5836L87.9752 17.6517L84.9787 22.2068L84.3593 16.8727H81.9051L83.1483 24.9785L80.4035 29.1262H82.8497L83.5136 28.0987C83.5323 28.0686 83.5493 28.0433 83.5715 28.0112L84.3468 26.8102L84.3691 26.7761L87.8415 21.4031L90.7689 16.881L90.7734 16.8781H90.772V16.8727Z" fill="#072654"/>
</g>
<defs>
<clipPath id="clip0_181_14438">
<rect width="84.4809" height="19.5472" fill="white" transform="translate(6.31445 9.61523)"/>
</clipPath>
</defs>
</svg>
