<svg width="255" height="82" viewBox="0 0 255 82" fill="none" xmlns="http://www.w3.org/2000/svg">
<g clip-path="url(#clip0_796_33645)">
<mask id="mask0_796_33645" style="mask-type:luminance" maskUnits="userSpaceOnUse" x="0" y="0" width="83" height="82">
<path d="M82.5 0H0.5V82H82.5V0Z" fill="white"/>
</mask>
<g mask="url(#mask0_796_33645)">
<path d="M58.1083 45.7545C54.759 45.7545 60.7985 44.8684 57.4497 44.8604C57.1903 44.86 57.702 44.6637 57.4497 44.5971C56.8114 44.4281 57.0959 44.4899 57.4497 43.9114C57.5692 43.7154 55.5159 43.4958 55.6761 43.3314C57.388 41.5685 55.5239 50.3997 51.9766 49.0464C50.9122 47.1832 53.9271 38.902 56.1321 38.902C62.6622 38.9025 68.6364 36.2531 75.1664 36.2611C75.5038 36.2615 75.8426 36.3062 76.1787 36.3423C77.221 36.4547 78.0675 37.1343 78.2263 38.2133C78.3983 39.3844 78.4711 40.5843 78.4561 41.7695C78.4093 45.4299 77.7587 48.9887 76.6736 52.4676C75.1805 57.2544 72.9102 61.6054 69.7162 65.3776C65.543 70.3056 60.5184 73.9962 54.5565 76.2696C51.9894 77.2489 49.36 77.9784 46.668 78.3865C44.1044 78.7755 41.5169 78.8501 38.9135 78.6441C35.518 78.3759 32.2488 77.5647 29.0065 76.5519C26.8191 75.8687 13.0004 68.5187 6.65739 53.4521C5.04319 48.7756 4.31694 43.954 4.60373 38.9944C4.91942 33.539 6.27888 28.375 8.77518 23.5443C12.2208 16.8758 17.166 11.7471 23.4995 8.07568C27.4726 5.77236 31.7245 4.25624 36.2528 3.67584C37.9654 3.45636 39.6957 3.22326 41.4146 3.24676C46.8228 3.32102 52.0405 4.39113 56.9826 6.76867C61.1805 8.78814 64.869 11.5478 68.1371 14.9325C69.4012 16.2419 69.4273 17.9821 68.2006 19.3291C67.3982 20.2098 66.5663 21.0632 65.7163 21.8936C64.5946 22.9891 63.4178 23.0663 62.2175 22.0516C61.3 21.2761 60.5043 20.3461 59.5979 19.5546C55.7158 16.1662 51.2805 13.8906 46.2833 13.0728C39.9573 12.038 33.8374 12.8698 28.1556 16.1352C24.1566 18.4333 20.8528 21.5336 18.2928 25.5077C16.055 28.9822 14.6195 32.7607 14.0419 36.8814C13.4385 41.1849 13.8115 45.4246 15.0938 49.5621C15.4904 50.8413 15.9899 52.09 16.4989 53.3268C17.3562 55.411 25.1376 65.1169 29.6352 66.6259C32.2006 67.831 34.8672 68.6836 37.6593 69.0634C39.9392 69.3731 42.2269 69.4366 44.5217 69.1733C49.2497 68.6316 53.5495 66.9329 57.4585 64.1187C62.6714 60.3659 66.2562 55.3731 68.0771 49.0464C68.6231 47.1488 67.7529 45.8979 65.8486 45.7545C65.082 45.6967 64.307 45.7735 63.5355 45.7748C60.8448 45.7783 61.6101 45.7748 58.9194 45.7748C62.3763 45.7753 58.1083 44.6584 58.1083 45.7545Z" fill="#660099"/>
<path d="M41.884 69.3403C41.884 68.4692 42.1826 68.8185 42.1826 68.0616C42.1605 66.7088 41.3224 66.1812 40.1978 66.8005C39.6905 67.0758 39.1613 67.3735 38.6099 67.5799C38.2415 67.7237 37.8705 66.9959 38.147 66.7088C39.2495 65.6307 40.3963 64.6219 41.4769 63.5443C41.7415 63.2691 41.8738 62.8562 42.0722 62.5122C41.94 62.3975 41.8076 62.3057 41.6754 62.191C41.1902 62.6268 40.7491 63.1085 40.2199 63.4526C40.2059 63.4614 40.1916 63.4698 40.1772 63.4777C39.7517 63.7111 39.1096 63.0247 39.448 62.6727C40.661 61.4804 41.6753 59.9441 44.013 60.1271C43.7484 59.5083 43.5719 59.1184 43.3954 58.7055C43.3292 58.5679 43.2754 58.3288 43.2091 58.1912C42.5477 56.7924 41.7856 55.5411 41.1241 54.1194C41.0799 54.0277 41.0799 53.8671 41.0138 53.7983C40.3081 53.0184 40.2192 51.5999 40.286 51.0467C40.397 50.8156 40.6608 50.7604 40.7767 50.4927C40.8744 50.2664 40.8232 49.824 40.9287 49.6489C41.1258 49.322 41.4877 49.4517 41.7902 49.2272C41.8966 49.1482 41.858 48.8139 41.9841 48.7535C42.7779 48.3635 42.7779 47.813 42.6678 47.1024C42.5853 46.5665 42.5799 46.0107 42.5435 45.4536C42.5388 45.3826 42.5758 45.3155 42.6379 45.2833C42.7334 45.2335 42.8498 45.2556 42.923 45.3358C43.1067 45.537 43.2914 45.7311 43.4175 45.9556C44.454 47.9507 44.8067 50.1292 44.8949 52.3537C44.8949 52.4684 44.8949 52.5826 44.917 52.6977C45.0272 53.7753 44.6523 55.1053 46.152 55.4722C48.2027 55.9769 49.4819 55.4034 50.1876 53.5001C50.6067 52.3766 50.8713 51.161 51.0037 49.9687C51.4448 46.2996 52.6357 43.0891 55.6127 40.8189C55.7009 40.7502 55.745 40.6355 55.8553 40.475C55.4142 39.9476 54.9952 39.3513 54.4879 38.8698C54.2453 38.6633 53.7821 38.5259 53.4959 38.6174C52.6798 38.8239 52.1285 38.8009 51.533 37.9525C50.8934 37.0581 49.923 36.439 48.9526 35.8657C48.9085 35.797 48.8423 35.7281 48.8643 35.6594C49.0628 33.8707 48.534 32.3573 47.6077 30.8437C46.7255 29.3761 46.9681 27.8626 47.9826 26.3722C49.0628 24.7898 51.0641 24.2853 51.8748 23.4415C52.1885 23.2135 52.5749 22.7951 53.6992 22.7034C54.9343 22.5887 54.7636 21.5605 55.925 21.5605C56.168 21.9732 56.8698 21.7629 57.2006 22.1068C57.7075 22.6342 58.4132 23.0699 58.722 23.712C59.935 26.2574 60.1776 28.8945 58.8102 31.5088C58.1265 32.8158 58.2368 33.8477 59.4057 35.0173C60.5967 36.2097 61.8538 37.3333 63.1325 38.4111C65.9556 40.8189 67.8236 43.8239 68.3088 47.6763C68.1804 49.5761 67.6794 50.3604 66.5585 53.1882C65.4373 56.0161 62.4837 59.8329 61.4912 60.6812C56.6396 65.666 50.4364 68.5896 44.8627 69.1388C44.4657 69.1846 42.4573 69.3403 41.884 69.3403Z" fill="#F7F7F7"/>
<path d="M30.5869 63.8753C31.9601 63.8753 33.1111 63.8753 34.242 63.8753C35.8576 63.896 36.5709 64.5947 36.8739 66.4173C36.6712 66.9444 36.2299 68.8778 35.9104 68.7971C32.2408 67.8703 27.3429 67.247 20.7559 59.1794C20.2887 58.6068 19.5207 58.1146 19.5611 57.3815C19.662 55.6427 19.6419 53.8831 19.6822 52.1443C19.763 49.7774 20.4901 47.7033 22.4084 46.2371C23.1152 45.6924 23.095 43.9539 22.4084 43.3883C20.9343 42.1943 20.3486 40.6022 20.389 38.696C20.4294 36.8108 21.1565 35.91 22.9335 35.4492C24.6903 35.0093 26.5883 34.8285 27.9222 35.9032C28.067 36.02 28.7381 36.6338 28.8391 37.0947C28.9804 37.6812 28.9512 38.298 28.9512 38.9264C28.931 39.911 29.0119 40.8747 29.759 41.6287C29.8301 41.7026 29.8946 41.8048 29.9563 41.9275C30.0324 42.079 29.9497 42.2598 29.7916 42.3136C29.5157 42.4077 29.2285 42.5052 28.931 42.6133C28.9156 43.096 28.8882 43.5911 28.858 44.108C28.8418 44.385 28.6406 44.624 28.372 44.6655C28.2877 44.6783 28.2056 44.6871 28.1233 44.6871C26.3866 44.729 25.6597 45.8393 26.3261 47.5362C27.2145 49.7147 28.0627 51.9352 29.1128 54.0296C30.1225 56.041 30.5667 58.1353 30.5466 60.377C30.5869 61.5291 30.5869 62.6601 30.5869 63.8753Z" fill="#F6F6F6"/>
<path d="M56.3346 46.6519C55.8229 45.569 55.2697 42.5566 55.3205 41.0098C53.2429 42.539 52.2804 44.8593 51.8243 46.1248C51.6889 47.8473 51.6307 52.3985 52.1785 55.5109C52.8371 59.2549 55.6239 62.7877 56.9424 64.6332C57.1956 64.4749 57.0946 64.4749 57.7028 64.0532C58.4628 63.5261 61.757 60.8367 63.5306 58.3582C64.6995 56.7252 65.8446 54.8956 66.1657 54.087C65.8446 54.087 64.8685 53.9816 63.936 53.9816C62.7706 53.9816 59.2732 52.8744 56.3346 46.6519Z" fill="#660099"/>
<path fill-rule="evenodd" clip-rule="evenodd" d="M54.4374 45.0473C54.2742 44.2326 54.4061 43.1612 54.4374 42.6982L54.7638 41.4326C54.7361 41.8482 54.9557 44.2339 55.1189 45.0473C55.2808 45.8558 55.3867 46.7204 55.6549 47.6356C55.9226 48.5505 56.2212 49.4494 56.5075 50.1971C56.7955 50.9496 57.1912 51.4692 57.399 51.7678C58.4413 53.2636 64.1888 57.2935 67.9906 59.3503C64.191 57.2943 57.9812 53.489 56.8926 51.9257C56.6597 51.5923 56.2596 51.0665 55.9716 50.314C55.6818 49.5571 55.2874 48.6819 55.0175 47.7605C54.7475 46.8386 54.6015 45.8673 54.4374 45.0473Z" fill="#F7F7F7"/>
<path fill-rule="evenodd" clip-rule="evenodd" d="M53.559 48.0525C53.3958 47.2373 53.4669 46.8518 53.4977 46.3886L53.5992 45.8086C53.5714 46.2241 53.8343 47.0776 53.9971 47.891C54.1589 48.6991 54.4073 49.5566 54.675 50.4719C54.9432 51.3867 55.2418 52.2857 55.5277 53.0333C55.8157 53.7858 56.128 54.3584 56.3358 54.6566C56.682 55.0659 62.1128 61.3008 62.924 61.7225C61.0996 60.5099 56.278 55.3654 56.0318 55.0893C55.7994 54.7554 55.3812 54.0717 55.0936 53.3192C54.8034 52.5618 54.5021 51.6549 54.2322 50.7326C53.9622 49.8111 53.7236 48.8725 53.559 48.0525Z" fill="#F7F7F7"/>
<path fill-rule="evenodd" clip-rule="evenodd" d="M56.1568 59.4294C56.0262 59.1242 56.0355 58.9667 56.0205 58.7828L56.0377 58.3223C56.0514 58.4877 56.1987 59.1189 56.3293 59.4241C56.4585 59.7267 56.6539 59.9715 56.841 60.3072C57.0284 60.6429 57.2878 60.9459 57.473 61.2145C57.6596 61.4849 57.8202 61.6155 57.9388 61.7147C58.1312 61.8458 59.1179 62.7002 59.5334 62.7968C58.5815 62.4765 57.93 62.0641 57.7942 61.9772C57.6614 61.866 57.417 61.6336 57.2304 61.3632C57.043 61.091 56.8401 60.7611 56.6517 60.4228C56.4629 60.0844 56.2883 59.7369 56.1568 59.4294Z" fill="#F7F7F7"/>
<path d="M47.0799 26.1955C47.0477 26.2151 47.0238 26.2291 47.0093 26.2366C47.023 26.2248 47.0454 26.2102 47.0799 26.1955C47.7155 25.8056 51.6311 23.1581 52.8375 22.7565C54.1043 22.3346 55.2776 21.2264 56.1312 21.5436C56.8409 21.8073 57.3305 22.0182 57.3984 22.0182C56.5873 23.2838 55.0672 24.9711 52.7868 25.5511C50.8609 26.0409 48.6674 26.1959 47.9215 26.1312C47.4504 26.0903 47.1976 26.1445 47.0799 26.1955Z" fill="#660099"/>
<path fill-rule="evenodd" clip-rule="evenodd" d="M54.4409 21.7796C56.0527 21.5206 57.2436 21.5994 58.1152 21.924C58.9899 22.2496 59.5369 22.8202 59.8638 23.5305C60.1831 24.2253 60.3472 24.7074 60.3494 25.119C60.3516 25.5374 60.1871 25.8737 59.8801 26.2744C59.5585 26.6931 58.997 26.9133 58.4315 27.0472C58.0456 27.1386 57.6424 27.1927 57.2979 27.2389C57.1378 27.2604 56.9905 27.2803 56.863 27.3013C56.211 27.4092 54.6032 27.7461 53.8706 27.9032C53.0581 28.2524 51.1763 29.059 50.086 29.5194C49.3934 29.8119 48.9241 29.88 48.5395 29.8498C48.3485 29.8349 48.1809 29.7957 48.0216 29.7507C47.9603 29.7334 47.9016 29.7157 47.8434 29.6982C47.7468 29.6691 47.6515 29.6403 47.5488 29.6147C47.1866 29.5244 46.847 29.1748 46.5969 28.7223C46.3441 28.2658 46.1725 27.6876 46.1571 27.1133C46.1258 25.9526 46.9656 24.7407 48.1989 23.9644C49.4234 23.1936 51.3479 22.1692 54.4409 21.7796ZM57.9225 26.9925C55.013 27.5845 55.1705 27.6302 54.062 27.7057C52.8613 28.4614 52.5768 28.2925 51.5685 28.7236C51.0356 29.1165 50.1887 29.3108 49.4993 29.5867C48.6489 30.0602 47.2991 29.3898 47.599 29.4646C47.7045 29.4908 47.8077 29.5218 47.9074 29.5517C47.9647 29.5691 48.0212 29.5861 48.0768 29.6017C48.2316 29.6454 48.3873 29.6815 48.5633 29.6952C48.9135 29.7228 49.3546 29.6629 50.0291 29.3782C51.1225 28.9165 53.0122 28.1064 53.8203 27.7589L53.8282 27.7555L53.8366 27.7538C54.564 27.5978 56.1863 27.2578 56.8458 27.1487C56.9825 27.126 57.1356 27.1054 57.2988 27.0836C57.6389 27.0379 58.0248 26.9863 58.4024 26.8968C58.9613 26.7645 59.4694 26.5558 59.7517 26.1881C60.0477 25.8023 60.1893 25.5004 60.1875 25.1301C60.1853 24.7528 60.034 24.2955 59.7147 23.6007C59.4024 22.9215 58.8973 22.3363 58.0482 22.069C58.6234 22.0753 61.2828 24.3154 59.7791 26.2444L59.0861 26.7842L57.9225 26.9925Z" fill="#660099"/>
<path fill-rule="evenodd" clip-rule="evenodd" d="M54.4409 21.7768C56.0527 21.5176 57.2436 21.5964 58.1152 21.9211C58.9899 22.2468 59.5369 22.8174 59.8638 23.5276C60.1831 24.2223 60.3472 24.7045 60.3494 25.116C60.3516 25.5344 60.0587 27.4172 59.7517 27.8178C59.4302 28.2366 58.997 26.9104 58.4315 27.0443C58.0456 27.1357 57.6424 27.1898 57.2979 27.2361C57.1378 27.2576 56.9905 27.2774 56.863 27.2985C56.211 27.4064 54.6032 27.7431 53.8706 27.9002C53.0581 28.2496 51.1763 29.0561 50.086 29.5166C49.3934 29.8091 48.9241 29.8772 48.5395 29.8469C48.3485 29.8319 48.1809 29.7928 48.0216 29.7479C47.9603 29.7306 47.9016 29.7129 47.8434 29.6953C47.7468 29.6661 47.6515 29.6376 47.5488 29.6119C47.1866 29.5216 46.847 29.1719 46.5969 28.7195C46.3441 28.2629 46.1725 27.6847 46.1571 27.1103C46.1258 25.9498 46.9656 24.7378 48.1989 23.9614C49.4234 23.1908 51.3479 22.1664 54.4409 21.7768ZM54.4528 21.9303C51.3912 22.3158 49.4909 23.3281 48.2819 24.0893C47.0812 24.8449 46.2899 26.0086 46.319 27.0961C46.3335 27.6458 46.4985 28.2018 46.7411 28.6398C46.9855 29.0818 47.2991 29.387 47.599 29.4616C47.7045 29.488 47.8077 29.5189 47.9074 29.5489C47.9647 29.5663 48.0212 29.5833 48.0768 29.5989C48.2316 29.6425 48.3873 29.6785 48.5633 29.6924C48.9135 29.7198 49.3546 29.6601 50.0291 29.3753C51.1225 28.9137 53.0122 28.1034 53.8203 27.7561L53.8282 27.7526L53.8366 27.7508C54.564 27.5949 56.1863 27.255 56.8458 27.1457C56.9825 27.1231 57.1356 27.1026 57.2988 27.0806C57.6389 27.0351 58.0248 26.9835 58.4024 26.8939C58.9613 26.7616 59.4694 26.553 59.7517 26.1853C60.0477 25.7993 60.1893 25.4975 60.1875 25.1272C60.1853 24.7498 60.034 24.2925 59.7147 23.5979C59.4024 22.9187 58.8823 22.3767 58.0482 22.0661C57.2114 21.7545 56.0518 21.6732 54.4559 21.9298L54.4546 21.93L54.4528 21.9303Z" fill="#F7F7F7"/>
<path fill-rule="evenodd" clip-rule="evenodd" d="M47.9654 24.6863C48.013 24.3498 48.1789 24.0439 48.3456 23.8799L48.4581 23.984C48.3209 24.1194 48.3297 24.3164 48.2865 24.6223C48.2437 24.9248 48.3734 25.2011 48.6548 25.4617C49.0218 25.8014 49.4929 26.2352 50.2211 26.5144C50.9485 26.793 51.694 27.0397 52.2669 27.0764C52.8201 27.1118 53.3582 27.1776 53.9189 27.199C54.0305 27.2032 54.1672 27.227 54.2761 27.2313C54.9307 27.2569 55.5619 27.3708 55.9872 27.4211C55.5694 27.3717 54.9391 27.3491 54.2832 27.3233C54.1747 27.319 54.064 27.3149 53.9524 27.3106C53.3922 27.2893 52.8007 27.2667 52.2458 27.2311C51.6499 27.1931 50.8585 26.9879 50.1232 26.7063C49.3892 26.4248 48.6989 26.0625 48.3116 25.7035C47.9892 25.4048 47.9168 25.0261 47.9654 24.6863Z" fill="#F7F7F7"/>
<path fill-rule="evenodd" clip-rule="evenodd" d="M52.7335 26.325C53.8062 26.3197 55.0757 26.0081 56.0752 26.0317C56.9001 26.0512 57.8211 25.6061 58.5613 25.3407C59.3217 24.8933 59.6459 24.2916 59.9856 24.0752L60.2935 25.2082C59.9423 25.4317 59.3138 25.762 58.5613 26.0317C57.8092 26.3013 56.9283 26.5122 56.0752 26.492C55.0784 26.4685 53.7961 26.4749 52.7229 26.4801C52.6686 26.4803 52.6157 26.4806 52.5628 26.4809C52.0114 26.4836 51.5602 26.4034 51.2091 26.4001C51.0335 26.3985 50.9303 26.3516 50.8306 26.3467C50.7812 26.3443 50.7644 26.3519 50.7349 26.3482C50.7203 26.3463 50.6348 26.3122 50.622 26.3086C50.6158 26.3071 50.5399 26.3165 50.5307 26.3118C50.5249 26.3086 50.5404 26.3399 50.5307 26.3118L50.5205 26.3119C50.562 26.3125 50.6568 26.3115 50.6542 26.31C50.6506 26.3081 50.6475 26.3071 50.6467 26.3068C50.6484 26.3073 50.6546 26.3085 50.6661 26.31C50.689 26.3129 50.7247 26.3157 50.7733 26.3181C50.8699 26.3227 51.0097 26.3256 51.1848 26.3273C51.5346 26.3305 52.0207 26.3286 52.5729 26.3258C52.6259 26.3256 52.6792 26.3253 52.7335 26.325Z" fill="#F7F7F7"/>
<path fill-rule="evenodd" clip-rule="evenodd" d="M46.6053 27.9746C46.4632 27.7051 46.2316 27.1583 46.2506 26.9726L46.3009 26.5508C46.2859 26.6991 46.8906 27.3257 47.0106 27.5526C47.1284 27.7759 47.3428 27.9291 47.7199 28.0272C48.5174 28.2347 51.508 28.2588 51.9262 28.2414L50.5579 28.5515C50.1318 28.5692 48.322 28.766 47.4976 28.5515C47.064 28.4387 46.749 28.2479 46.6053 27.9746Z" fill="#F7F7F7"/>
<path d="M58.7144 46.4305C58.7144 41.21 64.7116 42.9326 64.8466 41.9482C70.3197 46.1138 67.0543 51.4709 66.7217 52.3363C66.2149 53.6543 60.2596 59.4548 58.942 60.9316C57.8878 62.1124 58.4105 62.2496 56.8398 62.988L45.7413 65.0444C45.302 63.8141 44.4077 59.6762 45.4617 60.1402C46.7797 60.7203 53.3428 59.1385 53.951 58.7168C54.5593 58.2947 58.7149 50.227 59.171 50.0687C59.6271 49.9103 58.7144 47.3268 58.7144 46.4305Z" fill="#F6F6F6"/>
</g>
</g>
<path d="M84.9517 55.85C84.9517 49.43 89.9017 45.5 95.9617 45.5C100.612 45.5 103.372 47.84 104.752 50.42L99.6517 53.03C98.9917 51.8 97.6717 50.84 95.9617 50.84C93.0517 50.84 91.1017 53.06 91.1017 55.85C91.1017 58.64 93.0517 60.86 95.9617 60.86C97.2517 60.86 98.4517 60.53 99.2317 59.96V59.09H95.3617V54.11H105.112V62.15C102.892 64.61 99.8917 66.2 95.9617 66.2C89.9017 66.2 84.9517 62.24 84.9517 55.85Z" fill="white"/>
<path d="M107.886 57.62V45.83H114.036V57.41C114.036 59.33 115.026 60.86 117.516 60.86C119.976 60.86 120.966 59.33 120.966 57.41V45.83H127.116V57.59C127.116 62.57 124.266 66.2 117.516 66.2C110.766 66.2 107.886 62.57 107.886 57.62Z" fill="white"/>
<path d="M148.353 65.84H141.453L138.693 59.42H136.503V65.84H130.443V45.83H141.123C145.803 45.83 148.323 48.95 148.323 52.7C148.323 56.15 146.313 57.98 144.723 58.76L148.353 65.84ZM142.173 52.61C142.173 51.53 141.213 50.87 140.193 50.87H136.503V54.38H140.193C141.213 54.38 142.173 53.72 142.173 52.61Z" fill="white"/>
<path d="M150.862 57.62V45.83H157.012V57.41C157.012 59.33 158.002 60.86 160.492 60.86C162.952 60.86 163.942 59.33 163.942 57.41V45.83H170.092V57.59C170.092 62.57 167.242 66.2 160.492 66.2C153.742 66.2 150.862 62.57 150.862 57.62Z" fill="white"/>
<path d="M183.199 66.2C177.079 66.2 172.339 62 172.339 55.85C172.339 49.67 177.079 45.5 183.199 45.5C188.599 45.5 191.239 48.56 192.439 51.32L187.219 53.75C186.709 52.19 185.149 50.84 183.199 50.84C180.439 50.84 178.489 53.06 178.489 55.85C178.489 58.64 180.439 60.86 183.199 60.86C185.149 60.86 186.709 59.51 187.219 57.95L192.439 60.35C191.269 63.02 188.599 66.2 183.199 66.2Z" fill="white"/>
<path d="M193.344 55.85C193.344 49.7 198.114 45.5 204.294 45.5C210.474 45.5 215.244 49.7 215.244 55.85C215.244 62 210.474 66.2 204.294 66.2C198.114 66.2 193.344 62 193.344 55.85ZM209.094 55.85C209.094 53.06 207.204 50.84 204.294 50.84C201.384 50.84 199.494 53.06 199.494 55.85C199.494 58.64 201.384 60.86 204.294 60.86C207.204 60.86 209.094 58.64 209.094 55.85Z" fill="white"/>
<path d="M216.4 55.85C216.4 49.7 221.17 45.5 227.35 45.5C233.53 45.5 238.3 49.7 238.3 55.85C238.3 62 233.53 66.2 227.35 66.2C221.17 66.2 216.4 62 216.4 55.85ZM232.15 55.85C232.15 53.06 230.26 50.84 227.35 50.84C224.44 50.84 222.55 53.06 222.55 55.85C222.55 58.64 224.44 60.86 227.35 60.86C230.26 60.86 232.15 58.64 232.15 55.85Z" fill="white"/>
<path d="M254.185 65.84H240.535V45.83H246.595V60.56H254.185V65.84Z" fill="white"/>
<defs>
<clipPath id="clip0_796_33645">
<rect width="82" height="82" fill="white" transform="translate(0.5)"/>
</clipPath>
</defs>
</svg>
