<svg width="50" height="51" viewBox="0 0 50 51" fill="none" xmlns="http://www.w3.org/2000/svg">
<path d="M35.6556 41.4581V9.76852C36.482 9.90186 37.1695 10.2831 37.7181 10.9123C38.2667 11.5414 38.541 12.2817 38.541 13.1331V38.0914C38.541 38.9442 38.2667 39.6852 37.7181 40.3144C37.1695 40.9435 36.482 41.3234 35.6556 41.4581ZM11.9389 44.8623C11.007 44.8623 10.2132 44.5345 9.55768 43.8789C8.90074 43.2234 8.57227 42.4289 8.57227 41.4956V9.76852C8.57227 8.83519 8.90074 8.04074 9.55768 7.38519C10.2132 6.72963 11.007 6.40186 11.9389 6.40186H30.2077C31.1396 6.40186 31.9334 6.72963 32.5889 7.38519C33.2445 8.04074 33.5723 8.83519 33.5723 9.76852V41.4977C33.5723 42.431 33.2445 43.2255 32.5889 43.881C31.9334 44.5366 31.1396 44.8644 30.2077 44.8644L11.9389 44.8623ZM40.6244 38.0914V13.1331C41.1716 13.2664 41.616 13.5435 41.9577 13.9644C42.298 14.3852 42.4681 14.8824 42.4681 15.456V35.7685C42.4681 36.3435 42.2973 36.8414 41.9556 37.2623C41.6153 37.6831 41.1716 37.9602 40.6244 38.0935M11.9368 42.7789H30.2077C30.5271 42.7789 30.8209 42.6449 31.0889 42.3769C31.3556 42.1102 31.4889 41.8164 31.4889 41.4956V9.76852C31.4889 9.44769 31.3556 9.15394 31.0889 8.88727C30.8223 8.61922 30.5285 8.48519 30.2077 8.48519H11.9368C11.6174 8.48519 11.3243 8.61922 11.0577 8.88727C10.7896 9.15394 10.6556 9.44769 10.6556 9.76852V41.4977C10.6556 41.8185 10.7896 42.1123 11.0577 42.3789C11.3243 42.647 11.6181 42.781 11.9389 42.781" fill="#FEFEFE"/>
</svg>
