<svg width="16" height="16" viewBox="0 0 16 16" fill="none" xmlns="http://www.w3.org/2000/svg">
<path d="M7.25088 10.36L5.76865 11.84C5.45618 12.152 4.95944 12.152 4.63896 11.848C4.55083 11.76 4.46269 11.68 4.37456 11.592C3.56436 10.7776 2.81711 9.90311 2.13921 8.976C1.48222 8.064 0.95343 7.152 0.568853 6.248C0.192288 5.336 0 4.464 0 3.632C0 3.088 0.0961441 2.568 0.288433 2.088C0.480721 1.6 0.785178 1.152 1.20981 0.752C1.72258 0.248 2.28343 0 2.87631 0C3.10065 0 3.32499 0.0480001 3.52529 0.144C3.7336 0.24 3.91788 0.384 4.06209 0.592L5.92088 3.208C6.0651 3.408 6.16925 3.592 6.24136 3.768C6.31347 3.936 6.35353 4.104 6.35353 4.256C6.35353 4.448 6.29745 4.64 6.18528 4.824C6.08112 5.008 5.92889 5.2 5.7366 5.392L5.12769 6.024C5.03956 6.112 4.9995 6.216 4.9995 6.344C4.9995 6.408 5.00751 6.464 5.02354 6.528C5.04757 6.592 5.07161 6.64 5.08763 6.688C5.23185 6.952 5.48022 7.296 5.83275 7.712C6.19329 8.128 6.57787 8.552 6.99449 8.976C7.07461 9.056 7.16274 9.136 7.24286 9.216C7.56334 9.528 7.57136 10.04 7.25088 10.36ZM16 13.064C15.9989 13.3659 15.9305 13.6638 15.7997 13.936C15.6635 14.224 15.4872 14.496 15.2549 14.752C14.8623 15.184 14.4296 15.496 13.9409 15.696C13.9329 15.696 13.9249 15.704 13.9169 15.704C13.4442 15.896 12.9314 16 12.3786 16C11.5613 16 10.688 15.808 9.76665 15.416C8.84527 15.024 7.92389 14.496 7.01052 13.832C6.69805 13.6 4.9354 12.096 4.63896 11.848L7.3833 9.39779C7.60763 9.56579 9.1337 10.8 9.30195 10.888C9.34201 10.904 9.39009 10.928 9.44617 10.952C9.51027 10.976 9.57436 10.984 9.64647 10.984C9.78267 10.984 9.88683 10.936 9.97496 10.848L10.5839 10.248C10.7842 10.048 10.9765 9.896 11.1607 9.8C11.345 9.688 11.5293 9.632 11.7296 9.632C11.8818 9.632 12.0421 9.664 12.2183 9.736C12.3946 9.808 12.5789 9.912 12.7792 10.048L15.4311 11.928C15.6395 12.072 15.7837 12.24 15.8718 12.44C15.9519 12.64 16 12.84 16 13.064Z" fill="#7F7F7F"/>
</svg>
